<svg width="1164" height="660" viewBox="0 0 1164 660" fill="none" xmlns="http://www.w3.org/2000/svg">
<mask id="mask0_3092_14225" style="mask-type:alpha" maskUnits="userSpaceOnUse" x="0" y="0" width="1164" height="660">
<rect width="1164" height="659.323" transform="matrix(-1 0 0 1 1164 0.00012207)" fill="url(#paint0_linear_3092_14225)"/>
</mask>
<g mask="url(#mask0_3092_14225)">
<mask id="mask1_3092_14225" style="mask-type:alpha" maskUnits="userSpaceOnUse" x="-17" y="0" width="1198" height="660">
<rect x="-16.6286" y="0.00012207" width="1197.26" height="659.323" fill="url(#paint1_linear_3092_14225)"/>
</mask>
<g mask="url(#mask1_3092_14225)">
<path d="M-244.102 401.043C-12.9166 445.851 212.929 508.972 453.151 532.489C714.692 558.086 958.14 521.532 1174.34 422.885C1180.12 516.699 1174.82 609.222 1174.46 703.037C977.006 697.558 779.534 697.678 582.799 710.884C359.387 725.883 139.484 756.026 -78.4197 790.021C-35.6691 704.855 24.1741 583.421 -99.4176 513.207C-156.695 480.659 -257.232 461.329 -244.102 401.055V401.043Z" stroke="white" stroke-width="0.41068" stroke-miterlimit="10"/>
<path d="M-39.0633 700.166C171.897 677.164 384.141 661.518 598.082 656.207C790.214 651.435 982.573 653.54 1174.8 653.061" stroke="white" stroke-width="0.41068" stroke-miterlimit="10"/>
<path d="M-33.5964 681.147C176.402 660.764 387.381 648.576 599.757 645.454C791.455 642.631 983.248 645.071 1174.96 642.954" stroke="white" stroke-width="0.41068" stroke-miterlimit="10"/>
<path d="M-29.7084 663.396C371.951 629.234 771.647 641.746 1175.14 633.672" stroke="white" stroke-width="0.41068" stroke-miterlimit="10"/>
<path d="M-27.3128 646.841C373.629 617.523 773.515 636.925 1175.36 625.167" stroke="white" stroke-width="0.41068" stroke-miterlimit="10"/>
<path d="M-26.3129 631.447C374.403 606.89 774.722 632.978 1175.61 617.404" stroke="white" stroke-width="0.41068" stroke-miterlimit="10"/>
<path d="M-26.6506 617.153C374.348 597.284 775.233 629.82 1175.87 610.335" stroke="white" stroke-width="0.41068" stroke-miterlimit="10"/>
<path d="M-28.256 603.887C373.497 588.636 775.081 627.404 1176.12 603.887" stroke="white" stroke-width="0.41068" stroke-miterlimit="10"/>
<path d="M-31.0094 591.603C371.932 580.897 774.346 625.693 1176.4 597.99" stroke="white" stroke-width="0.41068" stroke-miterlimit="10"/>
<path d="M-34.8375 580.251C369.727 574.007 773.065 624.676 1176.69 592.631" stroke="white" stroke-width="0.41068" stroke-miterlimit="10"/>
<path d="M-39.6872 569.773C366.896 567.943 771.234 624.234 1176.97 587.739" stroke="white" stroke-width="0.41068" stroke-miterlimit="10"/>
<path d="M-45.4236 560.096C363.537 562.62 768.969 624.33 1177.29 583.242" stroke="white" stroke-width="0.41068" stroke-miterlimit="10"/>
<path d="M-52.0084 551.185C359.65 557.991 766.289 624.964 1177.57 579.115" stroke="white" stroke-width="0.41068" stroke-miterlimit="10"/>
<path d="M-59.3436 542.979C355.276 554.031 763.274 626.028 1177.86 575.299" stroke="white" stroke-width="0.41068" stroke-miterlimit="10"/>
<path d="M-67.3458 535.407C350.481 550.623 759.951 627.512 1178.14 571.735" stroke="white" stroke-width="0.41068" stroke-miterlimit="10"/>
<path d="M-75.9488 528.434C345.293 547.775 756.385 629.294 1178.38 568.361" stroke="white" stroke-width="0.41068" stroke-miterlimit="10"/>
<path d="M-85.0241 521.986C131.842 533.924 344.425 562.213 559.932 580.287C768.251 597.763 973.609 597.033 1178.66 565.132" stroke="white" stroke-width="0.41068" stroke-miterlimit="10"/>
<path d="M-94.5304 516.018C123.637 529.965 337.22 560.551 554.142 579.546C764.801 597.99 972.196 596.447 1178.87 561.998" stroke="white" stroke-width="0.41068" stroke-miterlimit="10"/>
<path d="M-104.379 510.467C115.109 526.364 329.748 559.223 548.199 579.043C761.253 598.385 970.78 595.969 1179.1 558.912" stroke="white" stroke-width="0.41068" stroke-miterlimit="10"/>
<path d="M-114.473 505.288C106.355 523.099 322.088 558.11 542.105 578.708C757.669 598.899 969.346 595.502 1179.29 555.802" stroke="white" stroke-width="0.41068" stroke-miterlimit="10"/>
<path d="M-124.735 500.408C97.4325 520.085 314.298 557.142 535.918 578.481C754.123 599.497 967.857 595.06 1179.46 552.632" stroke="white" stroke-width="0.41068" stroke-miterlimit="10"/>
<path d="M-135.093 495.791C88.4139 517.274 306.411 556.388 529.673 578.349C750.198 600.048 966.687 594.462 1179.61 549.343" stroke="white" stroke-width="0.41068" stroke-miterlimit="10"/>
<path d="M-145.451 491.353C79.3576 514.618 298.487 555.658 523.39 578.206C746.557 600.574 965.29 593.744 1179.68 545.862" stroke="white" stroke-width="0.41068" stroke-miterlimit="10"/>
<path d="M-155.732 487.058C70.3401 512.034 290.602 554.916 517.146 578.002C743.124 601.028 963.97 592.846 1179.76 542.165" stroke="white" stroke-width="0.41068" stroke-miterlimit="10"/>
<path d="M-165.846 482.848C61.434 509.511 282.79 554.175 510.975 577.715C739.67 601.304 962.686 591.687 1179.8 538.182" stroke="white" stroke-width="0.41068" stroke-miterlimit="10"/>
<path d="M-175.713 478.662C52.7175 506.939 275.111 553.386 504.881 577.285C736.274 601.352 961.459 590.227 1179.78 533.852" stroke="white" stroke-width="0.41068" stroke-miterlimit="10"/>
<path d="M-185.258 474.451C44.2484 504.307 267.642 552.381 498.94 576.615C732.974 601.136 960.386 588.397 1179.72 529.152" stroke="white" stroke-width="0.41068" stroke-miterlimit="10"/>
<path d="M-194.388 470.157C36.0802 501.544 260.398 551.208 493.187 575.706C729.899 600.622 959.311 586.136 1179.63 524.008" stroke="white" stroke-width="0.41068" stroke-miterlimit="10"/>
<path d="M-203.029 465.707C28.3069 498.566 253.474 549.785 487.658 574.486C726.861 599.713 958.461 583.397 1179.48 518.362" stroke="white" stroke-width="0.41068" stroke-miterlimit="10"/>
<path d="M-211.108 461.066C20.9828 495.348 246.885 548.039 482.353 572.871C724.159 598.373 957.552 580.108 1179.23 512.154" stroke="white" stroke-width="0.41068" stroke-miterlimit="10"/>
<path d="M-218.503 456.162C14.2103 491.819 240.735 545.886 477.392 570.814C721.896 596.567 956.722 576.304 1178.98 505.36" stroke="white" stroke-width="0.41068" stroke-miterlimit="10"/>
<path d="M-225.179 450.959C8.00561 487.944 235.04 543.35 472.734 568.302C719.747 594.234 956.064 571.794 1178.63 497.908" stroke="white" stroke-width="0.41068" stroke-miterlimit="10"/>
<path d="M-231.009 445.385C2.47791 483.638 229.89 540.348 468.489 565.252C717.899 591.28 955.668 566.567 1178.25 489.738" stroke="white" stroke-width="0.41068" stroke-miterlimit="10"/>
<path d="M-235.953 439.38C-2.33458 478.853 225.285 536.783 464.639 561.603C716.369 587.703 955.308 560.574 1177.78 480.827" stroke="white" stroke-width="0.41068" stroke-miterlimit="10"/>
<path d="M-239.896 432.896C-6.33398 473.542 221.342 532.632 461.262 557.297C715.218 583.397 955.138 553.744 1177.25 471.078" stroke="white" stroke-width="0.41068" stroke-miterlimit="10"/>
<path d="M-242.761 425.875C-9.4441 467.633 218.062 527.8 458.397 552.273C714.41 578.337 955.198 546.053 1176.65 460.468" stroke="white" stroke-width="0.41068" stroke-miterlimit="10"/>
<path d="M-244.481 418.268C-11.6361 461.09 215.53 522.309 456.054 546.508C714.048 572.464 955.402 537.393 1175.97 448.925" stroke="white" stroke-width="0.41068" stroke-miterlimit="10"/>
<path d="M-244.952 410.002C-12.8049 453.853 213.815 516.041 454.301 539.929C714.143 565.73 955.799 527.728 1175.21 436.413" stroke="white" stroke-width="0.41068" stroke-miterlimit="10"/>
<path d="M1136.75 438.937C1142.71 527.357 1144.95 613.624 1143.07 702.163" stroke="white" stroke-width="0.41068" stroke-miterlimit="10"/>
<path d="M1099.49 453.662C1105.73 537.608 1115.37 617.117 1112.15 701.41" stroke="white" stroke-width="0.41068" stroke-miterlimit="10"/>
<path d="M1062.55 467.083C1065.6 504.092 1070.47 539.39 1080.85 575.622C1092.47 616.172 1083.88 660.011 1081.64 700.764" stroke="white" stroke-width="0.41068" stroke-miterlimit="10"/>
<path d="M1025.91 479.236C1029.12 514.487 1033.57 546.101 1048.87 579.486C1066.15 617.201 1054.3 661.913 1051.53 700.238" stroke="white" stroke-width="0.41068" stroke-miterlimit="10"/>
<path d="M989.552 490.169C993.023 524.307 997.532 552.034 1017.23 582.775C1039.55 617.619 1024.94 663.815 1021.76 699.831" stroke="white" stroke-width="0.41068" stroke-miterlimit="10"/>
<path d="M953.5 499.905C957.273 533.541 960.612 557.751 985.893 585.538C1014.06 616.507 995.835 666.434 992.345 699.52" stroke="white" stroke-width="0.41068" stroke-miterlimit="10"/>
<path d="M917.691 508.518C920.068 527.824 917.861 557.548 935.18 575.287C940.821 581.076 948.801 583.014 954.801 587.835C988.326 614.76 966.875 669.066 963.196 699.376" stroke="white" stroke-width="0.41068" stroke-miterlimit="10"/>
<path d="M882.145 516.006C884.541 533.41 882.277 565.67 902.992 580.682C909.218 585.204 917.971 585.885 923.952 589.665C961.76 613.6 938.29 670.358 934.347 699.329" stroke="white" stroke-width="0.41068" stroke-miterlimit="10"/>
<path d="M846.85 522.441C849.283 538.697 847.435 570.622 869.678 583.768C876.998 588.098 886.412 587.548 893.374 590.993C935.596 611.901 909.938 671.65 905.712 699.424" stroke="white" stroke-width="0.41068" stroke-miterlimit="10"/>
<path d="M811.755 527.848C814.188 543.314 812.886 572.919 834.62 585.012C844.091 590.275 852.958 588.672 863.051 591.794C910.858 606.579 881.238 676.171 877.258 699.652" stroke="white" stroke-width="0.41068" stroke-miterlimit="10"/>
<path d="M776.877 532.261C779.462 547.476 778.575 575.79 801.535 586.842C812.006 591.878 821.967 589.497 832.89 592.225C884.602 605.131 853.36 676.398 849.002 700.01" stroke="white" stroke-width="0.41068" stroke-miterlimit="10"/>
<path d="M742.199 535.73C744.991 551.041 744.501 577.751 768.612 588.014C779.988 592.859 791.176 589.833 802.872 592.261C858.433 603.816 825.682 676.303 820.871 700.513" stroke="white" stroke-width="0.41068" stroke-miterlimit="10"/>
<path d="M707.69 538.29C710.727 553.924 710.633 578.912 735.857 588.565C748.082 593.242 760.533 589.677 773.023 591.914C832.357 602.584 798.209 675.992 792.87 701.147" stroke="white" stroke-width="0.41068" stroke-miterlimit="10"/>
<path d="M673.336 539.976C676.657 556.065 676.94 579.342 703.22 588.516C716.275 593.074 730.01 589.067 743.254 591.208C806.248 601.399 770.855 675.561 764.893 701.948" stroke="white" stroke-width="0.41068" stroke-miterlimit="10"/>
<path d="M639.154 540.838C642.795 558.123 644.361 580.395 673.283 588.278C686.244 591.818 700.186 588.84 713.524 590.251C780.235 597.273 743.125 677.403 736.975 702.882" stroke="white" stroke-width="0.41068" stroke-miterlimit="10"/>
<path d="M605.097 540.91C608.983 558.493 611.115 579.964 641.037 587.105C654.922 590.418 669.713 587.584 683.938 588.899C754.271 595.383 715.728 677.702 709.087 703.982" stroke="white" stroke-width="0.41068" stroke-miterlimit="10"/>
<path d="M571.158 540.228C575.29 558.745 578.384 580.12 611.362 586.053C625.379 588.577 640.34 585.814 654.49 587.129C728.897 594.091 688.807 676.674 681.166 705.226" stroke="white" stroke-width="0.41068" stroke-miterlimit="10"/>
<path d="M537.35 538.84C541.784 558.11 545.557 578.122 579.422 583.899C594.232 586.423 610.06 583.684 625.002 585.191C702.674 593.038 661.659 676.279 653.207 706.625" stroke="white" stroke-width="0.41068" stroke-miterlimit="10"/>
<path d="M503.617 536.771C508.353 556.782 512.843 575.574 547.5 581.328C563.065 583.911 579.761 581.471 595.495 583.002C676.563 590.909 634.171 676.996 625.134 708.204" stroke="white" stroke-width="0.41068" stroke-miterlimit="10"/>
<path d="M469.96 534.08C480.619 579.498 508.239 574.187 565.894 580.67C649.565 590.084 606.626 677.929 596.947 709.939" stroke="white" stroke-width="0.41068" stroke-miterlimit="10"/>
<path d="M436.362 530.79C447.36 576.95 478.207 570.61 536.333 578.038C623.023 589.115 579.291 677.678 568.632 711.852" stroke="white" stroke-width="0.41068" stroke-miterlimit="10"/>
<path d="M402.813 526.938C413.756 573.959 448.017 567.046 506.766 575.096C596.53 587.404 551.78 677.882 540.102 713.91" stroke="white" stroke-width="0.41068" stroke-miterlimit="10"/>
<path d="M369.33 522.585C380.103 570.216 417.797 562.62 476.999 572.189C569.537 587.141 524.466 677.224 511.392 716.171" stroke="white" stroke-width="0.41068" stroke-miterlimit="10"/>
<path d="M335.84 517.752C346.707 566.077 387.533 558.254 447.169 569.043C542.405 586.268 496.674 677.272 482.43 718.599" stroke="white" stroke-width="0.41068" stroke-miterlimit="10"/>
<path d="M302.352 512.477C312.823 561.161 357.611 554.271 417.247 565.658C515.388 584.414 468.43 678.181 453.149 721.182" stroke="white" stroke-width="0.41068" stroke-miterlimit="10"/>
<path d="M268.867 506.819C279.281 556.244 327.031 549.534 387.139 562.285C487.789 583.636 440.152 678.515 423.607 723.993" stroke="white" stroke-width="0.41068" stroke-miterlimit="10"/>
<path d="M235.362 500.791C245.267 550.73 296.904 544.785 356.766 558.9C459.982 583.218 411.911 678.312 393.705 726.972" stroke="white" stroke-width="0.41068" stroke-miterlimit="10"/>
<path d="M201.818 494.451C211.251 545.563 265.302 539.821 326.315 555.276C431.55 581.938 382.536 680.394 363.443 730.13" stroke="white" stroke-width="0.41068" stroke-miterlimit="10"/>
<path d="M168.233 487.836C177.062 539.737 234.736 534.606 295.522 551.783C402.795 582.081 353.8 680.094 332.764 733.491" stroke="white" stroke-width="0.41068" stroke-miterlimit="10"/>
<path d="M134.577 480.97C143.01 533.721 203.343 529.475 264.545 548.182C373.817 581.579 324.2 680.968 301.673 737.044" stroke="white" stroke-width="0.41068" stroke-miterlimit="10"/>
<path d="M100.824 473.913C108.484 527.489 171.572 524.678 233.339 544.498C344.781 580.263 293.73 683.276 270.09 740.799" stroke="white" stroke-width="0.41068" stroke-miterlimit="10"/>
<path d="M66.9997 466.7C73.7915 521.054 140.049 519.403 201.722 540.993C314.768 580.574 263.641 683.791 238.002 744.759" stroke="white" stroke-width="0.41068" stroke-miterlimit="10"/>
<path d="M33.0605 459.356C30.7777 513.398 113.015 516.472 169.896 537.381C284.885 579.653 232.475 685.872 205.402 748.909" stroke="white" stroke-width="0.41068" stroke-miterlimit="10"/>
<path d="M-1.01331 451.94C4.11827 508.123 75.4887 509.535 137.671 533.924C254.188 579.617 201.024 687.463 172.234 753.299" stroke="white" stroke-width="0.41068" stroke-miterlimit="10"/>
<path d="M-35.2156 444.475C-39.234 500.276 47.7575 506.46 105.035 530.599C222.872 580.263 169.406 688.575 138.466 757.881" stroke="white" stroke-width="0.41068" stroke-miterlimit="10"/>
<path d="M-69.5706 437.012C-74.5136 493.422 14.4212 501.82 72.1137 527.25C191.404 579.845 136.749 690.968 104.073 762.677" stroke="white" stroke-width="0.41068" stroke-miterlimit="10"/>
<path d="M-104.075 429.595C-110.056 486.999 -19.2155 496.951 38.6845 524.175C158.824 580.67 103.848 692.846 69.0212 767.701" stroke="white" stroke-width="0.41068" stroke-miterlimit="10"/>
<path d="M-138.793 422.239C-145.906 480.492 -53.3675 492.489 4.89092 521.101C126.313 580.73 69.8468 695.836 33.2655 772.94" stroke="white" stroke-width="0.41068" stroke-miterlimit="10"/>
<path d="M-173.675 415.002C-182.07 474.2 -87.7397 488.087 -29.3869 518.266C92.9031 581.519 35.3615 698.539 -3.20075 778.395" stroke="white" stroke-width="0.41068" stroke-miterlimit="10"/>
<path d="M-208.786 407.921C-220.558 467.262 -121.417 484.762 -64.1959 515.683C58.8676 582.189 0.0996943 701.805 -40.4058 784.088" stroke="white" stroke-width="0.41068" stroke-miterlimit="10"/>
<path d="M1008.89 192.457C882.533 119.91 761.112 46.1671 611.677 -1.79877C388.955 -73.2811 154.609 -69.1424 -60.6712 15.0551C-64.6684 88.1164 -58.2294 157.912 -57.8949 230.938C125.14 223.438 295.497 176.548 473.582 150.221C727.579 112.685 979.938 132.494 1228.85 180.412C1207.19 114.97 1031.73 135.676 1008.91 192.457H1008.89Z" stroke="white" stroke-width="0.41068" stroke-miterlimit="10"/>
<path d="M1228.08 175.663C981.83 127.434 731.779 106.179 479.27 139.671C299.112 163.57 126.028 208.043 -57.9098 217.026" stroke="white" stroke-width="0.41068" stroke-miterlimit="10"/>
<path d="M1226.66 171.237C983.098 122.793 735.372 100.186 484.619 129.922C302.487 151.513 126.845 193.797 -57.9794 204.395" stroke="white" stroke-width="0.41068" stroke-miterlimit="10"/>
<path d="M1224.64 167.147C983.803 118.583 738.469 94.7076 489.639 120.939C305.635 140.329 127.617 180.628 -58.0768 192.972" stroke="white" stroke-width="0.41068" stroke-miterlimit="10"/>
<path d="M1222.03 163.379C983.921 114.791 741.112 89.7433 494.357 112.698C308.596 129.982 128.287 168.474 -58.2265 182.685" stroke="white" stroke-width="0.41068" stroke-miterlimit="10"/>
<path d="M1218.87 159.922C983.551 111.382 743.268 85.2339 498.77 105.15C311.32 120.425 128.92 157.314 -58.4127 173.486" stroke="white" stroke-width="0.41068" stroke-miterlimit="10"/>
<path d="M1215.19 156.764C982.699 108.344 744.991 81.167 502.918 98.2482C313.846 111.597 129.49 147.063 -58.6128 165.281" stroke="white" stroke-width="0.41068" stroke-miterlimit="10"/>
<path d="M1211.01 153.917C981.377 105.688 746.329 77.5423 506.781 91.9919C316.153 103.487 129.974 137.697 -58.8808 158.056" stroke="white" stroke-width="0.41068" stroke-miterlimit="10"/>
<path d="M1206.39 151.358C979.655 103.38 747.316 74.3251 510.427 86.3105C318.294 96.0233 130.409 129.121 -59.1314 151.692" stroke="white" stroke-width="0.41068" stroke-miterlimit="10"/>
<path d="M1201.34 149.085C977.547 101.442 747.951 71.4899 513.822 81.1668C320.234 89.1691 130.76 121.298 -59.4325 146.154" stroke="white" stroke-width="0.41068" stroke-miterlimit="10"/>
<path d="M1195.9 147.099C975.056 99.8269 748.319 69.0378 517.05 76.5616C322.057 82.9012 131.062 114.181 -59.7335 141.369" stroke="white" stroke-width="0.41068" stroke-miterlimit="10"/>
<path d="M1190.1 145.4C972.227 98.5469 748.418 66.9444 520.059 72.4467C323.695 77.1716 131.278 107.721 -60.0694 137.29" stroke="white" stroke-width="0.41068" stroke-miterlimit="10"/>
<path d="M1183.98 143.953C969.084 97.5423 748.301 65.1623 522.92 68.7628C325.2 71.9206 131.462 101.837 -60.4036 133.822" stroke="white" stroke-width="0.41068" stroke-miterlimit="10"/>
<path d="M1177.56 142.781C965.659 96.8607 747.987 63.7272 525.633 65.5214C326.592 67.1362 131.6 96.4899 -60.7341 130.915" stroke="white" stroke-width="0.41068" stroke-miterlimit="10"/>
<path d="M1170.87 141.872C961.993 96.4658 747.466 62.5547 528.189 62.6385C327.844 62.7222 131.664 91.6213 -61.1048 128.511" stroke="white" stroke-width="0.41068" stroke-miterlimit="10"/>
<path d="M1163.96 141.214C958.112 96.322 746.779 61.6454 530.63 60.1024C328.997 58.667 131.679 87.1953 -61.4738 126.549" stroke="white" stroke-width="0.41068" stroke-miterlimit="10"/>
<path d="M1156.85 140.795C954.051 96.4419 745.98 60.9758 532.991 57.8778C330.104 54.9113 131.683 83.1287 -61.8218 124.946" stroke="white" stroke-width="0.41068" stroke-miterlimit="10"/>
<path d="M1149.57 140.616C949.799 96.8008 745.072 60.5094 535.261 55.8922C331.119 51.4067 131.644 79.3728 -62.1612 123.631" stroke="white" stroke-width="0.41068" stroke-miterlimit="10"/>
<path d="M1142.17 140.676C945.437 97.3868 744.088 60.2461 537.472 54.1696C332.093 48.117 131.597 75.8679 -62.5091 122.566" stroke="white" stroke-width="0.41068" stroke-miterlimit="10"/>
<path d="M1134.66 140.963C940.952 98.1761 743.048 60.1622 539.626 52.6384C333.026 45.0069 131.527 72.5784 -62.8467 121.681" stroke="white" stroke-width="0.41068" stroke-miterlimit="10"/>
<path d="M1127.07 141.465C936.339 99.157 741.998 60.234 541.754 51.2988C333.933 42.0166 131.481 69.4325 -63.1774 120.903" stroke="white" stroke-width="0.41068" stroke-miterlimit="10"/>
<path d="M1119.45 142.183C931.737 100.306 740.942 60.4019 543.892 50.0671C334.884 39.0983 131.445 66.3588 -63.4645 120.162" stroke="white" stroke-width="0.41068" stroke-miterlimit="10"/>
<path d="M1111.83 143.116C927.072 101.621 739.906 60.6646 546.017 48.9303C335.838 36.2032 131.412 63.3201 -63.7482 119.396" stroke="white" stroke-width="0.41068" stroke-miterlimit="10"/>
<path d="M1104.24 144.252C922.422 103.081 738.935 60.9878 548.174 47.854C336.841 33.2968 131.412 60.2462 -64.0161 118.547" stroke="white" stroke-width="0.41068" stroke-miterlimit="10"/>
<path d="M1096.69 145.58C917.822 104.66 738.032 61.3227 550.381 46.7775C338.028 30.3184 131.462 57.1242 -64.2337 117.554" stroke="white" stroke-width="0.41068" stroke-miterlimit="10"/>
<path d="M1089.25 147.111C913.257 106.346 737.247 61.7053 552.64 45.7127C339.199 27.2321 131.579 53.8107 -64.4338 116.346" stroke="white" stroke-width="0.41068" stroke-miterlimit="10"/>
<path d="M1081.94 148.822C908.81 108.093 736.596 62.0526 555 44.6126C340.472 23.9909 131.765 50.3063 -64.5991 114.863" stroke="white" stroke-width="0.41068" stroke-miterlimit="10"/>
<path d="M1074.77 150.699C904.444 109.887 736.093 62.3513 557.423 43.4041C341.876 20.5456 132.031 46.5261 -64.7177 113.032" stroke="white" stroke-width="0.41068" stroke-miterlimit="10"/>
<path d="M1067.79 152.757C900.229 111.693 735.792 62.6262 559.966 42.1121C343.08 16.8014 132.684 42.3513 -64.8011 110.783" stroke="white" stroke-width="0.41068" stroke-miterlimit="10"/>
<path d="M1061.04 154.982C895.881 113.918 735.842 62.7699 562.658 40.641C344.803 12.8064 133.185 37.8539 -64.8514 108.068" stroke="white" stroke-width="0.41068" stroke-miterlimit="10"/>
<path d="M1054.55 157.374C892.051 115.772 736.01 62.7819 565.502 38.9903C346.726 8.46439 133.821 32.9019 -64.8514 104.815" stroke="white" stroke-width="0.41068" stroke-miterlimit="10"/>
<path d="M1048.33 159.91C888.471 117.542 736.427 62.6263 568.511 37.1123C348.866 3.73953 134.606 27.4354 -64.7853 100.963" stroke="white" stroke-width="0.41068" stroke-miterlimit="10"/>
<path d="M1042.42 162.601C885.194 119.205 737.147 62.2795 571.69 34.9712C351.276 -1.4159 135.577 21.3948 -64.6671 96.4417" stroke="white" stroke-width="0.41068" stroke-miterlimit="10"/>
<path d="M1036.87 165.436C882.267 120.712 738.184 61.7294 575.085 32.5432C353.951 -7.02569 136.715 14.7085 -64.4999 91.1908" stroke="white" stroke-width="0.41068" stroke-miterlimit="10"/>
<path d="M1031.7 168.402C879.773 121.979 739.57 60.9275 578.696 29.7796C356.943 -13.1624 138.068 7.33971 -64.2842 85.1378" stroke="white" stroke-width="0.41068" stroke-miterlimit="10"/>
<path d="M1026.94 171.501C877.735 122.984 741.362 59.8632 582.544 26.646C360.257 -19.8367 139.642 -0.805844 -63.9813 78.2242" stroke="white" stroke-width="0.41068" stroke-miterlimit="10"/>
<path d="M1022.64 174.718C876.296 123.643 743.585 58.4998 586.674 23.1175C363.935 -27.0972 141.464 -9.77681 -63.6142 70.3896" stroke="white" stroke-width="0.41068" stroke-miterlimit="10"/>
<path d="M1018.79 178.056C875.495 123.882 746.23 56.8131 591.042 19.1461C368.018 -34.98 143.556 -19.6333 -63.1774 61.5619" stroke="white" stroke-width="0.41068" stroke-miterlimit="10"/>
<path d="M1015.48 181.501C875.528 123.654 749.373 54.7797 595.724 14.7085C372.5 -43.5204 145.931 -30.4465 -62.6761 51.6817" stroke="white" stroke-width="0.41068" stroke-miterlimit="10"/>
<path d="M1012.69 185.053C876.582 122.949 752.82 52.2917 600.726 9.73238C377.936 -52.6113 148.256 -42.1689 -62.0898 40.677" stroke="white" stroke-width="0.41068" stroke-miterlimit="10"/>
<path d="M1010.48 188.714C878.806 121.669 756.8 49.4569 606.043 4.25412C383.338 -62.5273 151.283 -55.0753 -61.4215 28.4883" stroke="white" stroke-width="0.41068" stroke-miterlimit="10"/>
<path d="M12.1173 -11.3798C4.15632 68.8226 0.593966 147.601 -2.88477 227.959" stroke="white" stroke-width="0.41068" stroke-miterlimit="10"/>
<path d="M48.1089 -22.0135C37.9403 60.9399 29.4609 142.518 23.8916 225.735" stroke="white" stroke-width="0.41068" stroke-miterlimit="10"/>
<path d="M83.814 -31.0325C71.3039 54.0621 58.0078 137.578 50.2643 223.043" stroke="white" stroke-width="0.41068" stroke-miterlimit="10"/>
<path d="M119.186 -38.485C104.234 48.1646 86.2387 132.805 76.2541 219.945" stroke="white" stroke-width="0.41068" stroke-miterlimit="10"/>
<path d="M154.226 -44.4297C136.732 43.1888 114.187 128.224 101.945 216.488" stroke="white" stroke-width="0.41068" stroke-miterlimit="10"/>
<path d="M188.91 -48.9393C168.857 39.0978 141.88 123.869 127.397 212.696" stroke="white" stroke-width="0.41068" stroke-miterlimit="10"/>
<path d="M223.213 -52.0729C200.534 35.8686 169.36 119.683 152.635 208.63" stroke="white" stroke-width="0.41068" stroke-miterlimit="10"/>
<path d="M257.118 -53.9033C245.544 -14.0115 232.783 24.8397 215.256 63.5115C194.718 108.786 187.744 157.541 177.742 204.323" stroke="white" stroke-width="0.41068" stroke-miterlimit="10"/>
<path d="M290.598 -54.4893C277.904 -15.3988 263.872 22.3399 244.689 59.9232C221.943 104.54 213.865 153.307 202.726 199.79" stroke="white" stroke-width="0.41068" stroke-miterlimit="10"/>
<path d="M323.646 -53.9033C309.881 -15.8177 294.595 20.5575 273.923 56.8489C249.037 100.521 239.955 149.156 227.73 195.101" stroke="white" stroke-width="0.41068" stroke-miterlimit="10"/>
<path d="M356.228 -52.1926C341.426 -15.3031 324.953 19.4811 302.909 54.2773C275.999 96.7528 265.965 145.125 252.719 190.304" stroke="white" stroke-width="0.41068" stroke-miterlimit="10"/>
<path d="M388.335 -49.4414C372.547 -13.9514 354.785 19.0027 331.705 52.1482C302.955 93.4156 292.084 140.927 277.785 185.412" stroke="white" stroke-width="0.41068" stroke-miterlimit="10"/>
<path d="M419.928 -45.6974C403.221 -11.7146 384.455 19.23 360.305 50.5215C329.732 90.1143 318.142 137.135 302.99 180.472" stroke="white" stroke-width="0.41068" stroke-miterlimit="10"/>
<path d="M451.02 -41.0446C433.326 -8.55693 413.908 20.0073 388.738 49.3969C356.576 86.9682 344.233 133.678 328.362 175.532" stroke="white" stroke-width="0.41068" stroke-miterlimit="10"/>
<path d="M481.559 -35.5179C463.062 -4.76475 442.976 21.4072 417.019 48.7035C383.352 84.1097 370.457 130.365 353.967 170.664" stroke="white" stroke-width="0.41068" stroke-miterlimit="10"/>
<path d="M511.532 -29.2145C492.281 -0.351208 471.225 23.0935 445.168 48.3563C410.598 81.8726 396.968 126.98 379.875 165.831" stroke="white" stroke-width="0.41068" stroke-miterlimit="10"/>
<path d="M540.916 -22.1812C521.014 4.76827 499.69 25.5336 473.181 48.4998C437.508 79.4085 423.492 124.228 406.115 161.142" stroke="white" stroke-width="0.41068" stroke-miterlimit="10"/>
<path d="M569.699 -14.4779C549.178 10.462 528.121 28.6675 501.094 49.1457C464.45 76.9085 450.101 122.099 432.74 156.62" stroke="white" stroke-width="0.41068" stroke-miterlimit="10"/>
<path d="M597.864 -6.17664C576.774 16.7178 555.283 31.7057 528.925 50.0188C491.947 75.7123 477.379 119.468 459.835 152.29" stroke="white" stroke-width="0.41068" stroke-miterlimit="10"/>
<path d="M625.394 2.66309C603.836 23.536 582.963 35.5215 556.706 51.3706C519.543 73.8225 504.558 117.985 487.449 148.211" stroke="white" stroke-width="0.41068" stroke-miterlimit="10"/>
<path d="M652.237 11.9691C629.759 31.1435 610.308 39.5405 584.402 53.2246C548.745 72.0521 531.401 117.985 515.596 144.42" stroke="white" stroke-width="0.41068" stroke-miterlimit="10"/>
<path d="M678.41 21.6819C654.427 39.4807 638.271 43.6673 612.08 55.1982C577.711 70.3296 559.197 117.362 544.362 140.951" stroke="white" stroke-width="0.41068" stroke-miterlimit="10"/>
<path d="M703.864 31.7297C678.994 47.6386 665.564 48.6912 639.741 57.6385C607.396 68.8345 586.841 118.009 573.813 137.841" stroke="white" stroke-width="0.41068" stroke-miterlimit="10"/>
<path d="M728.601 42.0646C712.311 50.7726 701.423 56.2271 682.909 60.2462C677.975 61.3107 672.256 59.1935 667.389 60.617C637.301 69.4207 615.425 118.427 603.969 135.15" stroke="white" stroke-width="0.41068" stroke-miterlimit="10"/>
<path d="M752.601 52.6027C731.227 61.7652 727.547 62.8537 706.608 65.2939C703.18 65.6886 698.597 62.7939 695.068 63.5355C664.679 69.9828 647.252 115.509 634.909 132.889" stroke="white" stroke-width="0.41068" stroke-miterlimit="10"/>
<path d="M775.815 63.2964C753.805 70.5571 752.484 70.9159 732.381 70.4973C729.471 70.4374 725.775 66.6217 722.764 66.9686C696.473 70.0188 676.905 117.076 666.67 131.118" stroke="white" stroke-width="0.41068" stroke-miterlimit="10"/>
<path d="M798.258 74.0619C774.827 79.1695 777.503 78.9303 759.691 76.4782C756.58 76.0476 753.302 70.7725 750.509 71.0237C730.256 72.8419 707.276 119.193 699.332 129.887" stroke="white" stroke-width="0.41068" stroke-miterlimit="10"/>
<path d="M819.882 84.8628C801.184 86.9322 784.359 88.9417 777.335 73.9778C758.653 87.7814 744.939 113.128 732.914 129.216" stroke="white" stroke-width="0.41068" stroke-miterlimit="10"/>
<path d="M840.672 95.6044C820.77 95.4728 806.136 94.2049 806.019 77.9611C791.418 92.8891 779.226 113.355 767.502 129.145" stroke="white" stroke-width="0.41068" stroke-miterlimit="10"/>
<path d="M860.626 106.25C841.125 103.104 826.34 97.7216 835.338 81.7769C827.26 98.4872 814.366 114.193 803.11 129.743" stroke="white" stroke-width="0.41068" stroke-miterlimit="10"/>
<path d="M879.69 116.717C863.082 111.286 846.107 98.6666 865.641 86.083C865.089 100.736 847.211 120.353 839.835 131.035" stroke="white" stroke-width="0.41068" stroke-miterlimit="10"/>
<path d="M897.889 126.944C874.341 121.717 876.665 96.1071 897.755 90.9277C900.9 104.624 884.543 122.542 877.719 133.044" stroke="white" stroke-width="0.41068" stroke-miterlimit="10"/>
<path d="M915.162 136.86C877.063 123.009 962.794 56.9687 916.818 135.831" stroke="white" stroke-width="0.41068" stroke-miterlimit="10"/>
<path d="M931.505 146.417C899.226 126.633 995.125 62.6504 957.177 139.432" stroke="white" stroke-width="0.41068" stroke-miterlimit="10"/>
<path d="M946.908 155.544C919.998 130.341 1029.46 67.71 998.855 143.893" stroke="white" stroke-width="0.41068" stroke-miterlimit="10"/>
<path d="M961.325 164.18C949.401 143.235 980.793 123.272 1005.16 116.465C1045.08 105.317 1048.66 125.879 1041.89 149.252" stroke="white" stroke-width="0.41068" stroke-miterlimit="10"/>
<path d="M974.754 172.254C967.897 148.164 1006.5 128.331 1034.34 122.35C1074.58 113.69 1090.84 127.41 1086.36 155.544" stroke="white" stroke-width="0.41068" stroke-miterlimit="10"/>
<path d="M987.165 179.694C986.094 152.219 1031.97 134.48 1063.7 128.87C1106.48 121.31 1132.62 130.628 1132.28 162.793" stroke="white" stroke-width="0.41068" stroke-miterlimit="10"/>
<path d="M998.553 186.453C1008.34 133.846 1169.63 105.353 1179.76 171.07" stroke="white" stroke-width="0.41068" stroke-miterlimit="10"/>
</g>
</g>
<defs>
<linearGradient id="paint0_linear_3092_14225" x1="-3.6022e-08" y1="385.367" x2="1164" y2="385.367" gradientUnits="userSpaceOnUse">
<stop stop-color="#D9D9D9" stop-opacity="0"/>
<stop offset="0.210758" stop-color="#D9D9D9"/>
<stop offset="0.780863" stop-color="#D9D9D9"/>
<stop offset="1" stop-color="#D9D9D9" stop-opacity="0"/>
</linearGradient>
<linearGradient id="paint1_linear_3092_14225" x1="582" y1="0.00012207" x2="582" y2="659.323" gradientUnits="userSpaceOnUse">
<stop stop-color="#D9D9D9" stop-opacity="0"/>
<stop offset="0.485813" stop-color="#D9D9D9"/>
<stop offset="1" stop-color="#D9D9D9" stop-opacity="0"/>
</linearGradient>
</defs>
</svg>
