<svg width="100" height="100" viewBox="0 0 100 100" fill="none" xmlns="http://www.w3.org/2000/svg">
<path d="M39.211 61.6289C38.633 61.6289 38.1358 61.4794 37.768 61.1721C37.101 60.6143 36.9919 59.6159 37.4688 58.4316L42.6468 45.6302C43.3542 43.8759 45.2257 42.0812 47.1982 41.2647C48.3179 40.7998 49.3365 40.715 50.0722 41.0262L59.1831 44.8703C59.8056 45.133 60.1654 45.6423 60.222 46.3376C60.3513 47.9706 58.7951 50.2382 56.5962 51.6166L42.3073 60.5699C41.1997 61.2651 40.1043 61.6249 39.211 61.6249V61.6289ZM49.0778 41.1758C48.5604 41.1758 47.9622 41.3091 47.3276 41.5759C45.4318 42.3641 43.6371 44.082 42.958 45.7595L37.7801 58.5609C37.3516 59.6159 37.4244 60.4527 37.9822 60.9215C38.8027 61.6087 40.4317 61.3621 42.1334 60.2991L56.4224 51.3457C58.8153 49.8461 59.9996 47.6634 59.8945 46.3739C59.8501 45.8 59.5671 45.3998 59.0578 45.1855L49.9469 41.3415C49.6963 41.2364 49.4052 41.1838 49.0819 41.1838L49.0778 41.1758Z" fill="white"/>
<path d="M38.8915 63.193C38.3458 63.193 37.8689 63.0596 37.497 62.7888C36.7532 62.2471 36.5673 61.2528 36.9755 59.9957L41.4663 46.0988C42.5052 42.8854 46.7737 39.8497 49.2111 40.5975L59.668 43.7948C60.3875 44.0131 60.8322 44.5224 60.9534 45.2621C61.2323 46.9598 59.7246 49.4659 57.4489 51.0949L42.4971 61.7944C41.2157 62.712 39.9303 63.197 38.8875 63.197L38.8915 63.193ZM48.3946 40.8117C46.0825 40.8117 42.6547 43.4876 41.7776 46.1999L37.2868 60.0967C36.927 61.2083 37.0726 62.0693 37.691 62.522C38.6449 63.2172 40.5003 62.8171 42.3071 61.5236L57.2589 50.8241C59.7408 49.0456 60.8483 46.6567 60.6301 45.3147C60.529 44.7003 60.1733 44.292 59.5751 44.1101L49.1181 40.9128C48.8958 40.8441 48.6532 40.8117 48.4026 40.8117H48.3946Z" fill="white"/>
<path d="M38.6651 64.8503C38.1598 64.8503 37.7071 64.7371 37.3393 64.5067C36.5228 63.9934 36.2479 62.9869 36.5672 61.6732L40.193 46.689C41.0298 43.229 45.4478 39.6598 48.2086 40.2176L60.0924 42.6105C60.9211 42.7763 61.4627 43.2815 61.6567 44.0697C62.0973 45.8523 60.6987 48.5363 58.3341 50.4563L42.8204 63.0475C41.3855 64.2157 39.8656 64.8503 38.657 64.8503H38.6651ZM47.6103 40.4884C45.0274 40.4884 41.2521 43.7302 40.5164 46.7658L36.8906 61.75C36.6077 62.9141 36.83 63.7913 37.5171 64.2238C38.4509 64.8139 40.3871 64.5956 42.6183 62.7888L58.132 50.1976C60.6745 48.1321 61.685 45.5411 61.3414 44.1465C61.1797 43.4917 60.727 43.0713 60.0318 42.9299L48.1479 40.5369C47.9782 40.5005 47.7963 40.4844 47.6144 40.4844L47.6103 40.4884Z" fill="white"/>
<path d="M38.5937 66.6249C38.1248 66.6249 37.7003 66.532 37.3325 66.3339C36.4392 65.8529 36.0673 64.8383 36.2856 63.4802L38.8483 47.4329C39.4385 43.7344 43.9737 39.5912 47.074 39.9186L60.4616 41.3374C61.4155 41.4385 62.0663 41.9397 62.3411 42.7804C62.9434 44.6075 61.6499 47.5259 59.261 49.7127L43.3108 64.3411C41.7142 65.8044 39.972 66.6249 38.5937 66.6249ZM46.7224 40.2299C43.8322 40.2299 39.7133 44.1224 39.1757 47.4855L36.613 63.5327C36.419 64.7454 36.7302 65.6346 37.4902 66.0429C38.5815 66.629 40.736 66.2571 43.0885 64.0986L59.0387 49.4702C61.6136 47.1096 62.4988 44.3165 62.0259 42.8855C61.7914 42.1741 61.2376 41.7537 60.4252 41.6689L47.0377 40.2501C46.9326 40.238 46.8275 40.2339 46.7183 40.2339L46.7224 40.2299Z" fill="white"/>
<path d="M38.6814 68.4883C38.253 68.4883 37.8568 68.4115 37.5011 68.2538C36.5229 67.8132 36.0419 66.7987 36.147 65.396L37.4324 48.3342C37.7275 44.4053 42.3274 39.6356 45.7875 39.7083L60.7433 39.967C61.8347 39.9872 62.6068 40.4723 62.9827 41.3777C63.7547 43.2452 62.5906 46.39 60.2138 48.8516L43.9766 65.6547C42.2345 67.4575 40.2538 68.4923 38.6855 68.4923L38.6814 68.4883ZM45.7228 40.0358C42.4851 40.0358 38.0387 44.668 37.7598 48.3544L36.4744 65.4163C36.3815 66.6734 36.7897 67.5707 37.6345 67.9466C39.1341 68.6217 41.6443 67.5788 43.7341 65.4203L59.9713 48.6172C62.5663 45.9332 63.2939 43.0027 62.6714 41.503C62.3521 40.731 61.6811 40.3106 60.7353 40.2944L45.7794 40.0358C45.7794 40.0358 45.739 40.0358 45.7228 40.0358Z" fill="white"/>
<path d="M38.9489 70.4326C38.569 70.4326 38.2052 70.376 37.8737 70.2548C36.8025 69.8667 36.2003 68.8562 36.1801 67.4131L35.9497 49.4055C35.8971 45.2623 40.5253 39.858 44.3452 39.6033L60.926 38.5039C62.1467 38.423 63.0885 38.904 63.5695 39.862C64.5396 41.7942 63.5574 45.0804 61.1806 47.8574L44.8343 66.9645C42.9627 69.1513 40.7355 70.4326 38.9489 70.4326ZM61.1968 38.8232C61.1159 38.8232 61.0351 38.8232 60.9502 38.8313L44.3694 39.9307C40.7679 40.1692 36.2286 45.4806 36.2811 49.3974L36.5115 67.4051C36.5277 68.7188 37.037 69.5959 37.9869 69.9395C39.725 70.57 42.4332 69.2564 44.5836 66.7462L60.93 47.6391C63.4846 44.6519 64.0424 41.5395 63.2744 40.0075C62.8823 39.2274 62.1669 38.8232 61.1968 38.8232Z" fill="white"/>
<path d="M39.3847 72.4459C39.0694 72.4459 38.7703 72.4095 38.4833 72.3287C37.3071 72.0013 36.5714 71.0069 36.4137 69.5315L34.4129 50.6669C33.9521 46.3297 38.548 40.2423 42.7437 39.6238L60.9899 36.9479C62.3763 36.7458 63.4798 37.1986 64.0902 38.2293C65.2503 40.1857 64.454 43.6781 62.158 46.7259L45.9127 68.2623C43.9644 70.8452 41.4139 72.4459 39.3847 72.4459ZM61.0141 37.1137L61.0384 37.2754L42.7922 39.9512C38.8188 40.5333 34.3078 46.5237 34.7403 50.6305L36.7412 69.4951C36.8867 70.8493 37.5172 71.7183 38.5682 72.0093C40.565 72.5631 43.4713 70.9382 45.6419 68.0642L61.8872 46.5278C64.1063 43.5851 64.8946 40.2423 63.7991 38.3991C63.2535 37.4815 62.2955 37.0935 61.0343 37.2794L61.0101 37.1177L61.0141 37.1137Z" fill="white"/>
<path d="M40.0776 74.5196C39.8351 74.5196 39.6006 74.4994 39.3702 74.4549C38.0727 74.2043 37.1875 73.2382 36.8762 71.7305L32.8341 52.1343C31.9044 47.6313 36.3952 40.8285 40.975 39.7977L60.9107 35.319C62.4791 34.9674 63.7604 35.3797 64.5244 36.4872C65.8825 38.4557 65.3086 42.1462 63.1218 45.4567L47.2281 69.5316C45.2192 72.5753 42.3816 74.5236 40.0776 74.5236V74.5196ZM60.9471 35.4807L60.9835 35.6424L41.0477 40.1211C36.7024 41.0952 32.2763 47.7971 33.1575 52.0656L37.1996 71.6618C37.4866 73.0523 38.2587 73.9052 39.4309 74.1315C41.7106 74.5681 44.8029 72.6036 46.9492 69.3456L62.8429 45.2707C64.9569 42.0694 65.5349 38.5366 64.2495 36.6731C63.5583 35.6747 62.4265 35.315 60.9794 35.6424L60.9431 35.4807H60.9471Z" fill="white"/>
<path d="M41.0185 76.6335C40.8689 76.6335 40.7193 76.6254 40.5698 76.6092C39.1389 76.4556 38.0798 75.5259 37.5988 73.9899L31.2284 53.8116C30.5776 51.7542 31.0384 49.0015 32.4855 46.2569C34.0903 43.2172 36.6004 40.8728 39.0338 40.1371L60.6672 33.6131C62.4296 33.0836 63.9171 33.4393 64.8589 34.6236C66.4556 36.6285 66.1403 40.4079 64.0707 44.0297L48.8076 70.736C46.7825 74.2809 43.6418 76.6335 41.0185 76.6335ZM62.1709 33.7061C61.7303 33.7061 61.2574 33.7788 60.7602 33.9284L39.1267 40.4524C36.7742 41.1598 34.3409 43.4436 32.7766 46.4105C31.3901 49.0338 30.9293 51.7663 31.5437 53.7106L37.9141 73.8889C38.3628 75.3117 39.2925 76.1363 40.6062 76.2777C43.1891 76.5526 46.4389 74.2041 48.5206 70.5662L63.7837 43.8599C65.7563 40.412 66.0918 36.6973 64.6002 34.8258C64.0101 34.082 63.1733 33.702 62.1709 33.702V33.7061Z" fill="white"/>
<path d="M42.2344 78.7593C42.2021 78.7593 42.1697 78.7593 42.1374 78.7593C40.5488 78.727 39.2998 77.8539 38.6207 76.2936L29.6149 55.7152C28.7337 53.6982 28.9237 50.8768 30.1444 47.9745C31.6076 44.4942 34.2027 41.6931 36.919 40.6664L60.2299 31.8384C62.1984 31.0946 63.9164 31.3775 65.0684 32.6427C66.8954 34.6436 66.859 38.5806 64.9794 42.4408L50.6703 71.8433C48.6816 75.9299 45.2256 78.7513 42.2263 78.7513L42.2344 78.7593ZM60.2946 32L60.3512 32.1536L37.0403 40.9816C34.4048 41.98 31.8825 44.7085 30.4516 48.1079C29.2673 50.9253 29.0732 53.6497 29.918 55.5858L38.9239 76.1643C39.5585 77.6154 40.6741 78.3996 42.1455 78.4319C45.0437 78.4845 48.4229 75.7277 50.3793 71.7099L64.6884 42.3075C66.5074 38.5644 66.568 34.777 64.8299 32.8772C63.7749 31.7211 62.1863 31.4665 60.3512 32.1617L60.2946 32.0081V32Z" fill="white"/>
<path d="M43.7671 80.8818C42.1583 80.8818 40.8204 80.0855 39.9715 78.6182L28.0109 57.8659C26.875 55.8974 26.7861 53.0194 27.7643 49.9636C29.0133 46.0629 31.6448 42.7888 34.6359 41.4226L59.5839 30.0278C61.7667 29.0294 63.7392 29.2194 65.1418 30.5614C67.2438 32.5703 67.5146 36.5518 65.8371 40.7031L52.8497 72.8501C51.0348 77.3409 47.4454 80.6352 44.1147 80.8656C43.9975 80.8737 43.8803 80.8777 43.763 80.8777L43.7671 80.8818ZM62.2113 29.7327C61.4393 29.7327 60.6025 29.9308 59.7254 30.331L34.7774 41.7257C31.8711 43.0515 29.3044 46.2489 28.0836 50.0646C27.1337 53.0315 27.2146 55.8125 28.3019 57.7002L40.2626 78.4525C41.1155 79.9319 42.4413 80.6514 44.0985 80.5382C47.3039 80.3159 50.7802 77.1024 52.5466 72.7288L65.5339 40.5818C67.1346 36.6165 66.888 32.6875 64.9155 30.8039C64.1717 30.0925 63.2501 29.7327 62.2113 29.7327Z" fill="white"/>
<path d="M45.6386 82.9674C44.0582 82.9674 42.6798 82.264 41.6935 80.9301L26.4466 60.2668C25.0359 58.3549 24.6398 55.4163 25.3593 52.2108C26.3092 47.9828 28.9891 44.1387 32.1784 42.4249L58.6907 28.1885C61.0593 26.9152 63.3755 26.9839 65.0408 28.3744C67.4055 30.347 68.0239 34.4376 66.6132 38.8031L55.3478 73.7028C53.7916 78.521 50.1739 82.3004 46.5522 82.8906C46.2369 82.9431 45.9297 82.9674 45.6306 82.9674H45.6386ZM58.7715 28.334L58.8483 28.4795L32.336 42.7159C29.2236 44.3853 26.6124 48.1404 25.6827 52.2836C24.9834 55.4001 25.3593 58.2377 26.7134 60.0728L41.9603 80.7361C43.0678 82.2398 44.6402 82.8704 46.5037 82.5672C50.0082 81.9932 53.5208 78.3109 55.0366 73.6058L66.302 38.7061C67.6682 34.474 67.0902 30.5168 64.8306 28.6331C63.2502 27.3154 61.124 27.2588 58.8483 28.4836L58.7715 28.3381V28.334Z" fill="white"/>
<path d="M47.8657 84.9883C46.3216 84.9883 44.9231 84.378 43.8236 83.1977L24.9428 62.9304C23.2209 61.0832 22.4933 58.088 22.946 54.7168C23.5564 50.1412 26.1514 45.8201 29.563 43.7021L57.5305 26.3411C60.1174 24.7364 62.7488 24.6434 64.7497 26.0946C67.3973 28.0105 68.3957 32.1901 67.2962 36.7415L58.2095 74.3737C56.9767 79.4749 53.4034 83.7514 49.5149 84.77C48.9531 84.9196 48.3993 84.9924 47.8657 84.9924V84.9883ZM57.7043 26.62L29.7368 43.981C26.4101 46.0465 23.8717 50.2786 23.2734 54.7573C22.8369 58.0314 23.5321 60.9296 25.1854 62.7041L44.0661 82.9713C45.4566 84.4628 47.3645 84.9883 49.43 84.4467C53.2054 83.4563 56.6816 79.2808 57.8862 74.2929L66.9729 36.6607C68.04 32.2386 67.0901 28.1924 64.5516 26.3573C62.664 24.9911 60.1659 25.0881 57.7002 26.62H57.7043Z" fill="white"/>
<path d="M50.4727 86.9003C48.9771 86.9003 47.5826 86.387 46.3982 85.3765L23.536 65.853C21.4664 64.0866 20.371 61.0307 20.5286 57.4737C20.7469 52.6029 23.2005 47.813 26.7818 45.2745L56.0589 24.502C58.856 22.5174 61.8311 22.2304 64.22 23.7098C67.2192 25.5732 68.6097 29.7083 67.8457 34.5063L61.4309 74.8023C60.5699 80.2187 57.1947 84.8874 53.0354 86.4193C52.1623 86.7387 51.3013 86.9003 50.4727 86.9003ZM60.9377 23.1075C59.4179 23.1075 57.8091 23.6653 56.2489 24.7729L26.9758 45.5454C23.4753 48.0272 21.0743 52.7161 20.8601 57.4898C20.7065 60.9458 21.7574 63.9006 23.7502 65.6024L46.6125 85.1258C48.3586 86.6174 50.598 86.9691 52.9222 86.1121C56.9724 84.6206 60.2587 80.053 61.1035 74.7497L67.5183 34.4538C68.2621 29.7932 66.9282 25.7834 64.0461 23.9927C63.0922 23.4026 62.0372 23.1075 60.9377 23.1075Z" fill="white"/>
<path d="M53.48 88.6748C52.0572 88.6748 50.6869 88.2585 49.454 87.4258L22.2586 69.0503C19.7848 67.3809 18.2771 64.2644 18.1195 60.4971C17.9053 55.3879 20.1608 50.1614 23.8593 47.1824L54.252 22.7154C57.2473 20.3022 60.5901 19.7727 63.4236 21.2602C66.7624 23.0145 68.6056 27.1739 68.2338 32.1214L65.0324 74.9639C64.6161 80.5501 61.4511 85.6998 57.1543 87.7815C55.9174 88.3797 54.6765 88.6788 53.4719 88.6788L53.48 88.6748ZM54.3612 22.8407L54.4663 22.97L24.0735 47.437C20.4518 50.3514 18.2488 55.4728 18.455 60.481C18.6086 64.1391 20.0638 67.1626 22.4486 68.7714L49.644 87.1469C51.8146 88.6142 54.4339 88.7314 57.0209 87.4783C61.2126 85.4492 64.3048 80.4086 64.7131 74.9356L67.9144 32.0931C68.2742 27.2789 66.4997 23.2409 63.2781 21.5513C60.5699 20.1284 57.3604 20.6458 54.4703 22.97L54.3652 22.8407H54.3612Z" fill="white"/>
<path d="M56.9124 90.2592C55.5826 90.2592 54.2729 89.9358 53.0401 89.2891L21.1598 72.5143C18.2253 70.9702 16.2487 67.789 15.7394 63.7873C15.0643 58.4962 17.0571 52.8655 20.8203 49.4418L52.0942 21.0014C55.2633 18.1194 58.9941 17.2948 62.3248 18.7419C66.0315 20.3507 68.3759 24.506 68.4446 29.5788L69.0509 74.7981C69.1277 80.5743 66.3346 86.0473 61.9287 88.7475C60.2836 89.7539 58.5778 90.2633 56.9084 90.2633L56.9124 90.2592ZM52.2034 21.1227L52.3165 21.244L21.0426 49.6924C17.3602 53.0434 15.4039 58.5609 16.0668 63.751C16.564 67.6435 18.4759 70.7317 21.3134 72.2273L53.1937 89.0021C55.8655 90.4088 58.9052 90.2188 61.7589 88.4686C66.0638 85.829 68.7963 80.4651 68.7195 74.8062L68.1132 29.5869C68.0485 24.6434 65.7768 20.6053 62.1915 19.0491C58.982 17.6546 55.3845 18.4589 52.3165 21.2521L52.2034 21.1308V21.1227Z" fill="white"/>
<path d="M60.7356 91.5971C59.531 91.5971 58.3345 91.3708 57.1866 90.914L20.2739 76.2492C16.8058 74.8708 14.2956 71.6331 13.3821 67.3646C12.2099 61.8633 13.851 56.0143 17.6667 52.0975L49.5268 19.4007C52.7847 16.0579 57.0209 14.8533 60.8528 16.1792C65.0324 17.6262 67.8618 21.632 68.4237 26.8948L73.4763 74.2564C74.0948 80.0609 71.6938 85.9422 67.3525 89.2365C65.2991 90.7968 63.0032 91.5971 60.7356 91.5971ZM49.7652 19.6352L17.9052 52.3319C14.1662 56.1719 12.5575 61.9037 13.7054 67.2959C14.5907 71.4552 17.0321 74.6081 20.3952 75.942L57.3078 90.6068C60.5173 91.8841 64.1067 91.2859 67.1545 88.9738C71.4027 85.7482 73.7553 79.9841 73.1489 74.2928L68.0963 26.9312C67.5506 21.7977 64.8019 17.8971 60.7477 16.4944C57.037 15.2131 52.9343 16.3853 49.7652 19.6352Z" fill="white"/>
<path d="M65.0039 92.6725C63.9772 92.6725 62.9424 92.531 61.9238 92.24L19.6472 80.251C15.5646 79.095 12.436 75.8087 11.0657 71.2411C9.39635 65.6751 10.6858 59.519 14.4328 55.1737L46.5354 17.9619C49.8823 14.0814 54.5267 12.4525 58.9609 13.6045C63.6012 14.809 67.033 18.7258 68.1406 24.0816L78.3186 73.2824C79.5313 79.1435 77.6557 85.2309 73.4277 89.1639C70.9579 91.4639 67.9991 92.6725 65.0039 92.6725ZM46.786 18.1801L14.6875 55.3879C11.0132 59.6483 9.74802 65.6832 11.3851 71.1441C12.723 75.6026 15.7667 78.8039 19.7401 79.9317L62.0167 91.9206C65.8931 93.0201 69.9716 91.9287 73.2053 88.9214C77.3485 85.0652 79.1877 79.099 77.9953 73.3511L67.8172 24.1504C66.7339 18.9199 63.3951 15.096 58.88 13.9278C54.5711 12.8082 50.048 14.4008 46.786 18.1801Z" fill="white"/>
<path d="M69.6938 93.4121C68.9015 93.4121 68.1052 93.3394 67.3008 93.1938L19.3451 84.4992C14.5592 83.6302 10.7232 80.3237 8.81936 75.4287C6.65278 69.8506 7.55014 63.4357 11.1598 58.6903L43.0845 16.7249C46.4556 12.2907 51.5002 10.1726 56.5771 11.0538C61.7348 11.9512 65.8376 15.7265 67.5555 21.1591L83.5866 71.8191C85.4136 77.5912 84.0918 83.9616 80.1427 88.4484C77.3051 91.67 73.5904 93.4081 69.6897 93.4081L69.6938 93.4121ZM54.3135 11.1872C50.138 11.1872 46.1524 13.2366 43.3512 16.923L11.4225 58.8924C7.88159 63.5489 7.00445 69.8384 9.13061 75.3115C10.99 80.0974 14.737 83.327 19.4057 84.1759L67.3615 92.8705C71.9937 93.7112 76.5613 92.0216 79.8961 88.2342C83.7685 83.8323 85.0619 77.5832 83.2713 71.9242L67.2402 21.2642C65.5587 15.9529 61.5529 12.2584 56.5205 11.3853C55.7808 11.2559 55.0451 11.1953 54.3135 11.1953V11.1872Z" fill="white"/>
<path d="M74.685 93.7601C74.2404 93.7601 73.7917 93.7399 73.339 93.6995L19.413 88.9824C13.9076 88.5013 9.14198 85.1262 6.65607 79.9563C3.95594 74.3337 4.40865 67.8744 7.86871 62.6802L39.1467 15.7431C42.4733 10.7511 47.8817 8.07113 53.6175 8.57236C59.3533 9.07358 64.2159 12.6549 66.625 18.1441L89.2731 69.7984C91.7792 75.514 91.1041 81.9531 87.4662 87.0219C84.3942 91.3025 79.6892 93.7561 74.681 93.7561L74.685 93.7601ZM52.2553 8.84722C47.146 8.84722 42.4208 11.4301 39.4215 15.929L8.14762 62.8662C4.75223 67.9633 4.3076 74.2973 6.95923 79.8148C9.39259 84.8796 14.0612 88.1861 19.4454 88.6549L73.3713 93.3721C78.7555 93.841 83.9294 91.3995 87.2035 86.836C90.7727 81.8642 91.4356 75.5463 88.9739 69.9399L66.3219 18.2815C63.9613 12.9015 59.2037 9.39695 53.5892 8.90381C53.1405 8.86339 52.6959 8.84722 52.2553 8.84722Z" fill="white"/>
<path d="M80.0699 93.679H19.9271C13.5365 93.679 7.81285 90.3766 4.61957 84.8429C1.42629 79.3092 1.42629 72.7004 4.61957 67.1667L34.693 15.0758C37.8863 9.54216 43.6099 6.23975 50.0005 6.23975C56.3911 6.23975 62.1107 9.54216 65.308 15.0758L95.3814 67.1627C98.5747 72.6963 98.5747 79.3052 95.3814 84.8389C92.1882 90.3725 86.4645 93.6749 80.0739 93.6749L80.0699 93.679ZM34.8345 15.1607L34.9759 15.2416L4.90656 67.3284C1.76987 72.757 1.76987 79.2405 4.90656 84.6731C8.04325 90.1017 13.6578 93.3435 19.9271 93.3435H80.0699C86.3392 93.3435 91.9537 90.1017 95.0904 84.6731C98.2271 79.2446 98.2271 72.761 95.0904 67.3284L65.021 15.2416C61.8844 9.81298 56.2698 6.5712 50.0005 6.5712C43.7312 6.5712 38.1167 9.81298 34.98 15.2416L34.8385 15.1607H34.8345Z" fill="white"/>
</svg>
