<svg width="40" height="40" viewBox="0 0 40 40" fill="none" xmlns="http://www.w3.org/2000/svg">
<path d="M12.2587 31.658C9.98622 31.206 7.86912 30.1178 6.22642 28.4751C4.06286 26.3115 2.85054 23.4371 2.83185 20.4108C2.81315 17.3845 3.99003 14.5249 6.12702 12.3879C8.26401 10.2509 11.1237 9.07399 14.15 9.09269C17.1763 9.11139 20.0507 10.3237 22.2143 12.4873C23.897 14.17 24.9852 16.2871 25.3972 18.5195C25.4788 18.8386 25.4808 19.1571 25.5624 19.4762C25.8809 19.4781 26.2 19.5597 26.519 19.6414C26.5171 19.3228 26.475 18.9642 26.3934 18.6451C25.9394 16.0541 24.73 13.6575 22.847 11.7744C20.5231 9.45062 17.4093 8.15719 14.104 8.09695C10.8388 8.07677 7.70112 9.37139 5.40583 11.6667C3.11055 13.962 1.81593 17.0996 1.8361 20.3648C1.85628 23.6301 3.18977 26.784 5.51359 29.1078C7.39669 30.9909 9.79327 32.2003 12.3442 32.6142C12.6633 32.6958 12.9818 32.6978 13.3404 32.7398C13.2588 32.4208 13.2569 32.1022 13.1753 31.7831C12.8567 31.7812 12.5376 31.6996 12.2587 31.658Z" fill="url(#paint0_linear_203_763)"/>
<path d="M31.2011 9.78793C33.2792 10.8127 35.0425 12.4118 36.204 14.4237C37.7339 17.0735 38.161 20.1637 37.3958 23.0917C36.6306 26.0198 34.7536 28.4774 32.1364 29.9885C29.5191 31.4995 26.4523 31.8962 23.5339 31.0949C20.6156 30.2935 18.1529 28.3786 16.623 25.7288C15.4331 23.6678 14.93 21.3412 15.1098 19.0783C15.1136 18.749 15.1941 18.4408 15.1979 18.1115C14.8907 18.0271 14.6036 17.8657 14.3165 17.7043C14.236 18.0125 14.1838 18.3698 14.18 18.6991C13.948 21.3193 14.4958 23.9472 15.8274 26.2535C17.4706 29.0996 20.1435 31.1549 23.3206 32.0686C26.4694 32.9332 29.8352 32.4947 32.6463 30.8717C35.4575 29.2487 37.5201 26.5531 38.3457 23.3939C39.1713 20.2347 38.6995 16.8431 37.0563 13.997C35.7248 11.6907 33.7229 9.90227 31.366 8.8422C31.0789 8.68079 30.7717 8.59644 30.4362 8.46302C30.4325 8.79232 30.3519 9.10054 30.3482 9.42984C30.6554 9.51419 30.9424 9.67559 31.2011 9.78793Z" fill="url(#paint1_linear_203_763)"/>
<defs>
<linearGradient id="paint0_linear_203_763" x1="9.1583" y1="11.3741" x2="19.4329" y2="22.8181" gradientUnits="userSpaceOnUse">
<stop stop-color="white"/>
<stop offset="1" stop-color="white" stop-opacity="0"/>
</linearGradient>
<linearGradient id="paint1_linear_203_763" x1="28.946" y1="30.1832" x2="21.9834" y2="16.4698" gradientUnits="userSpaceOnUse">
<stop stop-color="white"/>
<stop offset="1" stop-color="white" stop-opacity="0"/>
</linearGradient>
</defs>
</svg>
