<svg width="100" height="100" viewBox="0 0 100 100" fill="none" xmlns="http://www.w3.org/2000/svg">
<g clip-path="url(#clip0_16321_23070)">
<path d="M29.2133 78.0474C27.3004 78.0474 25.7844 77.5133 24.7312 76.4398C22.1519 73.8095 22.7115 68.1319 26.2575 60.8669C33.1816 46.6881 49.426 30.2402 62.4754 24.1962C68.4329 21.4388 72.976 21.2098 75.2705 23.5552C77.8499 26.1854 77.2903 31.8631 73.7443 39.128C66.8202 53.3069 50.5707 69.7548 37.5263 75.7988C34.2957 77.2945 31.4773 78.0474 29.2082 78.0474H29.2133ZM62.5975 24.4658C49.604 30.4844 33.4207 46.8712 26.522 60.9992C23.032 68.1472 22.4571 73.6976 24.9398 76.2363C27.1427 78.485 31.5688 78.2357 37.4042 75.5342C50.3977 69.5157 66.5811 53.1288 73.4797 39.0008C76.9697 31.8529 77.5446 26.3024 75.0619 23.7638C72.859 21.5151 68.4329 21.7644 62.5975 24.4658Z" fill="white"/>
<path d="M27.8383 78.4291C25.6049 78.4291 23.87 77.7881 22.7457 76.5061C20.1205 73.5095 21.0821 67.3231 25.3963 59.5291C33.5312 44.8363 51.1492 28.5614 64.6718 23.2551C70.614 20.9251 75.0809 21.0065 77.2532 23.4892C79.8784 26.4857 78.9168 32.6721 74.6026 40.4662C66.4677 55.1589 48.8497 71.4338 35.3271 76.7401C32.4527 77.8695 29.9242 78.4291 27.8332 78.4291H27.8383ZM72.1606 21.8612C70.1104 21.8612 67.6175 22.4208 64.7736 23.535C51.3069 28.8209 33.7551 45.0348 25.6507 59.6766C21.4026 67.3536 20.4258 73.4179 22.9645 76.3178C25.0503 78.6988 29.4052 78.7547 35.2203 76.4705C48.6869 71.1845 66.2388 54.9707 74.3432 40.3288C78.5912 32.6518 79.568 26.5875 77.0294 23.6876C75.961 22.4717 74.3025 21.8612 72.1606 21.8612Z" fill="white"/>
<path d="M26.5814 78.719C23.9512 78.719 21.9569 77.9457 20.7562 76.4093C18.0954 73.0057 19.5199 66.2953 24.6583 58.0027C34.0397 42.8623 53.011 26.9129 66.9457 22.4461C72.8319 20.5586 77.2021 20.9656 79.2473 23.5857C81.908 26.9892 80.4835 33.6997 75.3502 41.9923C65.9689 57.1327 46.9976 73.082 33.0629 77.5489C30.626 78.3323 28.4485 78.719 26.5865 78.719H26.5814ZM73.4221 21.5711C71.5957 21.5711 69.4436 21.9577 67.0322 22.731C53.1534 27.1775 34.2584 43.0708 24.9076 58.1604C19.8354 66.3411 18.4109 72.9294 20.9902 76.2312C22.9591 78.7495 27.2123 79.1209 32.9713 77.2741C46.85 72.8277 65.745 56.9343 75.0959 41.8448C80.1681 33.664 81.5926 27.0757 79.0132 23.7739C77.8685 22.3087 75.9556 21.5711 73.4221 21.5711Z" fill="white"/>
<path d="M25.4078 78.9428C22.3146 78.9428 20.0608 77.9966 18.7737 76.1345C16.1027 72.2731 18.0309 65.0336 24.0545 56.278C34.7179 40.7713 55.0069 25.3002 69.2773 21.7847C75.1585 20.3348 79.2895 21.0572 81.233 23.8655C83.9039 27.7269 81.9757 34.9665 75.9521 43.7221C65.2887 59.2288 44.9997 74.6999 30.7293 78.2153C28.7553 78.7037 26.9747 78.9428 25.4078 78.9428ZM74.5989 21.3472C73.0573 21.3472 71.3022 21.5863 69.3485 22.0696C55.1391 25.5698 34.9265 40.9901 24.2936 56.4459C18.3412 65.0997 16.4131 72.2172 19.0128 75.9717C20.8799 78.6732 24.9041 79.3498 30.6581 77.9355C44.8675 74.4353 65.0801 59.0151 75.713 43.5593C81.6654 34.9054 83.5936 27.788 80.9938 24.0334C79.7627 22.2528 77.5903 21.3523 74.6039 21.3523L74.5989 21.3472Z" fill="white"/>
<path d="M24.4858 79.0652C20.7872 79.0652 18.162 77.9154 16.7986 75.6667C14.1531 71.3016 16.6358 63.533 23.6006 54.3501C35.5766 38.5737 57.1374 23.7385 71.6622 21.2864C77.4162 20.3147 81.4099 21.3678 83.2058 24.3338C85.8513 28.6989 83.3686 36.4675 76.4038 45.6504C64.4278 61.4268 42.867 76.2619 28.3421 78.7141C26.9533 78.9481 25.6661 79.0652 24.4858 79.0652ZM75.5186 21.2253C74.3586 21.2253 73.0868 21.3423 71.708 21.5713C57.2443 24.0133 35.7699 38.7976 23.8346 54.523C17.0428 63.4669 14.5092 71.3118 17.0479 75.509C18.7776 78.3631 22.6645 79.3704 28.2913 78.419C42.755 75.977 64.2294 61.1928 76.1647 45.4673C82.9565 36.5234 85.4901 28.6785 82.9514 24.4813C81.6439 22.3242 79.1053 21.2253 75.5186 21.2253Z" fill="white"/>
<path d="M23.8257 79.1208C19.3588 79.1208 16.2758 77.7065 14.8513 74.9796C12.3177 70.1261 15.4771 61.6147 23.3169 52.2231C36.6207 36.2738 59.3924 22.2527 74.08 20.9706C79.6865 20.4822 83.5123 21.8813 85.1504 25.0152C87.684 29.8737 84.5196 38.38 76.6848 47.7716C63.381 63.7209 40.6093 77.7421 25.9217 79.0241C25.1942 79.0852 24.4921 79.1208 23.8257 79.1208ZM74.1055 21.2657C59.4891 22.5426 36.8039 36.5129 23.5408 52.4114C15.7823 61.7113 12.6331 70.1006 15.1108 74.8473C16.6879 77.8693 20.417 79.2124 25.8963 78.7341C40.5127 77.4572 63.1979 63.4869 76.461 47.5884C84.2194 38.2885 87.3686 29.8992 84.891 25.1525C83.3139 22.1306 79.5847 20.7875 74.1055 21.2657Z" fill="white"/>
<path d="M23.4883 79.1361H23.4833C18.0549 79.1361 14.4122 77.3758 12.947 74.0587C10.5406 68.5897 14.3766 59.5593 23.2187 49.8931C37.8605 33.8827 61.7667 20.8638 76.5103 20.8638H76.5154C81.9438 20.8638 85.5864 22.624 87.0516 25.9411C89.458 31.4102 85.617 40.4405 76.78 50.1067C62.1381 66.1171 38.2319 79.1361 23.4883 79.1361ZM76.5103 21.1538C61.838 21.1538 38.0335 34.132 23.4375 50.0915C14.6768 59.6662 10.8561 68.5846 13.2167 73.9417C14.631 77.1468 18.177 78.8461 23.4833 78.8461H23.4883C38.1607 78.8461 61.9652 65.8678 76.5612 49.9083C85.3219 40.3337 89.1375 31.4153 86.782 26.0581C85.3677 22.853 81.8217 21.1538 76.5154 21.1538H76.5103Z" fill="white"/>
<path d="M23.504 79.141C22.6544 79.141 21.8353 79.1054 21.0417 79.0291C15.8066 78.5305 12.3675 76.3988 11.1007 72.8681C8.89778 66.7326 13.4664 57.1986 23.3259 47.3645C39.3109 31.4151 64.2651 19.5765 78.9578 20.9756C84.1929 21.4741 87.632 23.6058 88.8988 27.1365C91.1017 33.2721 86.5331 42.806 76.6735 52.6402C61.5484 67.7297 38.3951 79.141 23.5091 79.141H23.504ZM76.4853 21.1536C61.6705 21.1536 38.6088 32.5242 23.5345 47.568C13.7614 57.3207 9.21829 66.7428 11.3805 72.7664C12.6066 76.1801 15.9592 78.2456 21.0722 78.734C35.6835 80.128 60.536 68.3301 76.4649 52.4316C86.238 42.6789 90.7812 33.2568 88.619 27.2332C87.3929 23.8195 84.0402 21.754 78.9273 21.2656C78.1387 21.1892 77.3247 21.1536 76.4802 21.1536H76.4853Z" fill="white"/>
<path d="M23.9316 79.1614C22.0339 79.1614 20.2584 79.0037 18.6202 78.673C13.5887 77.6657 10.3785 75.1423 9.33552 71.3725C7.43788 64.5145 12.7899 54.5176 23.6518 44.6275C40.9696 28.8664 66.865 18.4166 81.3746 21.3267C86.4061 22.334 89.6163 24.8574 90.6593 28.6273C92.5569 35.4852 87.2049 45.4822 76.343 55.3723C60.9788 69.3527 38.8583 79.1614 23.9316 79.1614ZM76.048 21.1334C61.1975 21.1334 39.1686 30.9115 23.8502 44.8462C13.0697 54.66 7.74821 64.545 9.62042 71.2962C10.6328 74.949 13.7667 77.4012 18.6813 78.3881C20.3042 78.7137 22.0695 78.8715 23.9519 78.8715C38.8023 78.8715 60.8312 69.0933 76.1497 55.1586C86.9301 45.3448 92.2517 35.4598 90.3795 28.7087C89.3671 25.0558 86.2331 22.6036 81.3186 21.6167C79.6957 21.2911 77.9303 21.1334 76.048 21.1334Z" fill="white"/>
<path d="M24.8424 79.2428C21.6577 79.2428 18.7527 78.8612 16.2395 78.0625C11.4216 76.5261 8.46067 73.5804 7.67719 69.5358C6.19673 61.9097 12.3831 51.5057 24.2218 41.7021C42.8471 26.2768 69.5616 17.4093 83.7659 21.9371C88.5838 23.4736 91.5447 26.4192 92.3282 30.4638C93.8087 38.09 87.6223 48.4939 75.7836 58.2975C60.455 70.9909 39.6471 79.2428 24.8424 79.2428ZM75.1375 21.0417C60.4092 21.0417 39.6878 29.2733 24.4049 41.9259C12.6528 51.6583 6.50198 61.9605 7.96209 69.4748C8.72522 73.4074 11.62 76.2768 16.326 77.7776C30.4489 82.2749 57.0362 73.4329 75.5954 58.0635C87.3475 48.3311 93.4983 38.0289 92.0382 30.5147C91.2751 26.582 88.3803 23.7127 83.6743 22.2119C81.1815 21.4182 78.2969 21.0366 75.1375 21.0366V21.0417Z" fill="white"/>
<path d="M26.293 79.4517C21.5464 79.4517 17.3187 78.7191 13.9151 77.1776C9.31095 75.0866 6.62475 71.6729 6.14652 67.3078C5.22569 58.8931 12.2871 48.1585 25.0313 38.594C44.9337 23.6571 72.3197 16.5854 86.0814 22.8329C90.6856 24.9238 93.3718 28.3376 93.85 32.7026C94.7709 41.1174 87.7094 51.852 74.9652 61.4165C59.9825 72.665 40.7517 79.4517 26.293 79.4517ZM73.6933 20.8386C59.3059 20.8386 40.1514 27.61 25.2145 38.8229C12.5517 48.3264 5.53602 58.9643 6.44669 67.2722C6.90965 71.5305 9.53989 74.8628 14.0423 76.908C27.7175 83.1147 54.9713 76.0584 74.7922 61.1774C87.455 51.6739 94.4707 41.036 93.56 32.7281C93.0971 28.4698 90.4668 25.1375 85.9644 23.0923C82.5965 21.561 78.3993 20.8386 73.6933 20.8386Z" fill="white"/>
<path d="M28.311 79.8332C21.7125 79.8332 15.928 78.597 11.68 75.9922C7.28943 73.3009 4.91357 69.3682 4.80673 64.6165C4.59814 55.4183 12.5652 44.4547 26.1183 35.287C47.2467 20.9962 75.1517 15.9342 88.3181 24.003C92.7086 26.6943 95.0845 30.6269 95.1913 35.3786C95.3999 44.5768 87.4329 55.5404 73.8798 64.7081C59.5686 74.3845 42.1541 79.8332 28.311 79.8332ZM71.6769 20.4519C57.905 20.4519 40.5515 25.8853 26.2811 35.5363C12.8145 44.643 4.89831 55.515 5.10181 64.6114C5.20356 69.2563 7.53363 73.1076 11.8326 75.7429C24.9125 83.7608 52.67 78.6987 73.717 64.469C87.1836 55.3573 95.1049 44.4903 94.9014 35.3888C94.7996 30.7439 92.4695 26.8927 88.1706 24.2573C83.9581 21.678 78.2245 20.4519 71.682 20.4519H71.6769Z" fill="white"/>
<path d="M30.8708 80.4742C22.1457 80.4742 14.5653 78.5307 9.55922 74.5014C5.38746 71.1437 3.36772 66.6209 3.71876 61.4215C4.38522 51.4805 13.2731 40.4151 27.4927 31.8224C49.7912 18.3456 78.0319 15.5067 90.4505 25.4986C94.6223 28.8563 96.642 33.3791 96.291 38.5786C95.6245 48.5195 86.7367 59.5849 72.5171 68.1777C59.2133 76.221 43.7879 80.4742 30.8759 80.4742H30.8708ZM69.1339 19.8108C56.2778 19.8108 40.9084 24.0537 27.6402 32.0716C13.502 40.6187 4.66504 51.5975 4.00875 61.4418C3.66789 66.5446 5.64692 70.9809 9.74237 74.2725C22.0694 84.188 50.1626 81.3441 72.3645 67.9233C86.5026 59.3763 95.3345 48.4025 95.9959 38.5582C96.3368 33.4554 94.3527 29.0191 90.2623 25.7275C85.302 21.7389 77.7877 19.8108 69.1339 19.8108Z" fill="white"/>
<path d="M33.8528 81.4307C22.7722 81.4307 13.1721 78.5308 7.57072 72.6903C3.63299 68.5796 2.03042 63.3853 2.94617 57.6568C4.63523 47.0697 14.4338 36.0603 29.1519 28.2001C52.5443 15.7154 80.9274 15.3185 92.4303 27.3149C96.368 31.4256 97.9706 36.6199 97.0548 42.3485C95.3658 52.9356 85.5673 63.9449 70.8491 71.8051C58.8477 78.2103 45.5286 81.4307 33.8528 81.4307ZM66.1584 18.8595C54.5335 18.8595 41.2602 22.0748 29.2893 28.4596C14.6525 36.274 4.90995 47.2019 3.23616 57.7026C2.34076 63.3344 3.9128 68.4474 7.78439 72.4868C19.2008 84.3916 47.4262 83.9693 70.7117 71.5457C85.3536 63.7313 95.0962 52.7982 96.7699 42.3027C97.6704 36.6708 96.0933 31.5579 92.2217 27.5184C86.6763 21.7339 77.1525 18.8595 66.1635 18.8595H66.1584Z" fill="white"/>
<path d="M37.0733 82.7636C23.4999 82.7636 11.707 78.5766 5.75464 70.5333C2.07637 65.5577 0.982557 59.585 2.60038 53.2663C5.43412 42.1755 16.0975 31.4002 31.1362 24.4303C55.5308 13.131 83.8428 15.3847 94.2569 29.4669C97.9352 34.4425 99.029 40.4153 97.4162 46.7339C94.5825 57.8247 83.9191 68.6 68.8855 75.5699C58.4358 80.4132 47.2585 82.7636 37.0835 82.7636H37.0733ZM62.9484 17.5215C52.8141 17.5215 41.6775 19.8668 31.2532 24.6949C16.2959 31.6291 5.6885 42.3332 2.8802 53.3375C1.28781 59.5697 2.36127 65.456 5.98866 70.3603C16.3214 84.3306 44.4756 86.5488 68.7481 75.3054C83.7054 68.3762 94.3078 57.6721 97.1211 46.6627C98.7135 40.4305 97.6401 34.5443 94.0127 29.6399C88.1163 21.6678 76.415 17.5215 62.9484 17.5215Z" fill="white"/>
<path d="M40.2889 84.5237C24.1869 84.5237 10.1149 78.6578 4.13197 68.03C0.76404 62.0471 0.290901 55.2044 2.7736 48.2294C6.82835 36.8385 18.2854 26.4854 33.4309 20.5432C58.7209 10.6175 86.7327 15.7406 95.8801 31.9748C99.248 37.9577 99.7211 44.8004 97.2384 51.7754C93.1837 63.1663 81.7266 73.5194 66.5811 79.4616C57.8459 82.8906 48.785 84.5237 40.294 84.5237H40.2889ZM59.7282 15.766C51.2677 15.766 42.2374 17.394 33.5327 20.8128C18.4686 26.7245 7.07255 37.0114 3.04833 48.3261C0.596152 55.2196 1.05911 61.9809 4.38634 67.8875C13.4625 83.9946 41.3115 89.0668 66.4692 79.1869C81.5333 73.2752 92.9293 62.9882 96.9535 51.6736C99.4057 44.7801 98.9427 38.0188 95.6155 32.1122C89.6784 21.581 75.7183 15.766 59.7282 15.766Z" fill="white"/>
<path d="M43.2697 86.7266C24.6851 86.7266 8.37962 78.7087 2.7274 65.1657C-0.253875 58.0229 0.0412003 50.1983 3.57702 42.5467C8.86802 31.0896 21.0068 21.3674 36.0557 16.5445C62.1139 8.19078 89.5813 16.3918 97.2736 34.834C100.255 41.982 99.9649 49.8015 96.4291 57.4582C91.1381 68.9152 78.9993 78.6375 63.9504 83.4604C57.0263 85.6786 49.9954 86.7317 43.2697 86.7317V86.7266ZM56.7414 13.5632C50.0412 13.5632 43.0408 14.6112 36.1421 16.8243C21.1747 21.6218 9.09696 31.283 3.84157 42.6688C0.341363 50.2441 0.051375 57.9873 3.00213 65.0538C8.60347 78.4848 24.797 86.4366 43.2596 86.4366C49.9598 86.4366 56.9602 85.3886 63.8589 83.1755C78.8263 78.378 90.904 68.7168 96.1594 57.331C99.6596 49.7506 99.9496 42.0125 96.9989 34.9409C91.3975 21.5099 75.204 13.5581 56.7414 13.5581V13.5632Z" fill="white"/>
<path d="M45.8277 89.3924C24.857 89.3924 6.48604 78.6832 1.58677 61.9402C-0.895932 53.4542 0.319982 44.5715 5.10732 36.2534C11.6855 24.8268 24.043 16.1577 39.0155 12.4642C65.7097 5.88607 92.353 17.3686 98.4122 38.0594C100.895 46.5454 99.679 55.4282 94.8916 63.7463C88.3186 75.1728 75.9559 83.8419 60.9834 87.5354C55.8857 88.792 50.7829 89.3924 45.8277 89.3924ZM54.1763 10.9023C49.2414 10.9023 44.1692 11.4976 39.0868 12.7491C24.1906 16.4223 11.8941 25.0405 5.3617 36.3958C0.615057 44.6478 -0.595769 53.4492 1.86658 61.8588C6.73024 78.4695 24.9791 89.0973 45.8226 89.0973C50.7575 89.0973 55.8298 88.5021 60.9122 87.2505C75.8084 83.5774 88.1049 74.9591 94.6372 63.6038C99.3839 55.3519 100.595 46.5505 98.1324 38.1459C93.2687 21.5352 75.0198 10.9023 54.1763 10.9023Z" fill="white"/>
<path d="M47.8423 92.5009C24.5924 92.5009 4.44583 78.5102 0.731955 58.3383C-1.08428 48.4787 1.30176 38.207 7.44746 29.426C15.1092 18.4726 27.8229 10.7803 42.3274 8.32809C69.4947 3.73408 95.039 18.6863 99.2667 41.6614C101.083 51.521 98.6969 61.7927 92.5512 70.5737C84.8844 81.5271 72.1707 89.2194 57.6662 91.6716C54.3543 92.2312 51.0626 92.5009 47.8372 92.5009H47.8423ZM52.1615 7.78882C48.9462 7.78882 45.675 8.05846 42.3783 8.61299C27.9501 11.0601 15.3026 18.7015 7.68657 29.5939C1.58157 38.3138 -0.784121 48.499 1.01686 58.2823C4.7053 78.3169 24.7297 92.2058 47.8372 92.2058C51.0525 92.2058 54.3237 91.9362 57.6204 91.3816C72.0486 88.9396 84.6961 81.2931 92.3121 70.4058C98.412 61.6859 100.783 51.5007 98.9818 41.7174C95.2934 21.6828 75.269 7.79391 52.1615 7.79391V7.78882Z" fill="white"/>
<path d="M49.2412 96.0472C23.7986 96.0472 2.27337 78.1596 0.192581 54.3602C-2.02048 29.0855 18.5229 6.5682 45.9903 4.16181C59.2941 2.99677 72.2164 6.66995 82.3812 14.4996C92.5511 22.3344 98.7375 33.3946 99.811 45.6402C100.884 57.8859 96.7076 69.8517 88.0538 79.3348C79.405 88.8128 67.312 94.6736 54.0133 95.8387C52.4107 95.9811 50.8183 96.0472 49.2412 96.0472ZM50.8133 4.24829C49.2209 4.24829 47.6234 4.31952 46.0157 4.45688C18.7111 6.84292 -1.71523 29.2178 0.482568 54.3348C2.55318 77.9815 23.9563 95.7522 49.2412 95.7572C50.8082 95.7572 52.3904 95.6911 53.9879 95.5487C67.2154 94.3887 79.2371 88.5635 87.8401 79.1415C96.438 69.7194 100.584 57.835 99.521 45.6708C98.4577 33.5065 92.3069 22.5226 82.2032 14.7387C73.3255 7.89603 62.3263 4.24829 50.8133 4.24829Z" fill="white"/>
<path d="M50 100C22.4308 100 0 77.5692 0 50C0 22.4308 22.4308 0 50 0C77.5692 0 100 22.4308 100 50C100 77.5692 77.5692 100 50 100ZM50 0.295075C22.5936 0.295075 0.295075 22.5936 0.295075 50C0.295075 77.4064 22.5936 99.7049 50 99.7049C77.4064 99.7049 99.7049 77.4064 99.7049 50C99.7049 22.5936 77.4064 0.295075 50 0.295075Z" fill="white"/>
</g>
<defs>
<clipPath id="clip0_16321_23070">
<rect width="100" height="100" fill="white"/>
</clipPath>
</defs>
</svg>
