<svg width="104" height="100" viewBox="0 0 104 100" fill="none" xmlns="http://www.w3.org/2000/svg">
<path d="M103.086 62.762C103.974 50.4639 83.0482 38.9314 56.3473 37.0034C29.6463 35.0754 7.28106 43.482 6.39305 55.7801C5.50503 68.0783 26.4305 79.6108 53.1315 81.5388C79.8324 83.4668 102.198 75.0602 103.086 62.762Z" stroke="white" stroke-width="0.15" stroke-miterlimit="10"/>
<path d="M101.315 60.1989C101.663 48.1752 80.7801 37.8147 54.6711 37.0581C28.5621 36.3014 7.11415 45.4351 6.76569 57.4588C6.41724 69.4824 27.3003 79.8429 53.4093 80.5995C79.5183 81.3562 100.966 72.2225 101.315 60.1989Z" stroke="white" stroke-width="0.15" stroke-miterlimit="10"/>
<path d="M53.6983 79.6582C79.2165 79.2439 99.7485 69.3824 99.5577 57.6318C99.367 45.8811 78.5258 36.6912 53.0075 37.1054C27.4893 37.5197 6.95737 47.3812 7.14811 59.1318C7.33886 70.8825 28.1801 80.0724 53.6983 79.6582Z" stroke="white" stroke-width="0.15" stroke-miterlimit="10"/>
<path d="M53.9705 78.7234C78.8955 77.1378 98.5091 66.5463 97.7788 55.0666C97.0486 43.587 76.2509 35.5663 51.3259 37.1519C26.401 38.7376 6.78732 49.329 7.51761 60.8087C8.24789 72.2883 29.0456 80.309 53.9705 78.7234Z" stroke="white" stroke-width="0.15" stroke-miterlimit="10"/>
<path d="M54.245 77.8C78.5775 75.0449 97.2742 63.7265 96.0053 52.5196C94.7364 41.3128 73.9823 34.4613 49.6498 37.2165C25.3172 39.9716 6.62047 51.29 7.8894 62.4969C9.15834 73.7037 29.9124 80.5552 54.245 77.8Z" stroke="white" stroke-width="0.15" stroke-miterlimit="10"/>
<path d="M54.5196 76.87C78.2591 72.9442 96.0381 60.899 94.2302 49.9662C92.4222 39.0334 71.7119 33.3531 47.9724 37.2789C24.2329 41.2047 6.45391 53.25 8.26186 64.1828C10.0698 75.1155 30.7801 80.7958 54.5196 76.87Z" stroke="white" stroke-width="0.15" stroke-miterlimit="10"/>
<path d="M54.7879 75.9286C77.9348 70.831 94.7958 58.0566 92.4481 47.3963C90.1003 36.7359 69.4329 32.2265 46.2861 37.3241C23.1392 42.4217 6.27821 55.1961 8.62594 65.8565C10.9737 76.5168 31.6411 81.0263 54.7879 75.9286Z" stroke="white" stroke-width="0.15" stroke-miterlimit="10"/>
<path d="M55.0638 75.0011C77.6183 68.7335 93.5626 55.2329 90.6764 44.8466C87.7902 34.4604 67.1664 31.1216 44.6119 37.3892C22.0575 43.6569 6.11318 57.1575 8.9994 67.5437C11.8856 77.93 32.5094 81.2688 55.0638 75.0011Z" stroke="white" stroke-width="0.15" stroke-miterlimit="10"/>
<path d="M55.339 74.0327C77.3015 66.5902 92.3275 52.3588 88.9005 42.2458C85.4736 32.1329 64.8913 29.968 42.9288 37.4105C20.9663 44.8529 5.94022 59.0844 9.3672 69.1973C12.7942 79.3103 33.3764 81.4751 55.339 74.0327Z" stroke="white" stroke-width="0.15" stroke-miterlimit="10"/>
<path d="M55.6173 73.1125C76.9869 64.5003 91.0953 49.5413 87.1294 39.7006C83.1635 29.8599 62.625 28.8639 41.2555 37.4761C19.8859 46.0883 5.77751 61.0473 9.74343 70.888C13.7094 80.7287 34.2478 81.7246 55.6173 73.1125Z" stroke="white" stroke-width="0.15" stroke-miterlimit="10"/>
<path d="M55.8908 72.1938C76.6684 62.4122 89.8602 46.7259 85.3555 37.1574C80.8509 27.5889 60.3556 27.7616 39.5781 37.5432C18.8006 47.3248 5.60876 63.0112 10.1134 72.5797C14.618 82.1482 35.1133 81.9754 55.8908 72.1938Z" stroke="white" stroke-width="0.15" stroke-miterlimit="10"/>
<path d="M56.1603 71.2365C76.3442 60.2821 88.6169 43.8667 83.5722 34.5716C78.5274 25.2765 58.0756 26.6216 37.8918 37.576C17.7079 48.5304 5.43526 64.9458 10.48 74.2409C15.5247 83.536 35.9765 82.1909 56.1603 71.2365Z" stroke="white" stroke-width="0.15" stroke-miterlimit="10"/>
<path d="M56.4378 70.3133C76.0316 58.1883 87.3895 41.0452 81.8065 32.0231C76.2234 23.0011 55.8136 25.5165 36.2198 37.6415C16.6261 49.7665 5.26813 66.9095 10.8512 75.9316C16.4342 84.9537 36.844 82.4383 56.4378 70.3133Z" stroke="white" stroke-width="0.15" stroke-miterlimit="10"/>
<path d="M56.7082 69.3529C75.708 56.0541 86.1466 38.1818 80.0236 29.434C73.9006 20.6862 53.5346 24.3755 34.5349 37.6743C15.5351 50.9731 5.0965 68.8454 11.2195 77.5932C17.3425 86.3411 37.7085 82.6517 56.7082 69.3529Z" stroke="white" stroke-width="0.15" stroke-miterlimit="10"/>
<path d="M56.9836 68.4195C75.391 53.9499 84.9126 35.3497 78.2507 26.8749C71.5888 18.4 51.2662 23.2597 32.8588 37.7292C14.4514 52.1988 4.92982 70.799 11.5917 79.2738C18.2536 87.7487 38.5762 82.889 56.9836 68.4195Z" stroke="white" stroke-width="0.15" stroke-miterlimit="10"/>
<path d="M57.2565 67.4911C75.0714 51.8513 83.6765 32.5241 76.4764 24.3226C69.2763 16.1212 48.9976 22.1512 31.1826 37.791C13.3677 53.4308 4.76261 72.758 11.9627 80.9594C19.1628 89.1609 39.4415 83.1309 57.2565 67.4911Z" stroke="white" stroke-width="0.15" stroke-miterlimit="10"/>
<path d="M57.5202 66.5419C74.7414 49.7305 82.4282 29.6754 74.6891 21.7476C66.9499 13.8198 46.7156 21.0214 29.4943 37.8328C12.2731 54.6442 4.5863 74.6992 12.3254 82.627C20.0645 90.5548 40.2989 83.3533 57.5202 66.5419Z" stroke="white" stroke-width="0.15" stroke-miterlimit="10"/>
<path d="M57.7989 65.6099C74.4276 47.6273 81.1964 26.8434 72.9173 19.1877C64.6383 11.532 44.4466 19.9035 27.8179 37.886C11.1892 55.8686 4.42046 76.6525 12.6995 84.3082C20.9785 91.9639 41.1702 83.5924 57.7989 65.6099Z" stroke="white" stroke-width="0.15" stroke-miterlimit="10"/>
<path d="M58.0718 64.6799C74.1085 45.5275 79.962 24.0172 71.1461 16.6355C62.3301 9.25372 42.1831 18.7958 26.1464 37.9483C10.1097 57.1008 4.25611 78.611 13.0721 85.9928C21.888 93.3745 42.0351 83.8324 58.0718 64.6799Z" stroke="white" stroke-width="0.15" stroke-miterlimit="10"/>
<path d="M58.3423 63.7352C73.786 43.411 78.7215 21.1721 69.3661 14.0632C60.0107 6.95434 39.907 17.6675 24.4633 37.9917C9.0196 58.316 4.08407 80.5549 13.4395 87.6638C22.7949 94.7726 42.8986 84.0595 58.3423 63.7352Z" stroke="white" stroke-width="0.15" stroke-miterlimit="10"/>
<path d="M58.618 62.7973C73.4689 41.3018 77.4868 18.3345 67.5922 11.4985C57.6976 4.66244 37.6374 16.5463 22.7865 38.0418C7.93553 59.5373 3.91765 82.5046 13.8123 89.3406C23.7069 96.1767 43.7671 84.2928 58.618 62.7973Z" stroke="white" stroke-width="0.15" stroke-miterlimit="10"/>
<path d="M58.9067 61.8854C73.1677 39.2216 76.2717 15.5276 65.8395 8.96322C55.4074 2.39884 35.3896 15.4499 21.1286 38.1136C6.86751 60.7773 3.76356 84.4714 14.1957 91.0358C24.6278 97.6002 44.6456 84.5491 58.9067 61.8854Z" stroke="white" stroke-width="0.15" stroke-miterlimit="10"/>
</svg>
