<svg width="1003" height="129" viewBox="0 0 1003 129" fill="none" xmlns="http://www.w3.org/2000/svg">
<g opacity="0.8">
<mask id="mask0_15819_7159" style="mask-type:alpha" maskUnits="userSpaceOnUse" x="0" y="0" width="1003" height="129">
<rect x="1003" y="129" width="1003" height="129" transform="rotate(180 1003 129)" fill="url(#paint0_linear_15819_7159)"/>
</mask>
<g mask="url(#mask0_15819_7159)">
<mask id="mask1_15819_7159" style="mask-type:alpha" maskUnits="userSpaceOnUse" x="-106" y="-57" width="968" height="265">
<rect x="-106" y="-57" width="968" height="265" fill="url(#paint1_linear_15819_7159)" fill-opacity="0.8"/>
</mask>
<g mask="url(#mask1_15819_7159)">
<path d="M392.312 -151L347.525 -130.808L305.344 -101.774L267.978 -64.1802L237.207 -18.406L214.893 34.6927L221.819 43.8821L228.013 51.4428L233.564 57.5723L238.542 62.4388L243.01 66.185L247.018 68.9374L250.618 70.8038L253.846 71.8758L256.736 72.2382L259.321 71.9589L261.626 71.1046L263.675 69.7285L265.487 67.8803L267.081 65.6033L268.472 62.9357L269.793 58.8837L270.781 55.8554L270.922 55.4217L271.472 53.7364L271.537 53.5386L271.896 52.435L272.094 51.8267L272.602 50.271L273.063 48.8583L273.375 47.8976L273.54 47.3957L274.455 44.8827L275.522 41.8977L276.526 38.803L277.246 36.3082L277.472 35.6102L278.012 34.2257L278.725 32.0285L279.425 29.8728L279.468 29.7415L280.42 28.0446L282.425 24.4712L284.383 20.9144L284.401 20.8164L284.557 20.602L287.019 16.2807L289.045 12.6093L289.63 11.5672L292.204 6.9816L292.266 6.8154L292.721 6.06083L294.952 2.13842L295.387 1.30907L295.535 1.09965L299.665 -3.75849L302.585 -7.19059L304.257 -9.15845L309.275 -15.2747L313.588 -20.344L314.61 -21.5456L317.058 -24.6337L318.232 -26.0148L318.17 -27.0137L317.994 -28.5843L317.698 -30.7699L324.661 -36.3028L338.78 -47.5216L348.034 -54.8744L348.481 -58.3016L348.855 -58.4977L367.345 -68.1524L383.061 -76.3596L383.302 -76.4327L399.941 -81.5019L419.656 -87.5085L433.231 -89.0492L456.98 -91.7434L493.858 -89.2919L529.251 -80.5512L562.26 -66.045L568.257 -70.2915L574.466 -75.2842L580.902 -81.0864L587.576 -87.7578L594.504 -95.3716L601.697 -104.001L609.173 -113.732L616.945 -124.657L625.032 -136.874L633.45 -150.498L633.741 -151L650.177 -144.073L649.363 -141.872L648.97 -141.054L648.199 -139.128L643.231 -126.711L637.655 -112.776L632.618 -99.9539L630.781 -95.1406L630.475 -91.1401L631.172 -86.9301L626.339 -75.8693L622.12 -66.2162L617.924 -56.6113L614.644 -49.1072L616.09 -44.869L612.701 -37.7754L609.233 -30.514L601.031 -13.3468L596.874 -5.29919L587.419 12.9998L582.715 21.3698L575.045 35.0218L569.1 44.6832L563.735 53.4023L553.348 68.6947L554.715 72.2598L556.701 75.6121L559.244 78.6387L562.257 81.2381L565.644 83.3189L569.291 84.8131L573.074 85.6707L576.865 85.8635L580.539 85.3882L583.975 84.263L587.06 82.5295L590.902 78.0237L594.519 73.7822L595.802 72.278L598.727 68.8459L599.616 67.8038L600.658 66.4543L605.651 59.9873L606.598 58.7607L606.886 58.3884L611.568 52.3236L612.554 51.0472L613.36 50.0034L616.207 47.5569L617.013 46.4882L618.432 44.6068L622.301 39.0456L623.107 37.9088L627.04 32.4523L627.816 31.2606L630.489 27.4861L631.775 25.7643L631.893 25.5981L633.725 23.0136L636.864 17.9677L642.073 9.74556L645.811 4.01652L647.322 1.69964L647.471 1.47028L648.277 0.235388L652.64 -6.98284L653.446 -8.31579L658.167 -16.1257L664.113 -25.9633L666.139 -29.314L667.01 -30.7533L669.405 -33.9195" stroke="white" stroke-width="0.28" stroke-linecap="round" stroke-linejoin="round"/>
<path d="M700.103 -151L680.923 -108.4L659.221 -63.1713L640.017 -25.7788L622.879 5.23645L607.477 31.003L593.546 52.4084L580.875 70.1556L569.29 84.8131L558.65 96.8413L548.839 106.621" stroke="white" stroke-width="0.28" stroke-linecap="round" stroke-linejoin="round"/>
<path d="M692.601 -151L674.764 -110.337L653.588 -65.0544L634.834 -27.5988L618.087 3.48133L603.027 29.3144L589.397 50.7862L576.991 68.5983L565.645 83.3189L555.219 95.4086L545.597 105.245L536.687 113.141L528.405 119.359" stroke="white" stroke-width="0.28" stroke-linecap="round" stroke-linejoin="round"/>
<path d="M685.114 -151L668.866 -112.954L648.222 -67.6239L629.921 -30.1018L613.567 1.05809L598.846 26.9759L585.513 48.5325L573.372 66.4326L562.257 81.2381L552.038 93.4092L542.603 103.325L533.859 111.299L525.728 117.588L518.143 122.417L511.046 125.965" stroke="white" stroke-width="0.28" stroke-linecap="round" stroke-linejoin="round"/>
<path d="M731.509 -151L726.036 -139.987L716.717 -121.24L714.144 -116.066L711.683 -112.924L708.234 -110.343L703.901 -108.422L698.824 -107.232L693.169 -106.823L670.517 -61.7071L650.487 -24.4093L632.625 6.52453L626.817 15.8286L616.583 32.2213L609.004 43.3769L602.085 53.5635L597.825 53.3441L584.891 71.0514L573.074 85.6707L562.224 97.664L552.222 107.408L548.84 106.621L539.757 114.462L531.318 120.627L523.454 125.335L516.103 128.771L509.21 131.091L502.73 132.429L496.623 132.901L490.853 132.607L490.112 132.387L488.634 131.599L483.254 130.659L482.403 130.401L478.241 129.178L477.743 128.988L477.695 128.968L477.432 128.747L476.283 127.813L475.587 127.516L471.49 125.766L470.722 125.34L466.961 123.278L466.67 123.093L466.494 122.959L466.075 122.674L464.21 121.419L462.537 120.251L461.553 119.462L460.684 118.762L458.345 116.882L457.478 115.983L456.954 115.476L456.342 114.969L454.32 113.156L452.972 111.796L452.274 111.065L451.572 110.334L449.917 108.381L448.102 106.27L447.627 105.718L447.047 105.045L444.432 102.017L443.357 100.646L443.191 100.433L440.922 97.5809L440.412 96.8728L439.478 95.5764L438.399 94.1089L437.443 92.7194L437.091 92.0812L436.955 91.9898L435.948 90.484L434.088 87.7001L433.606 86.9305L433.295 86.2175L433.125 85.7305L431.62 83.3272L430.213 81.0852L429.898 80.55L429.492 80.0347L427.672 77.1162L427.165 76.2038L426.316 74.5401L423.971 70.2005L423.673 69.7418L422.901 68.3889L421.533 65.8044L421.501 65.6398L420.979 64.636L420.657 64.0742L419.937 62.6532L418.549 59.9108L418.002 58.7407L417.693 58.1507L416.994 56.6698L415.071 52.6942L414.78 52.0909L414.617 51.3995L414.562 50.9391L412.855 47.6516L412.699 47.65L412.187 46.5331L411.891 45.2733L411.7 44.8511L409.057 39.0522L408.712 38.557L406.538 33.9132L406.27 33.2883L406.132 32.6983L406.076 32.3027L404.736 29.4523L403.756 27.4313L403.491 26.803L403.358 26.2363L403.303 25.8557L400.872 20.3111L400.732 20.2131L400.244 19.0214L398.244 14.1549L397.99 13.5234L397.869 13.0015L397.814 12.6491L397.112 11.1317L395.508 7.3705L395.258 6.73726L395.14 6.23532L395.086 5.89627L393.423 1.91569L392.778 0.491325L392.53 -0.141911L392.417 -0.623895L392.366 -0.951322L389.761 -7.40999L387.32 -13.5396L387.074 -14.5218L386.901 -14.8044L386.199 -16.6326L384.341 -21.6437L384.173 -21.9246L382.581 -25.9567L381.842 -27.9062L381.607 -28.5262L381.509 -28.94L381.581 -29.8093L379.3 -35.3837L378.85 -35.9821L378.481 -36.8231L376.309 -42.6119L376.078 -43.5028L375.92 -43.787L375.506 -44.7609L373.516 -50.0828L373.292 -50.6861L373.201 -51.0617L373.27 -51.8529L373.468 -52.7437L373.875 -53.5963L374.477 -54.3841L375.258 -55.0822L376.189 -55.6672L377.239 -56.1176L378.375 -56.4201L379.56 -56.5647L380.753 -56.5465L381.918 -56.3686L384.607 -49.5293L384.793 -49.0557L385.902 -48.7149L386.907 -48.2263L387.777 -47.6063L388.515 -47.0413L389 -46.0623L391.33 -40.2286L391.717 -39.2563L391.913 -38.7676L392.263 -37.9017L394.094 -33.1234L394.285 -32.4137L394.819 -31.5594L395.917 -28.6359L397.036 -25.6641L397.239 -25.3932L397.719 -24.4392L399.687 -19.4515L400.071 -18.3063L402.396 -12.7518L402.811 -11.7595L403.016 -11.4787L403.526 -10.4648L403.576 -10.3485L405.609 -5.374L405.708 -4.94852L405.911 -4.66265L406.44 -3.61556L407.384 -1.25713L408.615 1.76445L408.82 2.05697L409.367 3.13895L411.334 7.75276L411.727 8.80151L412.312 9.79541L414.421 14.4524L414.956 15.6341L415.278 16.3472L415.435 16.6845L417.278 20.7815L417.665 21.7438L418.272 22.7925L419.598 25.5681L420.532 27.6274L420.682 28.0479L421.3 29.1249L423.255 33.1736L423.735 34.2307L423.835 34.4069L424.365 35.3393L426.236 39.0622L426.83 40.2855L428.359 43.1259L429.736 45.6871L430.026 46.2655L430.636 47.3857L430.651 47.4206L430.823 47.7331L432.489 50.7364L432.943 51.81L434.934 55.4848L435.605 56.3989L436.453 57.6139L437.979 60.3147L438.844 61.9335L441.519 66.067L442.247 67.0277L442.7 67.5678L443.214 68.3623L443.418 68.6581L445.488 71.7794L445.729 72.2464L446.724 73.4581L449.051 76.6109L449.156 76.8785L449.309 77.0979L450.332 78.3461L452.528 81.1051L453.033 81.755L453.302 82.0774L455.565 84.6835L455.658 84.7882L455.584 84.9045L456.374 85.6707L456.676 86.1062L458.28 87.9145L459.273 88.8219L459.934 89.3837L460.727 90.2147L462.572 92.0031L463.401 92.8407L464.461 93.72L466.027 95.0147L467.581 96.3011L469.986 98.023L470.543 98.5199L472.062 99.5072L473.915 100.604L474.761 101.129L474.967 101.237L477.111 102.273L478.147 102.773L479.348 103.36L479.423 103.391L480.517 103.79L482.177 104.392L482.23 104.407L482.258 104.417L484.464 104.954L485.664 105.246L486.41 105.427L486.678 105.461L490.191 105.883L493.452 105.866L493.564 105.864L493.705 105.846L497.16 105.382L497.928 105.279L500.93 104.487L502.367 104.108L506.341 102.529L506.534 102.451L507.224 102.231L510.33 100.73L512.547 99.2446L514.668 97.8235L514.843 97.7055L517.141 96.1631L521.586 92.5565L522.859 91.5211L523.053 91.4812L524.393 90.2779L528.925 85.9499L530.029 84.9427L530.574 84.376L535.733 78.7068L536.132 78.268L537.418 76.8536L538.149 76.0508L544.365 68.3024L545.516 66.8681L546.962 65.0648L547.39 64.4681L549.273 61.9435L552.584 57.4344L554.559 54.6837L556.045 52.3868L557.162 50.6616L557.196 50.6051L562.232 42.8234L563.768 40.4467L564.772 38.896L565.932 36.9232L566.838 35.3841L570.273 29.5437L573.79 23.5654L573.83 23.4956L574.222 22.8291L574.797 21.8518L575.864 20.0385L576.541 18.7837L579.217 13.8142L582.055 8.54722L582.991 6.80873L583.058 6.68574L584.582 3.85861L585.858 1.48688L586.84 -0.334703L587.148 -0.615587L587.964 -2.42056L589.658 -5.83272L592.42 -11.3939L592.811 -12.1834L594.73 -16.0493L595.284 -17.1645L597.999 -22.6326L600.055 -26.7761L600.998 -28.5976L601.229 -29.1395L604.186 -35.1926L605.954 -38.6546L607.669 -42.3743L611.327 -50.3072L611.783 -51.2977L613.822 -55.7204L614.535 -57.2661L615.173 -59.0412L615.851 -60.9276L616.43 -62.2772L619.062 -68.1242L623.311 -77.7241L627.846 -88.2947L630.083 -93.5101L630.781 -95.1406L632.066 -98.8054L632.618 -99.9539L634.946 -105.535L637.813 -112.687L643.396 -126.62L648.274 -138.789L648.944 -140.463L649.436 -141.832L652.212 -149.158L652.905 -151" stroke="white" stroke-width="0.28" stroke-linecap="round" stroke-linejoin="round"/>
<path d="M677.931 -151L663.441 -116.159L643.315 -70.7884L625.455 -33.1965L609.476 -1.95019L595.081 24.0657L582.033 45.727L570.139 63.7302L559.245 78.6387L549.219 90.9128L539.958 100.928L531.371 108.997L523.38 115.38L515.92 120.294L508.938 123.926L502.381 126.434" stroke="white" stroke-width="0.28" stroke-linecap="round" stroke-linejoin="round"/>
<path d="M618.959 -68.1888L587.576 -87.7576L550.407 -103.402L510.933 -112.858L470.02 -115.608L428.667 -111.219L388.011 -99.372L355.581 -83.0773L349.333 -79.9378L322.87 -59.7673L314.04 -53.036L283.603 -19.1055L259.48 21.0393L243.009 66.1852L235.278 114.73L237.005 164.747L247.025 208" stroke="white" stroke-width="0.28" stroke-linecap="round" stroke-linejoin="round"/>
<path d="M329.353 -151L299.803 -132.03L258.734 -93.4719L224.236 -45.7897L203.003 0.507951" stroke="white" stroke-width="0.28" stroke-linecap="round" stroke-linejoin="round"/>
<path d="M615.851 -60.9277L615.143 -59.3904L615.15 -59.0613L614.535 -57.2663L614.124 -53.2857L614.644 -49.1073L610.335 -39.9379L606.914 -32.6615L603.776 -25.9867L599.789 -17.502L595.676 -9.40626L592.125 -2.41906L589.523 2.705L586.347 8.9526L581.244 18.1919L577.682 24.6389L574.116 31.0976L568.182 40.9119L562.925 49.6093L552.642 65.0347L543.152 77.8224L539.243 82.4994L534.36 88.3431L526.186 96.9026L518.562 103.76L511.429 109.13L504.737 113.201L498.441 116.126L492.505 118.042L486.89 119.064L481.57 119.29L476.516 118.812L471.704 117.7L467.114 116.021" stroke="white" stroke-width="0.28" stroke-linecap="round" stroke-linejoin="round"/>
<path d="M659.431 208L669.945 175.831L675.265 140.536L674.753 105.017L668.529 70.1587L656.812 36.8049L642.214 10.0029" stroke="white" stroke-width="0.28" stroke-linecap="round" stroke-linejoin="round"/>
<path d="M671.307 -151L658.669 -119.835L639.03 -74.4349L621.58 -36.7749L605.951 -5.43549L591.855 20.6867L579.065 42.4627L567.398 60.5839L556.701 75.6121L546.852 88.0042L537.747 98.1327L529.297 106.313L521.431 112.802L514.085 117.818L507.202 121.547L500.737 124.149L494.647 125.754L488.897 126.479" stroke="white" stroke-width="0.28" stroke-linecap="round" stroke-linejoin="round"/>
<path d="M623.098 -77.8536L594.504 -95.3715L556.136 -111.29L515.498 -120.93L473.44 -123.777L430.942 -119.385L389.311 -107.464L389.126 -107.413L351.225 -88.6535L349.269 -87.6862L312.781 -60.2676L281.167 -25.536L255.946 15.759L238.543 62.4389L230.158 112.908L231.632 165.194L241.278 208" stroke="white" stroke-width="0.28" stroke-linecap="round" stroke-linejoin="round"/>
<path d="M841.058 35.5772L828.385 7.19797L800.152 -37.7884L766.657 -77.9083L728.708 -112.799L716.716 -121.239" stroke="white" stroke-width="0.28" stroke-linecap="round" stroke-linejoin="round"/>
<path d="M284.94 208L271.314 180.522L261.54 144.537L258.936 107.096L261.031 103.945L262.883 100.428L264.513 96.5807L265.541 87.8516L267.261 73.2374L268.218 65.095L268.472 62.936L269.676 59.9111" stroke="white" stroke-width="0.28" stroke-linecap="round" stroke-linejoin="round"/>
<path d="M673.33 208L682.302 178.974L687.243 142.232L686.148 105.394L679.185 69.3713L666.619 35.017L648.79 3.13582L647.643 1.68652" stroke="white" stroke-width="0.28" stroke-linecap="round" stroke-linejoin="round"/>
<path d="M627.623 -88.4275L601.697 -104.001L562.057 -120.191L520.189 -130.013L476.924 -132.967L433.219 -128.592L390.36 -116.574L390.179 -116.524L349.069 -96.5383L311.304 -68.6377L278.421 -33.1249L251.999 9.32017L233.564 57.5724L224.439 110.053L225.603 164.749L225.805 165.678L232.508 196.326L235.063 208" stroke="white" stroke-width="0.28" stroke-linecap="round" stroke-linejoin="round"/>
<path d="M816.973 207.999L820.6 177.98L818.201 126.516L807.9 76.991L790.532 30.3676L766.923 -12.5928L737.859 -51.28L704.071 -85.1855L699.612 -88.5645" stroke="white" stroke-width="0.28" stroke-linecap="round" stroke-linejoin="round"/>
<path d="M333.656 208.001L312.397 190.333L293.79 167.796L279.759 141.877L271.047 113.389L268.213 83.3446L269.094 78.4483L269.731 72.5347L270.299 67.2628L270.806 62.5576L271.258 58.3559L271.664 54.6031L271.795 53.3848" stroke="white" stroke-width="0.28" stroke-linecap="round" stroke-linejoin="round"/>
<path d="M687.827 208L695.496 181.595L699.98 143.325L698.218 105.11L690.428 67.8804L676.926 32.5006L658.095 -0.231497L652.906 -6.65527" stroke="white" stroke-width="0.28" stroke-linecap="round" stroke-linejoin="round"/>
<path d="M632.543 -99.9986L609.173 -113.732L568.184 -130.18L525.016 -140.188L480.478 -143.26L435.502 -138.93L391.345 -126.849L391.167 -126.799L348.724 -106.599L309.591 -78.2592L275.333 -41.9968L247.599 1.58842L228.013 51.4429L218.044 106.019L218.825 163.273L228.294 208" stroke="white" stroke-width="0.28" stroke-linecap="round" stroke-linejoin="round"/>
<path d="M602.34 84.5674L600.215 111.459L593.558 137.566L582.567 162.226L567.517 184.815L548.771 204.751L544.505 208" stroke="white" stroke-width="0.28" stroke-linecap="round" stroke-linejoin="round"/>
<path d="M794.234 208L798.204 181.678L797.373 132.38L788.877 84.6317L773.432 39.4143L751.77 -2.47071L724.611 -40.3585L692.647 -73.684L692.012 -74.1826" stroke="white" stroke-width="0.28" stroke-linecap="round" stroke-linejoin="round"/>
<path d="M597.825 53.3441L612.049 31.9819L627.782 6.26192L645.296 -24.7035L664.933 -62.0428L687.133 -107.215L707.33 -151" stroke="white" stroke-width="0.28" stroke-linecap="round" stroke-linejoin="round"/>
<path d="M585.694 101.194L578.975 125.538L568.19 148.433L553.629 169.311L535.65 187.655L514.687 202.997L504.844 208" stroke="white" stroke-width="0.28" stroke-linecap="round" stroke-linejoin="round"/>
<path d="M703.02 208L709.618 183.624L713.557 143.745L711.028 104.091L702.31 65.613L687.774 29.1828L667.851 -4.41192L658.437 -15.7969" stroke="white" stroke-width="0.28" stroke-linecap="round" stroke-linejoin="round"/>
<path d="M660.601 -151L651.689 -128.062L654.709 -123.849L647.614 -107.064L635.509 -78.4338L632.608 -72.0283L618.425 -40.7122L612.139 -27.8165L603.105 -9.27812L596.382 3.47468L589.273 16.9555L576.712 38.8528L565.24 57.102L554.714 72.2597L545.016 84.7782L536.043 95.0346L527.711 103.335L519.95 109.941L512.697 115.07L505.897 118.908L499.507 121.612L493.487 123.316L487.798 124.135L482.411 124.17" stroke="white" stroke-width="0.28" stroke-linecap="round" stroke-linejoin="round"/>
<path d="M773.346 208L777.615 184.068L778.099 136.843L771.16 90.8261L757.407 47.0065L737.489 6.21683L712.06 -30.8383L684.471 -60.627" stroke="white" stroke-width="0.28" stroke-linecap="round" stroke-linejoin="round"/>
<path d="M279.704 208L269.1 186.307L271.314 180.522L273.262 174.51L274.97 168.301L276.46 161.912L277.743 155.368L278.838 148.685L279.759 141.876L280.513 134.955L281.113 127.933L281.567 120.818L273.268 95.1993L270.381 68.045L270.857 63.4561" stroke="white" stroke-width="0.28" stroke-linecap="round" stroke-linejoin="round"/>
<path d="M831.7 -151L816.629 -132.53L798.968 -112.087L782.338 -93.9556L766.658 -77.9086L751.854 -63.7414L737.858 -51.2794L724.612 -40.3582L712.06 -30.8381L700.153 -22.591L688.843 -15.5024L678.088 -9.47423L667.852 -4.41167L658.095 -0.231644L648.79 3.13564L646.195 3.90351" stroke="white" stroke-width="0.28" stroke-linecap="round" stroke-linejoin="round"/>
<path d="M719.019 208L724.768 184.986L728.055 143.409L724.645 102.253L714.885 62.4907L699.204 24.9885L678.088 -9.4738L664.391 -25.6338" stroke="white" stroke-width="0.28" stroke-linecap="round" stroke-linejoin="round"/>
<path d="M604.189 208L616.222 187.948L627.487 159.1L633.763 128.881L634.926 98.0717L630.957 67.4603L622.323 39.1143" stroke="white" stroke-width="0.28" stroke-linecap="round" stroke-linejoin="round"/>
<path d="M754.001 208L758.625 185.322L760.211 140.076L754.62 95.7365L742.362 53.298L724.008 13.6102L700.153 -22.5906L677.355 -48.0098" stroke="white" stroke-width="0.28" stroke-linecap="round" stroke-linejoin="round"/>
<path d="M735.958 208L741.061 185.586L743.57 142.222L739.146 99.506L728.213 58.4205L711.265 19.8313L688.843 -15.502L670.742 -36.2891" stroke="white" stroke-width="0.28" stroke-linecap="round" stroke-linejoin="round"/>
<path d="M557.196 50.6055L556.158 28.7846L551.053 7.08504L542.255 -12.8793L542.078 -13.2799L541.866 -13.7635L532.871 -26.9385L529.061 -32.5163L528.669 -33.0914L521.468 -40.3379L513.618 -48.2392L511.661 -50.207" stroke="white" stroke-width="0.28" stroke-linecap="round" stroke-linejoin="round"/>
<path d="M305.009 208L291.565 191.084L276.461 161.912L267.26 130.017L264.514 96.5803L265.937 92.4335L267.165 88.0125L267.976 80.8109L268.696 74.4021L269.337 68.6946L269.911 63.6055L270.582 57.6321L270.67 56.8477" stroke="white" stroke-width="0.28" stroke-linecap="round" stroke-linejoin="round"/>
<path d="M841.059 173.621L820.599 177.98L798.205 181.679L777.616 184.069L758.625 185.322L741.061 185.586L724.768 184.986L709.618 183.625L695.496 181.595L682.301 178.974L669.946 175.831L658.351 172.225L647.452 168.204L637.182 163.817L627.487 159.1L618.321 154.089L609.637 148.812L601.395 143.295L593.558 137.566L586.094 131.641L578.974 125.538L572.17 119.277L565.655 112.869L560.821 107.808" stroke="white" stroke-width="0.28" stroke-linecap="round" stroke-linejoin="round"/>
<path d="M542.062 120.898L542.042 120.923L541.077 122.198L539.024 124.907L529.454 137.537L512.85 153.23L493.677 166.25L472.38 176.282L449.45 183.055L425.429 186.341L400.9 185.97L376.505 181.825L352.936 173.861L330.994 162.15L330.927 162.115L311.352 146.808L311.257 146.733L294.831 128.128L294.715 127.998L294.542 119.934L294.263 111.843L293.877 103.728L293.39 95.5853L292.802 87.418L292.115 79.2275L291.334 71.0121L290.455 62.7733L289.483 54.508L288.416 46.2178L287.255 37.8976L286.002 29.5509L284.656 21.1726L284.566 20.6523" stroke="white" stroke-width="0.28" stroke-linecap="round" stroke-linejoin="round"/>
<path d="M566.838 35.3845L561.943 15.2706L552.365 -6.19797L552.152 -6.67663L541.675 -21.9624L539.271 -25.4693L538.248 -26.9635L529.11 -36.1628L523.366 -41.9451L520.451 -44.8802L514.178 -49.2447L509.117 -52.7666L505.198 -55.494L500.588 -58.7034L500.185 -58.9826L499.296 -59.6025" stroke="white" stroke-width="0.28" stroke-linecap="round" stroke-linejoin="round"/>
<path d="M602.354 65.4375L600.84 66.9566L599.616 67.8043L596.39 69.601L592.78 70.766L588.905 71.2563L584.891 71.0519L580.875 70.1561L576.991 68.5987L573.373 66.4331L570.139 63.7306L567.398 60.5844L565.24 57.1024L563.735 53.4027L562.925 49.61L562.834 45.8471L563.459 42.2372L564.772 38.8965" stroke="white" stroke-width="0.28" stroke-linecap="round" stroke-linejoin="round"/>
<path d="M437.026 92.0983L418.946 96.5725L398.977 98.7432L378.614 98.2429L358.342 94.992L338.693 88.9521L320.246 80.13L303.714 68.657L303.624 68.5955L289.585 54.6111L289.482 54.508L278.59 38.3098L278.477 38.142L277.522 35.7354" stroke="white" stroke-width="0.28" stroke-linecap="round" stroke-linejoin="round"/>
<path d="M537.418 76.8541L543.285 59.6387L546.293 39.3386L545.511 18.623L540.81 -1.94807L532.907 -20.0327L532.364 -21.2776L532.149 -21.7679L524.429 -33.083L520.793 -38.4148L519.579 -40.1932L514.085 -45.7062L509.345 -50.4629L505.318 -54.505L504.977 -54.8457" stroke="white" stroke-width="0.28" stroke-linecap="round" stroke-linejoin="round"/>
<path d="M557.151 110.771L556.957 111.153L555.431 114.161L548.969 126.902L535.111 145.559L518.183 161.855L498.594 175.404L476.803 185.862L453.315 192.942L428.689 196.402L403.536 196.06L378.519 191.79L354.353 183.548L331.872 171.413L331.806 171.379L311.773 155.516L311.675 155.438L311.256 146.732L310.748 138.035L310.151 129.344L309.469 120.658L308.703 111.979L307.852 103.301L306.92 94.6273L305.903 85.9515L304.806 77.2756L303.624 68.5948L302.363 59.9074L301.016 51.2099L299.587 42.5025L298.075 33.7802L296.476 25.0395L294.794 16.2806L293.024 7.4967L292.729 6.10059" stroke="white" stroke-width="0.28" stroke-linecap="round" stroke-linejoin="round"/>
<path d="M274.387 208L266.597 191.835L269.1 186.307L259.115 148.777L261.54 144.537L263.69 139.975L265.59 135.125L267.259 130.017L268.716 124.677L269.973 119.128L271.047 113.389L271.947 107.478L269.094 78.4476L269.813 73.3418" stroke="white" stroke-width="0.28" stroke-linecap="round" stroke-linejoin="round"/>
<path d="M349.443 208L334.082 199.434L312.474 181.689L312.366 181.601L294.23 159.918L280.513 134.955L271.947 107.479L272.685 101.411L269.813 73.3421L269.927 72.2451L270.371 68.0435L270.376 68.0003L270.857 63.4563L270.88 63.2336L271.329 58.9788L271.731 55.1777L271.98 52.8076" stroke="white" stroke-width="0.28" stroke-linecap="round" stroke-linejoin="round"/>
<path d="M549.291 61.8121L551.658 45.097L550.75 23.793L545.856 2.66689L537.525 -16.3252L537.153 -17.1728L536.94 -17.6582L528.607 -29.8741L525.218 -34.8403L524.068 -36.5273L517.744 -42.8829L512.226 -48.4308L508.307 -52.3681L507.775 -52.9033" stroke="white" stroke-width="0.28" stroke-linecap="round" stroke-linejoin="round"/>
<path d="M589.694 80.2499L587.497 82.5551L585.396 84.7606L579.39 91.0631L578.073 92.4442L576.574 93.7423L575.535 94.6398L574.38 95.7135L569.311 100.502L567.362 102.395L564.917 104.504L563.526 105.626L560.821 107.808L557.152 110.772L555.092 112.434L553.304 113.66L550.459 115.611L545.975 118.688L543.51 120.071L543.362 120.162L543.342 120.175L542.062 120.898L540.661 121.689L537.485 123.483L534.97 124.896L532.218 125.811L529.318 126.195L525.9 127.724L523.549 128.776L521.707 129.601L514.577 131.893L511.87 131.741L509.21 131.092L506.689 129.963L500.318 131.344L498.119 129.835L496.208 127.952L494.647 125.755L493.487 123.317L492.764 120.717L492.505 118.043L492.713 115.38L493.384 112.816L499.314 110.692L505.072 107.81L505.597 107.547L511.722 103.605L512.272 103.251L518.805 98.0968L519.38 97.6431L524.17 93.1622L526.971 90.5429L533.567 83.3978L535.103 81.7341L536.228 80.3446L543.84 70.9591L548.006 65.1935L549.011 63.8024L552.596 58.8395L553.263 57.9154L557.253 51.7792L561.874 44.6756L562.296 44.0274L563.459 42.2374L566.386 37.2845L567.033 36.1893L570.476 30.3622L573.837 24.6713L574.041 24.3273L574.538 23.4846L576.789 19.3246L579.471 14.3634L582.518 8.72744L583.556 6.80778L584.904 4.31472L585.922 2.43497L586.633 1.11696L587.296 -0.408774L589.917 -5.47632L592.684 -11.0325L593.112 -11.8918L595.211 -16.1084L595.59 -16.8696L598.332 -22.3759L599.901 -25.5255L601.121 -28.4806L604.186 -35.1919L607.422 -42.5996L611.072 -50.5358L611.504 -51.4765L613.744 -56.3463L614.642 -58.2992L615.15 -59.0604L616.819 -62.5906L619.063 -68.1235L623.098 -77.8531L627.624 -88.4269L630.004 -93.9864L630.843 -95.9476L632.066 -98.8047" stroke="white" stroke-width="0.28" stroke-linecap="round" stroke-linejoin="round"/>
<path d="M494.66 12.6045L485.674 26.3279L474.197 38.5589L460.532 49.0646L444.997 57.6457L438.08 60.2767" stroke="white" stroke-width="0.28" stroke-linecap="round" stroke-linejoin="round"/>
<path d="M617.664 208L625.893 193.872L637.182 163.816L643.286 132.427L644.112 100.521L639.668 68.9089L630.226 38.9175L630.06 38.3889L627.04 32.4521" stroke="white" stroke-width="0.28" stroke-linecap="round" stroke-linejoin="round"/>
<path d="M431.39 83.3846L415.837 87.1607L396.198 89.2432L376.171 88.7363L356.231 85.5652L336.898 79.6915L318.737 71.1154L302.453 59.9698L302.363 59.9083L288.518 46.3178L288.415 46.2181L278.725 32.0293" stroke="white" stroke-width="0.28" stroke-linecap="round" stroke-linejoin="round"/>
<path d="M498.347 -59.4463L499.198 -57.4934L504.698 -44.8536L508.876 -38.98L512.544 -21.7762L512.707 -4.60405L509.529 12.0745L503.225 27.8539L494.049 42.3817L482.283 55.3556L468.241 66.5212L452.247 75.6607L449.227 76.8507" stroke="white" stroke-width="0.28" stroke-linecap="round" stroke-linejoin="round"/>
<path d="M556.045 52.3874L554.762 54.1774L552.583 57.2189L549.274 61.9441L548.358 63.3253L547.471 64.5635L545.117 67.841L544.241 68.9296L541.278 72.6144L537.091 77.8182L536.358 78.7273L535.544 79.6199L534.733 80.5074L534.515 80.7451L528.203 87.6492L527.446 88.3655L523.479 92.1217L520.587 94.8591L519.886 95.4209L513.454 100.573L512.805 100.999L508.24 103.997L506.756 104.973L506.154 105.282L500.447 108.214L494.491 110.434L488.857 111.745L483.514 112.249L478.436 112.033L473.596 111.174L468.979 109.736L464.563 107.778L460.328 105.353L456.261 102.504L452.347 99.2734L448.571 95.6934L444.925 91.7976L441.391 87.6143L437.964 83.1667L434.633 78.4764L431.387 73.5651L428.219 68.4477L425.121 63.1408L422.086 57.661L419.106 52.0168L416.175 46.2212L413.286 40.2828L410.432 34.2114L407.612 28.0136L404.816 21.6979L402.041 15.2691L399.282 8.73233L396.534 2.09083L393.794 -4.64707L391.056 -11.483L388.317 -18.4121L385.573 -25.4308L382.821 -32.5394L380.057 -39.7343L377.276 -47.0174L374.479 -54.3852L371.876 -61.2627" stroke="white" stroke-width="0.28" stroke-linecap="round" stroke-linejoin="round"/>
<path d="M841.058 -1.5791L828.385 7.19812L808.808 19.6966L790.531 30.3686L773.432 39.415L757.407 47.0072L742.362 53.298L728.213 58.4204L714.885 62.4908L702.31 65.6137L690.428 67.8807L679.184 69.3716L668.529 70.1594L658.419 70.3073L648.811 69.8735L639.668 68.9095L630.957 67.4603L622.645 65.5672L614.704 63.2669L611.824 53.2149" stroke="white" stroke-width="0.28" stroke-linecap="round" stroke-linejoin="round"/>
<path d="M466.481 122.965L452.365 129.038L431.787 134.541L410.282 137.126L388.348 136.66L366.527 133.057L345.406 126.271L325.691 116.355L325.621 116.32L307.942 103.368L307.852 103.301L292.907 87.5287L292.801 87.4173L281.168 68.9987L275.22 52.8919L273.608 48.5257L273.538 48.0088" stroke="white" stroke-width="0.28" stroke-linecap="round" stroke-linejoin="round"/>
<path d="M371.138 208L357.128 203.135L333.385 190.035L312.338 172.956L312.233 172.871L294.538 151.994L281.113 127.933L272.685 101.41L273.269 95.199L273.707 88.8566L274.007 82.393L274.173 75.8163L274.213 69.1349L272.993 59.1627L272.15 52.2852" stroke="white" stroke-width="0.28" stroke-linecap="round" stroke-linejoin="round"/>
<path d="M578.073 92.4432L576.549 93.7196L575.535 94.6387L572.581 96.3058L569.305 97.3894L565.813 97.8465L562.223 97.6636L558.65 96.8409L555.218 95.4082L552.039 93.4088L549.218 90.9125L546.851 88.0039L545.016 84.7779L543.77 81.3474L543.152 77.8222L543.177 74.322L543.84 70.958L545.116 67.84L546.961 65.0645" stroke="white" stroke-width="0.28" stroke-linecap="round" stroke-linejoin="round"/>
<path d="M501.61 -57.1826L504.68 -52.7234L509.877 -45.1727L514.132 -40.1434L518.48 -35.2786L519.655 -32.5745L526.471 -16.8766L530.666 2.14878L531.138 21.2273L528.03 39.8454L521.549 57.5445L511.95 73.9155L499.522 88.6013L484.594 101.298L480.525 103.786" stroke="white" stroke-width="0.28" stroke-linecap="round" stroke-linejoin="round"/>
<path d="M359.898 -151L346.636 -145.223L302.753 -115.971L263.619 -77.8355L231.085 -31.0575L207.14 23.6452L214.893 34.6927L203.003 92.854" stroke="white" stroke-width="0.28" stroke-linecap="round" stroke-linejoin="round"/>
<path d="M841.059 61.3174L828.366 67.7162L807.9 76.9921L788.878 84.6324L771.161 90.8269L754.62 95.7365L739.147 99.506L724.645 102.253L711.028 104.092L698.219 105.11L686.148 105.395L674.754 105.017L663.984 104.042L653.784 102.526L644.113 100.522L634.927 98.0717L626.19 95.218L617.866 91.9953L609.927 88.4352L602.341 84.5676L600.739 67.3273" stroke="white" stroke-width="0.28" stroke-linecap="round" stroke-linejoin="round"/>
<path d="M322.937 208L312.315 199.07L293.205 175.621L278.838 148.686L269.973 119.128L267.164 88.013L268.213 83.3443L268.932 76.8125L269.572 70.9937L270.144 65.8065L270.653 61.1761L271.108 57.0426L271.366 54.7041" stroke="white" stroke-width="0.28" stroke-linecap="round" stroke-linejoin="round"/>
<path d="M426.247 74.557L412.751 77.7714L393.424 79.7708L373.714 79.2589L354.087 76.1642L335.05 70.4468L317.159 62.1084L301.106 51.2719L301.016 51.2104L287.357 37.9972L287.254 37.8975L280.42 28.0449" stroke="white" stroke-width="0.28" stroke-linecap="round" stroke-linejoin="round"/>
<path d="M569.277 100.614L569.227 100.784L565.654 112.868L555.098 134.177L541.009 153.532L523.745 170.471L503.721 184.579L481.405 195.493L457.324 202.903L432.056 206.551L406.234 206.24L380.551 201.842L355.75 193.306L332.693 180.721L332.625 180.685L331.805 171.379L330.926 162.115L329.987 152.889L328.986 143.701L327.926 134.545L326.806 125.42L325.621 116.321L324.374 107.246L323.064 98.191L321.688 89.1529L320.246 80.1297L318.737 71.1148L317.159 62.1082L315.511 53.1033L313.789 44.0984L311.995 35.0885L310.127 26.0719L308.181 17.0421L306.158 7.99726L304.056 -1.06915L302.585 -7.19043" stroke="white" stroke-width="0.28" stroke-linecap="round" stroke-linejoin="round"/>
<path d="M203.003 -94.3926L207.954 -82.6885L216.565 -62.8887L224.236 -45.7896L231.085 -31.0573L237.208 -18.4059L242.687 -7.59437L247.599 1.58838L252 9.32018L255.946 15.7589L259.481 21.0392L262.647 25.2824L265.479 28.5915L268.005 31.058L270.254 32.7632L272.25 33.7771L274.01 34.1643L275.556 33.9798L276.904 33.2751L278.112 31.1294L279.849 28.0447L280.105 27.5893L282.111 24.0259L284.042 20.5954L286.66 15.95L289.298 11.2648L291.839 6.75068L292.587 5.42436L294.764 1.55681L295.118 1.1413" stroke="white" stroke-width="0.28" stroke-linecap="round" stroke-linejoin="round"/>
<path d="M421.454 65.6493L409.684 68.4017L390.648 70.323L371.238 69.8061L351.903 66.7845L333.147 61.2167L315.511 53.1026L299.587 42.5021L286.105 29.648L286.002 29.5499L282.425 24.4707" stroke="white" stroke-width="0.28" stroke-linecap="round" stroke-linejoin="round"/>
<path d="M419.597 25.5683L430.938 21.5511L445.701 13.9357L458.727 4.58174L469.716 -6.34616L478.384 -18.6469L484.46 -32.0828L487.694 -46.3647L483.74 -53.6427L483.94 -66.6133" stroke="white" stroke-width="0.28" stroke-linecap="round" stroke-linejoin="round"/>
<path d="M502.504 -56.5625L503.647 -55.4207L506.941 -52.1315L510.915 -48.1659L512.298 -46.1399L516.317 -40.2612L522.927 -30.5899L523.144 -30.0896L523.979 -28.1699L531.125 -11.7291L535.478 7.79157L536.045 27.3953L532.964 46.5503L526.44 64.7845L516.726 81.6708L504.114 96.8402L493.705 105.847" stroke="white" stroke-width="0.28" stroke-linecap="round" stroke-linejoin="round"/>
<path d="M297.786 208L290.488 198.701L274.971 168.301L265.59 135.125L262.883 100.428L264.041 90.8297L265.065 82.335L266.84 67.6027L267.081 65.6033L268.761 60.4759L270.07 56.4887L270.793 54.2815L271.959 50.7214L272.465 49.1824L273.116 47.1946L274.145 44.055L275.162 40.9536L276.168 37.8838L277.166 34.8373L277.841 32.7797L278.066 32.095L278.385 31.5282L279.169 30.1321L279.58 29.4008L280.376 27.9814L282.382 24.4114L284.383 20.9144L284.443 20.8746L284.557 20.602L286.972 16.2391L289.045 12.6093L289.63 11.5672L292.205 6.9816L292.308 6.85196L292.721 6.06083L294.914 2.10352L295.241 1.21931L296.272 -0.215027L299.416 -3.90973L302.503 -7.53463L303.982 -9.27313L309.275 -15.2747L313.588 -20.344L314.61 -21.5456L318.19 -25.5411L318.323 -25.6475L321.689 -28.3433L325.874 -31.6957L330.584 -35.4685L338.954 -42.1731L340.483 -43.3964L345.122 -47.1127L345.435 -47.3288L346.706 -47.952L352.767 -51.1565L355.643 -52.7304L367.041 -58.8135L367.056 -58.8218L369.75 -60.193L369.843 -60.188L370.103 -60.3243L370.538 -60.5553L370.905 -60.7497L371.057 -60.8844L371.859 -61.3082L372.735 -61.717L373.684 -62.219L374.587 -62.696L374.688 -62.7575L375.694 -63.3658L376.068 -63.5918L377.524 -64.9863L378.953 -66.9192L380.354 -69.4289L381.135 -69.6699L402.359 -76.205L415.215 -80.1623L415.597 -80.2072L434.314 -82.3645L450.809 -84.2659L453.868 -87.6764L456.981 -91.7434L460.15 -96.5151L463.379 -102.043L466.669 -108.387L470.021 -115.609L473.44 -123.777L476.925 -132.967L480.478 -143.26L482.92 -151" stroke="white" stroke-width="0.28" stroke-linecap="round" stroke-linejoin="round"/>
<path d="M489.809 132.582L479.975 138.914L460.009 147.818L438.572 153.78L416.151 156.615L393.277 156.18L370.523 152.375L348.516 145.155L327.995 134.58L327.927 134.545L309.561 120.728L309.47 120.659L293.985 103.844L293.877 103.727L281.993 84.3098L281.874 84.1153L276.002 67.618L274.25 62.6967L274.128 62.3559L272.905 52.6663L272.659 50.7217" stroke="white" stroke-width="0.28" stroke-linecap="round" stroke-linejoin="round"/>
<path d="M570.274 29.5438L567.661 19.0098L557.536 -3.51415L546.226 -19.9617L544.236 -22.8553L543.242 -24.3029L533.032 -34.571L526.504 -41.1393L525.013 -42.6368L517.439 -47.9105L508.933 -53.8356L504.128 -57.1797L503.224 -57.8096" stroke="white" stroke-width="0.28" stroke-linecap="round" stroke-linejoin="round"/>
<path d="M575.707 208L582.935 199.966L598.478 175.446L609.637 148.812L616.154 120.755L617.866 91.995L614.705 63.2667L607.109 60.5924L606.351 60.2783" stroke="white" stroke-width="0.28" stroke-linecap="round" stroke-linejoin="round"/>
<path d="M416.975 56.6736L406.627 59.047L387.868 60.8935L368.738 60.375L349.681 57.4232L331.186 51.9983L313.789 44.0986L298.075 33.7807L284.758 21.2689L284.655 21.1725L284.443 20.875" stroke="white" stroke-width="0.28" stroke-linecap="round" stroke-linejoin="round"/>
<path d="M579.217 13.8148L574.781 4.23316L560.521 -16.1999L560.097 -16.8049L559.158 -18.1512L553.687 -19.8764L548.385 -21.934L543.243 -24.3024L538.248 -26.9633L533.393 -29.8968L525.256 -38.0923L517.759 -45.6396L516.667 -46.7399L516.002 -47.408L510.957 -50.9149L507.055 -53.629L504.241 -55.5852L502.479 -56.8085L501.306 -57.6245L500.546 -58.1531L499.322 -59.004L499.054 -59.1902L498.805 -59.3647L498.201 -59.7835L496.867 -60.7109" stroke="white" stroke-width="0.28" stroke-linecap="round" stroke-linejoin="round"/>
<path d="M631.397 208.001L636.17 199.542L647.452 168.205L653.346 135.582L653.784 102.526L648.812 69.8736L638.565 38.4395L631.894 25.5986" stroke="white" stroke-width="0.28" stroke-linecap="round" stroke-linejoin="round"/>
<path d="M537.482 123.477L534.971 124.894L533.192 125.68L529.817 127.171L527.132 128.358L524.488 129.232L524.201 129.302L523.97 129.398L523.099 129.676L517.248 131.542L515.264 131.93L513.208 132.332L510.446 132.872L507.879 133.204L505.28 133.055L502.73 132.428L500.319 131.343L494.312 131.855L492.208 130.404L486.619 130.201L484.874 128.458L479.646 127.633L474.679 126.196L473.382 124.311L468.702 122.391L468.237 122.139L464.233 119.975L459.953 117.114L458.165 115.692L455.849 113.85L455.379 113.418L451.904 110.223L451.134 108.48L450.77 108.103L450.225 107.541L447.361 104.584L447.006 104.174L446.494 103.585L443.716 100.388L443.371 99.9471L442.887 99.3355L440.191 95.9167L439.802 94.2397L439.731 92.5145L439.053 91.5954L436.332 87.9057L433.028 83.0608L429.809 78.0016L426.667 72.7445L423.596 67.3047L422.567 65.39L420.586 61.697L417.629 55.9297L414.721 50.0179L414.95 48.6866L415.44 47.4068L416.175 46.2201L417.129 45.1664L418.276 44.2772L419.572 43.5858L420.978 43.1121L422.449 42.8711L423.933 42.8728L425.386 43.1138L426.76 43.5891L428.009 44.2788L429.094 45.163L429.978 46.2068" stroke="white" stroke-width="0.28" stroke-linecap="round" stroke-linejoin="round"/>
<path d="M457.405 116.013L448.683 119.699L428.499 124.993L407.413 127.463L385.908 126.987L364.511 123.477L343.794 116.892L324.446 107.281L324.374 107.246L307.008 94.6924L306.92 94.6276L292.219 79.3352L292.114 79.2272L280.767 61.5381L280.653 61.3603L274.661 45.4297L274.508 45.0225" stroke="white" stroke-width="0.28" stroke-linecap="round" stroke-linejoin="round"/>
<path d="M412.699 47.6505L403.576 49.7031L385.076 51.4799L366.21 50.958L347.412 48.0727L329.166 42.7841L311.996 35.0889L296.569 25.1L296.476 25.0402L287.019 16.2812" stroke="white" stroke-width="0.28" stroke-linecap="round" stroke-linejoin="round"/>
<path d="M500.426 -58.0039L500.925 -57.2826L505.705 -50.3619L509.877 -45.173L510.103 -44.6511L511.256 -41.9918L517.482 -27.6385L521.925 -22.182L525.975 -3.63702L526.359 14.9379L523.23 33.0408L516.793 50.2279L507.304 66.1054L495.053 80.3341L480.362 92.6165L470.62 98.4752" stroke="white" stroke-width="0.28" stroke-linecap="round" stroke-linejoin="round"/>
<path d="M562.233 42.8242L561.743 33.5865L556.158 28.7849L550.751 23.7938L545.511 18.6232L540.424 13.2864L535.479 7.79174L530.666 2.14912L525.975 -3.63643L521.397 -9.5566L516.922 -15.6048L512.545 -21.7759L508.253 -28.0651L504.698 -44.8533L500.595 -50.8532L496.197 -60.9385" stroke="white" stroke-width="0.28" stroke-linecap="round" stroke-linejoin="round"/>
<path d="M494.661 12.6041L490.498 4.8856L486.402 -2.89771L482.367 -10.7409L478.385 -18.6472L474.449 -26.6166L470.555 -34.6476L466.694 -42.7434L462.863 -50.904L459.055 -59.1294L465.019 -70.9797L465.278 -71.9736" stroke="white" stroke-width="0.28" stroke-linecap="round" stroke-linejoin="round"/>
<path d="M334.658 208L334.083 199.434L333.385 190.035L332.626 180.685L312.103 164.232L312.003 164.151L294.718 144.03L281.568 120.818L281.884 113.62L282.067 106.345L282.123 99.0007L276.314 82.0579L274.174 75.8169L271.81 55.8376L271.732 55.1777" stroke="white" stroke-width="0.28" stroke-linecap="round" stroke-linejoin="round"/>
<path d="M530.573 84.3762L530.028 84.943L527.698 87.21L524.982 89.7978L523.109 91.5679L522.276 92.3773L521.331 93.1418L519.792 94.3867L515.095 98.1845L514.262 98.7396L508.35 102.675L507.612 103.063L501.996 106.006L501.34 106.257L496 108.308L490.325 109.701L484.942 110.282L479.826 110.141L474.952 109.352L470.3 107.98L465.85 106.087L461.584 103.722L457.487 100.933L453.545 97.7556L449.742 94.2305L446.067 90.3845L442.51 86.2477L439.06 81.845L435.704 77.1996L432.437 72.3281L429.249 67.2523L426.131 61.9836L423.076 56.5388L420.078 50.9294L417.129 45.1655L414.222 39.2586L411.355 33.2171L408.518 27.0493L405.708 20.7601L402.921 14.358L400.148 7.84609L397.388 1.23119L394.635 -5.4851L391.888 -12.2995L389.139 -19.2052L386.385 -26.2041L383.623 -33.2926L380.85 -40.4693L378.063 -47.7324L375.258 -55.0819L372.735 -61.7168" stroke="white" stroke-width="0.28" stroke-linecap="round" stroke-linejoin="round"/>
<path d="M408.598 38.5817L400.523 40.3634L382.268 42.0737L363.651 41.5501L345.099 38.728L327.085 33.569L310.129 26.0716L294.886 16.3387L294.795 16.2805L289.652 11.5869" stroke="white" stroke-width="0.28" stroke-linecap="round" stroke-linejoin="round"/>
<path d="M536.131 78.2681L531.481 71.9424L526.44 64.784L521.549 57.5441L516.792 50.2279L512.16 42.8401L507.641 35.3809L503.225 27.8535L498.9 20.2613L494.66 12.6043L500.881 -2.32907L504.081 -18.1483L504.041 -34.4679L499.904 -40.9814L496.558 -56.9785L494.442 -61.8184" stroke="white" stroke-width="0.28" stroke-linecap="round" stroke-linejoin="round"/>
<path d="M557.162 50.662L551.659 45.0975L546.294 39.3386L541.093 33.435L536.046 27.3952L531.138 21.2274L526.359 14.9382L521.702 8.53273L517.153 2.01755L512.707 -4.604L508.351 -11.3253L504.081 -18.1479L499.888 -25.0637L499.905 -40.981L495.834 -47.6026L492.713 -62.6074" stroke="white" stroke-width="0.28" stroke-linecap="round" stroke-linejoin="round"/>
<path d="M654.219 208L647.11 204.923L636.169 199.541L625.893 193.872L616.221 187.947L607.099 181.796L598.478 175.445L590.312 168.915L582.567 162.225L575.202 155.393L568.189 148.432L561.497 141.357L555.098 134.177L548.969 126.902L543.514 120.076" stroke="white" stroke-width="0.28" stroke-linecap="round" stroke-linejoin="round"/>
<path d="M652.777 -151L650.177 -144.073L649.381 -141.86L648.944 -140.463L648.776 -136.509L644.532 -125.985L638.912 -112.055L633.76 -99.2824L630.476 -91.1401L628.958 -87.6265L624.394 -77.061L620.223 -67.4012L618.845 -64.2134L616.214 -58.1204L614.125 -53.2855L612.326 -49.4097L608.643 -41.4834L605.259 -34.197L602.155 -27.5107L599.412 -21.6054L596.565 -15.9329L594.07 -10.9618L590.743 -4.33189L588.165 0.805466L586.086 4.94892L584.893 7.13451L583.011 10.5865L580.151 15.8303L577.453 20.7782L575.866 23.6901L573.946 27.2086L570.943 32.2479L567.484 38.0467L562.834 45.8467L557.368 54.1685L552.614 61.4033L548.565 66.9462L543.177 74.3223L542.65 74.9639L537.928 80.7112L534.809 84.509L534.428 84.9727L533.908 85.5278L526.291 93.6602L525.779 94.1305L518.697 100.642L518.195 101.03L511.589 106.134L511.429 109.13L511.803 112.144L512.697 115.071L514.085 117.818L515.92 120.294L518.144 122.417L520.683 124.115L523.454 125.335L526.364 126.035L529.317 126.195L537.465 121.519L540.493 121.115L542.369 120.49L543.362 120.161L543.51 120.07L550.018 115.587L551.293 114.713L552.373 113.97L557.728 109.632L560.454 107.423L561.16 106.852L562.085 106.104L569.776 98.9238L571.769 97.0657L572.582 96.3061L575.605 93.1117L579.621 88.8668L581.406 86.9788L583.975 84.263L587.765 79.7871L589.977 77.1761L594.366 71.9922L595.997 70.0675L596.391 69.6005L600.458 64.2936L604.212 59.3923L606.664 56.1928L609.983 51.8599L613.36 50.0034L616.667 45.3148L621.936 37.8456L626.495 31.382L627.738 29.6202L628.478 28.5715L631.234 24.3266L636.188 16.6962L641.447 8.59377L643.569 5.32621L645.2 2.81487L646.639 0.418208L652.685 -9.63711L657.253 -17.231L663.173 -27.0785L663.809 -28.1356L667.011 -30.7533L670.37 -36.7183L676.971 -48.439L684.076 -61.0539L687.198 -66.5935L687.992 -68.0045L690.429 -71.1857" stroke="white" stroke-width="0.28" stroke-linecap="round" stroke-linejoin="round"/>
<path d="M404.633 29.4752L397.465 31.0259L379.438 32.673L361.054 32.1478L342.732 29.3871L324.938 24.3528L308.182 17.0415L293.117 7.5546L293.024 7.49643L292.307 6.85156" stroke="white" stroke-width="0.28" stroke-linecap="round" stroke-linejoin="round"/>
<path d="M412.312 9.79552L412.015 9.12239L411.335 7.75287L411.062 7.30247L408.82 2.05708L407.384 -1.25702L405.912 -4.66254L405.609 -5.37389L403.43 -10.3002L403.016 -11.4785L402.837 -12.1134L400.621 -17.407L400.394 -17.9572L399.687 -19.4513L399.524 -19.6325L397.239 -25.3931L395.918 -28.6358L394.284 -32.4169L393.563 -33.1798L392.672 -33.828L392.584 -34.0457L391.169 -37.5626L389.793 -40.9847L389.574 -41.5332L387.448 -46.8683L386.906 -48.2262L386.695 -48.7614L384.008 -55.5558L383.803 -56.0777L381.094 -62.9718L380.489 -64.5225" stroke="white" stroke-width="0.28" stroke-linecap="round" stroke-linejoin="round"/>
<path d="M512.547 99.2448L511.01 100.064L507.223 102.231L503.916 104.136L503.08 104.464L502.586 104.656L497.859 106.51L492.129 107.97L486.692 108.619L481.527 108.539L476.605 107.809L471.908 106.496L467.414 104.658L463.108 102.345L458.973 99.6038L454.992 96.4758L451.155 92.9922L447.448 89.1911L443.86 85.0959L440.378 80.7314L436.994 76.1226L433.7 71.2877L430.485 66.2434L427.343 61.008L424.264 55.5931L421.243 50.0136L418.273 44.2779L415.348 38.3976L412.461 32.3827L409.605 26.2382L406.778 19.9723L403.973 13.5934L401.185 7.10315L398.412 0.508186L395.644 -6.18817L392.882 -12.9826L390.121 -19.8717L387.356 -26.8523L384.583 -33.9242L381.799 -41.0843L379.002 -48.3308L376.187 -55.6653L373.684 -62.2188" stroke="white" stroke-width="0.28" stroke-linecap="round" stroke-linejoin="round"/>
<path d="M479.968 -68.2441L479.83 -61.0076L476.574 -47.4155L480.497 -39.7103L474.448 -26.6168L465.849 -14.6352L454.964 -4.00143L442.075 5.09655L427.476 12.4943L415.435 16.6843" stroke="white" stroke-width="0.28" stroke-linecap="round" stroke-linejoin="round"/>
<path d="M418.272 22.7922L417.92 22.0327L417.278 20.7812L415.33 16.7208L414.68 15.323L413.981 13.779L411.725 8.79787L410.936 7.91034L409.964 7.15909L408.842 6.56741L407.607 6.16022L406.299 5.94747L404.959 5.9375L403.631 6.13196L402.36 6.5242L401.188 7.10093L400.148 7.84718L399.282 8.73138L398.614 9.72861L398.165 10.8056L397.952 11.9258L397.98 13.0593L398.243 14.1463" stroke="white" stroke-width="0.28" stroke-linecap="round" stroke-linejoin="round"/>
<path d="M421.3 29.1247L420.91 28.3103L420.533 27.6272L419.351 25.6561L416.844 20.8029L415.841 20.0134L414.682 19.3918L413.406 18.963L412.054 18.742L410.672 18.7354L409.3 18.9431L407.989 19.3603L406.781 19.9719L405.709 20.7614L404.816 21.6971L404.128 22.7525L403.666 23.891L403.448 25.076L403.48 26.2743L403.753 27.4228" stroke="white" stroke-width="0.28" stroke-linecap="round" stroke-linejoin="round"/>
<path d="M427.476 41.4289L426.985 40.4666L426.236 39.0622L423.824 34.4102" stroke="white" stroke-width="0.28" stroke-linecap="round" stroke-linejoin="round"/>
<path d="M268.966 208L263.773 197.069L266.597 191.835L256.391 152.656L259.115 148.777L256.578 109.844L258.935 107.096L260.406 95.497L263.675 69.7288L266.197 62.1432L270.284 49.8425L271.924 44.9095L274.131 38.2664L275.556 33.98L277.595 30.3717L279.588 26.8449L281.594 23.2931L283.439 20.0289L286.058 15.3918L288.699 10.7181L291.175 6.33367L292.342 4.26943L294.014 1.30933L294.491 0.750886L298.791 -4.29173L302.294 -8.39863L303.288 -9.56371L308.449 -15.6169L313.322 -21.3293L313.711 -21.7847L314.161 -22.3149L318.17 -27.0134L320.291 -28.7104L325.52 -32.8904L329.02 -35.6893L338.73 -43.4526L342.466 -46.4393L346.903 -49.9878L347.118 -50.1008L351.536 -52.4343L366.522 -60.3522L369.17 -61.75L372.145 -63.3223L376.124 -65.4248L377.096 -65.9383L378.953 -66.9189L380.48 -67.391L395.43 -72.0081L403.173 -74.3998L413.011 -77.438L413.441 -77.4878L434.506 -79.926L447.802 -81.4651L450.809 -84.2656L485.954 -81.9255L519.607 -73.5272L550.862 -59.591L556.466 -62.4946L562.26 -66.0447L592.122 -46.3795L604.185 -35.1923" stroke="white" stroke-width="0.28" stroke-linecap="round" stroke-linejoin="round"/>
<path d="M430.638 47.3843L430.027 46.269L429.977 46.2076L429.673 45.6341L428.204 43.181L425.961 39.2685L424.899 38.4109L423.676 37.7395L422.328 37.2758L420.902 37.0397L419.445 37.0381L418.002 37.2691L416.621 37.7278L415.349 38.3976L414.222 39.2602L413.285 40.2824L412.562 41.4342L412.08 42.6757L411.854 43.9688L411.756 45.2801L411.907 45.9217L412.12 46.3887" stroke="white" stroke-width="0.28" stroke-linecap="round" stroke-linejoin="round"/>
<path d="M418.55 59.9155L417.998 58.7354L417.669 57.3144L417.319 56.5947" stroke="white" stroke-width="0.28" stroke-linecap="round" stroke-linejoin="round"/>
<path d="M400.781 20.331L394.393 21.6855L376.582 23.2745L358.416 22.7459L340.312 20.0451L322.724 15.1288L306.158 7.99701L295.408 1.32227" stroke="white" stroke-width="0.28" stroke-linecap="round" stroke-linejoin="round"/>
<path d="M493.083 -62.4385L496.558 -56.9787L500.594 -50.8541L504.041 -34.4681L508.252 -28.0659L508.35 -11.3259L505.162 4.91391L498.9 20.2612L489.82 34.3768L478.204 46.9717L464.354 57.7999L448.597 66.6536L443.418 68.658" stroke="white" stroke-width="0.28" stroke-linecap="round" stroke-linejoin="round"/>
<path d="M547.391 64.4684L543.285 59.6385L538.047 53.1499L532.964 46.55L528.03 39.8453L523.23 33.0409L518.553 26.1419L513.989 19.153L509.53 12.0744L505.163 4.91431L500.882 -2.32885L496.679 -9.65178L492.545 -17.0512L495.763 -32.0727L491.701 -39.1745L491.824 -54.3273L489.839 -63.9189" stroke="white" stroke-width="0.28" stroke-linecap="round" stroke-linejoin="round"/>
<path d="M381.802 208L380.552 201.842L378.519 191.79L376.505 181.825L374.505 171.937L372.514 162.123L370.523 152.375L368.529 142.687L366.528 133.057L364.512 123.477L362.479 113.944L360.423 104.45L358.342 94.9918L356.231 85.5647L354.087 76.1642L351.903 66.7853L349.681 57.4231L347.412 48.0725L345.099 38.7285L342.732 29.3879L340.312 20.0456L337.836 10.6949L335.3 1.33434L332.702 -8.04453L330.038 -17.4433L327.305 -26.8688L325.874 -31.6953" stroke="white" stroke-width="0.28" stroke-linecap="round" stroke-linejoin="round"/>
<path d="M446.724 73.4588L446.11 72.5679L445.487 71.7801L443.29 68.7087L442.246 67.0283L439.793 63.0777L439.353 62.3563L437.978 60.3154L435.605 56.3996L433.183 51.9886L433.01 51.7841L432.279 50.9132L431.735 49.9326L431.092 48.7725L429.091 45.1626L428.22 43.1765L427.476 41.4297L426.831 40.2895L425.963 39.2707L425.499 38.3648L423.533 34.5156L423.038 33.1909L420.678 28.0453L419.845 27.0846L419.35 25.6569L417.663 21.7412L416.845 20.8071L416.687 20.4664L415 16.8348L413.875 14.4116L413.519 13.6254L410.932 7.90969L410.596 7.14848L408.011 1.30309L407.88 1.0006L406.963 -1.11684L405.106 -5.40489L404.802 -6.11956L403.074 -10.1832L402.213 -12.2093L401.922 -12.904L399.326 -19.1084L399.048 -19.7832L396.444 -26.0989L396.336 -26.3665L395.468 -28.4922L393.56 -33.1808L393.455 -33.4385L391.725 -37.7348L390.671 -40.3509L390.424 -40.9708L388.002 -47.0372L387.775 -47.6073L387.535 -48.2123L384.866 -54.9502L384.296 -56.3995L381.942 -62.3795L381.853 -62.6105L381.038 -64.6914" stroke="white" stroke-width="0.28" stroke-linecap="round" stroke-linejoin="round"/>
<path d="M507.157 102.118L504.113 96.8392L499.521 88.6005L495.052 80.3335L490.697 72.0366L486.444 63.7098L482.283 55.3548L478.204 46.9715L474.197 38.5582L470.253 30.1134L466.365 21.637L462.526 13.1274L458.726 4.58121L454.964 -4.00155L451.227 -12.6225L447.513 -21.2851L443.815 -29.9925L440.128 -38.7464L436.449 -47.5502L432.767 -56.4056L429.084 -65.3174L425.393 -74.2874L425.368 -74.3506" stroke="white" stroke-width="0.28" stroke-linecap="round" stroke-linejoin="round"/>
<path d="M517.874 208L514.687 202.997L509.077 193.776L503.722 184.579L498.595 175.404L493.677 166.25L488.945 157.119L484.383 148.006L479.975 138.914L475.704 129.841L474.718 127.686L474.71 127.669" stroke="white" stroke-width="0.28" stroke-linecap="round" stroke-linejoin="round"/>
<path d="M594.582 74.5303L595.084 80.4156L592.79 106.438L586.094 131.641L575.202 155.393L560.399 177.101L542.043 196.216L526.254 208" stroke="white" stroke-width="0.28" stroke-linecap="round" stroke-linejoin="round"/>
<path d="M397.033 11.148L391.306 12.3397L373.696 13.8688L355.738 13.3402L337.836 10.6943L320.443 5.89266L304.057 -1.0696L299.666 -3.75879" stroke="white" stroke-width="0.28" stroke-linecap="round" stroke-linejoin="round"/>
<path d="M346.239 -151L346.636 -145.223L347.525 -130.808L348.215 -117.98L348.724 -106.599L349.069 -96.5384L349.269 -87.6864L349.334 -79.9379L349.277 -73.205L349.111 -67.4029L348.843 -62.4583L348.481 -58.3016L336.466 -48.803L321.262 -36.7815L317.271 -33.627L308.29 -23.2276L303.49 -17.6681L300.812 -14.5684L294.309 -7.03769L290.78 -2.9524L284.91 7.26082L282.259 11.8746L278.346 18.6823L270.254 32.7631L260.925 60.0072L256.737 72.2382L253.107 98.5L250.974 113.929L253.334 156.126L249.914 159.138L246.085 161.627L241.8 163.526L237.005 164.747L231.632 165.194L225.603 164.749L218.826 163.273L211.187 160.6L203.003 156.741" stroke="white" stroke-width="0.28" stroke-linecap="round" stroke-linejoin="round"/>
<path d="M485.086 -66.0898L487.868 -61.1536L491.824 -54.3276L495.834 -47.603L495.763 -32.0729L499.888 -25.0641L496.678 -9.65206L490.497 4.88577L481.597 18.2303L470.254 30.1138L456.763 40.3121L441.437 48.6339L433.064 51.7635" stroke="white" stroke-width="0.28" stroke-linecap="round" stroke-linejoin="round"/>
<path d="M443.332 -151L437.783 -150.49L392.078 -138.342L348.215 -117.98L307.614 -89.257L271.866 -52.295L242.688 -7.59447L221.819 43.8821L210.878 100.632L211.187 160.6L211.403 161.657L219.334 200.512L220.862 208" stroke="white" stroke-width="0.28" stroke-linecap="round" stroke-linejoin="round"/>
<path d="M459.443 208L457.324 202.903L453.315 192.942L449.449 183.055L445.713 173.234L442.091 163.478L438.571 153.78L435.141 144.137L431.787 134.542L428.499 124.993L425.27 115.485L422.087 106.013L418.946 96.5724L415.836 87.1603L412.751 77.7714L409.683 68.4025L406.627 59.0469L403.575 49.7029L400.522 40.364L397.464 31.0266L394.392 21.686L391.304 12.3404L388.196 2.98144L385.06 -6.39412L381.896 -15.7896L378.696 -25.2117L375.457 -34.662L372.178 -44.1489L368.852 -53.6774L367.072 -58.7217" stroke="white" stroke-width="0.28" stroke-linecap="round" stroke-linejoin="round"/>
<path d="M565.932 36.9235L561.742 33.5862L556.412 11.2899L551.054 7.08498L545.856 2.66729L540.81 -1.94819L535.904 -6.74982L531.126 -11.7293L526.47 -16.8766L521.925 -22.1818L515.416 -37.185L514.354 -39.6299L514.131 -40.1435L508.494 -48.3589L503.647 -55.4209" stroke="white" stroke-width="0.28" stroke-linecap="round" stroke-linejoin="round"/>
<path d="M393.349 1.93091L388.197 2.98132L370.775 4.45721L353.01 3.92702L335.299 1.33424L318.089 -3.35935L304.257 -9.1582" stroke="white" stroke-width="0.28" stroke-linecap="round" stroke-linejoin="round"/>
<path d="M450.848 102.806L454.733 106.167L458.771 109.15L462.974 111.716L467.36 113.822L471.946 115.416L476.752 116.44L481.798 116.827L487.11 116.503L492.713 115.38L498.638 113.357L504.435 110.553L504.917 110.32L511.096 106.443L511.588 106.134L512.272 103.25L513.453 100.572L515.095 98.1841L517.141 96.1631" stroke="white" stroke-width="0.28" stroke-linecap="round" stroke-linejoin="round"/>
<path d="M464.461 93.7202L463.728 93.0321L462.571 92.0033L461.811 91.3501L459.372 89.0582L459.272 88.8222L456.676 86.1064L455.479 84.9828L454.537 83.8942L451.713 80.6366L451.357 80.1895L448.954 76.9569L448.061 76.0444L447.327 75.0488L444.51 71.2245L444.237 70.8273L442.887 68.8627L441.056 66.1952L440.463 65.2761L437.685 60.9731L437.145 60.0872L434.393 55.5714L434.193 55.2274L432.344 52.033L431.168 50.002L430.713 49.1776L428.006 44.2779L427.583 43.4818L424.898 38.4093L424.743 38.1051L423.01 34.7046L421.838 32.4026L421.47 31.6564L418.82 26.2681L418.475 25.5434L415.838 20.0122L415.712 19.7379L414.455 17.0255L412.886 13.6399L412.579 12.9568L410.376 8.08041L409.961 7.15798L409.668 6.49482L407.054 0.569665L406.776 -0.0752063L404.164 -6.12003L404.062 -6.36103L402.517 -10.0009L401.285 -12.9078L401.031 -13.5161L398.687 -19.1288L398.411 -19.7886L398.167 -20.382L395.541 -26.7642L395.307 -27.3426L392.669 -33.8295L391.64 -34.3398L390.505 -34.6971L389.3 -34.8849L388.065 -34.8999L386.842 -34.7403L385.667 -34.4112L384.583 -33.9243L383.623 -33.2927L382.82 -32.5398L382.2 -31.6888L381.781 -30.7697L383.554 -26.1426L384.523 -23.6163L387.151 -16.8186L387.254 -16.5493L389.982 -9.57042L392.706 -2.68294L394.466 1.70318L395.431 4.1098L398.164 10.8061L400.908 17.4011L403.665 23.8914L405.97 29.1849L406.444 30.2719L409.246 36.5345L412.08 42.6757L414.284 47.2928L414.949 48.6873L417.861 54.5593L420.819 60.2817L423.47 65.1797L423.832 65.8462L426.907 71.2395L430.05 76.4483L433.271 81.456L436.577 86.246L439.977 90.8L439.73 92.5152L443.233 96.8697L446.851 100.943L450.598 104.71L450.694 106.623L451.133 108.481L454.675 111.703L455.049 112.044L458.737 114.939L459.121 115.242L462.97 117.775L463.365 118.034L464.231 119.975L465.428 121.727L466.555 122.934L466.912 123.228L468.644 124.438L469.523 124.927L472.05 126.333L473.281 127.017L474.699 127.646L477.144 128.679L477.378 128.781L478.144 129.11L480.2 130.047L480.805 130.232L484.071 131.229L485.387 131.631L489.907 132.519L491.446 132.876L493.204 133.19L495.611 133.335L498.97 133.513L499.101 133.514L505.279 133.056L511.869 131.741L518.881 129.444L522.835 127.642L526.363 126.035L534.371 121.355L537.464 121.519L542.081 118.282L546.21 115.388L555.63 107.585L558.954 107.144L562.084 106.104L564.916 104.503L569.31 100.501L573.316 96.8631L574.207 96.0354L575.98 94.3883L576.549 93.7202L579.445 90.5307L584.874 84.8283L586.059 83.5817L587.059 82.5297L589.694 80.2494L591.497 78.1402L594.582 74.5303L599.712 68.5287L600.738 67.327L600.839 66.9564L602.353 65.4373L606.35 60.2783L606.844 59.6418L606.992 59.4506L611.824 53.2147L613.378 51.2086L615.016 49.0928L616.206 47.5571L616.997 46.4386L622.301 39.0458L623.107 37.909L626.983 32.3412L627.816 31.2608L630.488 27.4864L631.437 26.052L631.821 25.462L636.864 17.9679L642.214 10.0034L646.195 3.90371L647.642 1.68655L647.795 1.45054L647.823 1.40733L648.963 -0.341138L650.62 -2.87906L652.906 -6.65521L658.437 -15.7964L664.39 -25.634L667.959 -31.5293L669.405 -33.9193L670.741 -36.2893L677.354 -48.01L684.471 -60.6265L688.075 -67.0137L689.148 -68.9168L690.428 -71.1855L690.875 -72.0331L692.012 -74.1821L692.067 -74.2885L699.438 -88.2363L699.611 -88.5637L707.864 -104.184L712.005 -112.017L713.007 -113.915L714.144 -116.065" stroke="white" stroke-width="0.28" stroke-linecap="round" stroke-linejoin="round"/>
<path d="M449.764 108.444L445.082 110.388L425.27 115.484L404.578 117.848L383.477 117.362L362.478 113.943L342.138 107.548L323.136 98.2256L323.065 98.1907L305.992 86.0162L305.903 85.9514L291.436 71.1177L291.333 71.0114L280.144 53.8442L280.031 53.6697L275.522 41.8975" stroke="white" stroke-width="0.28" stroke-linecap="round" stroke-linejoin="round"/>
<path d="M357.796 208L357.128 203.136L355.75 193.306L354.352 183.549L352.935 173.86L351.49 164.236L350.018 154.667L348.515 145.155L346.978 135.69L345.406 126.271L343.794 116.893L342.138 107.549L340.44 98.2378L338.693 88.952L336.898 79.6912L335.05 70.4469L333.146 61.2176L331.185 51.9983L329.166 42.784L327.083 33.5697L324.938 24.3537L322.724 15.1294L320.442 5.89341L318.088 -3.35915L315.662 -12.6316L309.411 -15.2178" stroke="white" stroke-width="0.28" stroke-linecap="round" stroke-linejoin="round"/>
<path d="M453.302 82.0772L453.032 81.7548L452.481 81.0766L450.676 78.8129L449.306 77.0961L449.148 76.88L448.154 75.5337L445.726 72.2446L444.511 71.2241L443.117 70.4296L441.586 69.8861L439.971 69.6152L438.32 69.6236L436.69 69.9127L435.134 70.4729L433.7 71.2872L432.437 72.3277L431.386 73.5642L430.582 74.952L430.05 76.4479L429.807 78.0019L429.862 79.5658L430.214 81.0899L430.843 82.506" stroke="white" stroke-width="0.28" stroke-linecap="round" stroke-linejoin="round"/>
<path d="M579.389 91.0625L578.897 95.7494L572.169 119.277L561.498 141.357L547.174 161.451L529.56 179.072L509.077 193.776L486.209 205.178L477.227 208" stroke="white" stroke-width="0.28" stroke-linecap="round" stroke-linejoin="round"/>
<path d="M597.825 53.3436L593.547 52.4079L589.396 50.7858L585.514 48.5321L582.032 45.7265L579.065 42.4623L576.712 38.8524L575.045 35.0214L574.116 31.0973L573.946 27.2081L574.538 23.4835L575.864 20.0381" stroke="white" stroke-width="0.28" stroke-linecap="round" stroke-linejoin="round"/>
<path d="M841.059 -73.9443L837.909 -70.9045L818.412 -53.2453L800.153 -37.7884L783.02 -24.3043L766.922 -12.5919L751.771 -2.4701L737.489 6.21737L724.008 13.6101L711.265 19.8311L699.204 24.9884L687.774 29.1834L676.926 32.5008L666.618 35.0171L656.812 36.8055L647.471 37.9274L638.564 38.4393L630.06 38.3894L623.172 37.9124" stroke="white" stroke-width="0.28" stroke-linecap="round" stroke-linejoin="round"/>
<path d="M487.035 -65.1992L487.868 -61.1538L487.695 -46.365L491.701 -39.175L488.475 -24.5292L492.545 -17.0517L486.402 -2.89776L477.583 10.0861L466.366 21.6372L453.04 31.5413L437.914 39.6171L428.374 43.119" stroke="white" stroke-width="0.28" stroke-linecap="round" stroke-linejoin="round"/>
<path d="M585.419 -43.2314L601.229 -29.139L601.096 -28.5041L599.901 -25.5258L599.412 -21.605L599.789 -17.5015L601.031 -13.3464L603.105 -9.27769L605.951 -5.43506L609.476 -1.94978L613.568 1.05852L618.087 3.48176L622.88 5.23688L627.781 6.26235L632.625 6.52496L637.243 6.01969L641.482 4.76652L645.2 2.81529L647.206 1.13331L648.278 0.235807L650.621 -2.87885" stroke="white" stroke-width="0.28" stroke-linecap="round" stroke-linejoin="round"/>
<path d="M505.618 133.365L502.786 135.948L484.384 148.007L463.997 157.263L442.092 163.478L419.171 166.453L395.779 166.035L372.514 162.123L350.018 154.667L328.987 143.701L310.244 129.414L310.151 129.344L294.596 112.212L294.262 111.843L282.056 91.5878L276.217 74.876L274.213 69.1353L274.128 62.3559L273.925 55.485L273.608 48.5261L273.569 47.9111" stroke="white" stroke-width="0.28" stroke-linecap="round" stroke-linejoin="round"/>
<path d="M633.724 23.0132L631.846 25.508L631.437 26.0514L628.477 28.5711L624.936 30.4808L620.927 31.714L616.582 32.2209L612.048 31.9816L607.478 31.0027L603.027 29.314L598.847 26.9755L595.08 24.0653L591.854 20.6864L589.273 16.9551L587.418 12.9995L586.346 8.9524L586.085 4.94855L586.632 1.1159L587.352 -0.330078" stroke="white" stroke-width="0.28" stroke-linecap="round" stroke-linejoin="round"/>
<path d="M499.402 -58.7158L501.61 -55.7009L501.847 -55.1591L503.153 -52.1541L508.875 -38.9808L513.135 -33.2418L517.481 -27.6391L521.395 -9.55776L521.701 8.53185L518.552 26.1411L512.159 42.8396L502.779 58.2467L490.698 72.0366L476.233 83.9285L462.609 91.981" stroke="white" stroke-width="0.28" stroke-linecap="round" stroke-linejoin="round"/>
<path d="M841.059 122.738L840.766 119.051L828.366 67.7159L808.809 19.6963L783.021 -24.3044L751.854 -63.7412L716.077 -98.1753L707.865 -104.184" stroke="white" stroke-width="0.28" stroke-linecap="round" stroke-linejoin="round"/>
<path d="M474.967 101.237L474.758 101.128L473.842 100.593L472.062 99.5072L470.471 98.5632L470.225 98.4186L469.572 97.9515L468.796 97.3947L465.936 95.3438L464.739 94.3499L462.228 92.2075L461.807 91.915L460.782 90.951L457.823 88.1621L457.097 87.3976L455.019 85.2137L453.972 84.1117L453.191 83.2059L450.246 79.7921L449.968 79.4431L448.228 77.2425L446.631 75.2248L446.006 74.3722L443.116 70.4282L442.551 69.6022L439.694 65.4238L439.496 65.113L436.722 60.7934L436.355 60.2216L435.883 59.4438L433.092 54.8416L432.926 54.5541L431.628 52.3003L429.894 49.2937L429.49 48.5591L426.758 43.588L426.382 42.8749L423.675 37.7376L423.323 37.0445L420.638 31.7493L420.308 31.0761L417.642 25.6313L417.331 24.9765L414.68 19.392L414.386 18.7538L411.748 13.0347L411.645 12.8054L409.634 8.33449L408.84 6.56775L408.575 5.96277L405.951 -0.00560897L405.698 -0.593966L403.077 -6.68201L402.835 -7.25541L400.214 -13.4548L400.127 -13.6609L397.952 -18.8913L397.355 -20.324L397.132 -20.8692L394.5 -27.2879L394.284 -27.8198L391.641 -34.3416L391.431 -34.8602L388.776 -41.4834L387.655 -41.8324L386.464 -42.0169L385.244 -42.0335L384.034 -41.879L382.872 -41.5582L381.802 -41.0845L380.851 -40.4679L380.056 -39.7349L379.442 -38.9072L379.028 -38.0097L378.828 -37.074L378.848 -36.1316L379.046 -35.3372L379.084 -35.2159L381.436 -29.1295L381.601 -28.8469L382.857 -26.0082L384.32 -22.6342L386.6 -16.7107L387.05 -15.5407L389.774 -8.53685L392.497 -1.6211L393.873 1.82263L395.221 5.19989L397.588 11.032L397.952 11.9262L400.692 18.5544L401.389 20.2014L403.448 25.0762L405.29 29.3327L406.224 31.49L409.024 37.7908L411.855 43.9686L413.512 47.4672L414.72 50.0184L414.758 51.3563L417.166 56.63L417.692 58.0593L417.981 58.6527L420.476 63.195L421.92 65.5418L423.422 68.3623L423.642 68.7728L426.49 73.8537L426.718 74.2592L429.627 79.1672L429.863 79.5661L432.155 83.1976L433.087 84.6752L436.14 89.1943L436.396 89.5732L438.052 91.8435L439.534 93.8729L439.802 94.2402L443.033 98.3022L443.312 98.6529L446.646 102.456L446.939 102.79L450.387 106.31L450.695 106.622L454.268 109.83L454.589 110.119L458.302 112.986L458.639 113.247L462.503 115.737L462.857 115.966L466.89 118.041L467.262 118.232L471.869 119.992L472.434 122.221L473.38 124.31L478.291 125.678L483.453 126.426L488.897 126.479L490.382 128.593L492.207 130.404L498.119 129.834L504.387 128.393L511.047 125.965L513.462 127.597L516.103 128.771L518.881 129.444L521.707 129.6L523.907 129.309L524.2 129.303L524.487 129.233L531.127 126.293L532.218 125.811L539.584 121.632L540.493 121.115L543.441 119.076L548.59 115.513L549.38 114.967L558.25 107.721L558.955 107.144L567.682 98.9188L569.306 97.3898L574.294 92.0596L579.916 86.0547L579.948 86.0198L580.54 85.3882L588.097 76.3617L592.229 71.4254L592.781 70.7656L600.153 61.026L605.663 53.748L606.183 53.0616L609.983 51.8599L616.042 43.1974L621.284 35.7033L624.936 30.4811L630.19 22.3172L635.109 14.6685L640.935 5.61374L641.482 4.7661L645.721 -2.3524L651.396 -11.8809L655.7 -19.1091L659.388 -25.3001L659.9 -26.1611L663.809 -28.1356L669.302 -37.9433L675.867 -49.6689L682.934 -62.2871L684.668 -65.3818L690.302 -76.1302L697.614 -90.0797L707.692 -109.309L708.234 -110.343L714.405 -122.868L723.638 -141.605L728.267 -151" stroke="white" stroke-width="0.28" stroke-linecap="round" stroke-linejoin="round"/>
<path d="M548.84 106.622L545.597 105.245L542.604 103.326L539.958 100.929L537.747 98.1336L536.044 95.0355L534.903 91.7347L534.36 88.3442L534.428 84.9736L535.103 81.7343L536.358 78.7276L537.217 77.4429L538.149 76.0518" stroke="white" stroke-width="0.28" stroke-linecap="round" stroke-linejoin="round"/>
<path d="M645.432 208L647.111 204.924L658.351 172.225L663.987 138.301L663.984 104.042L658.419 70.3072L647.471 37.9274L636.932 18.0977" stroke="white" stroke-width="0.28" stroke-linecap="round" stroke-linejoin="round"/>
<path d="M554.558 54.6836L553.262 57.9146L552.613 61.4032L552.642 65.0347L553.348 68.6946L543.77 81.3476L534.903 91.7337L526.664 100.164L518.984 106.893L511.802 112.144L505.068 116.096L498.734 118.908L492.764 120.716L487.121 121.635L481.776 121.765L476.7 121.192L471.868 119.992" stroke="white" stroke-width="0.28" stroke-linecap="round" stroke-linejoin="round"/>
<path d="M499.633 -58.5537L501.611 -55.7L505.704 -50.3615L505.936 -49.8297L507.17 -46.9826L513.135 -33.2409L516.922 -15.605L517.153 2.01756L513.988 19.1532L507.641 35.3813L498.365 50.338L486.445 63.7107L472.196 75.2303L455.953 84.6706L455.657 84.7887" stroke="white" stroke-width="0.28" stroke-linecap="round" stroke-linejoin="round"/>
<path d="M528.405 119.359L525.729 117.589L523.379 115.38L521.431 112.802L519.95 109.942L518.985 106.894L518.563 103.761L518.697 100.643L519.38 97.6428L520.587 94.8589L522.277 92.3775L523.06 91.4916L524.393 90.2783" stroke="white" stroke-width="0.28" stroke-linecap="round" stroke-linejoin="round"/>
<path d="M487.663 208.001L486.209 205.179L481.406 195.494L476.804 185.863L472.379 176.283L468.116 166.751L463.998 157.264L460.009 147.819L456.136 138.411L452.365 129.039L448.684 119.7L445.082 110.389L441.55 101.102L441.14 100.008L439.567 95.815L439.504 95.6455" stroke="white" stroke-width="0.28" stroke-linecap="round" stroke-linejoin="round"/>
<path d="M555.092 112.432L552.373 113.97L549.38 114.967L546.21 115.388L542.966 115.218L539.757 114.462L536.687 113.14L533.86 111.299L531.37 108.997L529.297 106.313L527.712 103.334L526.665 100.163L526.186 96.9024L526.291 93.6597L526.971 90.5417L528.202 87.6481L529.942 85.0703" stroke="white" stroke-width="0.28" stroke-linecap="round" stroke-linejoin="round"/>
<path d="M511.047 125.965L508.938 123.926L507.203 121.547L505.898 118.908L505.069 116.096L504.738 113.201L504.917 110.32L505.597 107.546L506.756 104.972L508.351 102.675L510.331 100.73" stroke="white" stroke-width="0.28" stroke-linecap="round" stroke-linejoin="round"/>
<path d="M506.137 102.663L503.916 104.136L501.997 106.005L500.446 108.213L499.314 110.691L498.638 113.357L498.442 116.126L498.734 118.908L499.507 121.612L500.737 124.148L502.381 126.434" stroke="white" stroke-width="0.28" stroke-linecap="round" stroke-linejoin="round"/>
<path d="M582.055 8.54708L580.938 6.16538L565.741 -15.461L564.811 -16.7824L549.446 -32.0664L546.873 -34.626L544.588 -36.8997L539.479 -37.8071L527.456 -46.1572L516.76 -53.5865L516.152 -54.0087L511.734 -54.9311L507.426 -56.2042L501.907 -58.7255L498.129 -60.4524L497.973 -60.5238L495.982 -61.433L495.534 -61.6374L494.27 -62.2158L492.799 -62.8873L492.639 -62.9604L490.774 -63.8114L489.765 -64.2734L486.962 -65.5532L485.079 -66.2529L483.94 -66.6135L482.278 -67.3714L480.867 -68.0146" stroke="white" stroke-width="0.28" stroke-linecap="round" stroke-linejoin="round"/>
<path d="M502.375 104.104L500.009 105.095L497.86 106.509L496 108.307L494.491 110.433L493.384 112.815L487.773 114.036L482.453 114.454L477.398 114.154L472.583 113.215L467.988 111.703L463.592 109.675L459.379 107.181L455.331 104.267L451.437 100.975L447.681 97.3363L444.051 93.384L440.538 89.1475" stroke="white" stroke-width="0.28" stroke-linecap="round" stroke-linejoin="round"/>
<path d="M496.497 105.658L494.208 106.609L492.129 107.97L490.326 109.7L488.857 111.745L487.773 114.037L487.11 116.503L486.89 119.064L487.121 121.635L487.798 124.135L488.896 126.479" stroke="white" stroke-width="0.28" stroke-linecap="round" stroke-linejoin="round"/>
<path d="M523.001 91.4067L521.648 89.3707L516.725 81.6705L511.949 73.9154L507.303 66.1055L502.779 58.2474L498.365 50.3377L494.049 42.3816L489.82 34.3772L485.674 26.328L481.597 18.2305L477.583 10.0865L473.625 1.89435L469.716 -6.34602L465.849 -14.6346L462.016 -22.9747L458.213 -31.368L454.434 -39.8145L450.671 -48.3174L446.923 -56.8786L443.182 -65.5012L439.446 -74.187L439.161 -74.8535" stroke="white" stroke-width="0.28" stroke-linecap="round" stroke-linejoin="round"/>
<path d="M493.263 105.904L490.921 106.395L488.709 107.309L486.693 108.618L484.943 110.282L483.514 112.248L482.455 114.454L481.798 116.827L481.571 119.29L481.777 121.765L482.412 124.17" stroke="white" stroke-width="0.28" stroke-linecap="round" stroke-linejoin="round"/>
<path d="M490.198 105.883L487.887 105.931L485.624 106.401L483.48 107.279L481.527 108.539L479.826 110.141L478.435 112.032L477.398 114.155L476.752 116.44L476.516 118.812L476.7 121.192L477.298 123.507L478.291 125.678L479.647 127.636L481.319 129.313L483.254 130.659L485.388 131.631L487.653 132.195L489.809 132.582" stroke="white" stroke-width="0.28" stroke-linecap="round" stroke-linejoin="round"/>
<path d="M290.592 208L289.218 206.228L273.262 174.51L263.691 139.974L261.031 103.945L265.402 68.5681L265.487 67.88L267.566 61.5775L270.51 52.6557L270.581 52.438L271.74 48.9278L272.24 47.4103L273.719 42.9262L274.736 39.8447L275.744 36.7932L276.904 33.2747L278.077 32.0747L278.4 31.5495L279.056 30.4775L279.468 29.7412" stroke="white" stroke-width="0.28" stroke-linecap="round" stroke-linejoin="round"/>
<path d="M485.005 105.26L482.771 105.303L480.579 105.753L478.503 106.598L476.606 107.809L474.953 109.352L473.598 111.173L472.584 113.216L471.946 115.416L471.705 117.7L471.869 119.992" stroke="white" stroke-width="0.28" stroke-linecap="round" stroke-linejoin="round"/>
<path d="M467.114 116.021L467.36 113.822L467.988 111.703L468.978 109.735L470.3 107.98L471.909 106.496L473.75 105.329L475.765 104.518L477.889 104.086L480.051 104.046L482.185 104.4L482.258 104.417" stroke="white" stroke-width="0.28" stroke-linecap="round" stroke-linejoin="round"/>
<path d="M583.057 6.68619L580.938 6.16597L574.78 4.23302L568.837 1.96102L563.091 -0.628436L557.535 -3.51373L552.151 -6.67659L546.933 -10.0987L537.225 -24.2942L533.768 -29.3484L533.392 -29.8969L528.669 -33.0913L524.068 -36.5268L519.579 -40.1932L515.198 -44.0757L510.915 -48.166" stroke="white" stroke-width="0.28" stroke-linecap="round" stroke-linejoin="round"/>
<path d="M255.504 208L257.01 206.481L260.591 201.968L249.914 159.138L247.669 115.159L250.094 98.1726L253.847 71.8758L266.149 36.4096L268.006 31.0579L276.608 16.2142L289.328 -5.72966L300.71 -18.8182L305.247 -24.037L316.707 -37.2136L333.779 -50.6246L348.844 -62.4583L348.972 -62.5248L365.09 -70.8848L384.362 -80.8803L384.586 -80.9485L398.258 -85.0803L421.894 -92.2237L460.15 -96.5151L497.962 -93.9988L534.294 -85.082L539.496 -90.3622L544.864 -96.4486L550.407 -103.403L556.136 -111.291L562.058 -120.191L568.184 -130.18L574.523 -141.35L579.613 -151" stroke="white" stroke-width="0.28" stroke-linecap="round" stroke-linejoin="round"/>
<path d="M477.384 102.647L475.318 102.303L473.222 102.339L471.163 102.753L469.205 103.534L467.415 104.658L465.851 106.087L464.563 107.777L463.592 109.676L462.974 111.716L462.726 113.836L462.857 115.966L463.366 118.034L467.392 120.163L467.797 120.377L468.701 122.392L469.948 124.208L471.492 125.767L473.283 127.017L474.699 127.645L475.265 127.921L477.432 128.747L478.241 129.178L480.201 130.047" stroke="white" stroke-width="0.28" stroke-linecap="round" stroke-linejoin="round"/>
<path d="M474.695 101.104L472.789 100.416L470.786 100.082L468.751 100.114L466.752 100.511L464.851 101.262L463.109 102.344L461.585 103.722L460.328 105.352L459.379 107.181L458.771 109.15L458.522 111.194L458.64 113.247L459.122 115.241L459.954 117.116L461.106 118.803L462.544 120.256L466.076 122.674L466.543 122.94L466.961 123.277L468.643 124.438" stroke="white" stroke-width="0.28" stroke-linecap="round" stroke-linejoin="round"/>
<path d="M470.228 98.42L468.38 97.7535L466.437 97.4277L464.461 97.456L462.518 97.8383L460.668 98.5613L458.973 99.6034L457.487 100.933L456.261 102.504L455.331 104.267L454.733 106.167L454.482 108.138L454.589 110.119L455.049 112.044L455.85 113.854L456.959 115.481L457.461 115.989L458.343 116.88" stroke="white" stroke-width="0.28" stroke-linecap="round" stroke-linejoin="round"/>
<path d="M477.33 128.811L475.703 129.841L456.136 138.411L435.141 144.137L413.19 146.841L390.801 146.39L368.528 142.687L346.978 135.69L326.874 125.455L326.806 125.42L308.793 112.046L308.703 111.98L293.495 95.6982L293.389 95.5852L281.693 76.7742L281.577 76.5848L275.667 60.2885L273.925 55.4852L273.119 49.3008" stroke="white" stroke-width="0.28" stroke-linecap="round" stroke-linejoin="round"/>
<path d="M467.581 96.3008L465.937 95.3451L464.144 94.6986L462.256 94.3828L460.336 94.4077L458.445 94.7734L456.645 95.4698L454.993 96.4753L453.545 97.7551L452.347 99.2725L451.438 100.974L450.848 102.806" stroke="white" stroke-width="0.28" stroke-linecap="round" stroke-linejoin="round"/>
<path d="M449.136 107.786L448.104 106.274L447.361 104.585L446.939 102.79L446.852 100.943L447.102 99.1068L447.682 97.3368L448.571 95.693L449.743 94.2304L451.157 92.9939L452.766 92.0249L454.521 91.3535L456.361 91.0011L458.229 90.9795L460.064 91.2886L461.807 91.9152L462.228 92.2077L463.401 92.841" stroke="white" stroke-width="0.28" stroke-linecap="round" stroke-linejoin="round"/>
<path d="M406.708 208L406.235 206.24L403.535 196.06L400.899 185.97L398.317 175.963L395.779 166.035L393.276 156.18L390.801 146.39L388.348 136.661L385.908 126.988L383.476 117.363L381.046 107.783L378.613 98.2427L376.17 88.7358L373.713 79.2589L371.237 69.8069L368.737 60.3748L366.209 50.9577L363.65 41.5506L361.054 32.1484L358.416 22.7463L355.737 13.3408L353.009 3.92707L350.232 -5.50168L347.4 -14.9504L344.51 -24.4223L341.561 -33.9225L338.954 -42.1729" stroke="white" stroke-width="0.28" stroke-linecap="round" stroke-linejoin="round"/>
<path d="M288.864 208L289.218 206.228L290.487 198.701L291.564 191.084L292.467 183.387L293.205 175.62L293.79 167.795L294.23 159.917L294.538 151.994L294.717 144.03L294.774 136.031L281.883 113.62L273.707 88.857L270.88 63.2334" stroke="white" stroke-width="0.28" stroke-linecap="round" stroke-linejoin="round"/>
<path d="M460.726 90.2147L459.372 89.0596L457.823 88.1621L456.127 87.5521L454.342 87.2529L452.523 87.2712L450.729 87.6086L449.019 88.2551L447.448 89.1909L446.067 90.3842L444.924 91.7969L444.051 93.3842L443.483 95.0944L443.233 96.8695L443.312 98.6528L443.715 100.388L444.433 102.017L445.434 103.481" stroke="white" stroke-width="0.28" stroke-linecap="round" stroke-linejoin="round"/>
<path d="M452.993 81.7215L451.713 80.6362L450.245 79.7919L448.638 79.2185L446.943 78.9326L445.213 78.9459L443.506 79.2584L441.877 79.86L440.378 80.731L439.06 81.8445L437.963 83.1658L437.127 84.6484L436.577 86.2456L436.331 87.906L436.396 89.573L436.773 91.2001L437.09 92.081L437.429 92.7009L439.477 95.5763L440.411 96.8727L440.91 97.5641L441.857 98.9136" stroke="white" stroke-width="0.28" stroke-linecap="round" stroke-linejoin="round"/>
<path d="M257.71 208L257.009 206.481L246.084 161.627L243.98 115.755L246.744 97.0391L250.618 70.8038L265.478 28.5914L274.487 13.2043L287.66 -9.29474L297.261 -20.2442L301.47 -25.0409L315.988 -41.5948L330.662 -53.0296L349.11 -67.4029L349.438 -67.5707L362.423 -74.2505L385.622 -86.1789L385.831 -86.2421L396.188 -89.3418L424.141 -97.7068L463.379 -102.043L502.169 -99.4569L506.492 -105.721L510.933 -112.858L515.497 -120.93L520.189 -130.013L525.015 -140.188L529.744 -151" stroke="white" stroke-width="0.28" stroke-linecap="round" stroke-linejoin="round"/>
<path d="M443.08 100.476L441.55 101.101L422.087 106.012L401.769 108.276L381.046 107.782L360.422 104.45L340.44 98.2372L321.762 89.1891L321.688 89.1525L304.895 77.3387L304.805 77.2756L290.557 62.8773L290.454 62.7726L279.646 46.4431L279.305 45.9295L276.526 38.8027" stroke="white" stroke-width="0.28" stroke-linecap="round" stroke-linejoin="round"/>
<path d="M615.037 -59.1589L613.848 -60.2109L580.902 -81.0861L544.864 -96.4483L506.492 -105.721L466.668 -108.387L426.401 -104.017L393.668 -94.3392L387.04 -92.3796L386.841 -92.3198L359.281 -78.2955L349.39 -73.2612L349.277 -73.2047L327.054 -56.0592L315.104 -46.8415L293.072 -21.9774L285.761 -13.7254L271.944 9.59296L262.647 25.2826L247.019 68.9377L239.865 115.644L241.8 163.526L252.372 208" stroke="white" stroke-width="0.28" stroke-linecap="round" stroke-linejoin="round"/>
<path d="M432.549 208L432.057 206.551L428.69 196.402L425.429 186.341L422.259 176.358L419.171 166.453L416.151 156.615L413.191 146.841L410.283 137.126L407.414 127.463L404.579 117.848L401.77 108.276L398.978 98.7429L396.199 89.2426L393.425 79.7707L390.649 70.3237L387.869 60.8933L385.076 51.4795L382.267 42.0741L379.439 32.6736L376.583 23.2748L373.696 13.8693L370.776 4.45717L367.818 -4.97157L364.818 -14.4169L361.771 -23.8872L358.675 -33.3874L355.525 -42.9192L352.768 -51.1562" stroke="white" stroke-width="0.28" stroke-linecap="round" stroke-linejoin="round"/>
<path d="M443.214 68.3621L442.243 67.1871L441.058 66.1965L439.695 65.4237L438.199 64.8951L436.62 64.6309L435.006 64.6359L433.413 64.9151L431.889 65.4552L430.486 66.243L429.249 67.2519L428.219 68.4469L427.429 69.7915L426.907 71.2391L426.666 72.7449L426.718 74.259L427.059 75.7366L427.669 77.1078" stroke="white" stroke-width="0.28" stroke-linecap="round" stroke-linejoin="round"/>
<path d="M439.794 63.0777L438.846 61.9376L437.688 60.9753L436.357 60.224L434.894 59.7105L433.35 59.4512L431.771 59.4545L430.21 59.7237L428.718 60.2456L427.343 61.0085L426.132 61.9841L425.121 63.1409L424.347 64.4439L423.833 65.8467L423.595 67.306L423.642 68.7736L423.973 70.2046L424.568 71.5342" stroke="white" stroke-width="0.28" stroke-linecap="round" stroke-linejoin="round"/>
<path d="M436.452 57.6141L435.527 56.5071L434.395 55.5731L433.092 54.8418L431.661 54.3432L430.148 54.0889L428.603 54.0922L427.073 54.3498L425.613 54.8551L424.265 55.593L423.076 56.5387L422.086 57.6606L421.324 58.9221L420.819 60.2816L420.585 61.6977L420.475 63.1952L420.653 63.9215L420.979 64.6362L421.454 65.65" stroke="white" stroke-width="0.28" stroke-linecap="round" stroke-linejoin="round"/>
<path d="M422.881 33.2394L421.84 32.405L420.638 31.7519L419.317 31.3014L417.918 31.0687L416.487 31.0654L415.069 31.2881L413.713 31.7319L412.461 32.3817L411.354 33.2194L410.432 34.2117L409.722 35.3302L409.247 36.5352L409.024 37.7917L409.059 39.0582L409.345 40.2731" stroke="white" stroke-width="0.28" stroke-linecap="round" stroke-linejoin="round"/>
<path d="M423.733 34.2268L422.884 33.2396L422.452 32.367L419.844 27.08L418.823 26.269L417.643 25.6324L416.344 25.192L414.969 24.9659L413.563 24.9609L412.17 25.177L410.836 25.6058L409.607 26.2374L408.519 27.0485L407.611 28.0124L406.912 29.0994L406.445 30.2712L406.223 31.4894L406.257 32.721L406.536 33.9027" stroke="white" stroke-width="0.28" stroke-linecap="round" stroke-linejoin="round"/>
<path d="M415.278 16.3475L414.681 15.327L413.877 14.4146L412.889 13.6417L411.749 13.0368L410.494 12.6179L409.165 12.4002L407.804 12.3936L406.456 12.5947L405.164 12.9985L403.974 13.5919L402.919 14.3581L402.04 15.2689L401.361 16.2944L400.908 17.4013L400.692 18.5547L400.722 19.7182L400.865 20.3132L400.989 20.835" stroke="white" stroke-width="0.28" stroke-linecap="round" stroke-linejoin="round"/>
<path d="M409.367 3.13911L408.792 2.17181L408.014 1.30422L407.055 0.569607L405.953 -0.00546111L404.738 -0.404344L403.449 -0.612098L402.129 -0.62207L400.821 -0.434269L399.568 -0.0536565L398.413 0.506449L397.389 1.23109L396.535 2.09037L395.875 3.061L395.433 4.10974L395.222 5.20004L395.248 6.30363L395.507 7.36235" stroke="white" stroke-width="0.28" stroke-linecap="round" stroke-linejoin="round"/>
<path d="M406.44 -3.61538L405.875 -4.55776L405.109 -5.40207L404.165 -6.12007L403.08 -6.68017L401.881 -7.07076L400.611 -7.27352L399.31 -7.28516L398.02 -7.10399L396.785 -6.73336L395.647 -6.18987L394.636 -5.48517L393.794 -4.6475L393.144 -3.70347L392.707 -2.68298L392.497 -1.62093L392.522 -0.547262L392.777 0.483203" stroke="white" stroke-width="0.28" stroke-linecap="round" stroke-linejoin="round"/>
<path d="M400.621 -17.4067L400.072 -18.3025L399.329 -19.1069L398.413 -19.7884L397.356 -20.3236L396.191 -20.6959L394.955 -20.892L393.69 -20.9053L392.435 -20.7357L391.232 -20.3867L390.121 -19.8715L389.138 -19.205L388.316 -18.4122L387.682 -17.5164L387.254 -16.5491L387.05 -15.5402L387.072 -14.5247L389.644 -7.8882L389.799 -7.48931L390.05 -6.48211L392.417 -0.623434L393.422 1.91615L395.139 6.23579L397.112 11.1321L397.868 13.0019L400.551 19.3044L400.72 19.7149L400.871 20.3116L400.991 20.8451L403.358 26.2367L404.736 29.4528L406.132 32.6987L408.711 38.5574L409.074 39.6627L409.346 40.2826L411.756 45.2804L412.845 47.6172L414.62 51.3933L415.062 52.6598L415.619 53.8814L416.975 56.6736" stroke="white" stroke-width="0.28" stroke-linecap="round" stroke-linejoin="round"/>
<path d="M573.83 23.4955L573.578 22.4916L563.308 -0.153626L563.092 -0.628966L550.881 -18.318L549.357 -20.5269L548.385 -21.9346L537.028 -33.3395L530.209 -40.1871L529.702 -40.6974L525.013 -42.6369L520.451 -44.8807L516.001 -47.4086L511.662 -50.2075L507.776 -52.9034L504.977 -54.8463L503.229 -56.0596L503.192 -56.0861L502.504 -56.5631L501.61 -57.1831L500.426 -58.0041L499.634 -58.5543L499.403 -58.7155L499.187 -58.8651L498.347 -59.4468L496.197 -60.9393L495.871 -61.167" stroke="white" stroke-width="0.28" stroke-linecap="round" stroke-linejoin="round"/>
<path d="M475.49 -69.3809L475.959 -68.4601L479.83 -61.0075L483.741 -53.643L480.497 -39.7102L484.46 -32.0831L488.474 -24.5291L482.366 -10.7409L473.626 1.89393L462.527 13.1276L449.355 22.7508L434.415 30.5907L423.894 34.3851" stroke="white" stroke-width="0.28" stroke-linecap="round" stroke-linejoin="round"/>
<path d="M606.844 59.6416L607.108 60.5923L609.925 88.4347L607.991 116.241L601.394 143.295L590.312 168.916L575.016 192.44L560.699 208" stroke="white" stroke-width="0.28" stroke-linecap="round" stroke-linejoin="round"/>
<path d="M456.327 85.5612L455.953 84.6704L455.717 84.092L455.675 83.9939L452.247 75.6605L448.597 66.6539L444.997 57.6457L441.437 48.6341L437.913 39.6175L434.415 30.591L430.938 21.5512L427.474 12.4948L424.02 3.42004L420.568 -5.67961L417.113 -14.8042L413.651 -23.9604L410.175 -33.1514L406.683 -42.3807L403.17 -51.6532L399.631 -60.9723L396.405 -69.4453" stroke="white" stroke-width="0.28" stroke-linecap="round" stroke-linejoin="round"/>
<path d="M296.293 -151L296.449 -150.156L299.803 -132.03L302.753 -115.971L305.345 -101.774L307.613 -89.257L309.591 -78.2593L311.305 -68.6378L312.781 -60.2678L314.04 -53.0362L315.104 -46.8418L315.988 -41.5948L316.706 -37.2136L317.271 -33.627L317.698 -30.7699L310.675 -22.5927L305.67 -16.7656L300.491 -10.7374L296.278 -5.83272L292.037 -0.893144L286.535 8.74334L283.888 13.3821L279.738 20.6552L275.74 27.6573L272.248 33.7769L270.513 38.9027L262.888 61.4249L259.321 71.9589L259.243 72.5506L257.458 85.8519L255.814 98.1144L253.934 112.137L250.974 113.929L247.669 115.159L243.981 115.755L239.865 115.644L235.278 114.73L230.157 112.908L224.44 110.053L218.044 106.019L210.878 100.632L203.003 93.8363" stroke="white" stroke-width="0.28" stroke-linecap="round" stroke-linejoin="round"/>
<path d="M590.764 208L591.313 207.375L607.099 181.796L618.321 154.089L624.733 124.978L626.189 95.2175L622.645 65.5668L617.013 46.4883" stroke="white" stroke-width="0.28" stroke-linecap="round" stroke-linejoin="round"/>
<path d="M475.978 -69.2559L475.959 -68.4597L472.692 -55.1934L476.574 -47.415L470.555 -34.6473L462.017 -22.9748L451.228 -12.6219L438.466 -3.7716L424.021 3.42003L411.398 7.73135" stroke="white" stroke-width="0.28" stroke-linecap="round" stroke-linejoin="round"/>
<path d="M574.222 22.8294L573.578 22.492L567.661 19.01L561.943 15.2704L556.412 11.2898L547.146 -9.61858L546.933 -10.0989L541.866 -13.7637L536.941 -17.6579L532.15 -21.7681L527.481 -26.0827L522.927 -30.5902L518.479 -35.2788L512.371 -44.2006L508.228 -50.2537L506.942 -52.1318" stroke="white" stroke-width="0.28" stroke-linecap="round" stroke-linejoin="round"/>
<path d="M841.059 118.94L840.766 119.051L818.201 126.517L797.374 132.381L778.099 136.843L760.211 140.076L743.57 142.222L728.055 143.409L713.557 143.746L699.98 143.325L687.242 142.232L675.266 140.537L663.987 138.301L653.345 135.582L643.286 132.427L633.763 128.881L624.733 124.978L616.154 120.755L607.991 116.241L600.215 111.459L592.79 106.438L585.693 101.194L587.497 82.5547" stroke="white" stroke-width="0.28" stroke-linecap="round" stroke-linejoin="round"/>
<path d="M312.343 208L312.12 207.81L292.467 183.387L277.743 155.368L268.716 124.677L265.936 92.4333L266.847 84.5004L267.658 77.4534L269.401 62.2873L269.675 59.9105L270.669 56.8474L270.977 55.9L271.366 54.7034L271.592 54.0053L271.794 53.3837L271.981 52.807L272.15 52.2851L272.659 50.7211L273.119 49.3001L273.481 48.1832L273.538 48.0087L273.57 47.9106L274.455 44.8824L275.419 41.6281L276.425 38.5434L277.246 36.308L277.472 35.6099L277.966 33.8216L278.607 31.8537L279.056 30.4775" stroke="white" stroke-width="0.28" stroke-linecap="round" stroke-linejoin="round"/>
<path d="M312.113 208L312.121 207.811L312.315 199.07L312.397 190.333L312.367 181.6L312.234 172.871L312.003 164.151L311.675 155.438L294.774 136.031L294.714 127.998L282.066 106.345L274.007 82.3933L271.329 58.9785" stroke="white" stroke-width="0.28" stroke-linecap="round" stroke-linejoin="round"/>
<path d="M524.107 129.354L524.018 129.47L522.997 130.419L520.998 132.274L519.291 133.858L507.725 144.591L488.945 157.118L468.117 166.75L445.714 173.233L422.259 176.358L398.318 175.962L374.506 171.937L351.492 164.235L330.055 152.925L329.988 152.888L310.841 138.106L310.748 138.035L294.655 120.06L294.542 119.934L282.123 99.0002L282.057 91.5875L281.874 84.115L281.578 76.5843L281.169 68.9987L280.654 61.36L280.032 53.6698L279.306 45.9297L278.478 38.1414L278.013 34.2256" stroke="white" stroke-width="0.28" stroke-linecap="round" stroke-linejoin="round"/>
<path d="M479.391 103.38L479.353 103.361L477.381 102.645L476.745 102.336L475.714 101.837L472.786 100.415L472.198 100.061L470.093 98.7892L468.378 97.7521L467.216 96.9161L464.142 94.6973L463.741 94.3632L461.604 92.5765L460.061 91.2868L459.192 90.4607L456.127 87.5522L455.83 87.238L454.309 85.6259L452.323 83.5201L451.637 82.7206L448.638 79.2187L448.022 78.4326L445.063 74.6664L444.854 74.3789L441.586 69.8864L441.076 69.1351L438.199 64.8953L438.026 64.6244L435.806 61.1407L434.893 59.7097L434.461 58.9934L431.661 54.343L431.26 53.6433L428.494 48.8068L428.358 48.5591L425.887 44.0334L425.385 43.1143L425.037 42.4495L422.328 37.2756L422.001 36.6274L419.317 31.2989L419.007 30.6673L416.343 25.1925L416.052 24.5759L413.405 18.9632L413.129 18.3616L410.493 12.6176L410.23 12.0292L407.606 6.16055L407.355 5.58715L404.736 -0.404492L404.651 -0.602275L401.88 -7.07093L401.649 -7.61607L399.033 -13.8354L398.812 -14.3689L396.189 -20.6963L395.978 -21.2165L393.349 -27.6503L393.144 -28.1589L390.505 -34.6973L390.306 -35.1926L387.653 -41.8324L387.462 -42.3161L384.793 -49.0556L383.616 -49.2385L382.408 -49.2551L381.211 -49.1055L380.064 -48.7947L379.002 -48.3327L378.063 -47.7327L377.275 -47.0163L376.669 -46.2086L379.441 -38.9072L382.2 -31.689L384.282 -26.2824L384.946 -24.5589L387.681 -17.5168L390.412 -10.5645L393.143 -3.70364L395.26 1.54008L395.874 3.06085L398.613 9.72894L401.362 16.294L404.127 22.7527L406.911 29.1L409.722 35.3293L412.562 41.434L415.439 47.4073L418.358 53.2394L421.324 58.9219L424.346 64.4432L427.429 69.7916L430.582 74.9523L433.811 79.9101L437.127 84.6486L440.537 89.1477L439.977 90.7998L443.483 95.0945L447.101 99.1066L450.847 102.806L450.598 104.709L454.482 108.138L458.521 111.195L462.726 113.836L467.113 116.021L467.261 118.232L467.797 120.377L472.434 122.221L477.298 123.507L482.411 124.17L483.455 126.427L484.872 128.458L490.382 128.593L496.207 127.951L502.38 126.434L504.386 128.393L506.688 129.962L513.461 127.597L520.683 124.115L528.404 119.359L531.318 120.627L534.371 121.355L542.965 115.218L552.221 107.409L555.63 107.585L565.813 97.8468L572.693 90.3876L576.864 85.8635L588.548 71.688L588.904 71.2559L599.751 56.6948L602.084 53.5635L606.183 53.0616L615.129 40.1076L620.436 32.4241L620.927 31.7144L628.705 19.4635L635.996 7.98214L637.243 6.01927L643.984 -5.45709L648.147 -12.5424L654.97 -24.1533L655.409 -24.9013L665.148 -42.7133L675.372 -61.4129L675.784 -62.1691L680.554 -63.4107L684.667 -65.3818L687.991 -68.0045L689.383 -70.6405L691.577 -74.8006L699.481 -89.7905L707.293 -104.603L710.959 -111.553L711.682 -112.924L716.042 -121.715L725.337 -140.458L730.566 -151" stroke="white" stroke-width="0.28" stroke-linecap="round" stroke-linejoin="round"/>
<path d="M433.184 51.9884L432.943 51.8105L432.278 50.9114L431.171 50.0039L429.896 49.2942L428.495 48.8072L427.013 48.5596L425.499 48.5612L423.999 48.8089L422.567 49.2992L421.245 50.0122L420.077 50.9296L419.106 52.0166L418.358 53.2399L417.861 54.5595L417.629 55.9307L417.669 57.3102L420.418 62.7052L420.629 63.119L420.95 64.5085L421.505 65.6387L423.323 68.9794L423.674 69.7422L424.056 70.5699L424.571 71.5422L426.316 74.5405L427.058 75.7322L429.492 80.0352L430.347 81.664L430.847 82.5133L431.39 83.3842L433.295 86.218L436.011 90.064L436.441 90.7038L436.772 91.1958L437.364 92.0135L439.396 94.8207L439.852 95.4506L440.193 95.9226L440.884 97.4916L441.856 98.911L443.081 100.477L444.62 102.444L445.436 103.487L445.521 103.585L447.728 106.151L448.386 106.915L449.133 107.785L449.917 108.381L451.431 109.734L451.905 110.228L452.974 111.797L455.563 114.192L456.343 114.97L457.175 115.801L457.478 115.983L460.481 118.304L461.101 118.801L464.834 121.325L465.426 121.724L467.156 122.675L469.945 124.207L474.13 125.966L474.678 126.197L476.284 127.814L478.067 128.344L481.32 129.313L486.618 130.202L488.634 131.6L494.312 131.856L496.624 132.901L499.07 133.506L501.52 133.649L501.57 133.653L505.619 133.365L507.879 133.205L514.577 131.892L517.248 131.543" stroke="white" stroke-width="0.28" stroke-linecap="round" stroke-linejoin="round"/>
<path d="M584.582 3.85861L570.978 -15.3429L570.659 -15.7933L564.812 -16.7822L559.158 -18.1517L545.235 -32.058L541.844 -35.4452L539.479 -37.807L534.52 -39.0801L529.702 -40.6973L520.742 -46.9349L510.922 -53.7725L507.427 -56.2041L503.224 -57.8096L499.334 -59.5847L499.296 -59.603L496.866 -60.7115L496.155 -61.0373L495.871 -61.1669L494.443 -61.8184L493.084 -62.4384L492.713 -62.6079L489.839 -63.9193L488.247 -64.6456L487.035 -65.199L485.079 -66.2528L483.944 -66.9325L482.455 -67.6123" stroke="white" stroke-width="0.28" stroke-linecap="round" stroke-linejoin="round"/>
<path d="M576.54 18.7836L569.054 2.43579L568.837 1.96045L555.643 -17.0549L554.018 -19.3967L553.685 -19.8771L541.094 -32.4936L534.996 -38.6032L534.519 -39.0802L524.08 -46.3433L513.517 -53.6895L511.734 -54.9311L504.526 -58.2236L497.7 -61.3415L497.479 -61.4429L495.067 -62.5449L492.479 -63.7266L491.778 -64.0473L486.888 -66.2811L485.878 -66.7432" stroke="white" stroke-width="0.28" stroke-linecap="round" stroke-linejoin="round"/>
<path d="M493.457 106.061L490.921 106.395L485.624 106.401L480.578 105.753L475.765 104.518L471.163 102.753L466.752 100.511L462.519 97.8385L458.445 94.7737L454.521 91.3533L450.73 87.6087L447.063 83.5683L443.506 79.2586L440.053 74.6996L436.69 69.913L433.413 64.9152L430.21 59.723L427.074 54.348L423.999 48.8084L420.978 43.111L418.002 37.2689L415.069 31.2872L412.17 25.1776L409.3 18.9433L406.456 12.5943L403.631 6.13231L400.82 -0.434404L398.02 -7.10415L395.226 -13.872L392.435 -20.7362L389.641 -27.6935L386.843 -34.7405L384.034 -41.879L381.212 -49.1055L378.375 -56.4201L375.807 -63.0732" stroke="white" stroke-width="0.28" stroke-linecap="round" stroke-linejoin="round"/>
<path d="M295.535 1.09964L295.387 1.30905L294.764 1.5567L294.014 1.30905L293.11 0.507951L292.037 -0.893144L290.78 -2.95241L289.328 -5.72968L287.661 -9.29475L285.761 -13.7257L283.603 -19.1057L281.167 -25.5362L278.421 -33.125L275.333 -41.997L271.866 -52.295L267.979 -64.1802L263.619 -77.8355L258.734 -93.4719L253.256 -111.332L247.112 -131.695L241.366 -151" stroke="white" stroke-width="0.28" stroke-linecap="round" stroke-linejoin="round"/>
<path d="M514.842 97.7054L521.115 90.0252L521.648 89.3703L531.481 71.9422L538.046 53.1496L541.092 33.4345L540.422 13.2856L535.903 -6.75026L528.394 -23.9856L527.695 -25.5878L527.48 -26.0831L520.335 -36.5506L515.666 -43.3899L515.198 -44.0763L510.484 -48.7948L506.484 -52.8003L503.228 -56.0596" stroke="white" stroke-width="0.28" stroke-linecap="round" stroke-linejoin="round"/>
<path d="M448.827 77.0064L448.061 76.0441L446.631 75.2247L445.064 74.6662L443.409 74.3887L441.72 74.3987L440.053 74.6995L438.461 75.2795L436.995 76.1222L435.705 77.1992L434.633 78.4756L433.812 79.91L433.272 81.4557L433.028 83.0612L433.087 84.675L433.451 86.2506L434.096 87.7132" stroke="white" stroke-width="0.28" stroke-linecap="round" stroke-linejoin="round"/>
<path d="M497.928 105.279L496.497 105.658L494.998 105.856L493.511 105.962L493.263 105.904L487.888 105.931L486.851 105.803L482.771 105.303L477.889 104.086L473.222 102.339L468.751 100.114L464.462 97.4562L460.336 94.408L456.361 91.0008L452.523 87.2712L448.812 83.2441L445.214 78.9461L441.72 74.3987L438.321 69.6237L435.007 64.6359L431.771 59.4537L428.603 54.0903L425.498 48.559L422.447 42.8715L419.445 37.0361L416.487 31.0644L413.563 24.9614L410.671 18.7354L407.804 12.3931L404.959 5.93776L402.129 -0.622299L399.31 -7.28541L396.498 -14.0482L393.69 -20.9058L390.88 -27.8581L388.066 -34.9002L385.244 -42.0336L382.409 -49.2552L379.56 -56.5648L376.904 -63.4141" stroke="white" stroke-width="0.28" stroke-linecap="round" stroke-linejoin="round"/>
<path d="M486.677 105.461L486.563 105.23L484.593 101.297L480.362 92.6163L476.233 83.9289L472.196 75.2298L468.24 66.5207L464.355 57.8L460.532 49.0643L456.762 40.312L453.039 31.5415L449.355 22.751L445.702 13.9355L442.075 5.0968L438.465 -3.77183L434.87 -12.6737L431.282 -21.6088L427.697 -30.5821L424.107 -39.5954L420.512 -48.6568L416.903 -57.7648L413.279 -66.9259L411.002 -72.6865" stroke="white" stroke-width="0.28" stroke-linecap="round" stroke-linejoin="round"/>
<path d="M506.534 102.451L506.137 102.664L504.938 103.139L502.754 104.005L500.009 105.095L499.07 105.34L494.208 106.609L488.709 107.309L483.48 107.279L478.502 106.598L473.75 105.33L469.205 103.535L464.85 101.263L460.668 98.5619L456.645 95.4705L452.765 92.0251L449.019 88.2556L445.393 84.1919L441.877 79.8607L438.46 75.2801L435.133 70.4718L431.889 65.4558L428.717 60.2453L425.613 54.8553L422.566 49.2991L419.571 43.5867L416.621 37.728L413.712 31.7314L410.835 25.6068L407.988 19.3609L405.165 12.9986L402.359 6.52495L399.567 -0.0533967L396.785 -6.73312L394.007 -13.5126L391.232 -20.3868L388.453 -27.354L385.667 -34.411L382.872 -41.5578L380.065 -48.7943L377.239 -56.1172L374.698 -62.7305" stroke="white" stroke-width="0.28" stroke-linecap="round" stroke-linejoin="round"/>
<path d="M486.41 105.427L485.004 105.259L483.668 104.932L483.592 104.914L480.051 104.046L475.318 102.303L470.786 100.082L469.376 99.2211L466.438 97.4278L462.256 94.3829L458.229 90.9791L457.938 90.6998L454.343 87.2528L454.085 86.9769L450.585 83.2273L450.356 82.9581L446.944 78.9326L446.738 78.6667L443.409 74.3886L439.97 69.6136L439.8 69.3609L436.619 64.6291L436.465 64.3815L433.348 59.4502L433.205 59.2076L430.149 54.0885L430.016 53.8525L427.013 48.5589L426.888 48.3295L423.933 42.8731L423.816 42.6487L420.903 37.0393L420.795 36.8199L417.918 31.0676L417.815 30.8549L414.969 24.9663L414.871 24.7585L412.054 18.7419L411.961 18.5392L409.166 12.3996L409.078 12.2018L406.299 5.94759L406.214 5.7548L403.448 -0.612463L403.367 -0.800274L400.611 -7.27391L400.533 -7.45839L397.781 -14.0351L397.708 -14.2146L394.955 -20.8926L394.884 -21.0688L392.13 -27.8433L392.062 -28.0145L389.301 -34.8853L389.234 -35.0532L386.464 -42.0171L386.399 -42.1817L383.617 -49.2387L383.554 -49.3982L380.753 -56.5467L380.693 -56.7029L377.954 -63.7383" stroke="white" stroke-width="0.28" stroke-linecap="round" stroke-linejoin="round"/>
<path d="M616.429 -62.2765L616.298 -62.1735L613.848 -60.2106L606.319 -54.809L599.082 -50.2185L592.122 -46.3792L585.419 -43.2313L556.466 -62.4943L524.357 -76.7146L489.858 -85.2824L453.867 -87.6758L433.901 -85.3905L417.776 -83.544L417.43 -83.5041L401.293 -78.5578L382.433 -72.7773L381.723 -72.5596L369.243 -66.0078L348.761 -55.2561L348.033 -54.8738L347.505 -52.1198L340.767 -46.7448L336.718 -43.5155L327.221 -35.9416L325.112 -34.2612L317.994 -28.5837L312.463 -22.1167L307.307 -16.0885L302.138 -10.0454L297.757 -4.92462L293.11 0.508577L290.165 5.69745L287.788 9.88745L285.144 14.5461L282.521 19.1666L280.811 22.1815L278.805 25.715L276.812 29.2269L274.01 34.1648L271.508 41.6257L269.894 46.439L264.641 62.1136L261.626 71.1052L261.403 72.8221L258.24 97.0912L256.578 109.844L253.934 112.138L256.39 152.656L253.334 156.127L263.773 197.069L260.59 201.969L263.416 208.001" stroke="white" stroke-width="0.28" stroke-linecap="round" stroke-linejoin="round"/>
<path d="M456.796 86.1012L456.374 85.6707L455.584 84.9029L453.972 84.1117L452.323 83.5217L450.585 83.2275L448.811 83.2442L447.063 83.5682L445.393 84.1915L443.86 85.0957L442.511 86.2474L441.39 87.6137L440.538 89.1477" stroke="white" stroke-width="0.28" stroke-linecap="round" stroke-linejoin="round"/>
<path d="M585.695 101.194L578.899 95.7491L576.55 93.7197" stroke="white" stroke-width="0.28" stroke-linecap="round" stroke-linejoin="round"/>
<path d="M602.341 84.5667L595.085 80.415L591.498 78.1396" stroke="white" stroke-width="0.28" stroke-linecap="round" stroke-linejoin="round"/>
<path d="M202.922 13.8691L207.142 23.6453L203.005 40.8839" stroke="white" stroke-width="0.28" stroke-linecap="round" stroke-linejoin="round"/>
</g>
</g>
</g>
<defs>
<linearGradient id="paint0_linear_15819_7159" x1="1143.05" y1="129" x2="1143.05" y2="258" gradientUnits="userSpaceOnUse">
<stop stop-color="#D9D9D9"/>
<stop offset="0.534077" stop-color="#D9D9D9"/>
<stop offset="1" stop-color="#D9D9D9" stop-opacity="0"/>
</linearGradient>
<linearGradient id="paint1_linear_15819_7159" x1="851.401" y1="98.5" x2="38.5439" y2="-51.1032" gradientUnits="userSpaceOnUse">
<stop offset="0.00194246" stop-color="#D9D9D9" stop-opacity="0"/>
<stop offset="0.137328" stop-color="#D9D9D9"/>
<stop offset="0.370578" stop-color="#D9D9D9"/>
<stop offset="0.871992" stop-color="#D9D9D9" stop-opacity="0"/>
</linearGradient>
</defs>
</svg>
