<svg width="100" height="100" viewBox="0 0 100 100" fill="none" xmlns="http://www.w3.org/2000/svg">
<path d="M35.859 97.9722L35.7962 97.8563L2.02344 35.859L64.1415 2.02344L64.2042 2.13933L97.9722 64.1415L35.859 97.9722ZM2.38077 35.9653L35.9604 97.6197L97.6149 64.04L64.0352 2.38077L2.38077 35.9653Z" fill="white"/>
<path d="M65.9324 97.4067L2.58789 65.9324L2.64584 65.8165L34.067 2.58789L97.4067 34.067L97.3488 34.1829L65.9276 97.4067H65.9324ZM2.94522 65.8117L65.8165 97.0542L97.0542 34.1877L34.1877 2.94039L2.94522 65.8117Z" fill="white"/>
<path d="M20.3001 90.2456L20.2807 90.1152L9.75391 20.3001L79.6946 9.75391L79.7139 9.88428L90.2408 79.6946L20.3001 90.2408V90.2456ZM10.0533 20.5222L20.5222 89.9414L89.9414 79.4725L79.4773 10.0533L10.0533 20.5222Z" fill="white"/>
<path d="M48.7567 100L48.6649 99.9036L0 48.7567L51.2435 0L51.3352 0.0965765L100 51.2435L48.7567 100ZM0.37182 48.7663L48.7663 99.6283L99.6283 51.2338L51.2338 0.37182L0.37182 48.7663Z" fill="white"/>
<path d="M77.6575 91.6703L8.33008 77.657L22.3385 8.32959L91.6708 22.338L77.6575 91.6703ZM8.63912 77.4542L77.4547 91.3613L91.3617 22.5457L22.5461 8.63863L8.63912 77.4542Z" fill="white"/>
<path d="M31.7306 96.5571L31.6775 96.4364L3.44336 31.7301L68.2703 3.44287L68.3235 3.56359L96.5624 68.2699L31.7355 96.5571H31.7306ZM3.78621 31.8653L31.8658 96.2094L96.2099 68.1298L68.1351 3.78572L3.78621 31.8653Z" fill="white"/>
<path d="M61.7412 98.6194L61.6301 98.5518L1.38086 61.7417L38.2586 1.38135L38.3697 1.44895L98.6141 38.2591L61.7364 98.6146L61.7412 98.6194ZM1.74302 61.6499L61.6494 98.2524L98.2519 38.346L38.3455 1.74351L1.74302 61.6499Z" fill="white"/>
<path d="M16.9068 87.5027L12.498 16.9053L83.0907 12.4966L87.4994 83.0892L16.9068 87.4979V87.5027ZM12.7781 17.1516L17.1579 87.2178L87.2241 82.8381L82.8444 12.7718L12.7781 17.1516Z" fill="white"/>
<path d="M44.4005 99.7007L44.3184 99.5993L0.298828 44.401L0.400233 44.3189L55.5937 0.299316L55.6758 0.400722L99.7002 55.5942L99.5988 55.6763L44.4053 99.7007H44.4005ZM0.670648 44.4444L44.444 99.3289L99.3284 55.5507L55.5551 0.671136L0.670648 44.4444Z" fill="white"/>
<path d="M73.924 93.9207L73.7985 93.8821L6.07422 73.9245L6.11285 73.799L26.0752 6.07471L26.2008 6.11334L93.9202 26.0757L93.8816 26.2013L73.9192 93.9207H73.924ZM6.40258 73.7459L73.7406 93.5972L93.5967 26.2544L26.2539 6.40307L6.40258 73.7459Z" fill="white"/>
<path d="M27.7403 94.79L27.6968 94.6645L5.20898 27.7418L5.33453 27.6983L72.2572 5.21045L72.3007 5.336L94.7885 72.2587L94.663 72.3022L27.7403 94.79ZM5.54217 27.9059L27.9045 94.4568L94.4505 72.0945L72.0882 5.54364L5.54217 27.9059Z" fill="white"/>
<path d="M57.4575 99.4542L0.544922 57.458L42.5412 0.54541L99.4538 42.5417L57.4575 99.4542ZM0.911913 57.4L57.3995 99.0872L99.0868 42.5997L42.5992 0.912401L0.911913 57.4Z" fill="white"/>
<path d="M84.4761 86.2328L13.7676 84.4751V84.3447L15.5253 13.7666L86.2338 15.5243V15.6547L84.4761 86.2328ZM14.038 84.2192L84.2202 85.9672L85.9634 15.785L15.7812 14.037L14.0332 84.2192H14.038Z" fill="white"/>
<path d="M40.0929 99.0249L0.974609 40.0939L59.9056 0.975586L99.0239 59.9066L40.0929 99.0249ZM1.3416 40.1663L40.1654 98.6579L98.6569 59.8342L59.8332 1.34258L1.3416 40.1663Z" fill="white"/>
<path d="M70.0021 95.8426L69.8814 95.7943L4.15625 70.0036L29.9953 4.15771L30.116 4.206L95.8412 29.9968L70.0021 95.8426ZM4.4991 69.8539L69.8524 95.4998L95.4983 30.1465L30.145 4.50056L4.4991 69.8539Z" fill="white"/>
<path d="M23.9218 92.68L23.8928 92.5496L7.32031 23.9223L76.078 7.3208L76.1069 7.44635L92.6795 76.0736L23.9218 92.68ZM7.63901 24.1155L24.115 92.3613L92.3608 75.8805L75.88 7.6395L7.63901 24.1155Z" fill="white"/>
<path d="M53.117 99.918L53.0205 99.8311L0.0820312 53.117L0.16895 53.0205L46.883 0.0820312L46.9796 0.16895L99.918 46.883L99.8311 46.9796L53.117 99.918ZM0.453851 53.0929L53.0977 99.5414L99.5462 46.9023L46.9023 0.453851L0.453851 53.0929Z" fill="white"/>
<path d="M81.1868 89.1013L10.8984 81.1868L10.9129 81.0564L18.8129 10.8984L89.1013 18.8129L89.0868 18.9433L81.1868 89.1013ZM11.1882 80.955L80.9502 88.8115L88.8067 19.0495L19.0447 11.1882L11.1882 80.955Z" fill="white"/>
<path d="M35.859 97.9722L35.7962 97.8563L2.02344 35.859L64.1415 2.02344L64.2042 2.13933L97.9722 64.1415L35.859 97.9722ZM2.38077 35.9653L35.9604 97.6197L97.6149 64.04L64.0352 2.38077L2.38077 35.9653Z" fill="white"/>
<path d="M65.9324 97.4067L2.58789 65.9324L2.64584 65.8165L34.067 2.58789L97.4067 34.067L97.3488 34.1829L65.9276 97.4067H65.9324ZM2.94522 65.8117L65.8165 97.0542L97.0542 34.1877L34.1877 2.94039L2.94522 65.8117Z" fill="white"/>
<path d="M20.3001 90.2456L20.2807 90.1152L9.75391 20.3001L79.6946 9.75391L79.7139 9.88428L90.2408 79.6946L20.3001 90.2408V90.2456ZM10.0533 20.5222L20.5222 89.9414L89.9414 79.4725L79.4773 10.0533L10.0533 20.5222Z" fill="white"/>
</svg>
