<svg width="40" height="40" viewBox="0 0 40 40" fill="none" xmlns="http://www.w3.org/2000/svg">
<path fill-rule="evenodd" clip-rule="evenodd" d="M31.3932 3.24219C31.0985 3.24219 30.8292 3.38324 30.5889 3.61876C30.3497 3.85322 30.1276 4.19185 29.9205 4.61792C29.5063 5.46999 29.133 6.71151 28.8083 8.28749C28.6367 8.97501 28.544 9.66032 28.4588 10.4075C28.4334 10.6307 28.6082 10.8256 28.8322 10.8256C29.0112 10.8256 29.1665 10.6993 29.2006 10.522C29.2378 10.3289 29.2742 10.1289 29.3103 9.93014L29.3103 9.93013C29.356 9.6786 29.4014 9.4289 29.4477 9.19719L29.4477 9.19719L29.4479 9.19606C29.7239 7.77041 30.0668 6.65554 30.438 5.9019C30.6238 5.52467 30.8123 5.24702 30.9957 5.06616C31.1792 4.88531 31.3432 4.81454 31.4857 4.81454C31.6269 4.81454 31.7845 4.88408 31.9603 5.06379C32.1368 5.24417 32.3171 5.5216 32.4978 5.89989C32.8585 6.65512 33.2015 7.77104 33.524 9.19887C34.076 12.0519 34.4449 15.9228 34.4449 20.0733C34.4449 24.1364 34.1676 28.0055 33.5244 30.9461L33.5243 30.9461L33.5235 30.9505C33.2475 32.3762 32.9046 33.4911 32.5335 34.2447C32.3477 34.6219 32.1591 34.8996 31.9757 35.0804C31.7922 35.2613 31.6282 35.3321 31.4857 35.3321C31.3411 35.3321 31.1829 35.265 31.0087 35.0934C30.8332 34.9205 30.6534 34.6523 30.4731 34.2804C30.1134 33.5383 29.7707 32.4246 29.4485 30.9527C29.4104 30.688 29.3573 30.4082 29.3024 30.1185L29.3023 30.1184L29.2764 29.9816C29.2117 29.6386 29.1465 29.2795 29.0988 28.9015C29.0759 28.7205 28.9226 28.5812 28.7368 28.5812C28.5118 28.5812 28.3426 28.7827 28.3772 29.0026C28.4415 29.4124 28.4956 29.8283 28.5485 30.2357L28.5485 30.2357C28.6272 30.8412 28.7035 31.4276 28.8073 31.9468L28.8075 31.9478C29.1324 33.5258 29.5062 34.7463 29.9214 35.5768C30.129 35.9918 30.3516 36.3192 30.5916 36.5449C30.8332 36.7721 31.1018 36.9044 31.3932 36.9044C31.6878 36.9044 31.957 36.7635 32.1971 36.5297C32.4363 36.2969 32.6583 35.9614 32.8655 35.5412C33.2801 34.7001 33.6538 33.4805 33.9787 31.9489C34.6296 28.8804 35 24.6126 35 20.0733C35 15.6263 34.6296 11.3586 33.9787 8.29019C33.6539 6.75887 33.2803 5.5169 32.8664 4.6535C32.6596 4.22223 32.4381 3.87542 32.1997 3.63394C31.9609 3.39196 31.691 3.24219 31.3932 3.24219Z" fill="url(#paint0_linear_203_776)"/>
<path fill-rule="evenodd" clip-rule="evenodd" d="M8.60677 36.7568C8.90147 36.7568 9.17083 36.6158 9.41112 36.3803C9.65033 36.1458 9.87235 35.8072 10.0795 35.3811C10.4937 34.529 10.867 33.2875 11.1917 31.7115C11.3633 31.024 11.456 30.3387 11.5412 29.5915C11.5666 29.3683 11.3918 29.1734 11.1678 29.1734C10.9888 29.1734 10.8335 29.2998 10.7994 29.4771C10.7622 29.6702 10.7258 29.8701 10.6897 30.0689L10.6897 30.0689C10.644 30.3204 10.5986 30.5701 10.5523 30.8018L10.5523 30.8018L10.5521 30.803C10.2761 32.2286 9.93324 33.3435 9.56204 34.0971C9.37625 34.4744 9.18773 34.752 9.00426 34.9329C8.82081 35.1137 8.65677 35.1845 8.5143 35.1845C8.37312 35.1845 8.21553 35.1149 8.0397 34.9352C7.86321 34.7548 7.68288 34.4774 7.5022 34.0991C7.1415 33.3439 6.79851 32.228 6.47598 30.8002C5.92403 27.9471 5.55512 24.0762 5.55512 19.9257C5.55512 15.8626 5.83236 11.9935 6.47562 9.05288L6.47568 9.05288L6.47653 9.04849C6.75246 7.62285 7.09535 6.50797 7.46655 5.75433C7.65235 5.3771 7.84087 5.09945 8.02434 4.91859C8.20778 4.73774 8.37183 4.66697 8.5143 4.66697C8.65889 4.66697 8.81712 4.734 8.99129 4.90561C9.1668 5.07854 9.34656 5.34674 9.52686 5.71862C9.88665 6.46068 10.2293 7.57443 10.5515 9.04628C10.5896 9.31105 10.6427 9.59082 10.6976 9.88054L10.6977 9.88059L10.7236 10.0174C10.7883 10.3604 10.8535 10.7195 10.9013 11.0975C10.9241 11.2785 11.0774 11.4179 11.2632 11.4179C11.4882 11.4179 11.6574 11.2163 11.6228 10.9964C11.5585 10.5866 11.5044 10.1707 11.4515 9.76333L11.4515 9.7633C11.3728 9.15787 11.2965 8.57138 11.1927 8.05225L11.1925 8.05122C10.8676 6.47321 10.4938 5.2527 10.0786 4.42226C9.87102 4.00718 9.64841 3.67983 9.40836 3.45409C9.16678 3.22691 8.89822 3.09462 8.60678 3.09462C8.31223 3.09462 8.04301 3.23554 7.80288 3.46931C7.56375 3.70211 7.34168 4.03764 7.13453 4.45787C6.71992 5.29893 6.34619 6.51854 6.02131 8.05014C5.37041 11.1186 5.00001 15.3864 5.00001 19.9257C5.00001 24.3727 5.37043 28.6404 6.0213 31.7088C6.34613 33.2402 6.71968 34.4821 7.13364 35.3455C7.34041 35.7768 7.56192 36.1236 7.80025 36.3651C8.03907 36.6071 8.30903 36.7568 8.60677 36.7568Z" fill="url(#paint1_linear_203_776)"/>
<defs>
<linearGradient id="paint0_linear_203_776" x1="34.8149" y1="17.7013" x2="28.189" y2="17.7013" gradientUnits="userSpaceOnUse">
<stop stop-color="white"/>
<stop offset="0.172369" stop-color="white"/>
<stop offset="0.842599" stop-color="white" stop-opacity="0"/>
</linearGradient>
<linearGradient id="paint1_linear_203_776" x1="5.18507" y1="22.2977" x2="11.811" y2="22.2977" gradientUnits="userSpaceOnUse">
<stop stop-color="white"/>
<stop offset="0.172369" stop-color="white"/>
<stop offset="0.842599" stop-color="white" stop-opacity="0"/>
</linearGradient>
</defs>
</svg>
