<svg width="40" height="40" viewBox="0 0 40 40" fill="none" xmlns="http://www.w3.org/2000/svg">
<path d="M11.9736 28.2337C10.7082 28.2337 9.49484 27.3638 8.61082 25.8341C7.70947 24.2744 7.20679 22.1747 7.20679 20.0151C7.20679 17.8255 7.70947 15.7259 8.61082 14.1662C9.51218 12.6364 10.7082 11.7666 11.9736 11.7666C13.2389 11.7666 14.4523 12.6364 15.3363 14.1662C16.2377 15.6959 16.7403 17.7955 16.7403 19.9851C16.7403 22.1747 16.2377 24.2744 15.3363 25.8041C14.435 27.3638 13.2389 28.2337 11.9736 28.2337ZM11.9736 12.3965C10.8122 12.3965 9.68551 13.2063 8.87083 14.6161C8.03881 16.0558 7.58813 17.9755 7.58813 19.9851C7.58813 21.9948 8.05614 23.9444 8.87083 25.3542C9.70285 26.7939 10.8122 27.5738 11.9736 27.5738C13.1349 27.5738 14.2616 26.7639 15.0763 25.3542C15.891 23.9444 16.359 21.9948 16.359 19.9851C16.359 17.9755 15.891 16.0258 15.0763 14.6161C14.2616 13.2063 13.1349 12.3965 11.9736 12.3965Z" fill="url(#paint0_linear_203_750)"/>
<path d="M28.4406 11.7663C29.706 11.7663 30.9193 12.6362 31.8034 14.1659C32.7047 15.7256 33.2074 17.8253 33.2074 19.9849C33.2074 22.1745 32.7047 24.2741 31.8034 25.8338C30.902 27.3636 29.706 28.2334 28.4406 28.2334C27.1753 28.2334 25.9619 27.3636 25.0779 25.8338C24.1765 24.3041 23.6738 22.2045 23.6738 20.0149C23.6738 17.8253 24.1765 15.7256 25.0779 14.1959C25.9792 12.6362 27.1753 11.7663 28.4406 11.7663ZM28.4406 27.6035C29.602 27.6035 30.7287 26.7937 31.5434 25.3839C32.3754 23.9442 32.8261 22.0245 32.8261 20.0149C32.8261 18.0052 32.358 16.0556 31.5434 14.6458C30.7113 13.2061 29.602 12.4262 28.4406 12.4262C27.2793 12.4262 26.1526 13.2361 25.3379 14.6458C24.5232 16.0556 24.0552 18.0052 24.0552 20.0149C24.0552 22.0245 24.5232 23.9742 25.3379 25.3839C26.1526 26.7937 27.2793 27.6035 28.4406 27.6035Z" fill="url(#paint1_linear_203_750)"/>
<path d="M9.3831 33C7.42497 33 5.54732 31.6266 4.17931 29.2113C2.78448 26.7486 2.00659 23.4335 2.00659 20.0237C2.00659 16.5665 2.78448 13.2514 4.17931 10.7887C5.57414 8.37341 7.42497 7 9.3831 7C11.3412 7 13.2189 8.37341 14.5869 10.7887C15.9817 13.204 16.7596 16.5191 16.7596 19.9763C16.7596 23.4335 15.9817 26.7486 14.5869 29.1639C13.1921 31.6266 11.3412 33 9.3831 33ZM9.3831 7.99454C7.58592 7.99454 5.84238 9.27323 4.58166 11.4991C3.29413 13.7723 2.59671 16.8033 2.59671 19.9763C2.59671 23.1494 3.32095 26.2277 4.58166 28.4536C5.8692 30.7268 7.58591 31.9581 9.3831 31.9581C11.1803 31.9581 12.9238 30.6794 14.1845 28.4536C15.4452 26.2277 16.1695 23.1494 16.1695 19.9763C16.1695 16.8033 15.4453 13.725 14.1845 11.4991C12.9238 9.27322 11.1803 7.99454 9.3831 7.99454Z" fill="url(#paint2_linear_203_750)"/>
<path d="M30.6169 6.99999C32.575 6.99999 34.4527 8.37339 35.8207 10.7887C37.2155 13.2514 37.9934 16.5665 37.9934 19.9763C37.9934 23.4335 37.2155 26.7486 35.8207 29.2113C34.4259 31.6266 32.575 33 30.6169 33C28.6588 33 26.7811 31.6266 25.4131 29.2113C24.0183 26.796 23.2404 23.4809 23.2404 20.0237C23.2404 16.5665 24.0183 13.2514 25.4131 10.8361C26.8079 8.37339 28.6588 6.99999 30.6169 6.99999ZM30.6169 32.0055C32.4141 32.0055 34.1576 30.7268 35.4183 28.5009C36.7059 26.2277 37.4033 23.1967 37.4033 20.0237C37.4033 16.8506 36.6791 13.7723 35.4183 11.5464C34.1308 9.27321 32.4141 8.04188 30.6169 8.04188C28.8197 8.04188 27.0762 9.32057 25.8155 11.5464C24.5548 13.7723 23.8305 16.8506 23.8305 20.0237C23.8305 23.1967 24.5548 26.275 25.8155 28.5009C27.0762 30.7268 28.8197 32.0055 30.6169 32.0055Z" fill="url(#paint3_linear_203_750)"/>
<path d="M7.64001 19.5674H32.7739" stroke="url(#paint4_linear_203_750)" stroke-width="0.433344"/>
<g filter="url(#filter0_f_203_750)">
<circle cx="20.207" cy="19.5666" r="1.30003" fill="white"/>
</g>
<defs>
<filter id="filter0_f_203_750" x="18.0403" y="17.3999" width="4.33347" height="4.33298" filterUnits="userSpaceOnUse" color-interpolation-filters="sRGB">
<feFlood flood-opacity="0" result="BackgroundImageFix"/>
<feBlend mode="normal" in="SourceGraphic" in2="BackgroundImageFix" result="shape"/>
<feGaussianBlur stdDeviation="0.433344" result="effect1_foregroundBlur_203_750"/>
</filter>
<linearGradient id="paint0_linear_203_750" x1="6.98762" y1="19.8355" x2="16.7406" y2="19.8537" gradientUnits="userSpaceOnUse">
<stop stop-color="white"/>
<stop offset="0.819834" stop-color="white" stop-opacity="0"/>
</linearGradient>
<linearGradient id="paint1_linear_203_750" x1="33.4266" y1="20.1645" x2="23.6736" y2="20.1463" gradientUnits="userSpaceOnUse">
<stop stop-color="white"/>
<stop offset="0.819834" stop-color="white" stop-opacity="0"/>
</linearGradient>
<linearGradient id="paint2_linear_203_750" x1="1.66744" y1="19.74" x2="16.76" y2="19.7677" gradientUnits="userSpaceOnUse">
<stop stop-color="white"/>
<stop offset="0.819834" stop-color="white" stop-opacity="0"/>
</linearGradient>
<linearGradient id="paint3_linear_203_750" x1="38.3326" y1="20.26" x2="23.24" y2="20.2323" gradientUnits="userSpaceOnUse">
<stop stop-color="white"/>
<stop offset="0.819834" stop-color="white" stop-opacity="0"/>
</linearGradient>
<linearGradient id="paint4_linear_203_750" x1="7.45245" y1="20.5674" x2="32.5864" y2="20.5674" gradientUnits="userSpaceOnUse">
<stop stop-color="white" stop-opacity="0"/>
<stop offset="0.514171" stop-color="white"/>
<stop offset="1" stop-color="white" stop-opacity="0"/>
</linearGradient>
</defs>
</svg>
