<svg width="38" height="40" viewBox="0 0 38 40" fill="none" xmlns="http://www.w3.org/2000/svg">
<path d="M30.0485 35.2243C26.9284 37.11 23.3138 38.0918 19.6622 37.9259C14.8527 37.7073 10.3944 35.6536 7.16182 32.1569C3.92926 28.6603 2.26275 24.0888 2.47859 19.3384C2.69442 14.588 4.76862 10.1865 8.30495 6.99738C11.8413 3.80827 16.4675 2.16727 21.277 2.38579C25.0177 2.55575 28.5283 3.86123 31.3755 6.01809C31.8088 6.30224 32.1491 6.67031 32.5824 6.95445C32.9547 6.61875 33.412 6.37508 33.8693 6.1314C33.529 5.76333 33.0997 5.39121 32.6663 5.10707C29.3898 2.57809 25.4419 1.07644 21.2559 0.886246C16.0901 0.651541 11.0997 2.4523 7.19508 5.88913C3.37956 9.33 1.10725 14.1633 0.875432 19.2656C0.643609 24.3678 2.46826 29.3873 5.95602 33.16C9.44379 36.9327 14.3395 39.1826 19.5052 39.4173C23.6912 39.6075 27.7591 38.47 31.1624 36.2446C31.6197 36.0009 31.9919 35.6652 32.4532 35.3335C32.0199 35.0494 31.6796 34.6813 31.2463 34.3972C30.8741 34.7329 30.4167 34.9766 30.0485 35.2243Z" fill="url(#paint0_linear_1_4)"/>
<path d="M27.6056 30.1325C25.5479 31.3761 23.1642 32.0235 20.7561 31.9141C17.5843 31.77 14.6441 30.4156 12.5123 28.1096C10.3805 25.8036 9.28147 22.7888 9.4238 19.656C9.56614 16.5232 10.934 13.6205 13.2662 11.5174C15.5983 9.41422 18.6492 8.33201 21.821 8.47612C24.2879 8.5882 26.6031 9.44914 28.4807 10.8715C28.7665 11.0589 28.9909 11.3017 29.2767 11.4891C29.5222 11.2677 29.8237 11.107 30.1253 10.9463C29.9009 10.7035 29.6178 10.4581 29.332 10.2707C27.1712 8.60294 24.5676 7.61263 21.807 7.4872C18.4003 7.33241 15.1092 8.51998 12.5342 10.7865C10.018 13.0557 8.51944 16.2431 8.36655 19.608C8.21367 22.9728 9.41699 26.2831 11.7171 28.7711C14.0172 31.2591 17.2458 32.7429 20.6525 32.8977C23.4131 33.0231 26.0958 32.273 28.3402 30.8053C28.6418 30.6446 28.8873 30.4232 29.1915 30.2045C28.9057 30.0171 28.6813 29.7744 28.3955 29.587C28.15 29.8084 27.8485 29.9691 27.6056 30.1325Z" fill="url(#paint1_linear_1_4)"/>
<g filter="url(#filter0_f_1_4)">
<circle cx="30.8591" cy="32.3299" r="2.85243" transform="rotate(30 30.8591 32.3299)" fill="white"/>
</g>
<path d="M19.027 19.0861L36.7677 38.7282" stroke="url(#paint2_linear_1_4)" stroke-width="1.95076"/>
<defs>
<filter id="filter0_f_1_4" x="24.1046" y="25.5755" width="13.5089" height="13.5089" filterUnits="userSpaceOnUse" color-interpolation-filters="sRGB">
<feFlood flood-opacity="0" result="BackgroundImageFix"/>
<feBlend mode="normal" in="SourceGraphic" in2="BackgroundImageFix" result="shape"/>
<feGaussianBlur stdDeviation="1.95076" result="effect1_foregroundBlur_1_4"/>
</filter>
<linearGradient id="paint0_linear_1_4" x1="4.92524" y1="14.9443" x2="29.0059" y2="17.3409" gradientUnits="userSpaceOnUse">
<stop stop-color="white"/>
<stop offset="1" stop-color="white" stop-opacity="0"/>
</linearGradient>
<linearGradient id="paint1_linear_1_4" x1="3.72628" y1="17.2569" x2="26.918" y2="18.3387" gradientUnits="userSpaceOnUse">
<stop stop-color="white"/>
<stop offset="1" stop-color="white" stop-opacity="0"/>
</linearGradient>
<linearGradient id="paint2_linear_1_4" x1="18.1525" y1="19.6098" x2="35.8932" y2="39.2519" gradientUnits="userSpaceOnUse">
<stop stop-color="white" stop-opacity="0"/>
<stop offset="0.514171" stop-color="white"/>
<stop offset="1" stop-color="white" stop-opacity="0"/>
</linearGradient>
</defs>
</svg>
