<svg width="37" height="20" viewBox="0 0 37 20" fill="none" xmlns="http://www.w3.org/2000/svg">
<path d="M25.0042 7.34355C24.9402 6.80274 24.6805 6.3829 24.2251 6.08403C23.7697 5.78517 23.211 5.63573 22.5493 5.63573C22.0654 5.63573 21.642 5.71401 21.2791 5.87056C20.9197 6.02711 20.6386 6.24236 20.4358 6.51632C20.2366 6.79028 20.137 7.1016 20.137 7.45028C20.137 7.74204 20.2064 7.99287 20.3451 8.20279C20.4874 8.40915 20.6689 8.58171 20.8895 8.72047C21.1101 8.85567 21.3413 8.96775 21.5833 9.05669C21.8252 9.1421 22.0476 9.21149 22.2504 9.26482L23.3605 9.56368C23.6451 9.63841 23.9618 9.74159 24.3104 9.87323C24.6627 10.0049 24.9989 10.1846 25.3191 10.4123C25.6429 10.6364 25.9098 10.9246 26.1196 11.2769C26.3296 11.6291 26.4345 12.0614 26.4345 12.5737C26.4345 13.1643 26.2798 13.698 25.9702 14.1748C25.6642 14.6516 25.2159 15.0305 24.6253 15.3116C24.0383 15.5926 23.3249 15.7332 22.4852 15.7332C21.7025 15.7332 21.0247 15.6069 20.4519 15.3543C19.8826 15.1016 19.4343 14.7494 19.107 14.2976C18.7832 13.8457 18.5999 13.3209 18.5573 12.7232H19.9235C19.9591 13.1359 20.0978 13.4775 20.3398 13.7478C20.5853 14.0147 20.8948 14.2139 21.2684 14.3456C21.6455 14.4737 22.0512 14.5377 22.4852 14.5377C22.9904 14.5377 23.4441 14.4559 23.8461 14.2922C24.2482 14.125 24.5666 13.8937 24.8015 13.5984C25.0363 13.2996 25.1537 12.9509 25.1537 12.5524C25.1537 12.1895 25.0523 11.8941 24.8495 11.6664C24.6467 11.4387 24.3798 11.2537 24.0489 11.1114C23.718 10.9691 23.3605 10.8446 22.9762 10.7378L21.6313 10.3536C20.7774 10.1081 20.1014 9.75761 19.6033 9.30218C19.1052 8.84678 18.8561 8.25082 18.8561 7.51433C18.8561 6.90236 19.0216 6.36867 19.3525 5.91325C19.6869 5.45428 20.1352 5.09848 20.6974 4.84587C21.2631 4.5897 21.8946 4.46161 22.592 4.46161C23.2964 4.46161 23.9226 4.58792 24.4706 4.84053C25.0185 5.08959 25.4525 5.43115 25.7727 5.86522C26.0965 6.29929 26.2673 6.79207 26.2851 7.34355H25.0042Z" fill="#F7F7F8"/>
<path d="M32.7043 12.1895V7.34354H33.9639V15.541H32.7043V14.1534H32.6189C32.4268 14.5697 32.128 14.9237 31.7223 15.2155C31.3167 15.5037 30.8044 15.6478 30.1853 15.6478C29.673 15.6478 29.2175 15.5357 28.8191 15.3115C28.4206 15.0838 28.1075 14.7423 27.8798 14.2869C27.652 13.8279 27.5382 13.2497 27.5382 12.5523V7.34354H28.7977V12.467C28.7977 13.0647 28.965 13.5415 29.2994 13.8973C29.6374 14.253 30.0679 14.431 30.5909 14.431C30.904 14.431 31.2224 14.3509 31.5462 14.1908C31.8736 14.0307 32.1475 13.7852 32.3681 13.4543C32.5923 13.1234 32.7043 12.7018 32.7043 12.1895Z" fill="#F7F7F8"/>
<path d="M35.369 15.541V7.34354H36.6285V15.541H35.369ZM36.0094 5.97728C35.7639 5.97728 35.5522 5.89367 35.3743 5.72645C35.2 5.55922 35.1128 5.3582 35.1128 5.12338C35.1128 4.88855 35.2 4.68753 35.3743 4.5203C35.5522 4.35308 35.7639 4.26947 36.0094 4.26947C36.2549 4.26947 36.4648 4.35308 36.6392 4.5203C36.8171 4.68753 36.906 4.88855 36.906 5.12338C36.906 5.3582 36.8171 5.55922 36.6392 5.72645C36.4648 5.89367 36.2549 5.97728 36.0094 5.97728Z" fill="#F7F7F8"/>
<path fill-rule="evenodd" clip-rule="evenodd" d="M24.9209 7.43649L24.911 7.3536C24.8503 6.84036 24.6058 6.44522 24.1736 6.16157C23.7365 5.87473 23.1968 5.72867 22.5493 5.72867C22.0755 5.72867 21.6653 5.80531 21.3165 5.95574C20.9702 6.10665 20.7032 6.31223 20.5117 6.57089C20.3246 6.82822 20.231 7.11997 20.231 7.44929C20.231 7.72527 20.2963 7.95716 20.423 8.14923C20.5577 8.34421 20.7294 8.50766 20.9391 8.63969C21.1541 8.77143 21.3795 8.88063 21.6152 8.96734C21.855 9.05195 22.0747 9.12048 22.2744 9.173L22.2749 9.17316L23.3844 9.47187C23.3843 9.47187 23.3845 9.47187 23.3844 9.47187C23.6728 9.54761 23.9927 9.6519 24.3436 9.78434C24.7035 9.91889 25.0468 10.1023 25.3731 10.3344C25.7082 10.5665 25.984 10.8646 26.2004 11.2278C26.4209 11.5978 26.5286 12.0476 26.5286 12.5727C26.5286 13.1806 26.369 13.7322 26.0493 14.2247C25.7325 14.7182 25.2697 15.1079 24.666 15.3953C24.0631 15.6839 23.3351 15.8261 22.4853 15.8261C21.6927 15.8261 21.0014 15.6982 20.414 15.4392C19.8314 15.1807 19.3691 14.8185 19.031 14.3516C18.6963 13.8846 18.5075 13.3425 18.4636 12.7288L18.4565 12.6282H20.0098L20.0172 12.7141C20.0512 13.1093 20.1832 13.4307 20.4095 13.6838C20.6434 13.9379 20.9392 14.1289 21.2992 14.2558C21.6656 14.3802 22.0608 14.4428 22.4853 14.4428C22.9802 14.4428 23.4213 14.3627 23.8104 14.2044C24.1999 14.0424 24.5045 13.82 24.7279 13.5391C24.9489 13.2577 25.0599 12.9298 25.0599 12.5514C25.0599 12.2069 24.9641 11.9353 24.7794 11.7279C24.5873 11.5122 24.3325 11.3346 24.0119 11.1967C23.6853 11.0562 23.3318 10.9331 22.9512 10.8273L22.9505 10.8272L21.6056 10.4429C20.742 10.1946 20.0516 9.83832 19.54 9.3705C19.0205 8.89558 18.7623 8.27352 18.7623 7.51334C18.7623 6.88336 18.933 6.32993 19.2765 5.85705C19.6214 5.38379 20.0831 5.01798 20.6588 4.75926C21.2381 4.49696 21.883 4.36669 22.592 4.36669C23.3077 4.36669 23.9476 4.49503 24.5097 4.75413C25.0703 5.00899 25.5175 5.36004 25.8483 5.80829C26.1837 6.258 26.3607 6.76933 26.3791 7.33952L26.3822 7.43649H24.9209ZM25.7729 5.86423C25.4526 5.43016 25.0186 5.0886 24.4706 4.83954C23.9227 4.58693 23.2965 4.46062 22.592 4.46062C21.8947 4.46062 21.2631 4.5887 20.6974 4.84488C20.1353 5.09749 19.687 5.45328 19.3525 5.91226C19.0216 6.36768 18.8562 6.90137 18.8562 7.51334C18.8562 8.24983 19.1053 8.84579 19.6034 9.30121C20.1015 9.75664 20.7775 10.1071 21.6314 10.3526L22.9763 10.7368C23.3606 10.8436 23.7181 10.9681 24.049 11.1104C24.3799 11.2527 24.6467 11.4378 24.8496 11.6655C25.0524 11.8932 25.1538 12.1885 25.1538 12.5514C25.1538 12.9499 25.0363 13.2985 24.8015 13.5974C24.5667 13.8927 24.2483 14.124 23.8462 14.2912C23.4442 14.4549 22.9905 14.5367 22.4853 14.5367C22.0512 14.5367 21.6456 14.4727 21.2685 14.3446C20.8949 14.213 20.5854 14.0137 20.3399 13.7469C20.0979 13.4764 19.9592 13.1349 19.9236 12.7222H18.5573C18.5596 12.7537 18.5622 12.785 18.5653 12.8161C18.6197 13.375 18.8003 13.8685 19.107 14.2966C19.4344 14.7484 19.8827 15.1007 20.4519 15.3533C21.0248 15.6059 21.7026 15.7322 22.4853 15.7322C23.325 15.7322 24.0384 15.5916 24.6254 15.3106C25.216 15.0295 25.6643 14.6506 25.9703 14.1738C26.2798 13.6971 26.4346 13.1634 26.4346 12.5727C26.4346 12.0604 26.3297 11.6281 26.1198 11.2759C25.9098 10.9236 25.643 10.6354 25.3192 10.4113C24.999 10.1836 24.6627 10.0039 24.3105 9.87226C23.9618 9.74063 23.6452 9.63745 23.3606 9.56272L22.2505 9.26385C22.0477 9.21047 21.8253 9.14108 21.5834 9.05572C21.3414 8.96676 21.1102 8.85468 20.8896 8.71948C20.669 8.58072 20.4875 8.40816 20.3452 8.2018C20.2064 7.99188 20.1371 7.74104 20.1371 7.44929C20.1371 7.10062 20.2367 6.7893 20.4359 6.51533C20.6387 6.24137 20.9198 6.02611 21.2792 5.86956C21.6421 5.71302 22.0655 5.63474 22.5493 5.63474C23.2111 5.63474 23.7697 5.78417 24.2251 6.08304C24.6806 6.38191 24.9403 6.80175 25.0043 7.34256H26.2852C26.2842 7.31105 26.2827 7.27974 26.2807 7.24863C26.2474 6.73497 26.0781 6.2735 25.7729 5.86423ZM32.6105 7.24863H34.0578V15.634H32.6105V14.3759C32.4125 14.729 32.1342 15.034 31.7772 15.2907L31.7768 15.2911C31.3518 15.593 30.8191 15.7407 30.1854 15.7407C29.6588 15.7407 29.1872 15.6254 28.7731 15.3924L28.7725 15.3921C28.3562 15.1542 28.0309 14.798 27.7958 14.3279C27.5598 13.8521 27.4443 13.2582 27.4443 12.5514V7.24863H28.8917V12.466C28.8917 13.0453 29.0532 13.4971 29.3677 13.8318C29.6866 14.1674 30.0919 14.336 30.5909 14.336C30.8875 14.336 31.1918 14.2603 31.5046 14.1056C31.8157 13.9535 32.0778 13.7196 32.29 13.4012L32.2904 13.4007C32.5014 13.0892 32.6105 12.6873 32.6105 12.1885V7.24863ZM29.2994 13.8963C28.965 13.5405 28.7977 13.0637 28.7977 12.466V7.34256H27.5383V12.5514C27.5383 13.2487 27.6521 13.8269 27.8798 14.2859C28.1075 14.7413 28.4206 15.0829 28.8191 15.3106C29.2176 15.5347 29.673 15.6468 30.1854 15.6468C30.8045 15.6468 31.3168 15.5027 31.7224 15.2145C32.122 14.927 32.418 14.5791 32.6105 14.1708C32.6133 14.1647 32.6161 14.1586 32.619 14.1525H32.7044V15.5401H33.9639V7.34256H32.7044V12.1885C32.7044 12.7008 32.5923 13.1224 32.3681 13.4533C32.1476 13.7842 31.8736 14.0297 31.5463 14.1898C31.2225 14.3499 30.9041 14.43 30.5909 14.43C30.0679 14.43 29.6374 14.2521 29.2994 13.8963ZM35.2751 15.634V7.24863H36.7225V15.634H35.2751ZM35.31 5.79391L35.3094 5.79326C35.1172 5.60889 35.019 5.38363 35.019 5.1224C35.019 4.86116 35.1172 4.6359 35.3094 4.45154L35.31 4.45088C35.5055 4.26719 35.7402 4.17456 36.0095 4.17456C36.2786 4.17456 36.5118 4.26714 36.704 4.45125C36.8996 4.63536 37 4.86069 37 5.1224C37 5.38411 36.8996 5.60945 36.704 5.79356C36.5118 5.97766 36.2786 6.07024 36.0095 6.07024C35.7402 6.07024 35.5055 5.9776 35.31 5.79391ZM36.6392 5.72547C36.8171 5.55824 36.9061 5.35722 36.9061 5.1224C36.9061 4.88757 36.8171 4.68655 36.6392 4.51932C36.4649 4.3521 36.255 4.26849 36.0095 4.26849C35.764 4.26849 35.5523 4.3521 35.3744 4.51932C35.2001 4.68655 35.1129 4.88757 35.1129 5.1224C35.1129 5.35722 35.2001 5.55824 35.3744 5.72547C35.5523 5.89269 35.764 5.97631 36.0095 5.97631C36.255 5.97631 36.4649 5.89269 36.6392 5.72547ZM35.369 15.5401H36.6286V7.34256H35.369V15.5401Z" fill="#F7F7F8"/>
<path fill-rule="evenodd" clip-rule="evenodd" d="M11.3486 8.49646L11.3483 8.49727C12.0878 9.42464 12.5298 10.5992 12.5298 11.8767C12.5298 13.1732 12.0746 14.3637 11.3151 15.2973L11.2497 15.3777L11.2323 15.2755C11.2176 15.1887 11.2003 15.101 11.1801 15.0125C10.8 13.3424 9.56155 11.9102 7.52315 10.7507C6.1467 9.96975 5.35882 9.02949 5.15195 7.96112C5.01835 7.27027 5.11766 6.57636 5.30962 5.98199C5.50153 5.38785 5.78695 4.89004 6.02947 4.59033L6.82254 3.62056C6.96162 3.45053 7.22182 3.45053 7.3609 3.62056L11.3486 8.49646ZM12.6027 7.5278L7.28819 1.02885C7.18667 0.904771 6.99672 0.904771 6.89525 1.02885L1.58045 7.52749L1.5633 7.5493C0.585277 8.76295 0 10.3052 0 11.9842C0 15.8943 3.17499 19.0642 7.0917 19.0642C11.0084 19.0642 14.1834 15.8943 14.1834 11.9842C14.1834 10.3053 13.5981 8.76295 12.6201 7.5493L12.6027 7.5278ZM2.85211 8.47556L3.3277 7.89399L3.34207 8.0013C3.35345 8.0863 3.36725 8.17176 3.38361 8.25757C3.6912 9.8714 4.78998 11.2171 6.62705 12.2593C8.22387 13.1681 9.1536 14.2132 9.4215 15.3593C9.53324 15.8377 9.55319 16.3083 9.50479 16.7198L9.50177 16.7452L9.47876 16.7565C8.758 17.1086 7.94781 17.3062 7.09154 17.3062C4.08812 17.3062 1.65325 14.8754 1.65325 11.8767C1.65325 10.5892 2.10211 9.40621 2.85211 8.47556Z" fill="#F7F7F8"/>
</svg>
