<svg width="73" height="16" viewBox="0 0 73 16" fill="none" xmlns="http://www.w3.org/2000/svg">
<path d="M6.16619 7.67112C6.49506 8.24663 5.75511 8.41106 5.42625 8.45217C4.93296 8.49328 4.80963 8.20552 4.89185 7.83555C4.93296 7.71223 5.01517 7.5889 5.09739 7.50669C5.1796 7.42447 5.34403 7.34225 5.46736 7.34225C5.59068 7.34225 5.75511 7.34225 5.83733 7.42447C6.00176 7.46558 6.08398 7.54779 6.16619 7.67112Z" fill="white"/>
<path d="M8.13938 6.6434C7.76941 9.52095 12.7846 8.90434 12.7024 11.1653C13.1957 10.5075 13.4012 8.78101 11.9624 7.87664C10.647 7.05448 8.96154 7.50667 8.13938 6.6434Z" fill="white"/>
<path d="M11.058 5.53351C11.0169 5.4924 10.9758 5.4924 10.9758 5.45129C10.9758 5.4924 11.0169 5.53351 11.058 5.53351Z" fill="white"/>
<path d="M12.2091 7.63002C12.168 7.5478 12.1268 7.46558 12.0446 7.38337C11.8802 7.13672 11.6335 6.97229 11.3458 6.93118C11.1814 6.89007 10.9758 6.84896 10.7703 6.84896C10.5647 6.84896 10.4003 6.80786 10.1948 6.80786C9.78369 6.76675 9.41372 6.72564 9.00264 6.64343C8.92043 6.60232 8.7971 6.60232 8.71489 6.56121C8.67378 6.56121 8.63267 6.5201 8.55046 6.5201C8.50935 6.47899 8.46824 6.47899 8.38603 6.43789C8.18049 6.35567 8.01605 6.19124 7.89273 6.06792C7.60498 5.78016 7.35833 5.4513 7.11168 5.16354C6.86503 4.83468 6.65949 4.54692 6.37174 4.25917C6.12509 3.97141 5.79623 3.72477 5.46737 3.56033C5.1385 3.3959 4.72742 3.27258 4.35745 3.23147C4.76853 3.19036 5.17961 3.23147 5.54958 3.3959C5.91955 3.56033 6.28952 3.76587 6.57728 4.05363C6.78282 4.21806 6.94725 4.4236 7.11168 4.62914C8.38602 4.38249 9.37261 4.58803 10.1537 5.04022C10.4003 5.16354 10.647 5.32797 10.8525 5.53351C10.8936 5.57462 10.9347 5.57462 10.9347 5.61573C11.0991 5.78016 11.2636 5.94459 11.3869 6.10902C11.9624 6.64343 12.2091 7.26004 12.2091 7.63002Z" fill="white"/>
<path d="M4.48074 3.56033C4.80961 3.60144 5.13847 3.72476 5.34401 3.97141C5.54955 4.21806 5.63177 4.54692 5.71398 4.83468C5.75509 5.08133 5.7962 5.32797 5.87841 5.53351C5.91952 5.65684 6.00174 5.73905 6.04284 5.82127C6.08395 5.90348 6.16617 5.9857 6.20728 6.06792V6.10902V6.15013C6.08395 6.27345 5.7962 6.15013 5.67287 6.06792C5.46733 5.9857 5.3029 5.82127 5.13847 5.65684C4.68628 5.16354 4.43964 4.4236 4.43964 3.76587C4.43964 3.72476 4.48074 3.64255 4.48074 3.56033Z" fill="white"/>
<path d="M9.82477 9.31543C9.12594 11.2475 12.2912 12.563 11.0991 14.5361C12.2912 14.0428 12.8668 12.5218 12.3735 11.3297C11.9624 10.2609 10.6469 9.84983 9.82477 9.31543Z" fill="white"/>
<path d="M5.67287 11.823C5.87841 11.6997 6.08395 11.5764 6.28949 11.453C6.49502 11.3708 6.74167 11.2886 6.98832 11.2475C7.44051 11.1653 7.9338 11.1242 8.30377 10.9598C8.50931 10.8775 8.67374 10.7953 8.83817 10.6309C9.00261 10.5076 9.08482 10.3431 9.16704 10.1376C9.24925 9.93206 9.24925 9.72652 9.24925 9.52098C9.24925 9.27433 9.16704 9.06879 9.08482 8.86325C9.24925 9.02768 9.37258 9.27433 9.45479 9.52098C9.53701 9.76762 9.53701 10.0143 9.4959 10.2609C9.45479 10.5076 9.29036 10.7542 9.12593 10.9598C8.9615 11.1242 8.71485 11.2886 8.4682 11.3708C8.22156 11.453 7.97491 11.4942 7.72826 11.5353C7.48161 11.5353 7.27607 11.5764 7.02943 11.5764C6.57724 11.5764 6.12505 11.6586 5.67287 11.823Z" fill="white"/>
<path d="M10.1125 15.235C10.0303 15.2761 9.98922 15.3583 9.907 15.3994C9.82478 15.4405 9.74257 15.4816 9.66035 15.5227C9.49592 15.6049 9.29038 15.646 9.08484 15.646C8.55044 15.646 8.18047 15.235 7.97493 14.7828C7.8105 14.495 7.72828 14.1662 7.56385 13.8784C7.3172 13.4673 6.86501 13.1385 6.37172 13.1796C6.16618 13.2207 5.96064 13.3029 5.87843 13.4673C5.59067 13.9195 6.00175 14.5772 6.57726 14.495C6.61837 14.495 6.65948 14.495 6.70058 14.4539C6.74169 14.4539 6.7828 14.4128 6.82391 14.3717C6.90612 14.2895 6.94723 14.2073 6.98834 14.1251C7.02945 14.0428 7.02945 13.9195 7.02945 13.7962C6.98834 13.6729 6.94723 13.5906 6.86502 13.5495C6.98834 13.5906 7.07055 13.6729 7.11166 13.7962C7.07055 14.0017 7.07055 14.1251 7.07055 14.2484C7.02945 14.3717 6.98834 14.495 6.90612 14.5772C6.86502 14.6183 6.82391 14.6595 6.74169 14.7006C6.70058 14.7417 6.61837 14.7828 6.57726 14.7828C6.45394 14.8239 6.33061 14.8239 6.20729 14.8239C6.04286 14.7828 5.83732 14.7417 5.71399 14.6183C5.54956 14.495 5.42624 14.2895 5.26181 14.1662C5.09738 13.9606 4.89184 13.8373 4.64519 13.714C4.48076 13.6318 4.31633 13.5906 4.15189 13.5495C4.06968 13.5495 3.98746 13.5084 3.90525 13.5084C3.86414 13.5084 3.6586 13.4673 3.6586 13.4673C3.94636 13.2207 4.23411 13.0151 4.52186 12.8096C4.85073 12.6041 5.17959 12.4807 5.54956 12.3574C5.91953 12.2341 6.2895 12.2341 6.70058 12.2752C6.90612 12.3163 7.07055 12.3574 7.27609 12.4396C7.48163 12.5218 7.64606 12.6452 7.8105 12.7685C7.97493 12.9329 8.09825 13.0974 8.18047 13.2618C8.26268 13.4262 8.30379 13.6318 8.3449 13.8373C8.46822 14.4128 8.42711 15.3172 9.16706 15.4405C9.20816 15.4405 9.24927 15.4405 9.29038 15.4405H9.4137C9.49592 15.4405 9.57814 15.4405 9.66035 15.3994C9.78367 15.3994 9.94811 15.3172 10.1125 15.235Z" fill="white"/>
<path d="M5.05627 6.47899C5.01516 6.60231 4.97405 6.68453 4.93295 6.76674C4.80962 6.93117 4.64519 7.0545 4.48076 7.13671C4.31633 7.21893 4.1519 7.26004 3.94636 7.26004C3.90525 7.26004 3.86414 7.26004 3.82303 7.26004C3.69971 7.26004 3.61749 7.30115 3.49417 7.38336C3.41195 7.46558 3.32974 7.54779 3.32974 7.67112C3.32974 7.71222 3.28863 7.79444 3.28863 7.83555C3.28863 7.99998 3.24752 8.1233 3.24752 8.32884C3.20642 8.65771 3.1242 8.94546 3.00088 9.23322C2.83644 9.60319 2.6309 9.93205 2.67201 10.3431C2.71312 10.6309 2.83644 10.8364 3.04198 11.0009C3.37085 11.3708 4.1519 11.5353 3.98747 12.3985C3.86414 12.9329 3.00088 13.4673 1.80875 13.6729C1.93207 13.6729 1.64432 13.1796 1.64432 13.1385C1.52099 12.9329 1.35656 12.7274 1.27434 12.5218C1.0688 12.1108 0.986589 11.5764 1.0688 11.1242C1.15102 10.6309 1.52099 10.2609 1.80875 9.84983C2.17872 9.39765 2.54869 8.82214 2.63091 8.20552C2.63091 8.08219 2.67201 7.87666 2.71312 7.71223C2.75423 7.50669 2.79534 7.34225 2.87755 7.13671C2.91866 7.01339 3.00088 6.93118 3.1242 6.80785C3.16531 6.76674 3.20642 6.68453 3.20642 6.64342C3.20642 6.5612 3.20642 6.5201 3.16531 6.43788L1.23324 2.94371L4.02857 6.39677C4.06968 6.43788 4.11079 6.47899 4.1519 6.47899C4.193 6.5201 4.23411 6.5201 4.31633 6.5201C4.35744 6.5201 4.39854 6.5201 4.48076 6.47899C4.52187 6.43788 4.56298 6.43788 4.60408 6.39677C4.64519 6.35566 4.64519 6.31456 4.64519 6.23234C4.64519 6.19123 4.64519 6.10902 4.60408 6.06791C4.43965 5.82126 4.23411 5.61572 4.02857 5.36908L3.32974 4.50581L1.93207 2.77928L0 0.353912L2.0965 2.61485L3.57639 4.25916L4.31633 5.08132C4.56298 5.36907 4.80962 5.61572 5.05627 5.94458L5.09738 5.98569V6.06791C5.09738 6.23234 5.09738 6.35566 5.05627 6.47899Z" fill="white"/>
<path d="M5.714 14.5772C5.59067 14.4539 5.46735 14.3306 5.34402 14.2073C5.46735 14.3717 5.54956 14.495 5.714 14.5772Z" fill="white"/>
<path fill-rule="evenodd" clip-rule="evenodd" d="M41.93 5.28683C40.5735 5.6157 39.9569 6.6845 40.3268 7.95885C40.4913 8.49325 40.9846 9.06876 41.7245 9.47984C42.9988 10.2198 43.4099 10.5075 43.6155 10.9597C43.7799 11.3297 43.821 11.453 43.7388 11.823C43.5332 12.6451 42.9577 13.0562 42.1356 13.0562C41.3134 13.0562 40.7379 12.604 40.5735 11.823C40.5324 11.4941 40.4502 11.4119 40.3268 11.4119C40.1624 11.4119 40.1213 11.4941 40.1213 12.2752V13.1384L40.6557 13.3029C41.519 13.5906 42.7111 13.5495 43.4099 13.2207C44.8076 12.5629 45.342 11.2886 44.7254 10.0965C44.4787 9.64427 43.9032 9.15098 42.9166 8.53436C41.8478 7.87663 41.3956 7.42444 41.3134 6.97226C41.1901 6.23232 41.8478 5.65681 42.7522 5.65681C43.451 5.65681 43.7388 5.82124 43.9854 6.35564C44.1499 6.6845 44.2321 6.80783 44.4376 6.80783C44.6432 6.80783 44.6843 6.76672 44.602 6.56118C44.5609 6.43785 44.5198 6.10899 44.5198 5.86235C44.5198 5.53348 44.4787 5.36905 44.3554 5.32794C44.0676 5.20462 42.3 5.16351 41.93 5.28683ZM14.7988 5.57459C14.7988 5.73902 14.881 5.78013 15.0455 5.78013C15.5388 5.78013 15.5799 5.90345 15.621 8.90433C15.6621 11.4941 15.7032 11.6997 15.9087 12.1107C16.1965 12.6451 16.6076 13.0151 17.2242 13.3029C17.6353 13.5084 17.923 13.5495 18.7863 13.5495C19.6907 13.5495 19.8962 13.5084 20.3895 13.2618C20.7184 13.0973 21.1294 12.8096 21.2939 12.604C21.8694 11.9052 21.9516 11.5352 21.9927 8.65768C22.0749 5.86234 22.0749 5.82124 22.5271 5.82124C22.6504 5.82124 22.6915 5.73902 22.6915 5.6157C22.6915 5.41016 22.6093 5.41016 21.4583 5.41016C20.3073 5.41016 20.2251 5.41016 20.2251 5.6157C20.2251 5.78013 20.3073 5.82124 20.5539 5.86235C21.0883 5.90345 21.1294 6.10899 21.1294 8.65768C21.1294 11.2475 21.0472 11.7408 20.4717 12.2752C19.9784 12.7685 19.5673 12.9329 18.8685 12.9329C17.8819 12.9329 17.142 12.4807 16.9364 11.6586C16.8542 11.3708 16.8131 10.3842 16.8542 8.61657L16.8953 5.98567L17.2653 5.86235C17.4708 5.78013 17.6353 5.65681 17.6764 5.57459C17.7175 5.41016 17.5531 5.41016 16.2787 5.41016C14.881 5.36905 14.7988 5.36905 14.7988 5.57459ZM24.377 5.57459C24.377 5.73902 24.4592 5.78013 24.6647 5.78013C25.1991 5.78013 25.4869 5.98567 25.6102 6.43785C25.6924 6.6845 25.6924 7.87663 25.6924 9.56205C25.6513 12.604 25.6102 12.8096 24.9936 12.9329C24.788 12.974 24.7058 13.0562 24.7058 13.1795C24.7058 13.344 24.788 13.3851 26.1446 13.3851C27.4601 13.3851 27.5834 13.3851 27.5834 13.2207C27.5834 13.0973 27.4601 13.0151 27.1312 12.9329C26.7201 12.8096 26.679 12.7685 26.5557 12.4396C26.3913 11.9463 26.3913 7.30112 26.5146 7.34223C26.5557 7.34223 26.9668 7.75331 27.419 8.28771C27.8711 8.82211 29.0633 10.1787 30.1321 11.2886C31.7764 13.0562 32.0641 13.3851 32.3108 13.3851H32.5985L32.6397 9.76759C32.6808 7.1778 32.7219 6.10899 32.8041 6.02678C32.8863 5.94456 33.0918 5.86234 33.2563 5.82124C33.4618 5.78013 33.5851 5.69791 33.5851 5.6157C33.5851 5.49237 33.3385 5.45127 32.1875 5.45127C30.8309 5.41016 30.7898 5.41016 30.7898 5.6157C30.7898 5.78013 30.872 5.82124 31.0364 5.82124C31.1598 5.82124 31.4064 5.94456 31.5708 6.06788L31.8586 6.31453L31.8997 8.781C31.8997 10.1787 31.8997 11.2475 31.8586 11.2475C31.8175 11.2475 31.4886 10.9186 31.1598 10.5486C30.8309 10.1787 29.8854 9.10987 29.0633 8.20549C28.2411 7.30112 27.3367 6.31453 27.049 5.98567L26.5557 5.41016H25.4869C24.4181 5.36905 24.377 5.36905 24.377 5.57459ZM35.1472 5.57459C35.1472 5.73902 35.2295 5.78013 35.435 5.78013C35.5994 5.78013 35.805 5.86234 35.9283 5.94456C36.1338 6.06788 36.1338 6.27342 36.1749 9.10987C36.216 12.6451 36.1749 12.8507 35.5583 12.9329C35.2706 12.974 35.1472 13.0562 35.1472 13.1795C35.1472 13.344 35.2706 13.3851 36.7093 13.3851C38.1892 13.3851 38.2714 13.3851 38.2714 13.1795C38.2714 13.0151 38.1892 12.974 38.0248 12.974C37.9015 12.974 37.6959 12.8918 37.5726 12.8096C37.3671 12.6863 37.3671 12.4807 37.326 9.43873C37.2848 6.31453 37.2848 6.19121 37.4904 5.98567C37.6137 5.86235 37.8192 5.78013 37.9426 5.78013C38.1481 5.78013 38.1892 5.73902 38.1892 5.57459C38.1892 5.36905 38.107 5.36905 36.6271 5.36905C35.2295 5.36905 35.1472 5.36905 35.1472 5.57459ZM45.9586 5.57459C45.9997 5.69791 46.0819 5.78013 46.2464 5.78013C46.3697 5.78013 46.5752 5.90345 46.6985 6.02678C46.8219 6.1501 47.5207 7.83552 48.3018 9.84981L49.6583 13.4262L50.0283 13.4673L50.3983 13.5084L51.3437 10.9597C51.8781 9.56206 52.3714 8.28771 52.4125 8.16439C52.5359 7.91774 52.5359 7.95885 52.8647 8.781C53.0292 9.2743 53.5225 10.5075 53.9335 11.5763L54.6735 13.5084H55.0023C55.1668 13.5084 55.3312 13.4673 55.3723 13.3851C55.4134 13.3029 55.8656 12.1107 56.4411 10.7131C56.9755 9.31541 57.5921 7.75331 57.7977 7.26001C58.2499 6.10899 58.3321 5.98567 58.6609 5.86235C58.8254 5.82124 58.9487 5.69791 58.9487 5.6157C58.9487 5.49237 58.7432 5.45127 57.7155 5.45127C56.5644 5.45127 56.4822 5.45127 56.4822 5.65681C56.4822 5.82124 56.5644 5.86235 56.7289 5.86235C57.14 5.86235 57.3044 5.98567 57.3044 6.23232C57.3044 6.43785 55.3312 11.7408 55.2079 11.8641C55.1257 11.9463 53.358 7.01337 53.3169 6.52007C53.2347 6.06788 53.4402 5.86235 53.8924 5.86235C54.0569 5.86235 54.1391 5.82124 54.1391 5.65681C54.1391 5.45127 54.0569 5.45127 52.5359 5.45127C51.0149 5.45127 50.9327 5.45127 50.9327 5.65681C50.9327 5.78013 51.0149 5.86235 51.0971 5.86235C51.426 5.86235 51.837 6.19121 51.9604 6.47896C52.1248 6.93115 52.0015 7.38334 51.056 9.84981L50.2749 11.9463L50.1105 11.5352C50.0283 11.3297 49.535 10.0142 49.0417 8.65768C48.0551 5.98567 48.0551 5.86235 48.7128 5.86235C48.9595 5.86235 49.0006 5.82124 49.0006 5.65681C49.0006 5.45127 48.9184 5.45127 47.4796 5.45127C45.9175 5.36905 45.8764 5.36905 45.9586 5.57459ZM66.7592 5.65681C66.7592 5.65681 66.7592 5.78013 66.7592 5.82124C66.7592 5.86234 66.8825 5.86235 66.8825 5.86235C66.9647 5.86235 67.0058 5.90345 67.0881 5.90345C67.4169 5.98567 67.6225 6.02678 67.7047 6.23232C67.7458 6.35564 67.7869 6.84893 67.7869 9.43873C67.7869 12.1519 67.7869 12.4807 67.7047 12.6451C67.6225 12.8507 67.458 12.974 67.047 13.0973C67.047 13.0973 66.8825 13.1384 66.8414 13.1795C66.8003 13.2207 66.8003 13.3029 66.8003 13.3029C66.8003 13.3029 66.8003 13.3851 66.8414 13.4262C66.8825 13.4673 67.0058 13.4673 67.0058 13.4673H68.0335H69.7601C69.7601 13.4673 69.8423 13.4673 69.8834 13.4262C69.9245 13.3851 69.9245 13.3029 69.9245 13.3029C69.9245 13.3029 69.9245 13.2207 69.8834 13.1795C69.8423 13.1384 69.6779 13.0973 69.6779 13.0973C69.3079 13.0151 69.1023 12.8918 69.0201 12.6863C68.9379 12.5218 68.9379 12.1519 68.9379 11.2886V10.0553C68.979 10.0965 69.0201 10.0965 69.0612 10.1376C69.2668 10.2609 69.5134 10.4664 70.4178 10.4664C71.5277 10.5075 72.1854 10.0142 72.5965 9.43873C73.0076 8.86322 73.1309 7.95885 72.8432 6.97226C72.5554 6.02678 71.6921 5.41016 70.5 5.36905C69.8834 5.32794 68.9379 5.36905 68.4446 5.41016H68.3213C67.8691 5.41016 67.2936 5.49237 67.0058 5.49237C66.9236 5.49237 66.9236 5.49237 66.8825 5.53348C66.7592 5.6157 66.7592 5.65681 66.7592 5.65681ZM71.3222 9.43873C71.7744 9.02765 71.7744 8.36993 71.7744 7.91774C71.7333 7.26001 71.4455 5.98567 69.9656 5.98567C69.5956 5.98567 68.8968 6.02678 68.8557 6.52007C68.8146 6.60229 68.8146 7.21891 68.8146 8.12328V9.60316L68.979 9.68538C69.0612 9.72649 69.1846 9.76759 69.349 9.8087C69.9656 9.97313 70.87 9.84981 71.3222 9.43873ZM61.8674 5.49237C61.9907 5.45127 62.0729 5.41016 62.0729 5.41016C62.0729 5.41016 62.2373 5.32794 62.2784 5.41016C62.2784 5.45127 62.3607 5.57459 62.5251 5.98567C62.5662 6.06788 62.6073 6.1501 62.6073 6.23232C62.8128 6.80783 63.1417 7.62998 63.3061 8.08217C63.4706 8.53436 63.7994 9.35651 64.0461 10.0142C64.2927 10.6309 64.5805 11.4119 64.7449 11.7819C64.8682 12.1519 65.0738 12.4807 65.1149 12.5629C65.156 12.604 65.156 12.6451 65.1971 12.6863C65.3204 12.8507 65.4437 13.0973 65.7315 13.1384C65.7315 13.1384 65.937 13.1795 65.9781 13.2207C66.0193 13.2618 66.0193 13.3029 66.0193 13.3029V13.4262C66.0193 13.4262 66.0193 13.4673 65.9781 13.4673C65.9781 13.5084 65.8959 13.4673 65.8959 13.4673H64.1694H62.9362C62.9362 13.4673 62.8951 13.4673 62.854 13.4673C62.8128 13.4673 62.8128 13.3851 62.8128 13.3851V13.3029C62.8128 13.3029 62.8128 13.2207 62.854 13.1795C62.8951 13.1384 63.1006 13.0973 63.1006 13.0973C63.4706 13.0562 63.635 12.7685 63.6761 12.604V12.5629C63.7583 12.3985 63.7172 12.2752 63.3472 11.4119C63.1006 10.8364 63.0184 10.672 62.9773 10.6309C62.9362 10.6309 62.2784 10.6309 61.5796 10.6309H60.223L60.1408 10.8364C59.8942 11.4941 59.6886 12.1107 59.6886 12.2752C59.6064 12.604 59.7298 13.0151 60.223 13.0973C60.223 13.0973 60.4286 13.1384 60.4697 13.1795C60.5108 13.2207 60.5519 13.3029 60.5519 13.3029V13.3851C60.5519 13.3851 60.5519 13.4262 60.5108 13.4673C60.4697 13.5084 60.3875 13.4673 60.3875 13.4673H59.1131H57.8799C57.8799 13.4673 57.8388 13.4673 57.7977 13.4262C57.7566 13.3851 57.7566 13.344 57.7566 13.344V13.2618C57.7566 13.2618 57.7566 13.2207 57.8388 13.1384C57.921 13.0562 58.0854 13.0562 58.0854 13.0562C58.4143 13.0151 58.6198 12.6451 58.7432 12.4396C58.7432 12.4396 58.7432 12.3985 58.7843 12.3985C58.8254 12.3163 59.0309 11.8641 59.2365 11.3708C59.442 10.8775 59.6475 10.302 59.7298 10.1376C59.9764 9.52095 60.223 8.94544 60.593 8.04106C60.7986 7.54777 61.0863 6.80783 61.2507 6.39675L61.5385 5.65681L61.8674 5.49237ZM61.7851 7.26001C61.8674 7.42444 61.9496 7.67109 61.9907 7.79441C62.0318 7.91774 62.1962 8.28771 62.3195 8.61657C62.4429 8.94544 62.6073 9.31541 62.6895 9.47984C62.7717 9.64427 62.8128 9.76759 62.8128 9.76759C62.8128 9.76759 62.3195 9.76759 61.7029 9.76759C61.0041 9.76759 60.593 9.76759 60.593 9.72649C60.593 9.72649 60.6341 9.64427 60.6341 9.56205C60.6752 9.43873 60.9219 8.781 61.4152 7.38334C61.4974 7.1778 61.5796 6.97226 61.5796 6.93115C61.6207 6.93115 61.6618 6.97226 61.7851 7.26001Z" fill="white"/>
</svg>
