<svg width="94" height="94" viewBox="0 0 94 94" fill="none" xmlns="http://www.w3.org/2000/svg">
<g filter="url(#filter0_f_16321_22918)">
<circle cx="37.5472" cy="46.5472" r="1.5117" transform="rotate(-1.36066 37.5472 46.5472)" fill="white"/>
</g>
<g filter="url(#filter1_f_16321_22918)">
<circle cx="67.5472" cy="25.5472" r="1.5117" transform="rotate(-1.36066 67.5472 25.5472)" fill="white"/>
</g>
<g filter="url(#filter2_f_16321_22918)">
<circle cx="68.5472" cy="57.5472" r="1.5117" transform="rotate(-1.36066 68.5472 57.5472)" fill="white"/>
</g>
<g filter="url(#filter3_f_16321_22918)">
<circle cx="47.5472" cy="74.5472" r="1.5117" transform="rotate(-1.36066 47.5472 74.5472)" fill="white"/>
</g>
<g filter="url(#filter4_f_16321_22918)">
<circle cx="24.5472" cy="68.5472" r="1.5117" transform="rotate(-1.36066 24.5472 68.5472)" fill="white"/>
</g>
<g filter="url(#filter5_f_16321_22918)">
<circle cx="21.5472" cy="17.5472" r="1.5117" transform="rotate(-1.36066 21.5472 17.5472)" fill="white"/>
</g>
<g filter="url(#filter6_f_16321_22918)">
<circle cx="47.5472" cy="14.5472" r="1.5117" transform="rotate(-1.36066 47.5472 14.5472)" fill="white"/>
</g>
<path d="M16.0723 81.0504C15.2627 80.158 14.4715 79.249 13.7235 78.3041C12.9756 77.3593 12.2828 76.4043 11.6314 75.4061C10.9801 74.4079 10.382 73.3398 9.7914 72.2854C9.20076 71.2311 8.67635 70.1695 8.1823 69.0774C7.68224 67.9954 7.2397 66.8876 6.85656 65.7589C6.48027 64.6181 6.12056 63.4699 5.78936 62.3153C5.45355 61.1423 5.16375 59.9536 4.89419 58.7631C4.62463 57.5726 4.40841 56.3904 4.23453 55.1907C4.06064 53.991 3.92266 52.7656 3.81226 51.5484C3.70186 50.3312 3.64205 49.1067 3.61997 47.884C3.59789 46.6613 3.60984 45.4276 3.66044 44.204C3.71104 42.9804 3.8104 41.777 3.93644 40.5672C4.06249 39.3574 4.22166 38.1752 4.4305 36.9902C4.6421 35.7887 4.90613 34.5982 5.20146 33.4123C5.49678 32.2264 5.81878 31.081 6.19047 29.9328C6.55847 28.8086 6.95224 27.6944 7.40948 26.6042C7.87623 25.491 8.3847 24.3959 8.93487 23.3188C9.48687 22.2433 10.0766 21.189 10.6976 20.1531C11.3186 19.1171 11.9856 18.1153 12.6904 17.1355C13.3951 16.1556 14.1357 15.1961 14.914 14.2705C15.2906 13.824 15.6746 13.3846 16.0659 12.9521" stroke="white" stroke-width="0.0845276" stroke-miterlimit="10" stroke-linecap="round"/>
<path d="M17.7463 82.4954C16.9698 81.5487 16.209 80.5882 15.4923 79.5946C14.7755 78.6099 14.1154 77.5852 13.5152 76.5255C12.919 75.4638 12.4112 74.357 11.907 73.2493C11.4028 72.1416 10.9226 70.9999 10.4985 69.8453C10.0735 68.6985 9.71076 67.5296 9.41193 66.3437C9.11201 65.1385 8.84797 63.9223 8.58392 62.7079C8.31988 61.4934 8.07609 60.2707 7.85897 59.0453C7.64184 57.8198 7.45691 56.5842 7.29867 55.3468C7.14043 54.1094 6.99967 52.8766 6.88743 51.6374C6.77519 50.3981 6.69056 49.1533 6.64732 47.9012C6.60408 46.649 6.605 45.407 6.64732 44.1613C6.68964 42.9156 6.76508 41.6709 6.87272 40.4298C6.98036 39.1887 7.11559 37.9669 7.27936 36.7406C7.44312 35.5142 7.64736 34.2694 7.8792 33.043C8.11105 31.8166 8.37692 30.6169 8.67685 29.4163C8.97033 28.2424 9.29051 27.074 9.68243 25.9286C10.0817 24.763 10.5435 23.6184 11.0431 22.4924C11.5427 21.3663 12.0873 20.2503 12.6614 19.1555C13.2355 18.0607 13.862 16.9907 14.53 15.9474C15.1979 14.9041 15.9035 13.8875 16.646 12.8985C17.0029 12.4256 17.3688 11.9598 17.7436 11.501" stroke="white" stroke-width="0.0845276" stroke-miterlimit="10" stroke-linecap="round"/>
<path d="M19.4801 83.8617C18.7441 82.8681 18.0265 81.8643 17.3806 80.8118C16.7334 79.7561 16.1419 78.6671 15.6087 77.5495C15.0787 76.4372 14.6362 75.2844 14.2194 74.1261C13.7962 72.9485 13.4135 71.7562 13.0814 70.55C12.7493 69.3439 12.465 68.124 12.2387 66.8939C12.0077 65.6409 11.8283 64.3777 11.6425 63.1219C11.4567 61.8661 11.2699 60.5882 11.1052 59.3185C10.9405 58.0489 10.7961 56.7839 10.6655 55.5143C10.5348 54.2447 10.4005 52.9926 10.2892 51.7294C10.1778 50.4662 10.0996 49.1819 10.0352 47.9058C9.97084 46.6298 9.93405 45.374 9.95521 44.1071C9.97545 42.8246 10.0472 41.544 10.1199 40.2642C10.1926 38.9845 10.3039 37.7259 10.4391 36.4591C10.5744 35.1922 10.7151 33.9493 10.8807 32.698C11.0464 31.4468 11.2487 30.2049 11.4677 28.9647C11.6848 27.7512 11.9139 26.5377 12.2129 25.3416C12.5242 24.1175 12.8979 22.9101 13.3326 21.7242C13.7604 20.5383 14.2425 19.3726 14.7604 18.2281C15.2784 17.0836 15.8488 15.9474 16.4661 14.8434C17.0835 13.7394 17.7394 12.6685 18.4423 11.6234C18.7778 11.1247 19.1237 10.6341 19.4801 10.1514" stroke="white" stroke-width="0.0845276" stroke-miterlimit="10" stroke-linecap="round"/>
<path d="M21.2836 85.1442C20.5941 84.0961 19.9692 83.007 19.4123 81.8828C18.853 80.7547 18.3513 79.5989 17.909 78.4199C17.465 77.2404 17.0737 76.0426 16.7351 74.8263C16.391 73.5996 16.0963 72.3591 15.851 71.1049C15.6056 69.8506 15.4032 68.5859 15.2438 67.3108C15.0828 66.0172 14.9678 64.7182 14.8408 63.421C14.7138 62.1238 14.5906 60.8293 14.4728 59.533C14.355 58.2367 14.2428 56.9404 14.1398 55.6441C14.0367 54.3478 13.9438 53.0626 13.8638 51.7709C13.7837 50.4792 13.7156 49.1764 13.6659 47.8783C13.6163 46.5802 13.585 45.3023 13.5739 44.0142C13.5666 42.7115 13.5835 41.4091 13.6245 40.107C13.6656 38.8049 13.727 37.5061 13.8085 36.2107C13.8907 34.9227 13.9916 33.6384 14.1112 32.3577C14.229 31.0881 14.3652 29.8209 14.5197 28.5562C14.6724 27.3044 14.8442 26.0551 15.0349 24.8081C15.2259 23.5542 15.4851 22.3115 15.8114 21.0858C16.1454 19.83 16.5474 18.5907 16.9973 17.3726C17.4444 16.1693 17.9434 14.9867 18.4942 13.8251C19.0449 12.6634 19.6454 11.5324 20.2955 10.432C20.6102 9.89966 20.9383 9.37496 21.2799 8.85791" stroke="white" stroke-width="0.0845276" stroke-miterlimit="10" stroke-linecap="round"/>
<path d="M23.1488 86.3401C22.5159 85.2442 21.9681 84.1012 21.5103 82.9214C21.0443 81.7364 20.6414 80.5277 20.3032 79.3002C19.9582 78.0582 19.6592 76.8015 19.4099 75.5383C19.1606 74.2751 18.9435 72.9889 18.7788 71.7037C18.6141 70.4184 18.477 69.1184 18.3767 67.8212C18.2746 66.5019 18.2213 65.1808 18.1477 63.8652C18.0731 62.5302 17.9912 61.1971 17.9268 59.8613C17.8624 58.5254 17.7999 57.2172 17.7428 55.8951C17.6858 54.5731 17.6407 53.2344 17.6085 51.9032C17.5763 50.5719 17.5478 49.2554 17.5165 47.9306C17.488 46.6223 17.4641 45.3141 17.454 44.0058C17.4438 42.6976 17.4411 41.3626 17.454 40.0415C17.4668 38.7204 17.4825 37.3956 17.5156 36.0726C17.5487 34.7662 17.5818 33.4607 17.6242 32.1552C17.6665 30.8497 17.7419 29.5221 17.8321 28.2065C17.9241 26.9185 18.0161 25.6369 18.1302 24.3544C18.2442 23.0719 18.3528 21.7784 18.5589 20.4968C18.767 19.1994 19.0462 17.9143 19.3952 16.6475C19.745 15.3865 20.1577 14.1439 20.6317 12.9242C21.1053 11.6983 21.6424 10.4979 22.2408 9.32786C22.5297 8.76481 22.8345 8.21006 23.1553 7.66357" stroke="white" stroke-width="0.0845276" stroke-miterlimit="10" stroke-linecap="round"/>
<path d="M25.075 87.4481C24.4993 86.3179 24.0246 85.1391 23.6564 83.9254C23.2741 82.6836 22.9584 81.4224 22.7106 80.1469C22.4548 78.8589 22.2506 77.5636 22.0887 76.2617C21.924 74.9388 21.8026 73.6102 21.7124 72.2799C21.6222 70.9496 21.5624 69.5917 21.5284 68.2466C21.4944 66.9015 21.4888 65.5372 21.4851 64.1829C21.4815 62.8287 21.4732 61.4606 21.4677 60.0999C21.4621 58.7392 21.4576 57.373 21.4594 56.0096C21.4612 54.6461 21.4686 53.2992 21.4888 51.944C21.5091 50.5889 21.5201 49.2447 21.5238 47.896C21.5275 46.5473 21.5238 45.2169 21.5238 43.8783C21.5183 42.5673 21.5118 41.2563 21.5118 39.9462C21.5118 38.6057 21.5174 37.2652 21.5229 35.9257C21.5284 34.5862 21.533 33.2678 21.5229 31.9393C21.5128 30.6108 21.4787 29.2888 21.4667 27.9639C21.4548 26.6391 21.4667 25.3097 21.4723 23.9822C21.4778 22.6546 21.4668 21.3325 21.5238 20.0105C21.5801 18.6539 21.7193 17.302 21.9406 15.9624C22.1659 14.6473 22.4732 13.3476 22.8606 12.0708C23.2454 10.7797 23.7094 9.51351 24.2498 8.27941C24.5074 7.69428 24.7834 7.11776 25.0778 6.5498" stroke="white" stroke-width="0.0845276" stroke-miterlimit="10" stroke-linecap="round"/>
<path d="M27.0595 88.4635C26.5394 87.2902 26.1333 86.0695 25.8469 84.8184C25.5441 83.5212 25.3098 82.209 25.145 80.8872C24.9748 79.5707 24.8542 78.2477 24.777 76.9229C24.6951 75.553 24.6546 74.1813 24.6344 72.8095C24.6141 71.4378 24.6169 70.0495 24.6436 68.6695C24.6702 67.2895 24.7172 65.8874 24.7705 64.4963C24.8239 63.1053 24.8837 61.7133 24.9453 60.3222C25.007 58.9312 25.0695 57.5337 25.1358 56.1399C25.202 54.746 25.2729 53.3559 25.3437 51.9639C25.4145 50.5913 25.4872 49.2186 25.5369 47.845C25.5857 46.4908 25.6206 45.1347 25.6602 43.7804C25.6997 42.4262 25.7172 41.0738 25.72 39.7204C25.7227 38.3671 25.72 37.0119 25.72 35.6577C25.72 34.3034 25.6869 32.9446 25.6353 31.5875C25.5838 30.2305 25.5286 28.8855 25.4155 27.5395C25.3023 26.1935 25.1818 24.8715 25.0686 23.5329C24.9555 22.1942 24.8266 20.8418 24.7291 19.4949C24.6215 18.1099 24.5976 16.7197 24.6574 15.3319C24.7234 13.9693 24.8978 12.6141 25.179 11.2793C25.4568 9.95187 25.8323 8.64677 26.3023 7.37469C26.5317 6.75276 26.7835 6.13942 27.0577 5.53467" stroke="white" stroke-width="0.0845276" stroke-miterlimit="10" stroke-linecap="round"/>
<path d="M29.0977 89.3854C28.6174 88.1673 28.3147 86.883 28.0921 85.595C27.8646 84.2439 27.7068 82.882 27.6192 81.5147C27.5272 80.1494 27.4803 78.7814 27.4665 77.4133C27.4518 76.0186 27.4665 74.6229 27.5088 73.2282C27.5484 71.8196 27.61 70.4111 27.6855 69.0035C27.7609 67.5959 27.852 66.1837 27.9523 64.7715C28.0535 63.3473 28.1629 61.9237 28.2807 60.5008C28.3985 59.0778 28.5196 57.6567 28.6441 56.2375C28.7668 54.8237 28.891 53.41 29.0167 51.9962C29.1424 50.5825 29.2623 49.1742 29.3764 47.7715C29.4917 46.3694 29.5981 44.9667 29.6957 43.5634C29.7877 42.1834 29.8732 40.7978 29.933 39.4141C29.9919 38.0608 30.0306 36.7056 30.025 35.3514C30.0214 33.9732 29.9735 32.5957 29.8815 31.2187C29.7895 29.8534 29.6537 28.4918 29.474 27.1338C29.2955 25.7741 29.0765 24.4208 28.8364 23.0711C28.5926 21.6911 28.3258 20.3157 28.0875 18.9311C27.8492 17.5464 27.6394 16.1563 27.5355 14.756C27.4227 13.3514 27.4394 11.9394 27.5852 10.5378C27.7388 9.16806 28.0222 7.816 28.4316 6.49987C28.6291 5.86015 28.8511 5.22935 29.0977 4.60742" stroke="white" stroke-width="0.0845276" stroke-miterlimit="10" stroke-linecap="round"/>
<path d="M31.1858 90.2088C30.7626 88.9466 30.5418 87.6199 30.3854 86.3006C30.2253 84.9151 30.1535 83.5185 30.1278 82.1238C30.1011 80.7097 30.1278 79.2957 30.1747 77.8816C30.225 76.4507 30.2974 75.0213 30.3918 73.5935C30.4838 72.1509 30.6052 70.7092 30.7304 69.2694C30.8573 67.8121 30.9941 66.3551 31.1407 64.8984C31.2867 63.4515 31.4437 62.0053 31.6117 60.5597C31.7798 59.114 31.9534 57.6659 32.1325 56.2154C32.3165 54.7654 32.495 53.3155 32.6716 51.8646C32.8482 50.4138 33.0194 48.9832 33.1831 47.5406C33.3469 46.098 33.5152 44.6738 33.6744 43.2395C33.8326 41.8221 33.9706 40.4019 34.0884 38.979C34.2043 37.5769 34.3111 36.1729 34.3644 34.7662C34.4149 33.3996 34.3875 32.0312 34.2825 30.6676C34.1799 29.2761 34.0052 27.8909 33.7591 26.5175C33.5042 25.131 33.1951 23.7501 32.8464 22.3848C32.4977 21.0195 32.0727 19.6643 31.6807 18.3045C31.2842 16.9245 30.9236 15.5445 30.6237 14.1396C30.3106 12.7335 30.1417 11.2992 30.1195 9.8588C30.1156 8.45398 30.2859 7.05411 30.6264 5.69117C30.7847 5.04716 30.9742 4.4151 31.184 3.78857" stroke="white" stroke-width="0.0845276" stroke-miterlimit="10" stroke-linecap="round"/>
<path d="M33.323 90.9319C32.955 89.6356 32.8059 88.2823 32.7204 86.9418C32.6284 85.5011 32.6283 84.0548 32.667 82.6123C32.7056 81.1697 32.7985 79.7188 32.9145 78.2744C33.0313 76.8144 33.1721 75.3562 33.3267 73.8998C33.4831 72.4278 33.6526 70.9576 33.8354 69.4893C34.0194 67.9964 34.2117 66.5041 34.4122 65.0125C34.611 63.5331 34.8125 62.0537 35.0296 60.5771C35.2467 59.1005 35.4795 57.6055 35.7132 56.1206C35.9468 54.6357 36.187 53.1453 36.4216 51.6567C36.6534 50.1847 36.8782 48.7127 37.0959 47.2407C37.3094 45.7769 37.5099 44.3113 37.7068 42.8458C37.9037 41.3802 38.0886 39.9349 38.2533 38.4757C38.4143 37.0442 38.556 35.6099 38.6489 34.1719C38.749 32.7608 38.7742 31.3454 38.7243 29.9316C38.6662 28.5377 38.51 27.1497 38.257 25.7777C37.997 24.3861 37.6495 23.0122 37.2164 21.6644C36.7739 20.2788 36.1961 18.9448 35.6083 17.6163C35.0204 16.2878 34.4656 14.9161 33.9467 13.5443C33.4279 12.1726 32.9752 10.7843 32.7682 9.34082C32.5765 7.92237 32.6075 6.48269 32.8602 5.07382C32.9785 4.39681 33.132 3.72644 33.3202 3.06543" stroke="white" stroke-width="0.0845276" stroke-miterlimit="10" stroke-linecap="round"/>
<path d="M35.501 91.5518C35.1919 90.1967 35.11 88.7918 35.0934 87.4045C35.075 85.9279 35.1459 84.4512 35.2544 82.9792C35.363 81.5072 35.5157 80.0306 35.6933 78.5632C35.8773 77.0589 36.0815 75.5593 36.3005 74.0606C36.5213 72.5481 36.7522 71.0368 36.9933 69.5268C37.2386 68.002 37.4876 66.4785 37.7403 64.9562C37.9906 63.4492 38.2353 61.9413 38.4993 60.4371C38.7634 58.9329 39.0467 57.4011 39.3273 55.8904C39.6079 54.3798 39.8793 52.8599 40.1627 51.3456C40.4461 49.8313 40.723 48.316 40.9907 46.7989C41.2538 45.3103 41.5007 43.8193 41.7313 42.3258C41.9619 40.8323 42.1766 39.3401 42.3753 37.849C42.5694 36.377 42.7433 34.9105 42.8703 33.433C42.9927 32.0033 43.0745 30.568 43.0653 29.1328C43.0646 27.6738 42.9455 26.2173 42.7093 24.7775C42.4681 23.3494 42.0948 21.9468 41.5942 20.5878C41.0855 19.2078 40.3807 17.9198 39.6429 16.6584C39.2657 16.0098 38.8581 15.3796 38.4837 14.7264C38.1092 14.0732 37.7596 13.4218 37.3852 12.7769C36.6492 11.51 35.9178 10.2009 35.5065 8.79049C35.1172 7.39907 34.9979 5.94599 35.1551 4.5097C35.2264 3.81439 35.3413 3.12426 35.4992 2.44336" stroke="white" stroke-width="0.0845276" stroke-miterlimit="10" stroke-linecap="round"/>
<path d="M37.7321 92.0654C37.4846 90.6743 37.4772 89.2428 37.5269 87.8333C37.5803 86.3337 37.7173 84.8369 37.8903 83.3474C38.066 81.8358 38.2804 80.3297 38.5168 78.8274C38.7579 77.2891 39.021 75.7554 39.2961 74.2227C39.5712 72.6899 39.8628 71.1425 40.1572 69.6052C40.4553 68.0467 40.7574 66.4888 41.0634 64.9315C41.3652 63.3868 41.6624 61.8403 41.965 60.2956C42.2677 58.7509 42.5768 57.2099 42.8851 55.6679C43.1933 54.126 43.5143 52.5684 43.8271 51.0173C44.1399 49.4661 44.45 47.9178 44.7518 46.3666C45.0535 44.8155 45.3433 43.2827 45.6212 41.7371C45.8972 40.2081 46.1548 38.6753 46.3903 37.1371C46.6203 35.6328 46.8264 34.125 46.9883 32.6115C47.1465 31.134 47.2643 29.65 47.2928 28.1642C47.3279 26.6989 47.2356 25.2334 47.0168 23.7841C46.798 22.3449 46.4051 20.9377 45.8466 19.5934C45.2706 18.2226 44.5043 16.9484 43.6468 15.7377C43.2043 15.113 42.7415 14.503 42.287 13.8875C41.8326 13.272 41.3909 12.6345 40.9217 12.0236C40.0017 10.8174 39.0173 9.63154 38.3614 8.25153C37.7458 6.93049 37.452 5.4824 37.5039 4.02591C37.5256 3.32242 37.6 2.62155 37.7265 1.9292" stroke="white" stroke-width="0.0845276" stroke-miterlimit="10" stroke-linecap="round"/>
<path d="M39.9969 92.4701C39.8129 91.0331 39.8902 89.562 40.0052 88.1231C40.1276 86.5959 40.3226 85.076 40.5572 83.5617C40.7946 82.0023 41.066 80.4483 41.3475 78.8972C41.629 77.3461 41.9391 75.8014 42.2675 74.2594C42.5969 72.688 42.9364 71.1191 43.286 69.5527C43.6374 67.9684 43.9922 66.3848 44.3504 64.8017C44.7025 63.2316 45.0502 61.6593 45.3937 60.0848C45.7372 58.5104 46.0813 56.9372 46.426 55.3652C46.7756 53.7705 47.1255 52.1758 47.4757 50.5811C47.8198 49.0036 48.1553 47.424 48.4822 45.8421C48.8054 44.2818 49.1185 42.7196 49.4215 41.1556C49.726 39.5842 50.0214 38.0119 50.2891 36.435C50.5522 34.8876 50.7807 33.3352 50.9745 31.7779C51.1585 30.2618 51.3167 28.7419 51.3756 27.2129C51.4429 25.737 51.3668 24.258 51.1484 22.7968C50.9361 21.3405 50.5247 19.9201 49.9257 18.5758C49.3009 17.1988 48.4945 15.9116 47.5281 14.7486C47.0221 14.1451 46.4839 13.5682 45.9494 12.9895C45.4149 12.4108 44.8849 11.822 44.3237 11.2645C43.2335 10.1816 42.0761 9.14849 41.2656 7.82919C40.8699 7.20795 40.5496 6.54173 40.3116 5.8447C40.0879 5.13168 39.9555 4.39313 39.9178 3.64679C39.8813 2.94026 39.9106 2.23187 40.0052 1.53076" stroke="white" stroke-width="0.0845276" stroke-miterlimit="10" stroke-linecap="round"/>
<path d="M42.2987 92.7626C42.1736 91.2906 42.2987 89.7937 42.4744 88.3291C42.6584 86.7651 42.9123 85.2084 43.1929 83.6591C43.4781 82.0813 43.7909 80.5081 44.113 78.9376C44.435 77.3672 44.7891 75.8142 45.1562 74.2594C45.5325 72.665 45.9245 71.0734 46.321 69.4827C46.7221 67.8726 47.1251 66.2632 47.5299 64.6545C47.9347 63.0457 48.33 61.4356 48.7157 59.8244C49.1021 58.226 49.4889 56.6283 49.8759 55.0311C50.2672 53.4138 50.6542 51.7955 51.037 50.1762C51.4148 48.5699 51.7855 46.9617 52.1492 45.3517C52.505 43.7619 52.8478 42.1688 53.1778 40.5723C53.5053 38.9752 53.8154 37.3743 54.0978 35.7689C54.3738 34.1883 54.6268 32.6031 54.8338 31.0124C55.0335 29.4659 55.1926 27.912 55.2589 26.3535C55.3378 24.852 55.2793 23.3465 55.0841 21.8556C54.8842 20.3578 54.4635 18.8978 53.8356 17.5232C53.513 16.8232 53.1298 16.1527 52.6902 15.5195C52.2439 14.889 51.7404 14.3011 51.186 13.7632C50.6211 13.2112 50.0148 12.6969 49.4067 12.19C48.7985 11.683 48.1886 11.1531 47.5483 10.672C46.2888 9.72435 44.9437 8.84757 44.0016 7.55587C43.5499 6.94942 43.1722 6.29125 42.8764 5.59533C42.5916 4.90035 42.404 4.16943 42.3189 3.42319C42.2398 2.69669 42.2333 1.96411 42.2996 1.23633" stroke="white" stroke-width="0.0845276" stroke-miterlimit="10" stroke-linecap="round"/>
<path d="M44.6358 92.9404C44.5733 91.4279 44.7499 89.9044 44.9597 88.4112C45.1823 86.8233 45.4712 85.2463 45.7923 83.6759C46.118 82.0824 46.4722 80.4945 46.8374 78.9103C47.2026 77.326 47.6001 75.7473 48.0067 74.1722C48.4244 72.5554 48.8489 70.9402 49.28 69.3265C49.7143 67.6953 50.1596 66.0669 50.6012 64.4385C51.0428 62.81 51.4807 61.1789 51.9113 59.5468C52.3418 57.9147 52.7724 56.2955 53.1993 54.6707C53.6262 53.046 54.0457 51.4259 54.4551 49.8002C54.8679 48.1607 55.2739 46.5194 55.6732 44.8763C56.0596 43.27 56.434 41.6563 56.7818 40.0444C57.1296 38.4325 57.4525 36.806 57.745 35.1785C58.0376 33.551 58.2971 31.9437 58.5123 30.3171C58.7175 28.7338 58.8711 27.1422 58.93 25.5469C58.9871 24.0068 58.9567 22.4575 58.7405 20.9293C58.5372 19.4011 58.0905 17.9152 57.4175 16.528C57.0816 15.8395 56.6687 15.1914 56.1866 14.596C55.682 14.0006 55.1233 13.4534 54.5176 12.9612C53.8871 12.4466 53.2246 11.9724 52.5341 11.5416C51.8478 11.1 51.1688 10.6519 50.4613 10.2444C49.7391 9.82854 49.0307 9.3952 48.3453 8.92048C47.6973 8.49071 47.1113 7.97407 46.6037 7.38498C46.1096 6.80149 45.6979 6.15295 45.3801 5.45754C45.073 4.75812 44.8608 4.0208 44.749 3.26515C44.6395 2.53459 44.6016 1.79507 44.6358 1.05713" stroke="white" stroke-width="0.0845276" stroke-miterlimit="10" stroke-linecap="round"/>
<path d="M47.0012 93.0001C47.0012 91.4619 47.1934 89.9254 47.4317 88.4083C47.6838 86.8057 48.004 85.215 48.3517 83.6317C48.705 82.0308 49.0877 80.4374 49.4926 78.8476C49.8992 77.2394 50.3212 75.6349 50.7585 74.0341C51.1989 72.4069 51.6481 70.7816 52.1063 69.1581C52.5663 67.5229 53.0291 65.8893 53.4946 64.2572C53.9626 62.6153 54.4299 60.9727 54.8967 59.3296C55.3659 57.6736 55.8314 56.0176 56.2933 54.3615C56.7477 52.7239 57.1946 51.0847 57.6337 49.4441C58.0729 47.8034 58.497 46.1645 58.9061 44.5275C59.314 42.8991 59.7038 41.2664 60.0754 39.6294C60.4434 38.0056 60.7857 36.3763 61.0957 34.7405C61.4058 33.1047 61.6772 31.4818 61.8943 29.8414C62.1068 28.2342 62.2623 26.6214 62.3175 24.9966C62.3672 23.4372 62.311 21.8686 62.0562 20.3257C61.8069 18.8151 61.3579 17.3265 60.6035 15.9879C59.8161 14.6195 58.7414 13.438 57.4534 12.525C56.1093 11.5516 54.6087 10.8349 53.1404 10.0741C51.7088 9.33165 50.2672 8.52572 49.1549 7.33522C48.0932 6.19901 47.4547 4.773 47.1842 3.25039C47.0572 2.50709 46.9957 1.75405 47.0002 1" stroke="white" stroke-width="0.0845276" stroke-miterlimit="10" stroke-linecap="round"/>
<path d="M49.3691 92.9406C49.4335 91.3977 49.6635 89.8613 49.9395 88.3405C50.2293 86.7397 50.5835 85.1508 50.9516 83.5666C51.3288 81.9584 51.7314 80.356 52.1595 78.7595C52.5873 77.1568 53.0326 75.5597 53.4843 73.9635C53.9474 72.3259 54.4148 70.6892 54.8864 69.0534C55.3581 67.4176 55.8307 65.7867 56.3042 64.1608C56.7801 62.5201 57.2527 60.8791 57.7219 59.2378C58.1911 57.602 58.6659 55.9681 59.1341 54.3323C59.6024 52.6966 60.0661 51.0479 60.5261 49.3919C60.9861 47.7358 61.4222 46.0991 61.8482 44.4477C62.2665 42.8236 62.6618 41.1943 63.0341 39.5597C63.4067 37.9221 63.7701 36.2808 64.0921 34.6321C64.4104 33.0184 64.691 31.3965 64.9201 29.7671C65.1561 28.1818 65.3051 26.5847 65.3663 24.9831C65.4252 23.4158 65.2992 21.8472 64.9909 20.3094C64.685 18.7876 64.1172 17.3305 63.3128 16.0029C62.9179 15.3459 62.448 14.737 61.9126 14.1886C61.338 13.6218 60.718 13.103 60.0587 12.6375C59.3862 12.1554 58.6668 11.745 57.9556 11.3228C57.5996 11.1112 57.249 10.8894 56.8884 10.6843C56.5277 10.4791 56.1634 10.284 55.7982 10.0872C55.0751 9.69708 54.3697 9.28033 53.6822 8.83689C53.0096 8.41709 52.3894 7.91859 51.8348 7.35198C50.7557 6.22214 50.0014 4.82206 49.6516 3.29935C49.49 2.56298 49.3954 1.81349 49.3691 1.06006" stroke="white" stroke-width="0.0845276" stroke-miterlimit="10" stroke-linecap="round"/>
<path d="M51.7051 92.7629C51.8339 91.2495 52.1209 89.749 52.4346 88.265C52.7704 86.6725 53.155 85.0901 53.5598 83.5141C53.9692 81.9179 54.4016 80.3281 54.8478 78.742C55.294 77.1559 55.7476 75.5652 56.2067 73.98C56.674 72.3669 57.1442 70.7554 57.617 69.1454C58.0954 67.5114 58.5736 65.8772 59.0513 64.2426C59.5236 62.6265 59.9916 61.0088 60.4553 59.3896C60.919 57.7704 61.3891 56.145 61.8657 54.5135C62.3379 52.8777 62.8038 51.2401 63.2632 49.6007C63.7167 47.9713 64.1602 46.3383 64.5815 44.6998C64.9974 43.0892 65.3887 41.4718 65.7555 39.8476C66.1235 38.2146 66.485 36.5789 66.8107 34.9357C67.1309 33.3229 67.4216 31.7037 67.6498 30.0762C67.8843 28.5142 68.0223 26.9392 68.0628 25.3603C68.0877 23.8064 67.957 22.2451 67.5798 20.7354C67.2014 19.2338 66.5799 17.8042 65.7398 16.5033C65.3216 15.8448 64.8353 15.232 64.289 14.6752C63.711 14.103 63.0907 13.5753 62.4333 13.0965C61.7635 12.5988 61.0708 12.1323 60.39 11.6493C59.7092 11.1663 59.0191 10.7045 58.3126 10.2601C56.9418 9.39717 55.5765 8.53327 54.4485 7.35474C53.3684 6.22497 52.5358 4.90291 52.0979 3.3987C51.8969 2.69171 51.7662 1.96657 51.7078 1.23389" stroke="white" stroke-width="0.0845276" stroke-miterlimit="10" stroke-linecap="round"/>
<path d="M54.0078 92.4702C54.2001 90.989 54.5414 89.5262 54.891 88.0772C55.2655 86.5251 55.674 84.9813 56.1054 83.4431C56.547 81.8652 57.0071 80.292 57.468 78.7197C57.9289 77.1474 58.3935 75.5714 58.8609 73.9982C59.3344 72.4035 59.8109 70.811 60.2906 69.2206C60.7714 67.6136 61.2474 66.0046 61.7184 64.3933C62.187 62.795 62.6513 61.1963 63.1113 59.5973C63.5799 57.9836 64.047 56.3699 64.5125 54.7562C64.978 53.1425 65.4316 51.5276 65.8732 49.9114C66.3185 48.2916 66.7497 46.6681 67.1667 45.0409C67.5752 43.4352 67.9613 41.8243 68.325 40.2081C68.693 38.599 69.0371 36.9881 69.3462 35.3652C69.6489 33.7818 69.9139 32.1902 70.119 30.5903C70.3168 29.0502 70.465 27.4954 70.4512 25.9406C70.4462 24.3862 70.2353 22.8394 69.8237 21.3405C69.3952 19.8579 68.7318 18.4537 67.8586 17.1812C66.9634 15.849 65.8014 14.7376 64.5806 13.7081C63.3147 12.6409 62.0294 11.5921 60.6945 10.6141C60.0302 10.1265 59.3604 9.6481 58.7219 9.12829C58.1033 8.62338 57.5153 8.08211 56.9611 7.50727C56.4169 6.95865 55.9293 6.35666 55.5056 5.71046C55.0985 5.06371 54.7653 4.37337 54.512 3.65239C54.2694 2.96282 54.1004 2.24953 54.0078 1.52441" stroke="white" stroke-width="0.0845276" stroke-miterlimit="10" stroke-linecap="round"/>
<path d="M56.2734 92.0655C56.532 90.6091 56.8981 89.1721 57.2799 87.7414C57.6866 86.2188 58.1245 84.7054 58.5725 83.1939C59.0276 81.6605 59.4925 80.1296 59.9673 78.6012C60.4475 77.0433 60.9305 75.4863 61.4163 73.9303C61.907 72.3565 62.3952 70.7814 62.881 69.2051C63.3716 67.6104 63.8574 66.0124 64.3382 64.4109C64.8093 62.8377 65.2711 61.2623 65.7238 59.6848C66.1838 58.0969 66.638 56.5071 67.0863 54.9155C67.5371 53.3135 67.9784 51.7093 68.4102 50.1029C68.8395 48.5082 69.2526 46.9114 69.6495 45.3124C70.0432 43.7257 70.4168 42.1341 70.77 40.5376C71.1141 38.968 71.4325 37.393 71.7103 35.8097C71.9808 34.2668 72.2145 32.7166 72.3745 31.159C72.5503 29.6231 72.6118 28.0763 72.5585 26.5313C72.5022 25.0102 72.2508 23.5025 71.8106 22.0454C71.3503 20.5752 70.6597 19.1875 69.7645 17.9338C68.8398 16.6348 67.7239 15.4931 66.5702 14.3983C65.9768 13.8352 65.3852 13.2685 64.7771 12.7211C64.169 12.1737 63.5415 11.6603 62.9095 11.1469C61.6527 10.1275 60.3804 9.11466 59.2837 7.91956C58.2331 6.79938 57.4079 5.48752 56.853 4.05552C56.5963 3.36682 56.4033 2.65605 56.2762 1.93213" stroke="white" stroke-width="0.0845276" stroke-miterlimit="10" stroke-linecap="round"/>
<path d="M58.5025 91.5521C58.8273 90.127 59.2248 88.7194 59.6369 87.3201C60.0794 85.8195 60.544 84.3255 61.0105 82.8323C61.4769 81.3391 61.9507 79.833 62.4291 78.3362C62.9158 76.8145 63.4126 75.2956 63.9058 73.7757C64.4044 72.2362 64.8972 70.6955 65.3842 69.1536C65.8773 67.5978 66.3686 66.0412 66.8461 64.4808C67.3153 62.9435 67.7661 61.3998 68.2114 59.8541C68.6604 58.292 69.1014 56.7279 69.5344 55.1621C69.9674 53.5962 70.3888 52.0221 70.7985 50.4397C71.2057 48.8677 71.5986 47.2917 71.977 45.7117C72.345 44.1597 72.6965 42.603 73.0157 41.039C73.3294 39.4952 73.6146 37.945 73.8548 36.3874C74.0949 34.8298 74.2872 33.2906 74.3985 31.7321C74.5208 30.2101 74.5208 28.6808 74.3985 27.1588C74.2713 25.6478 73.9598 24.158 73.4711 22.7225C72.9709 21.2821 72.2704 19.9194 71.3901 18.6745C70.482 17.3865 69.4332 16.2153 68.3485 15.0781C67.8066 14.5105 67.2748 13.9346 66.7035 13.3964C66.1322 12.8582 65.5167 12.3264 64.927 11.7863C64.3373 11.2463 63.731 10.7173 63.1504 10.1653C62.582 9.62692 62.0468 9.05456 61.5478 8.45131C60.5781 7.27186 59.7335 5.97558 59.1558 4.55784C58.8796 3.8735 58.659 3.16801 58.4961 2.44824" stroke="white" stroke-width="0.0845276" stroke-miterlimit="10" stroke-linecap="round"/>
<path d="M60.6816 90.9318C61.0708 89.5444 61.5161 88.1718 61.9642 86.8046C62.4416 85.3455 62.9301 83.89 63.4159 82.4336C63.9017 80.9773 64.3874 79.5043 64.8695 78.0378C65.3602 76.5566 65.8509 75.0757 66.3415 73.5951C66.8353 72.0949 67.3244 70.5922 67.809 69.0871C68.2947 67.5727 68.7701 66.0547 69.235 64.533C69.6999 63.0113 70.1455 61.4939 70.5718 59.9808C71.0103 58.4407 71.4372 56.8966 71.8524 55.3485C72.2627 53.8152 72.6599 52.2779 73.0438 50.7365C73.4247 49.2081 73.789 47.6748 74.1368 46.1365C74.4818 44.6047 74.8038 43.0674 75.0881 41.5227C75.3696 39.9973 75.6171 38.4645 75.8121 36.9226C76.0026 35.4248 76.147 33.9197 76.2004 32.4099C76.2634 30.9246 76.2018 29.4367 76.0164 27.9617C75.8246 26.4764 75.4647 25.0177 74.9436 23.6137C74.406 22.2056 73.7165 20.8603 72.8874 19.6016C72.0364 18.2924 71.063 17.0678 70.0639 15.8691C69.0648 14.6703 67.9755 13.5433 66.8844 12.419C65.7959 11.3185 64.7697 10.1582 63.8106 8.94324C62.8823 7.74723 62.0479 6.46749 61.4259 5.0792C61.1306 4.42378 60.8846 3.74723 60.6899 3.05518" stroke="white" stroke-width="0.0845276" stroke-miterlimit="10" stroke-linecap="round"/>
<path d="M62.819 90.2087C63.2717 88.8599 63.7639 87.5241 64.2405 86.1836C64.741 84.7772 65.2399 83.3702 65.7373 81.9626C66.2396 80.5451 66.7303 79.1238 67.2093 77.6984C67.6969 76.2582 68.1799 74.8169 68.6583 73.3743C69.1447 71.906 69.6241 70.434 70.0963 68.9583C70.5686 67.4826 71.0271 66.0075 71.4717 64.533C71.9189 63.0512 72.3519 61.5653 72.7708 60.0755C73.1897 58.5857 73.5979 57.083 73.9953 55.5675C74.3897 54.066 74.7666 52.5603 75.126 51.0502C75.4793 49.5626 75.8179 48.0703 76.1316 46.5735C76.4453 45.0766 76.7296 43.5678 76.9762 42.0562C77.219 40.5695 77.4288 39.0763 77.5769 37.5767C77.7295 36.1235 77.8062 34.6632 77.8069 33.202C77.8056 31.7139 77.6776 30.2285 77.4242 28.7621C77.1677 27.3135 76.767 25.8943 76.2282 24.5255C75.6823 23.1372 75.0197 21.7978 74.2474 20.5216C73.4584 19.2263 72.6029 17.9728 71.6843 16.7661C70.7532 15.5388 69.7633 14.363 68.7825 13.178C67.8018 11.993 66.8735 10.8017 65.971 9.57344C65.0788 8.3713 64.2955 7.092 63.6305 5.75077C63.3151 5.11457 63.0425 4.45808 62.8145 3.78564" stroke="white" stroke-width="0.0845276" stroke-miterlimit="10" stroke-linecap="round"/>
<path d="M64.9072 89.3855C65.4162 88.0938 65.9146 86.7987 66.4022 85.5003C66.9137 84.1417 67.4163 82.7804 67.9101 81.4164C68.4093 80.0382 68.9 78.6582 69.3821 77.2763C69.8728 75.8724 70.3533 74.4651 70.8237 73.0544C71.3003 71.6272 71.7667 70.1975 72.2231 68.7653C72.6794 67.3332 73.1265 65.8918 73.5645 64.4413C73.9993 62.9956 74.4216 61.5463 74.8313 60.0933C75.241 58.6403 75.636 57.1759 76.0163 55.7002C76.3917 54.2417 76.7477 52.7792 77.0844 51.3127C77.4165 49.8582 77.7284 48.3981 78.0044 46.9334C78.2804 45.4688 78.5325 44.0207 78.7404 42.5561C78.9447 41.1117 79.1084 39.6608 79.2087 38.2044C79.315 36.7566 79.3334 35.3037 79.2639 33.8537C79.1915 32.4085 79.0069 30.9711 78.7119 29.5545C78.4131 28.1429 77.999 26.7582 77.4736 25.4144C76.9363 24.0516 76.3011 22.7294 75.5728 21.4584C74.846 20.1805 74.0401 18.9486 73.1992 17.7434C72.3344 16.505 71.4328 15.2943 70.5404 14.0762C69.6609 12.8747 68.7924 11.6658 67.9754 10.4182C67.1549 9.17613 66.4131 7.88373 65.7545 6.54868C65.4478 5.91816 65.1651 5.27662 64.9062 4.62402" stroke="white" stroke-width="0.0845276" stroke-miterlimit="10" stroke-linecap="round"/>
<path d="M66.9453 88.4634C67.513 87.2168 68.0208 85.9445 68.5277 84.6721C69.0515 83.3583 69.5581 82.0396 70.0476 80.716C70.5407 79.3848 71.0366 78.0544 71.5196 76.7177C72.0103 75.3469 72.4875 73.9705 72.9511 72.5887C73.4148 71.2068 73.8678 69.8268 74.31 68.4486C74.7565 67.0527 75.1944 65.6539 75.6238 64.2524C76.0531 62.851 76.468 61.4403 76.8685 60.0204C77.266 58.6097 77.6426 57.1941 77.9983 55.7737C78.3534 54.3532 78.6902 52.9281 78.9965 51.4974C79.2971 50.0868 79.5694 48.6736 79.8135 47.258C80.0564 45.8449 80.2661 44.4253 80.4281 43.0002C80.59 41.5751 80.7041 40.1721 80.7482 38.7525C80.7927 37.3193 80.7488 35.8848 80.6167 34.457C80.4853 33.0472 80.2612 31.6476 79.946 30.2673C79.6325 28.8898 79.2196 27.5369 78.7104 26.2192C78.1974 24.8957 77.599 23.6068 76.9191 22.3607C76.2273 21.0929 75.4425 19.8767 74.6541 18.6724C73.8469 17.4359 73.0388 16.2003 72.2298 14.9657C71.4331 13.7522 70.6281 12.5442 69.9004 11.2856C69.1726 10.0271 68.4679 8.7565 67.8368 7.44733C67.5323 6.8162 67.2406 6.17956 66.9499 5.54199" stroke="white" stroke-width="0.0845276" stroke-miterlimit="10" stroke-linecap="round"/>
<path d="M68.9285 87.4478C69.5496 86.2518 70.108 85.0264 70.6407 83.7908C71.1844 82.5304 71.7014 81.2589 72.2047 79.9829C72.7079 78.7068 73.225 77.4023 73.7071 76.1004C74.1892 74.7986 74.6538 73.4738 75.1036 72.1518C75.5535 70.8297 75.997 69.4837 76.4303 68.1451C76.8636 66.8065 77.3016 65.4495 77.7183 64.097C78.1351 62.7446 78.5417 61.3701 78.9208 59.9966C79.2998 58.623 79.6568 57.243 79.9843 55.8565C80.3118 54.4701 80.6117 53.0882 80.8767 51.6935C81.1398 50.3165 81.372 48.9334 81.5732 47.5442C81.7719 46.1559 81.9338 44.763 82.0433 43.3655C82.1518 41.9855 82.2089 40.5991 82.1914 39.2136C82.173 37.8049 82.0781 36.3982 81.9071 34.9999C81.7392 33.6145 81.4935 32.2397 81.1711 30.8819C80.8495 29.5364 80.4467 28.2117 79.965 26.9148C79.4849 25.6176 78.9235 24.3519 78.2841 23.1253C77.6355 21.8851 76.8839 20.7011 76.1791 19.4931C75.4606 18.2612 74.754 17.022 74.0346 15.791C73.3152 14.56 72.5755 13.3566 71.8818 12.1183C71.1881 10.88 70.5284 9.63429 69.8752 8.37848C69.5575 7.77066 69.241 7.16191 68.9258 6.55225" stroke="white" stroke-width="0.0845276" stroke-miterlimit="10" stroke-linecap="round"/>
<path d="M70.8554 86.3402C71.5251 85.2021 72.1323 84.0264 72.7064 82.8368C73.2915 81.6251 73.8426 80.396 74.3735 79.1568C74.9043 77.9175 75.4296 76.6516 75.9163 75.3847C76.403 74.1179 76.8686 72.8363 77.3258 71.5547C77.783 70.2731 78.2173 68.9787 78.6451 67.6907C79.0729 66.4027 79.5099 65.0944 79.9138 63.788C80.3177 62.4816 80.6976 61.1613 81.0472 59.8365C81.3968 58.5117 81.717 57.1851 82.005 55.8483C82.2929 54.5116 82.5515 53.1481 82.7732 51.7892C82.9949 50.4304 83.1807 49.0862 83.3252 47.7283C83.4696 46.3704 83.5772 45.006 83.6324 43.6407C83.6877 42.2754 83.6867 40.9 83.6223 39.531C83.5579 38.162 83.4383 36.7857 83.246 35.4232C83.062 34.0824 82.8127 32.7527 82.4981 31.434C82.189 30.1143 81.8072 28.8126 81.3545 27.535C80.9051 26.2709 80.3735 25.0376 79.7629 23.843C79.4565 23.2505 79.1189 22.6764 78.7997 22.095C78.4703 21.4896 78.1556 20.8796 77.8281 20.2715C77.1841 19.0583 76.538 17.8461 75.8897 16.6347C75.2456 15.4203 74.5566 14.228 73.8868 13.0274C73.217 11.8268 72.5436 10.5994 71.8554 9.39423C71.5254 8.81585 71.1915 8.23961 70.8535 7.66553" stroke="white" stroke-width="0.0845276" stroke-miterlimit="10" stroke-linecap="round"/>
<path d="M72.7207 85.1443C73.4374 84.0605 74.0961 82.9363 74.7134 81.7954C75.3308 80.6546 75.9177 79.4678 76.4688 78.2792C77.0199 77.0905 77.5425 75.8871 78.0429 74.6773C78.5477 73.4506 79.0329 72.2181 79.4984 70.9798C79.9639 69.7415 80.4132 68.5028 80.8462 67.2639C81.286 66.009 81.7138 64.7513 82.102 63.4799C82.4903 62.2084 82.85 60.914 83.1711 59.6158C83.4922 58.3177 83.782 56.9993 84.0322 55.6791C84.2825 54.3589 84.4922 53.0534 84.6661 51.7314C84.84 50.4093 84.9725 49.0937 85.0663 47.7689C85.1602 46.444 85.2126 45.1101 85.2209 43.7788C85.2289 42.4295 85.1908 41.0831 85.1068 39.7399C85.0228 38.4139 84.89 37.0925 84.7084 35.7756C84.5244 34.4664 84.2889 33.1656 83.9899 31.8785C83.6979 30.6054 83.3345 29.3497 82.9015 28.1174C82.4775 26.9006 81.9624 25.7175 81.3605 24.5782C80.738 23.4079 80.121 22.2349 79.5095 21.0591C78.8912 19.8631 78.2766 18.6671 77.6529 17.4711C77.0291 16.2751 76.4035 15.0993 75.7558 13.9254C75.1081 12.7514 74.4485 11.6051 73.752 10.4708C73.4171 9.92488 73.0734 9.38481 72.7207 8.85059" stroke="white" stroke-width="0.0845276" stroke-miterlimit="10" stroke-linecap="round"/>
<path d="M74.5253 83.8617C75.2714 82.8497 75.9669 81.8028 76.6201 80.7291C77.2734 79.6555 77.8935 78.5377 78.4731 77.4097C79.0527 76.2818 79.6129 75.1152 80.1429 73.9486C80.6728 72.7821 81.176 71.6017 81.6563 70.4131C82.1365 69.2244 82.5974 68.0302 83.0363 66.825C83.4871 65.5968 83.9057 64.3594 84.2756 63.1045C84.6454 61.8496 84.9738 60.6094 85.2646 59.3472C85.5553 58.0849 85.812 56.7914 86.0429 55.5043C86.2711 54.2365 86.4499 52.9623 86.5793 51.6816C86.7099 50.3936 86.801 49.1056 86.8442 47.8111C86.8875 46.5167 86.8911 45.2296 86.8819 43.9388C86.8727 42.6333 86.8424 41.3269 86.7522 40.0242C86.6621 38.7215 86.5388 37.4427 86.3493 36.1602C86.1597 34.8777 85.8893 33.6357 85.5958 32.3881C85.3034 31.1491 84.9481 29.9257 84.5313 28.7228C84.3234 28.1275 84.098 27.5387 83.8477 26.961C83.5975 26.3832 83.3187 25.8367 83.0381 25.2819C82.4512 24.1218 81.8688 22.9607 81.2819 21.8015C80.6949 20.6423 80.0858 19.485 79.4565 18.3451C78.8273 17.2052 78.2127 16.0782 77.5724 14.9548C76.932 13.8315 76.2558 12.7256 75.5548 11.6428C75.2254 11.1313 74.885 10.6308 74.5234 10.1367" stroke="white" stroke-width="0.0845276" stroke-miterlimit="10" stroke-linecap="round"/>
<path d="M76.2637 82.4952C77.0438 81.5433 77.7844 80.5601 78.4855 79.5456C79.1865 78.5312 79.8431 77.494 80.4552 76.4342C81.0781 75.3624 81.6623 74.2666 82.2171 73.158C82.7718 72.0494 83.2962 70.9261 83.7912 69.7889C84.2862 68.6518 84.7508 67.5073 85.1924 66.3508C85.6422 65.1732 86.0507 63.9818 86.4059 62.773C86.761 61.5641 87.0692 60.3349 87.3433 59.1012C87.6175 57.8674 87.8659 56.6346 88.0794 55.3936C88.2928 54.1525 88.4345 52.9206 88.532 51.6758C88.6295 50.431 88.6783 49.1623 88.6994 47.9037C88.7206 46.6452 88.7206 45.3673 88.6994 44.0995C88.6783 42.8317 88.6332 41.5685 88.5394 40.3063C88.4524 39.0682 88.3026 37.8353 88.0904 36.6125C87.8696 35.3787 87.5991 34.1505 87.3065 32.9324C87.014 31.7143 86.6855 30.5211 86.2761 29.3444C86.0756 28.7694 85.8557 28.2017 85.611 27.6442C85.3663 27.0867 85.0866 26.5254 84.8216 25.9679C84.2779 24.8243 83.7342 23.6817 83.1656 22.5501C82.6053 21.436 82.0229 20.3329 81.3909 19.2574C80.7588 18.1819 80.1029 17.1018 79.4405 16.0373C78.7781 14.9729 78.0908 13.9259 77.3529 12.9093C77.0033 12.4284 76.6409 11.9577 76.2655 11.4971" stroke="white" stroke-width="0.0845276" stroke-miterlimit="10" stroke-linecap="round"/>
<path d="M77.9316 81.0503C78.7403 80.1579 79.5196 79.2388 80.2574 78.2903C80.9953 77.3418 81.6926 76.3583 82.3551 75.3463C83.0175 74.3343 83.6385 73.3029 84.2254 72.2486C84.8124 71.1943 85.3635 70.1197 85.8815 69.0286C86.3994 67.9374 86.8659 66.8491 87.3102 65.7386C87.761 64.6144 88.1618 63.4726 88.5127 62.3134C88.8641 61.1579 89.1797 59.9922 89.4465 58.8174C89.7133 57.6425 89.9635 56.4437 90.154 55.2459C90.3444 54.048 90.4769 52.8235 90.5781 51.6063C90.6793 50.3891 90.7189 49.1517 90.7317 47.9263C90.7446 46.7008 90.7419 45.4699 90.7069 44.2462C90.672 43.0226 90.5873 41.7834 90.4631 40.5561C90.3417 39.3601 90.1761 38.1742 89.9378 36.9975C89.6949 35.8015 89.4511 34.6055 89.1447 33.4223C88.842 32.2567 88.4869 31.0984 88.0849 29.9631C87.6828 28.8278 87.1768 27.7275 86.6782 26.628C86.1795 25.5286 85.6386 24.42 85.0728 23.3427C84.507 22.2654 83.9412 21.2092 83.2953 20.1889C82.6495 19.1686 81.9677 18.1502 81.2658 17.1575C80.5638 16.1648 79.8425 15.208 79.0743 14.2779C78.7063 13.8301 78.3263 13.3907 77.9344 12.9595" stroke="white" stroke-width="0.0845276" stroke-miterlimit="10" stroke-linecap="round"/>
<path d="M81.0502 16.0703C80.144 15.2487 79.1946 14.4796 78.2249 13.7344C77.2552 12.9892 76.245 12.2789 75.2275 11.5898C74.7252 11.2485 74.2228 10.9062 73.7159 10.5723C73.209 10.2383 72.7039 9.95219 72.1869 9.66147C71.6698 9.37075 71.1233 9.08186 70.5869 8.80125C70.0506 8.52065 69.5345 8.23914 68.9926 7.98614C68.4507 7.73313 67.9042 7.48199 67.355 7.24186C66.8057 7.00174 66.2611 6.77539 65.7219 6.52423C65.1858 6.28198 64.6376 6.06704 64.0797 5.88022C63.5139 5.68426 62.9463 5.50026 62.3722 5.32821C61.7981 5.15617 61.2259 4.97309 60.6453 4.82037C60.0648 4.66765 59.465 4.5306 58.8725 4.3972C58.28 4.2638 57.67 4.14602 57.0702 4.01262C56.4841 3.88106 55.8999 3.76238 55.3065 3.6713C54.0976 3.4873 52.8795 3.36677 51.6605 3.27845C50.4415 3.19013 49.2077 3.17356 47.9805 3.17356C46.7532 3.17356 45.502 3.16344 44.2627 3.20208C43.0234 3.24072 41.8054 3.33916 40.5827 3.47072C39.9782 3.53604 39.3747 3.6207 38.7748 3.71546C38.175 3.81022 37.5788 3.94179 36.9753 4.06783C35.7793 4.31807 34.5833 4.5628 33.4075 4.8802C32.2317 5.19761 31.0753 5.55364 29.9317 5.95201C28.7881 6.35037 27.6694 6.83523 26.5608 7.32191C25.4522 7.8086 24.361 8.33391 23.2846 8.89604C22.2082 9.45817 21.1686 10.0286 20.1501 10.6716C19.1317 11.3147 18.1169 11.9928 17.1307 12.6957C16.1444 13.3986 15.1987 14.1318 14.274 14.9037C13.8239 15.2803 13.3822 15.6658 12.9492 16.0602" stroke="white" stroke-width="0.0845276" stroke-miterlimit="10" stroke-linecap="round"/>
<path d="M82.4955 17.7436C81.5304 16.9524 80.5 16.2431 79.4677 15.5429C78.4161 14.8299 77.3517 14.1408 76.2854 13.4471C75.7582 13.1031 75.243 12.7424 74.714 12.4011C74.2053 12.0727 73.6744 11.7801 73.1371 11.4995C72.5851 11.2078 72.0184 10.93 71.4609 10.6411C70.9033 10.3522 70.367 10.0606 69.8048 9.79656C69.2427 9.53252 68.6567 9.27858 68.0817 9.01914C67.5297 8.76889 66.9869 8.49012 66.4376 8.22792C65.3253 7.69707 64.1293 7.36774 62.9535 7.01169C62.3592 6.83229 61.7695 6.64366 61.166 6.49737C60.5624 6.35109 59.9304 6.2214 59.3112 6.08616C58.6921 5.95091 58.1032 5.81661 57.5025 5.66389C56.9004 5.51424 56.2904 5.39844 55.6753 5.31704C55.0488 5.22964 54.4195 5.16706 53.7893 5.11278C53.1591 5.0585 52.5133 5.00332 51.8729 4.97756C50.5941 4.9242 49.3135 4.95913 48.0328 4.96557C46.7522 4.97201 45.4715 4.93062 44.1918 4.9573C42.912 4.98398 41.6387 5.0907 40.371 5.2333C39.7435 5.30322 39.1179 5.39063 38.4969 5.50931C37.8759 5.62799 37.2622 5.77978 36.6449 5.91226C35.425 6.17262 34.1977 6.39988 32.9934 6.72832C31.7891 7.05676 30.5839 7.3935 29.4054 7.80107C28.8046 8.00899 28.2195 8.25186 27.6371 8.50487C27.0685 8.75143 26.4963 8.98972 25.9259 9.23077C25.3555 9.47181 24.7814 9.71926 24.2156 9.97962C23.6498 10.24 23.0849 10.5224 22.5209 10.7975C21.4077 11.3413 20.2954 11.8905 19.2282 12.5216C18.161 13.1528 17.0818 13.8198 16.0284 14.4987C14.975 15.1777 13.9372 15.8833 12.9317 16.6322C12.4465 16.9935 11.9699 17.3658 11.502 17.7491" stroke="white" stroke-width="0.0845276" stroke-miterlimit="10" stroke-linecap="round"/>
<path d="M83.8627 19.4769C82.8258 18.7124 81.7108 18.05 80.6067 17.3876C79.4751 16.7086 78.3444 16.0251 77.2349 15.3111C76.6829 14.9588 76.1566 14.5751 75.6037 14.232C75.0508 13.8888 74.4997 13.588 73.9348 13.2788C73.3699 12.9697 72.7876 12.6854 72.2163 12.3846C71.6449 12.0837 71.0754 11.7857 70.4977 11.5005C69.9199 11.2152 69.3219 10.9227 68.7395 10.6237C68.1875 10.3394 67.6502 10.0146 67.0835 9.74965C65.9206 9.205 64.6915 8.83519 63.4697 8.44694C62.2479 8.0587 60.9719 7.78082 59.7188 7.46894C59.1033 7.31622 58.4971 7.1258 57.8788 6.98503C57.2606 6.84427 56.6101 6.73665 55.9698 6.65476C54.6686 6.49065 53.3592 6.40125 52.0478 6.38703C50.7285 6.37231 49.411 6.41646 48.0917 6.40634C46.7725 6.39622 45.4761 6.36218 44.1679 6.40082C42.8559 6.44093 41.5472 6.55398 40.2477 6.7394C39.6037 6.8314 38.9597 6.94549 38.3212 7.08993C37.6827 7.23437 37.0553 7.39259 36.4196 7.53336C35.1536 7.80936 33.8822 8.08534 32.6337 8.43495C31.3853 8.78455 30.1497 9.13415 28.9417 9.57944C28.3299 9.80484 27.7347 10.0661 27.1385 10.3283C26.5423 10.5905 25.9498 10.8436 25.3555 11.1021C24.1549 11.6228 22.9635 12.1684 21.7813 12.7222C20.5991 13.2761 19.4417 13.8345 18.3128 14.4656C17.184 15.0968 16.0551 15.7481 14.9355 16.405C13.8158 17.0619 12.7192 17.7188 11.6446 18.4291C11.134 18.7667 10.6326 19.1126 10.1367 19.476" stroke="white" stroke-width="0.0845276" stroke-miterlimit="10" stroke-linecap="round"/>
<path d="M85.1451 21.281C84.0411 20.545 82.8718 19.9074 81.7098 19.2661C80.5276 18.612 79.3417 17.9606 78.1991 17.2421C77.6471 16.8934 77.1153 16.5144 76.5688 16.1583C76.0223 15.8023 75.44 15.4527 74.8622 15.1206C73.6818 14.4435 72.4702 13.8133 71.2741 13.1619C70.6872 12.8417 70.103 12.5179 69.5261 12.1756C68.9741 11.849 68.4378 11.5058 67.8646 11.2179C66.6925 10.6309 65.4496 10.1976 64.2002 9.80754C62.9057 9.40365 61.5966 9.0485 60.3012 8.64737C59.6783 8.45509 59.0601 8.26376 58.4225 8.12668C57.7849 7.98959 57.117 7.88654 56.4583 7.8111C55.0998 7.66776 53.7349 7.59374 52.3689 7.58936C51.0247 7.5728 49.6806 7.58383 48.3374 7.58199C46.9942 7.58015 45.6261 7.58202 44.2728 7.65562C42.924 7.71895 41.5808 7.86923 40.2514 8.10552C38.9118 8.35024 37.599 8.72464 36.2788 9.05217C34.9586 9.37969 33.666 9.69617 32.3715 10.0642C31.0708 10.4245 29.7905 10.8545 28.536 11.3522C27.9039 11.607 27.2857 11.8932 26.6638 12.1719C26.0418 12.4507 25.4217 12.7239 24.8007 12.9999C23.5486 13.552 22.2956 14.1113 21.0545 14.6919C19.8364 15.2613 18.6284 15.8547 17.4434 16.4923C16.275 17.1216 15.1045 17.7463 13.9317 18.3664C12.7689 18.9855 11.6069 19.6093 10.4716 20.2791C9.91957 20.6029 9.38138 20.9369 8.84961 21.2911" stroke="white" stroke-width="0.0845276" stroke-miterlimit="10" stroke-linecap="round"/>
<path d="M86.3415 23.1471C85.1455 22.4442 83.8998 21.8351 82.6845 21.169C81.4691 20.5029 80.2437 19.8543 79.0633 19.1284C78.4855 18.7724 77.9354 18.375 77.3705 17.9968C76.79 17.6095 76.2012 17.2342 75.6087 16.8652C74.42 16.1237 73.2056 15.4245 72.0206 14.6848C71.4318 14.3168 70.843 13.9488 70.2671 13.5661C69.7203 13.1978 69.1536 12.8599 68.5697 12.554C67.3399 11.9334 66.0706 11.3944 64.77 10.9403C64.1113 10.7021 63.4489 10.4739 62.7847 10.2494C62.1204 10.025 61.4653 9.78485 60.7993 9.57601C59.4947 9.16752 58.1312 8.95038 56.7733 8.80226C55.3832 8.65046 53.9921 8.57503 52.5937 8.55663C51.1953 8.53823 49.7895 8.53731 48.3893 8.55663C46.989 8.57595 45.6163 8.65687 44.2345 8.79764C42.861 8.93157 41.4969 9.14848 40.1496 9.44717C39.4605 9.60357 38.7807 9.79677 38.0989 9.97802C37.4172 10.1593 36.7437 10.3377 36.0685 10.5227C34.717 10.8907 33.371 11.2799 32.037 11.7095C30.7177 12.1345 29.4103 12.6056 28.1361 13.153C26.8481 13.705 25.5721 14.3113 24.2923 14.8927C23.0126 15.4742 21.7237 16.0538 20.4504 16.6582C19.1771 17.2627 17.9185 17.8846 16.6691 18.5304C15.4575 19.1579 14.2302 19.7531 13.0056 20.353C11.7811 20.9528 10.5842 21.5619 9.38724 22.193C8.80671 22.4994 8.22987 22.8122 7.66406 23.1452" stroke="white" stroke-width="0.0845276" stroke-miterlimit="10" stroke-linecap="round"/>
<path d="M87.4495 25.0737C86.1891 24.4187 84.8826 23.8529 83.6369 23.1675C82.3912 22.4821 81.1308 21.8095 79.9348 21.0413C79.3387 20.6586 78.7655 20.2409 78.1868 19.8389C77.5863 19.423 76.9828 19.0105 76.3762 18.6014C75.1692 17.7881 73.9548 16.9868 72.7652 16.1478C72.1893 15.742 71.6262 15.3198 71.0512 14.9131C70.482 14.5151 69.8927 14.1466 69.2857 13.8091C68.0408 13.1195 66.7557 12.5051 65.4373 11.9691C64.7684 11.6931 64.0941 11.4281 63.4179 11.1705C62.7417 10.9129 62.0922 10.6608 61.4095 10.463C60.0359 10.0637 58.6154 9.81902 57.1986 9.63502C55.7551 9.44274 54.296 9.39584 52.8424 9.38296C51.42 9.371 49.9949 9.37281 48.5744 9.44733C47.1514 9.52881 45.7333 9.68234 44.3258 9.90734C42.9028 10.1198 41.4934 10.4153 40.1048 10.7924C38.6954 11.1825 37.2877 11.5836 35.8884 12.0105C34.5053 12.4331 33.1339 12.89 31.7741 13.3813C30.4272 13.8689 29.0932 14.3933 27.7896 14.9895C26.4528 15.6004 25.1215 16.2297 23.793 16.8507C22.4645 17.4717 21.1517 18.0752 19.837 18.7017C18.5223 19.3283 17.2196 19.9658 15.9187 20.6135C14.6619 21.2382 13.3859 21.8224 12.1144 22.4167C10.8641 23.0019 9.62122 23.6017 8.37184 24.1887C7.76279 24.4757 7.15373 24.7655 6.55664 25.0765" stroke="white" stroke-width="0.0845276" stroke-miterlimit="10" stroke-linecap="round"/>
<path d="M88.4649 27.0573C87.1299 26.4491 85.7766 25.8741 84.496 25.1528C83.2153 24.4315 81.9466 23.6937 80.7304 22.8722C79.481 22.0276 78.2684 21.1241 77.0503 20.2354C75.8479 19.3577 74.6583 18.4625 73.4899 17.5352C72.9259 17.0862 72.3693 16.6271 71.7897 16.1984C71.2101 15.7697 70.6139 15.3704 70.0049 14.9922C68.7551 14.2201 67.4588 13.526 66.1234 12.9139C64.7875 12.2975 63.4286 11.7225 62.0173 11.303C60.5897 10.8755 59.1298 10.5641 57.6519 10.372C56.1703 10.1954 54.6791 10.1124 53.1871 10.1235C51.7392 10.1215 50.2922 10.1955 48.852 10.3453C47.38 10.5017 45.9162 10.7547 44.4672 11.0555C43.0182 11.3563 41.5664 11.7335 40.1358 12.1595C38.7052 12.5855 37.2608 13.0344 35.8394 13.5184C34.4179 14.0023 33.0177 14.5194 31.6276 15.0714C30.2374 15.6234 28.8675 16.2131 27.5197 16.8479C26.1719 17.4827 24.8057 18.1359 23.4496 18.7799C22.0935 19.4239 20.7264 20.0679 19.3657 20.7119C18.005 21.3559 16.6562 22.0046 15.302 22.6504C13.9744 23.2843 12.6339 23.8943 11.2962 24.5033C9.99167 25.0977 8.68466 25.684 7.37518 26.2624C6.76245 26.5319 6.14512 26.7895 5.53516 27.0665" stroke="white" stroke-width="0.0845276" stroke-miterlimit="10" stroke-linecap="round"/>
<path d="M89.3859 29.095C87.9753 28.5276 86.6097 27.8541 85.3011 27.0801C83.9661 26.3046 82.6744 25.4545 81.4149 24.563C80.1554 23.6715 78.9438 22.7496 77.745 21.7965C76.5462 20.8434 75.3622 19.8599 74.1938 18.8654C73.6261 18.3805 73.0594 17.8957 72.4706 17.4366C71.8818 16.9775 71.2681 16.5304 70.6453 16.1081C69.3986 15.2626 68.096 14.5027 66.7463 13.8338C65.3932 13.1628 63.9922 12.5933 62.5547 12.13C61.1069 11.6636 59.6222 11.3205 58.1166 11.1042C56.6138 10.8912 55.0946 10.8167 53.5782 10.8815C52.0719 10.9533 50.5715 11.1189 49.0858 11.3774C47.5825 11.6304 46.0921 11.9552 44.6145 12.3287C43.137 12.7022 41.6493 13.1328 40.1865 13.5983C38.7059 14.0694 37.2385 14.5781 35.7843 15.1246C34.3454 15.6637 32.9184 16.2354 31.5035 16.8395C30.0995 17.4394 28.714 18.0769 27.334 18.7302L23.1212 20.7229C21.7105 21.389 20.2999 22.0532 18.8892 22.7156C17.5018 23.367 16.1123 24.0144 14.7206 24.6577C13.3437 25.2938 11.9636 25.9228 10.5806 26.5447C9.23275 27.1492 7.88127 27.7407 6.52057 28.3166C5.88852 28.5825 5.25372 28.8438 4.61523 29.095" stroke="white" stroke-width="0.0845276" stroke-miterlimit="10" stroke-linecap="round"/>
<path d="M90.2095 31.1831C89.4772 30.9233 88.7651 30.6099 88.0788 30.2456C87.3796 29.8896 86.7061 29.4811 86.0345 29.0763C84.6867 28.263 83.4189 27.3237 82.1567 26.3852C80.8944 25.4468 79.6662 24.4707 78.4886 23.4329C77.311 22.3951 76.115 21.3519 74.9502 20.2865C73.8023 19.2252 72.6013 18.2226 71.3521 17.2827C70.116 16.354 68.8072 15.5264 67.4383 14.8078C66.0575 14.0904 64.6272 13.4725 63.1584 12.9586C61.6887 12.4404 60.1722 12.0657 58.6302 11.8399C57.8683 11.7269 57.1001 11.6621 56.3301 11.6458C55.5742 11.6392 54.8185 11.6763 54.0669 11.7571C52.5157 11.9246 50.9749 12.1767 49.4512 12.5124C47.912 12.839 46.3903 13.241 44.8797 13.6771C43.369 14.1132 41.8519 14.5806 40.3597 15.0976C38.8674 15.6147 37.365 16.1851 35.8884 16.7821C34.4118 17.3792 32.96 18.0049 31.5129 18.6553C30.0657 19.3058 28.6608 19.9792 27.2348 20.648L22.9108 22.6831C21.4691 23.3602 20.0311 24.0456 18.5867 24.7163C17.1589 25.3806 15.7264 26.0329 14.2949 26.6879C12.8633 27.343 11.4189 28.0081 9.97083 28.6457C8.57977 29.2584 7.18319 29.8638 5.77281 30.4305C5.11776 30.6927 4.46274 30.9586 3.79297 31.1831" stroke="white" stroke-width="0.0845276" stroke-miterlimit="10" stroke-linecap="round"/>
<path d="M90.9322 33.3216C90.1726 33.0983 89.4367 32.801 88.7352 32.4338C88.0213 32.0658 87.3221 31.6656 86.6431 31.2377C85.2824 30.3812 84.0294 29.3527 82.768 28.36C81.5022 27.3596 80.2907 26.2924 79.1386 25.1629C77.9671 24.0203 76.7975 22.8758 75.6297 21.7294C74.4833 20.6015 73.3076 19.4993 72.0656 18.4763C70.856 17.4651 69.5508 16.5743 68.1684 15.8165C67.4674 15.4393 66.7516 15.086 66.033 14.7429C65.3145 14.3997 64.5868 14.0796 63.8407 13.8027C62.3565 13.2447 60.813 12.8597 59.2406 12.6554C57.6849 12.4649 56.1282 12.5634 54.5817 12.7842C52.9949 13.0237 51.4217 13.3459 49.8685 13.7493C48.2842 14.1532 46.7193 14.6288 45.1608 15.1228C43.6023 15.6169 42.0677 16.1211 40.546 16.6961C39.0243 17.2711 37.5017 17.8994 35.9993 18.5499C34.4969 19.2003 33.0047 19.8802 31.5216 20.5739C30.0588 21.2584 28.6061 21.9613 27.1479 22.6559C25.663 23.3634 24.1744 24.0654 22.6905 24.7719C21.2065 25.4785 19.7464 26.1878 18.2578 26.8751C16.796 27.5531 15.3267 28.2164 13.8602 28.8844C12.3937 29.5523 10.9162 30.2349 9.43494 30.878C7.9988 31.4999 6.54704 32.0952 5.08146 32.6426C4.41906 32.8892 3.75112 33.1256 3.07031 33.317" stroke="white" stroke-width="0.0845276" stroke-miterlimit="10" stroke-linecap="round"/>
<path d="M91.5541 35.5002C90.7695 35.3151 90.0078 35.0442 89.2826 34.6924C88.5436 34.3418 87.8301 33.94 87.1472 33.49C86.4646 33.0392 85.8095 32.5387 85.1701 32.0272C84.5307 31.5156 83.895 30.9949 83.2694 30.4631C82.0062 29.3959 80.8507 28.2146 79.7301 27.0012C78.6095 25.7877 77.4761 24.5475 76.3362 23.3331C75.1963 22.1186 74.072 20.9263 72.8502 19.814C71.6542 18.7247 70.3662 17.7385 68.9522 16.9509C67.5381 16.1634 66.1057 15.3658 64.583 14.7843C63.0779 14.2093 61.4909 13.7999 59.8827 13.6665C58.2745 13.5331 56.6811 13.7162 55.1079 13.9995C53.4842 14.2987 51.8775 14.6832 50.2944 15.1514C48.6807 15.6215 47.0826 16.1432 45.4891 16.6786C43.9251 17.2039 42.3813 17.7559 40.8541 18.3733C39.2956 19.0044 37.7564 19.6834 36.2274 20.3817C34.6983 21.0799 33.1766 21.8031 31.6605 22.5345C30.1645 23.2545 28.6698 23.9777 27.1763 24.7039C25.6497 25.4399 24.1244 26.1805 22.6002 26.9257C21.0951 27.6617 19.5881 28.3867 18.0738 29.0988C16.5907 29.7961 15.0975 30.4696 13.6053 31.1458C12.0854 31.8339 10.5646 32.5203 9.02913 33.1698C7.55712 33.7972 6.05657 34.3815 4.53672 34.8902C3.85142 35.126 3.15471 35.3271 2.44922 35.4928" stroke="white" stroke-width="0.0845276" stroke-miterlimit="10" stroke-linecap="round"/>
<path d="M92.0657 37.7294C90.4511 37.4424 88.9607 36.7064 87.6028 35.8066C86.9072 35.3466 86.2421 34.8434 85.5916 34.3217C84.9412 33.8001 84.2751 33.2582 83.6596 32.685C82.4203 31.5396 81.3219 30.2507 80.2454 28.9534C79.698 28.2938 79.1561 27.6286 78.6051 26.9708C78.054 26.313 77.5057 25.6966 76.9564 25.0581C75.8524 23.7701 74.7585 22.4748 73.5524 21.2778C72.9672 20.6909 72.3489 20.1379 71.7004 19.6218C71.0565 19.1255 70.3803 18.6724 69.6764 18.2657C68.2439 17.4174 66.7793 16.6097 65.2244 16.0052C63.6945 15.4118 62.0817 15.0291 60.4404 14.9665C58.8193 14.9049 57.1955 15.1506 55.6122 15.4799C53.9561 15.8286 52.3231 16.2904 50.7076 16.7928C49.047 17.3089 47.4011 17.8719 45.7579 18.4405C44.1691 18.9925 42.606 19.6015 41.0659 20.2649C39.4807 20.9457 37.9148 21.6707 36.3573 22.4131C34.7997 23.1555 33.2559 23.9164 31.7094 24.6772C30.2061 25.4132 28.6991 26.1492 27.1958 26.8853C25.6422 27.6507 24.0892 28.4174 22.5369 29.1853C21.0051 29.9415 19.4705 30.6941 17.9285 31.431C16.4216 32.1511 14.9045 32.85 13.3772 33.5277C11.8132 34.2178 10.2492 34.8958 8.67046 35.5352C7.16257 36.1442 5.63444 36.7257 4.08146 37.1912C3.37961 37.4091 2.66571 37.586 1.94336 37.7212" stroke="white" stroke-width="0.0845276" stroke-miterlimit="10" stroke-linecap="round"/>
<path d="M92.4715 39.9941C90.8256 39.7797 89.3067 39.0631 87.9174 38.1845C87.1987 37.7221 86.5072 37.2186 85.8465 36.6765C85.1852 36.1563 84.556 35.5965 83.9623 35.0003C83.3689 34.3894 82.8132 33.7408 82.2759 33.0793C81.7387 32.4178 81.1968 31.7536 80.6807 31.0727C80.1526 30.3763 79.6337 29.6716 79.1037 28.976C78.5931 28.3063 78.0522 27.6604 77.5397 26.9943C77.0116 26.3117 76.4826 25.6281 75.9371 24.9584C75.3915 24.2886 74.8285 23.6704 74.2461 23.0521C73.6733 22.4362 73.0667 21.8526 72.4291 21.3041C71.7928 20.7775 71.1192 20.2978 70.4133 19.8689C68.9827 18.9673 67.5089 18.1613 65.9218 17.5689C64.3633 16.9893 62.7174 16.6102 61.0458 16.5918C60.2296 16.5914 59.4146 16.6529 58.6078 16.7758C57.7669 16.8945 56.9333 17.0518 56.1063 17.2413C54.4199 17.6259 52.7556 18.096 51.1106 18.6269C49.4491 19.1632 47.805 19.7502 46.161 20.3381C44.5473 20.9159 42.9667 21.5865 41.4008 22.2839C39.8092 22.9935 38.228 23.7296 36.6572 24.4919C35.0831 25.2537 33.52 26.0403 31.9569 26.826C30.4196 27.5988 28.873 28.3532 27.3339 29.126C25.7588 29.9154 24.1874 30.7112 22.6105 31.496C21.0575 32.2682 19.5012 33.0333 17.9415 33.7914C16.4096 34.5348 14.8714 35.2634 13.3101 35.9451C11.7204 36.637 10.1195 37.3058 8.50033 37.925C6.94183 38.5202 5.37229 39.0962 3.75767 39.5276C3.02687 39.7344 2.28308 39.8921 1.53125 39.9996" stroke="white" stroke-width="0.0845276" stroke-miterlimit="10" stroke-linecap="round"/>
<path d="M92.7647 42.2972C91.0912 42.1546 89.5042 41.5428 88.0837 40.6633C87.3668 40.2131 86.6833 39.712 86.0385 39.1636C85.3822 38.627 84.764 38.0454 84.1883 37.423C83.6143 36.7872 83.0899 36.1073 82.5682 35.4275C82.0346 34.731 81.4936 34.0419 80.9885 33.3234C80.4835 32.6049 80.0014 31.8799 79.4935 31.1687C78.9857 30.4576 78.453 29.7795 77.9461 29.0757C77.4392 28.3719 76.9285 27.6479 76.3876 26.9597C75.8466 26.2715 75.2744 25.6367 74.6966 24.9955C74.1349 24.3582 73.5368 23.754 72.9053 23.1858C72.2733 22.6509 71.6061 22.1591 70.908 21.7138C70.1968 21.2348 69.4597 20.7956 68.7 20.3982C67.96 20.0216 67.1931 19.7005 66.4055 19.4377C64.8092 18.8949 63.1413 18.571 61.4512 18.6005C59.7612 18.6299 58.0656 18.9473 56.4151 19.3273C54.7198 19.7186 53.0482 20.1902 51.4001 20.7422C49.7284 21.2989 48.0706 21.9006 46.4228 22.5216C44.8036 23.1325 43.2185 23.8298 41.6452 24.5456C40.0417 25.2761 38.4418 26.0176 36.8612 26.7867C35.2539 27.5678 33.6623 28.3802 32.067 29.1861C30.5103 29.9727 28.9436 30.7382 27.3878 31.5266C25.7935 32.3353 24.2055 33.1532 22.6038 33.9509C21.0293 34.7366 19.4506 35.5136 17.8676 36.2822C16.3238 37.0356 14.7727 37.7726 13.1958 38.4543C11.5867 39.1498 9.96285 39.8132 8.31971 40.4204C6.74281 41.0018 5.1429 41.5391 3.50345 41.9163C2.75876 42.0945 2.00251 42.2202 1.24023 42.2926" stroke="white" stroke-width="0.0845276" stroke-miterlimit="10" stroke-linecap="round"/>
<path d="M92.9413 44.6329C91.2509 44.5635 89.6054 44.0686 88.1572 43.194C87.4354 42.7527 86.753 42.2501 86.1176 41.6916C85.4741 41.1378 84.8712 40.5386 84.3134 39.8985C83.7485 39.2435 83.2195 38.5608 82.7062 37.8644C82.1928 37.1679 81.6776 36.4669 81.1927 35.7484C80.7079 35.0298 80.2249 34.303 79.7382 33.5827C79.2515 32.8623 78.7483 32.1723 78.2579 31.4666C77.7675 30.761 77.2634 30.0553 76.7417 29.3699C76.2201 28.6845 75.6607 28.034 75.0958 27.3891C74.535 26.7456 73.9385 26.1341 73.3092 25.5574C72.6752 24.9933 72.0036 24.4729 71.299 23.9998C69.9155 23.0315 68.3926 22.2795 66.7826 21.7697C65.1634 21.2611 63.4718 21.0208 61.775 21.0585C60.0647 21.1027 58.3636 21.3925 56.6984 21.7642C54.9835 22.1479 53.3008 22.6364 51.6328 23.1884C49.9648 23.7404 48.2895 24.3577 46.6418 25.0026C44.994 25.6475 43.3721 26.3578 41.7657 27.0901C40.1594 27.8224 38.5457 28.5704 36.9531 29.3432C35.3606 30.1161 33.7662 30.9118 32.1792 31.7095C30.5922 32.5071 29.0236 33.2827 27.4513 34.0813C25.8652 34.8872 24.2775 35.6895 22.6884 36.4881C21.0992 37.2866 19.5045 38.0674 17.9043 38.8304C16.3283 39.5885 14.745 40.3318 13.1387 41.0227C11.5323 41.7137 9.89287 42.3761 8.23685 42.9677C6.65627 43.5325 5.04627 44.0266 3.39761 44.3477C2.62833 44.5026 1.84834 44.5985 1.06445 44.6347" stroke="white" stroke-width="0.0845276" stroke-miterlimit="10" stroke-linecap="round"/>
<path d="M93.001 47.0001C91.3332 47.0018 89.6928 46.5761 88.2363 45.7636C86.7643 44.9448 85.5186 43.7911 84.4118 42.5389C83.259 41.2362 82.2452 39.8166 81.2617 38.3833C80.2497 36.9112 79.2781 35.4227 78.2477 33.9672C77.2458 32.5522 76.1915 31.1695 75.0148 29.8934C73.874 28.6551 72.6136 27.518 71.2051 26.5906C69.8189 25.6728 68.2939 24.9844 66.6887 24.5518C65.0589 24.1281 63.3758 23.9459 61.6931 24.0109C59.9791 24.0652 58.2743 24.3228 56.599 24.6834C54.9023 25.058 53.2257 25.5186 51.5757 26.0634C49.9105 26.6053 48.2637 27.2107 46.639 27.8556C44.9967 28.5061 43.3711 29.197 41.7565 29.9127C40.1418 30.6285 38.5189 31.3847 36.9126 32.1428C35.3063 32.9009 33.6926 33.6931 32.0844 34.4834C30.4762 35.2737 28.8745 36.0741 27.2709 36.8754C25.6673 37.6767 24.0895 38.4606 22.4942 39.2435C20.9155 40.0194 19.3303 40.7821 17.7387 41.5316C16.1664 42.2676 14.584 42.9852 12.9859 43.6623C11.4016 44.333 9.79989 44.9669 8.17055 45.5198C6.59918 46.0525 4.99651 46.5189 3.35798 46.7912C2.5791 46.9259 1.79042 46.9958 1 47.0001" stroke="white" stroke-width="0.0845276" stroke-miterlimit="10" stroke-linecap="round"/>
<path d="M92.9417 49.3672C91.2654 49.4192 89.6059 49.0201 88.1365 48.2116C87.3989 47.8028 86.7007 47.3267 86.0508 46.7893C85.3921 46.2644 84.7736 45.6909 84.2007 45.0735C83.6303 44.4433 83.0967 43.7855 82.5778 43.112C82.0589 42.4386 81.5419 41.7605 81.0506 41.0622C80.5593 40.3639 80.0818 39.6693 79.5859 38.9811C79.09 38.293 78.5739 37.6085 78.067 36.9231C77.5601 36.2377 77.0449 35.5605 76.503 34.9064C75.9611 34.2523 75.3842 33.6239 74.7982 33.0121C74.2231 32.406 73.6117 31.8355 72.9674 31.3037C72.3212 30.7827 71.6397 30.3072 70.9277 29.8804C69.5153 29.0086 67.9771 28.3595 66.3672 27.9558C64.743 27.572 63.0741 27.412 61.4065 27.4801C59.7091 27.5353 58.0218 27.7856 56.3594 28.1241C54.6619 28.471 52.9912 28.9393 51.3361 29.4499C49.681 29.9605 48.0296 30.5309 46.4048 31.1473C44.7617 31.7701 43.1379 32.4463 41.5288 33.1419C39.9197 33.8374 38.3262 34.5339 36.7447 35.2653C35.1632 35.9967 33.5771 36.7373 32.0002 37.4926C30.4233 38.2479 28.863 38.9756 27.3017 39.7328C25.7258 40.4973 24.1507 41.2646 22.5683 42.0163C20.9859 42.7679 19.4173 43.5012 17.8312 44.2188C16.2671 44.9253 14.7031 45.608 13.1032 46.2327C11.4905 46.8657 9.87033 47.4802 8.22719 48.0166C6.65489 48.5281 5.03936 48.9596 3.40266 49.2071C2.63268 49.3341 1.85235 49.3874 1.07227 49.3663" stroke="white" stroke-width="0.0845276" stroke-miterlimit="10" stroke-linecap="round"/>
<path d="M92.7647 51.7031C91.1372 51.8411 89.4766 51.405 88.0202 50.6911C87.2825 50.317 86.5764 49.8838 85.9088 49.3957C85.2445 48.9247 84.5904 48.4472 84.008 47.8749C83.4091 47.2861 82.8654 46.6421 82.3189 46.0046C81.7724 45.367 81.2305 44.7258 80.7227 44.0551C80.2148 43.3844 79.7107 42.6971 79.177 42.0439C78.6434 41.3907 78.0914 40.7476 77.5597 40.0907C77.0279 39.4338 76.4952 38.7871 75.9156 38.1771C75.336 37.5671 74.7481 36.9811 74.1437 36.407C73.5571 35.8384 72.9292 35.3141 72.265 34.8384C71.5853 34.3713 70.8788 33.9446 70.149 33.5605C68.7097 32.7798 67.1739 32.1921 65.5811 31.8125C63.9919 31.4506 62.3604 31.3094 60.7327 31.3929C59.0759 31.4865 57.4287 31.708 55.806 32.0554C54.1426 32.3958 52.4986 32.8263 50.8693 33.3001C49.2399 33.7739 47.5959 34.2937 45.9858 34.8641C44.3924 35.4309 42.821 36.0601 41.257 36.7042C39.6691 37.3555 38.0811 38.0087 36.507 38.6914C34.9328 39.374 33.3615 40.087 31.791 40.7908C30.2472 41.4827 28.697 42.158 27.1624 42.8682C25.5846 43.5978 24.0132 44.3402 22.4281 45.0532C20.8781 45.7488 19.3224 46.4321 17.7608 47.1031C16.2309 47.7627 14.6871 48.3764 13.1148 48.9293C11.5075 49.4951 9.9012 50.0646 8.26726 50.5457C6.70784 51.0057 5.10796 51.394 3.49518 51.6065C2.74901 51.718 1.99301 51.7488 1.24023 51.6985" stroke="white" stroke-width="0.0845276" stroke-miterlimit="10" stroke-linecap="round"/>
<path d="M92.4703 54.006C90.8777 54.2131 89.2668 53.8221 87.8067 53.2001C87.0558 52.8679 86.3283 52.4852 85.6291 52.0547C84.9391 51.6425 84.2601 51.2267 83.6437 50.7106C83.0322 50.185 82.4487 49.6276 81.8957 49.0408C81.3243 48.4474 80.7677 47.8447 80.2268 47.2228C79.6858 46.6009 79.1623 45.9845 78.6011 45.392C78.0399 44.7995 77.4667 44.208 76.9037 43.6127C75.7898 42.4155 74.5996 41.2916 73.3405 40.2482C72.7323 39.7446 72.0901 39.2836 71.4186 38.8682C70.7322 38.4524 70.0119 38.0862 69.2897 37.7384C67.8424 37.0318 66.3225 36.4848 64.7568 36.1073C63.2127 35.7458 61.6256 35.6021 60.0417 35.6804C58.4239 35.7766 56.8154 35.9919 55.2292 36.3244C53.6026 36.651 51.9861 37.0374 50.3844 37.4735C48.7826 37.9096 47.1828 38.3705 45.6003 38.8848C44.0179 39.3991 42.4723 39.9676 40.9285 40.5546C39.3847 41.1415 37.8143 41.7506 36.2668 42.3744C34.7028 43.0018 33.1517 43.6486 31.5969 44.2926C30.0761 44.9219 28.5498 45.5401 27.0382 46.1906C25.4972 46.8539 23.9617 47.5283 22.417 48.1806C20.8723 48.8328 19.3487 49.4612 17.8022 50.0666C16.2897 50.6591 14.7662 51.2019 13.2141 51.683C11.6225 52.1752 10.0309 52.672 8.41902 53.0916C6.87524 53.4936 5.29835 53.8487 3.70857 53.9996C2.98545 54.0677 2.24852 54.1036 1.52539 54.0097" stroke="white" stroke-width="0.0845276" stroke-miterlimit="10" stroke-linecap="round"/>
<path d="M92.0652 56.2713C90.5011 56.5473 88.9307 56.2906 87.4522 55.7487C86.7127 55.4686 85.9883 55.1502 85.2819 54.7947C84.579 54.4497 83.8734 54.1101 83.2202 53.675C81.8981 52.7927 80.7536 51.6731 79.6138 50.5746C79.0351 50.017 78.4573 49.4577 77.8547 48.925C77.2521 48.3923 76.6522 47.867 76.0524 47.3361C74.8757 46.2956 73.6788 45.2725 72.3815 44.3847C71.0843 43.4969 69.6721 42.8014 68.2341 42.1675C66.817 41.5265 65.3408 41.0252 63.8264 40.6707C62.3066 40.3292 60.7488 40.1869 59.1923 40.2475C57.6384 40.3082 56.0928 40.5308 54.5646 40.8124C52.9795 41.1058 51.4071 41.4702 49.845 41.8685C48.2653 42.2706 46.6939 42.7039 45.129 43.1565C43.5953 43.6018 42.0764 44.0949 40.5648 44.611C39.0128 45.141 37.4699 45.6967 35.9307 46.2671C34.4072 46.8264 32.8883 47.3977 31.3693 47.9672C29.8863 48.5192 28.4005 49.0713 26.9248 49.6426C25.3985 50.2342 23.8777 50.8386 22.3514 51.433C20.8527 52.0153 19.3494 52.5866 17.8305 53.1147C16.3336 53.6354 14.823 54.0872 13.2911 54.4947C11.7363 54.9069 10.1806 55.3227 8.61011 55.6723C7.10222 56.01 5.56949 56.3062 4.02296 56.3789C3.32484 56.4224 2.62404 56.3878 1.93359 56.2759" stroke="white" stroke-width="0.0845276" stroke-miterlimit="10" stroke-linecap="round"/>
<path d="M91.5532 58.5002C90.0601 58.8406 88.474 58.7238 87.002 58.3337C86.2617 58.1303 85.5344 57.8821 84.8243 57.5903C84.1186 57.3079 83.402 57.0383 82.7258 56.6924C81.3595 55.9886 80.1313 55.0557 78.9206 54.1164C77.6914 53.1623 76.4522 52.2249 75.189 51.314C73.9525 50.4216 72.705 49.543 71.3756 48.7932C70.7205 48.4252 70.0495 48.0879 69.3626 47.7812C68.6606 47.4693 67.9559 47.1602 67.2466 46.8695C66.5373 46.5787 65.8279 46.3175 65.1039 46.0801C64.3784 45.8495 63.6414 45.6566 62.8958 45.5023C61.4178 45.1782 59.9073 45.0254 58.3942 45.0469C56.8845 45.0782 55.3821 45.2723 53.8935 45.5125C52.3599 45.759 50.8419 46.0644 49.3303 46.426C47.8187 46.7876 46.2942 47.1822 44.7818 47.576C43.2831 47.9661 41.7908 48.3737 40.3078 48.8153C38.7907 49.267 37.2818 49.7454 35.7776 50.2376C34.2872 50.7283 32.7983 51.2208 31.311 51.7152C29.8472 52.2028 28.3826 52.6885 26.9234 53.1918C25.4376 53.7042 23.9537 54.224 22.4651 54.73C20.9765 55.236 19.4944 55.7255 17.992 56.1708C17.2505 56.3916 16.5043 56.6023 15.7545 56.7955C15.0259 56.9795 14.2926 57.1423 13.5585 57.3061C12.0358 57.6446 10.5123 57.985 8.97588 58.2546C7.50386 58.5131 5.99044 58.7035 4.48991 58.698C3.80507 58.7063 3.1214 58.6393 2.45117 58.4984" stroke="white" stroke-width="0.0845276" stroke-miterlimit="10" stroke-linecap="round"/>
<path d="M90.932 60.6787C89.494 61.0826 87.9567 61.0798 86.4856 60.8765C85.7559 60.7663 85.0343 60.6083 84.3254 60.4036C83.6059 60.2049 82.8801 60.0099 82.1781 59.7532C80.7788 59.2417 79.4724 58.5176 78.1954 57.7567C76.9184 56.9959 75.6479 56.1927 74.3516 55.4567C73.0553 54.7207 71.782 53.9847 70.4388 53.3683C69.0955 52.7519 67.7137 52.2514 66.3263 51.7555C65.629 51.5062 64.927 51.2679 64.2158 51.0618C63.5046 50.8557 62.7778 50.6938 62.0501 50.5439C60.5993 50.2458 59.1282 50.0277 57.6451 50.013C56.2034 49.9992 54.7627 50.162 53.3367 50.3608C51.8591 50.5659 50.3844 50.8051 48.9206 51.0968C47.4348 51.3967 45.9582 51.7408 44.4816 52.0821C43.005 52.4235 41.5376 52.762 40.0729 53.1319C38.6082 53.5017 37.1371 53.9001 35.678 54.3159C34.2189 54.7318 32.7551 55.1439 31.2942 55.5635C29.8571 55.9738 28.4216 56.3915 26.9876 56.8165C25.5248 57.2508 24.0629 57.6868 22.5945 58.1045C21.14 58.5185 19.68 58.916 18.2089 59.2711C16.7608 59.6216 15.3035 59.9086 13.8342 60.157C12.3512 60.4073 10.8672 60.6603 9.37124 60.8231C7.9305 60.9795 6.45942 61.0651 5.01132 60.9768C4.35427 60.9468 3.70228 60.8469 3.06641 60.6787" stroke="white" stroke-width="0.0845276" stroke-miterlimit="10" stroke-linecap="round"/>
<path d="M90.2093 62.8171C88.8495 63.2771 87.406 63.4151 85.9773 63.4022C85.2403 63.3908 84.5048 63.3309 83.7757 63.2228C83.059 63.1216 82.3423 62.9993 81.6357 62.8401C80.2244 62.5218 78.8637 62.0231 77.5334 61.4601C76.2031 60.897 74.9132 60.2503 73.5958 59.6605C72.2783 59.0708 70.9811 58.4921 69.6397 57.9852C68.2983 57.4783 66.9174 57.044 65.5319 56.642C64.1524 56.2303 62.752 55.8925 61.3366 55.63C59.9344 55.3646 58.5175 55.1843 57.0935 55.09C55.6776 55.0108 54.2618 55.1249 52.8532 55.2638C51.4226 55.4055 49.9929 55.6097 48.5733 55.8324C47.1261 56.0587 45.6863 56.3274 44.2493 56.608C42.8122 56.8886 41.366 57.1719 39.9252 57.4774C38.4845 57.7828 37.0355 58.1076 35.6012 58.4526C34.1669 58.7976 32.7491 59.1306 31.3213 59.4756C29.9266 59.8136 28.5324 60.1524 27.1389 60.4922C25.712 60.8428 24.2869 61.1878 22.8508 61.5107C21.4146 61.8336 19.9821 62.1335 18.5387 62.3957C17.1145 62.6546 15.6833 62.864 14.245 63.0241C12.8006 63.186 11.3525 63.3277 9.89884 63.3783C8.49767 63.428 7.07717 63.4096 5.68703 63.221C5.04287 63.1447 4.40739 63.0076 3.78906 62.8116" stroke="white" stroke-width="0.0845276" stroke-miterlimit="10" stroke-linecap="round"/>
<path d="M89.3867 64.9055C88.0716 65.4183 86.6943 65.7542 85.2908 65.9046C83.8723 66.0521 82.4421 66.0469 81.0247 65.8889C79.6266 65.7331 78.2425 65.4701 76.8847 65.1023C75.547 64.7453 74.247 64.2872 72.9443 63.8226C71.6415 63.358 70.3287 62.9136 69.0048 62.5097C67.6809 62.1059 66.3267 61.7333 64.9696 61.4149C63.6126 61.0966 62.2289 60.8261 60.8425 60.6182C59.456 60.4103 58.0337 60.2631 56.6205 60.1913C55.2323 60.1214 53.8421 60.1315 52.4538 60.2005C51.0655 60.2695 49.6634 60.3937 48.2733 60.5483C46.8684 60.7047 45.4663 60.8933 44.0679 61.1003C42.6695 61.3073 41.2472 61.5446 39.8405 61.7921C38.4338 62.0396 37.0197 62.3018 35.6084 62.5714C34.1971 62.8409 32.8226 63.1142 31.4307 63.393C30.0387 63.6717 28.6706 63.9514 27.2906 64.221C25.8867 64.497 24.4781 64.7509 23.065 64.979C21.6519 65.2072 20.2323 65.4114 18.809 65.577C17.4023 65.7408 15.9911 65.8687 14.577 65.945C13.1909 66.0232 11.8018 66.0315 10.4149 65.9699C9.06684 65.9191 7.72615 65.7467 6.40914 65.4547C5.79789 65.3146 5.19767 65.1301 4.61328 64.9027" stroke="white" stroke-width="0.0845276" stroke-miterlimit="10" stroke-linecap="round"/>
<path d="M88.464 66.9435C87.2352 67.5143 85.9537 67.9639 84.6376 68.2857C83.306 68.6077 81.9436 68.7851 80.5739 68.8147C79.1908 68.8284 77.8082 68.7568 76.4339 68.6004C75.085 68.4577 73.7477 68.2207 72.4319 67.8911C71.1438 67.5654 69.8613 67.2195 68.5632 66.9361C67.2283 66.6454 65.8952 66.3555 64.5511 66.0915C63.2069 65.8275 61.8692 65.6315 60.514 65.4889C59.824 65.4144 59.134 65.3435 58.4394 65.2902C57.7448 65.2368 57.0594 65.2138 56.3749 65.1918C55.0105 65.1476 53.6452 65.1697 52.2799 65.1632C50.9306 65.1577 49.5812 65.1884 48.2319 65.2552C46.8519 65.3279 45.4719 65.4558 44.0919 65.5892C42.7118 65.7226 41.3392 65.8882 39.9675 66.0796C38.5957 66.2709 37.2139 66.4715 35.8384 66.6739C34.463 66.8763 33.0849 67.0768 31.7094 67.2894C30.3524 67.5 28.9954 67.7199 27.6366 67.9196C26.2578 68.1208 24.8741 68.2867 23.4855 68.4173C22.0969 68.548 20.7074 68.6467 19.3169 68.7135C17.9314 68.7789 16.5422 68.8212 15.1557 68.812C13.7951 68.8018 12.4366 68.7016 11.0892 68.5121C9.786 68.3397 8.50185 68.0452 7.25373 67.6325C6.6686 67.4338 6.09728 67.1955 5.53516 66.9398" stroke="white" stroke-width="0.0845276" stroke-miterlimit="10" stroke-linecap="round"/>
<path d="M87.4493 68.9268C86.2742 69.5492 85.055 70.0845 83.8015 70.5285C82.5444 70.9767 81.2479 71.3053 79.9292 71.5102C79.2787 71.6022 78.62 71.6436 77.9659 71.6942C77.2869 71.7438 76.607 71.7862 75.9271 71.8092C74.5913 71.8704 73.2528 71.8381 71.9214 71.7125C71.2949 71.6472 70.672 71.5451 70.0483 71.4558C69.4043 71.3638 68.7547 71.2718 68.107 71.1872C66.7767 71.0142 65.4455 70.8532 64.116 70.6702C63.4546 70.5781 62.794 70.4806 62.1307 70.4034C61.4673 70.3261 60.8242 70.2782 60.1692 70.2387C58.8361 70.1595 57.5012 70.0869 56.1626 70.062C54.8092 70.0372 53.455 70.0685 52.1016 70.0721C50.7759 70.0721 49.4511 70.0455 48.1253 70.0547C46.7812 70.0639 45.4389 70.1301 44.0957 70.1853C42.7525 70.2405 41.3955 70.3104 40.0476 70.4438C38.6869 70.5782 37.3272 70.7198 35.9665 70.856C34.6205 70.9876 33.2727 71.098 31.9258 71.224C30.5789 71.35 29.2467 71.4816 27.9072 71.604C26.5677 71.7264 25.2051 71.8018 23.8509 71.8248C22.4966 71.8478 21.1313 71.8312 19.7725 71.7834C18.4311 71.7355 17.087 71.673 15.7465 71.5773C14.4431 71.4745 13.1506 71.2627 11.8825 70.9443C10.6352 70.6518 9.41603 70.2501 8.23921 69.7437C7.66788 69.4926 7.10761 69.2184 6.55469 68.9304" stroke="white" stroke-width="0.0845276" stroke-miterlimit="10" stroke-linecap="round"/>
<path d="M86.3413 70.853C85.2327 71.511 84.089 72.1078 82.9152 72.6406C81.7343 73.1828 80.5132 73.6324 79.2627 73.9856C78.6528 74.1522 78.0318 74.2616 77.4107 74.373C76.7667 74.4916 76.1283 74.6076 75.4852 74.7161C74.1861 74.9498 72.8748 75.1099 71.5576 75.1955C70.288 75.2645 69.0138 75.1761 67.7442 75.1412C66.4396 75.1053 65.135 75.0796 63.8305 75.0142C62.5259 74.9489 61.2223 74.8127 59.9149 74.7732C58.6076 74.7336 57.2947 74.7483 55.9846 74.7382C54.6589 74.7272 53.3341 74.7566 52.0083 74.7713C50.6973 74.787 49.3863 74.7778 48.0744 74.7575C46.7624 74.7373 45.445 74.7428 44.1303 74.7391C42.8156 74.7354 41.5083 74.7391 40.1982 74.787C38.8724 74.833 37.5485 74.9397 36.2228 74.9949C34.8971 75.0501 33.5759 75.0869 32.252 75.1127C30.9281 75.1384 29.6162 75.1642 28.296 75.1946C27.6409 75.2093 26.9859 75.2295 26.3309 75.2212C25.6611 75.212 24.9913 75.1835 24.3225 75.1403C22.9967 75.0547 21.6756 74.9093 20.3581 74.7391C19.0407 74.5689 17.7352 74.3923 16.426 74.2037C15.171 74.0134 13.9382 73.6981 12.746 73.2625C11.5537 72.8432 10.3928 72.3397 9.27202 71.7556C8.72737 71.4685 8.191 71.1649 7.66016 70.853" stroke="white" stroke-width="0.0845276" stroke-miterlimit="10" stroke-linecap="round"/>
<path d="M85.1449 72.7192C84.0841 73.4203 82.9985 74.0855 81.8835 74.6954C80.7634 75.3211 79.5993 75.8644 78.4003 76.3211C77.8235 76.5346 77.2346 76.7001 76.6431 76.8667C76.0276 77.0387 75.4139 77.2172 74.8031 77.3911C73.5555 77.7434 72.3025 78.0838 71.031 78.3276C70.4101 78.4504 69.783 78.5389 69.1524 78.5926C68.5516 78.6405 67.9481 78.6727 67.3473 78.7168C66.0703 78.8088 64.7934 78.9063 63.5145 78.9707C62.2357 79.0351 60.9385 79.0581 59.6505 79.0315C58.3809 79.0048 57.1104 79.0314 55.8417 79.0692C54.5352 79.1069 53.2297 79.1612 51.9233 79.1925C50.6408 79.2265 49.3593 79.2403 48.0768 79.2191C46.7943 79.198 45.5007 79.1492 44.2127 79.1078C42.9247 79.0664 41.6459 79.0296 40.3625 79.0223C39.0791 79.0149 37.7782 79.059 36.4865 79.0406C35.1948 79.0222 33.904 78.967 32.6141 78.8962C31.3243 78.8254 30.0216 78.7398 28.7244 78.6699C28.0859 78.6358 27.4446 78.6165 26.8071 78.5687C26.1695 78.5208 25.519 78.4436 24.8806 78.3479C23.5925 78.1538 22.3192 77.8796 21.0505 77.5852C19.7818 77.2908 18.5168 76.9826 17.2454 76.7048C16.0224 76.4291 14.8317 76.0254 13.6932 75.5004C12.5515 74.9717 11.4452 74.3697 10.3812 73.6981C9.86874 73.3798 9.36365 73.0541 8.86133 72.7192" stroke="white" stroke-width="0.0845276" stroke-miterlimit="10" stroke-linecap="round"/>
<path d="M83.8624 74.5231C82.8578 75.2637 81.8384 75.985 80.785 76.652C79.7191 77.328 78.6131 77.9385 77.473 78.48C76.921 78.7413 76.3561 78.9658 75.7857 79.1829C75.2152 79.4001 74.6237 79.6429 74.0376 79.8619C72.8723 80.3072 71.6941 80.7154 70.503 81.0864C69.9068 81.2704 69.307 81.4407 68.6979 81.5842C68.1192 81.7213 67.5313 81.8059 66.9499 81.9062C65.7079 82.1196 64.4659 82.334 63.2146 82.4895C61.9634 82.6449 60.7002 82.8188 59.4343 82.9099C58.8234 82.954 58.2098 82.9642 57.5943 82.9854C56.9622 83.0074 56.3302 83.0378 55.6982 83.0663C54.4212 83.1252 53.1442 83.1905 51.8663 83.2503C50.5884 83.3101 49.3142 83.3589 48.0382 83.3423C46.7621 83.3257 45.5044 83.2742 44.2394 83.207C42.9744 83.1399 41.6892 83.0847 40.4131 83.0304C39.137 82.9761 37.8509 82.9743 36.5739 82.8749C35.3153 82.7765 34.065 82.6164 32.8111 82.4794C31.5571 82.3423 30.304 82.1481 29.0528 81.9623C28.4272 81.8703 27.7979 81.7995 27.1732 81.701C26.5486 81.6026 25.9413 81.4664 25.3332 81.3183C24.7251 81.1702 24.1068 80.9926 23.4932 80.816C22.8796 80.6393 22.2723 80.4654 21.6688 80.264C20.4728 79.8638 19.2906 79.4184 18.0854 79.044C16.9125 78.6632 15.779 78.1702 14.7007 77.572C13.6156 76.9811 12.5707 76.3195 11.5726 75.5912C11.0878 75.2407 10.6149 74.8727 10.1328 74.5176" stroke="white" stroke-width="0.0845276" stroke-miterlimit="10" stroke-linecap="round"/>
<path d="M82.4955 76.2612C81.5515 77.035 80.592 77.7921 79.5938 78.4959C78.5955 79.1997 77.5385 79.876 76.4657 80.485C75.4169 81.0858 74.3138 81.589 73.2255 82.1107C72.6633 82.3821 72.0984 82.6489 71.5244 82.8945C70.9659 83.1346 70.3982 83.3545 69.8334 83.5753C69.2685 83.7961 68.6879 84.0252 68.1065 84.2267C67.549 84.4208 66.9841 84.579 66.4119 84.7253C65.2232 85.0298 64.041 85.3693 62.8385 85.6159C62.2414 85.7392 61.6425 85.8441 61.0399 85.9582C60.4254 86.0759 59.8099 86.1918 59.1916 86.2903C57.9956 86.4816 56.7812 86.5663 55.5714 86.6657C54.3266 86.7678 53.0809 86.8607 51.8343 86.9315C50.5877 87.0023 49.3107 87.0511 48.0484 87.0603C46.7862 87.0695 45.535 87.0327 44.2764 86.9683C43.0178 86.9039 41.7565 86.8174 40.4979 86.7199C39.8677 86.6721 39.2384 86.6206 38.6082 86.5709C37.978 86.5212 37.3552 86.4789 36.7314 86.4034C35.5023 86.2544 34.2888 86.0005 33.0698 85.7861C32.457 85.6785 31.8471 85.5708 31.2408 85.4338C30.6345 85.2967 30.0374 85.1449 29.4376 84.9967C28.8377 84.8486 28.2277 84.7208 27.6242 84.5782C27.0345 84.4339 26.4526 84.2595 25.8808 84.0556C25.2929 83.8504 24.7124 83.6259 24.1328 83.4116C23.5532 83.1972 22.9782 82.993 22.4124 82.7519C21.2725 82.2671 20.1675 81.705 19.024 81.2265C17.9061 80.7583 16.8555 80.1456 15.8324 79.4988C15.3182 79.1722 14.8048 78.8428 14.3098 78.4868C13.8149 78.1307 13.342 77.7627 12.8709 77.3828C12.3999 77.0028 11.9583 76.6348 11.502 76.2612" stroke="white" stroke-width="0.0845276" stroke-miterlimit="10" stroke-linecap="round"/>
<path d="M81.0515 77.9298C80.1582 78.7403 79.24 79.5242 78.2915 80.2648C77.3429 81.0054 76.3346 81.7258 75.3152 82.3946C74.3106 83.0543 73.2673 83.6541 72.2166 84.2347C71.166 84.8152 70.1006 85.346 69.0159 85.852C67.9448 86.3652 66.8465 86.8198 65.726 87.2136C64.5907 87.5973 63.46 87.9874 62.309 88.3177C61.1581 88.6479 59.9924 88.9267 58.825 89.1769C57.6575 89.4272 56.4642 89.6158 55.27 89.7713C54.0611 89.9295 52.8458 90.0647 51.6296 90.1503C50.4133 90.2359 49.1768 90.2874 47.9495 90.2957C46.7222 90.304 45.4958 90.2957 44.2695 90.2349C43.0431 90.1742 41.8259 90.0822 40.6069 89.9479C39.3879 89.8136 38.1698 89.6719 36.9627 89.4714C35.7741 89.2699 34.6011 88.9865 33.4308 88.6995C32.8466 88.5559 32.2643 88.4152 31.6883 88.2394C31.1124 88.0637 30.5328 87.8917 29.9606 87.7022C29.3883 87.5127 28.8133 87.3231 28.2383 87.1354C27.6633 86.9478 27.1205 86.7233 26.5703 86.4914C26.0201 86.2596 25.4663 86.0121 24.9207 85.7554C24.3752 85.4987 23.825 85.2623 23.2905 84.9872C22.226 84.4352 21.1956 83.8289 20.1404 83.264C19.0909 82.6866 18.0826 82.0374 17.1227 81.321C16.1475 80.6098 15.1907 79.8784 14.2799 79.0899C13.8328 78.7047 13.3912 78.3135 12.9551 77.916" stroke="white" stroke-width="0.0845276" stroke-miterlimit="10" stroke-linecap="round"/>
<defs>
<filter id="filter0_f_16321_22918" x="34.5235" y="43.5239" width="6.04684" height="6.04684" filterUnits="userSpaceOnUse" color-interpolation-filters="sRGB">
<feFlood flood-opacity="0" result="BackgroundImageFix"/>
<feBlend mode="normal" in="SourceGraphic" in2="BackgroundImageFix" result="shape"/>
<feGaussianBlur stdDeviation="0.755852" result="effect1_foregroundBlur_16321_22918"/>
</filter>
<filter id="filter1_f_16321_22918" x="64.5235" y="22.5239" width="6.04684" height="6.04684" filterUnits="userSpaceOnUse" color-interpolation-filters="sRGB">
<feFlood flood-opacity="0" result="BackgroundImageFix"/>
<feBlend mode="normal" in="SourceGraphic" in2="BackgroundImageFix" result="shape"/>
<feGaussianBlur stdDeviation="0.755852" result="effect1_foregroundBlur_16321_22918"/>
</filter>
<filter id="filter2_f_16321_22918" x="65.5235" y="54.5239" width="6.04684" height="6.04684" filterUnits="userSpaceOnUse" color-interpolation-filters="sRGB">
<feFlood flood-opacity="0" result="BackgroundImageFix"/>
<feBlend mode="normal" in="SourceGraphic" in2="BackgroundImageFix" result="shape"/>
<feGaussianBlur stdDeviation="0.755852" result="effect1_foregroundBlur_16321_22918"/>
</filter>
<filter id="filter3_f_16321_22918" x="44.5235" y="71.5239" width="6.04684" height="6.04684" filterUnits="userSpaceOnUse" color-interpolation-filters="sRGB">
<feFlood flood-opacity="0" result="BackgroundImageFix"/>
<feBlend mode="normal" in="SourceGraphic" in2="BackgroundImageFix" result="shape"/>
<feGaussianBlur stdDeviation="0.755852" result="effect1_foregroundBlur_16321_22918"/>
</filter>
<filter id="filter4_f_16321_22918" x="21.5235" y="65.5239" width="6.04684" height="6.04684" filterUnits="userSpaceOnUse" color-interpolation-filters="sRGB">
<feFlood flood-opacity="0" result="BackgroundImageFix"/>
<feBlend mode="normal" in="SourceGraphic" in2="BackgroundImageFix" result="shape"/>
<feGaussianBlur stdDeviation="0.755852" result="effect1_foregroundBlur_16321_22918"/>
</filter>
<filter id="filter5_f_16321_22918" x="18.5235" y="14.5239" width="6.04684" height="6.04684" filterUnits="userSpaceOnUse" color-interpolation-filters="sRGB">
<feFlood flood-opacity="0" result="BackgroundImageFix"/>
<feBlend mode="normal" in="SourceGraphic" in2="BackgroundImageFix" result="shape"/>
<feGaussianBlur stdDeviation="0.755852" result="effect1_foregroundBlur_16321_22918"/>
</filter>
<filter id="filter6_f_16321_22918" x="44.5235" y="11.5239" width="6.04684" height="6.04684" filterUnits="userSpaceOnUse" color-interpolation-filters="sRGB">
<feFlood flood-opacity="0" result="BackgroundImageFix"/>
<feBlend mode="normal" in="SourceGraphic" in2="BackgroundImageFix" result="shape"/>
<feGaussianBlur stdDeviation="0.755852" result="effect1_foregroundBlur_16321_22918"/>
</filter>
</defs>
</svg>
